<?xml version="1.0" encoding="UTF-8" standalone="no"?>
<svg
   xmlns:ns4="http://www.iki.fi/pav/software/textext/"
   xmlns:dc="http://purl.org/dc/elements/1.1/"
   xmlns:cc="http://creativecommons.org/ns#"
   xmlns:rdf="http://www.w3.org/1999/02/22-rdf-syntax-ns#"
   xmlns:svg="http://www.w3.org/2000/svg"
   xmlns="http://www.w3.org/2000/svg"
   xmlns:sodipodi="http://sodipodi.sourceforge.net/DTD/sodipodi-0.dtd"
   xmlns:inkscape="http://www.inkscape.org/namespaces/inkscape"
   width="75.98494mm"
   height="25.573288mm"
   version="1.1"
   viewBox="0 0 75.98494 25.573289"
   id="svg499"
   sodipodi:docname="remove_rand_pos.svg"
   inkscape:version="0.92.3 (2405546, 2018-03-11)">
  <metadata
     id="metadata503">
    <rdf:RDF>
      <cc:Work
         rdf:about="">
        <dc:format>image/svg+xml</dc:format>
        <dc:type
           rdf:resource="http://purl.org/dc/dcmitype/StillImage" />
      </cc:Work>
    </rdf:RDF>
  </metadata>
  <sodipodi:namedview
     pagecolor="#ffffff"
     bordercolor="#666666"
     borderopacity="1"
     objecttolerance="10"
     gridtolerance="10"
     guidetolerance="10"
     inkscape:pageopacity="0"
     inkscape:pageshadow="2"
     inkscape:window-width="1920"
     inkscape:window-height="1052"
     id="namedview501"
     showgrid="false"
     inkscape:zoom="3.5651882"
     inkscape:cx="125.09258"
     inkscape:cy="37.072649"
     inkscape:window-x="0"
     inkscape:window-y="0"
     inkscape:window-maximized="1"
     inkscape:current-layer="svg499" />
  <defs
     id="defs5">
    <marker
       id="TriangleOutL"
       overflow="visible"
       orient="auto"
       style="overflow:visible">
      <path
         transform="scale(0.8)"
         d="M 5.77,0 -2.88,5 V -5 Z"
         id="path2"
         inkscape:connector-curvature="0"
         style="fill-rule:evenodd;stroke:#000000;stroke-width:1.00000003pt" />
    </marker>
  </defs>
  <text
     id="text9"
     xml:space="preserve"
     style="font-size:25.39999962px;line-height:1.25;font-family:'Press Gothic';stroke-width:0.26458001"
     font-size="25.4px"
     y="-12.126726"
     x="312.28482"><tspan
       style="stroke-width:0.26458001"
       id="tspan7"
       y="10.346319"
       x="312.28482" /></text>
  <g
     id="g11"
     transform="matrix(0.43858,0,0,-0.43858,-247.41176,-76.84232)" />
  <path
     style="fill:none;stroke:#000000;stroke-width:0.25600001;marker-end:url(#TriangleOutL)"
     inkscape:connector-curvature="0"
     id="path13"
     d="m 37.991236,11.857847 v 4.9689" />
  <g
     id="g83"
     ns4:version="1.3.0"
     ns4:text="Positions to remove"
     ns4:texconverter="pdflatex"
     ns4:scale="0.7710482593305592"
     ns4:preamble="C:\Users\jfato\AppData\Roaming\inkscape\extensions\textext\default_packages.tex"
     ns4:pdfconverter="inkscape"
     ns4:jacobian_sqrt="0.272009"
     ns4:inkscapeversion="1.0.1"
     ns4:alignment="middle center"
     transform="matrix(0.27201,0,0,0.27201,26.441236,6.80025e-4)">
    <defs
       id="id-a874eae2-1462-4b58-819d-76f3c71e9ccf" />
    <g
       id="g81"
       transform="translate(-149.06,-127.95)">
      <g
         id="g18"
         transform="translate(148.71,134.76)">
        <path
           inkscape:connector-curvature="0"
           id="path16"
           d="m 2.2656,-3.1562 h 1.6875 c 1.1875,0 2.2656,-0.79688 2.2656,-1.7969 0,-0.98438 -0.98438,-1.8594 -2.3438,-1.8594 H 0.3437 V -6.5 h 0.25 c 0.76562,0 0.78125,0.10938 0.78125,0.46875 v 5.25 c 0,0.35938 -0.015625,0.46875 -0.78125,0.46875 h -0.25 V 0 c 0.35938,-0.03125 1.0938,-0.03125 1.4688,-0.03125 0.375,0 1.125,0 1.4844,0.03125 v -0.3125 h -0.25 c -0.76562,0 -0.78125,-0.10938 -0.78125,-0.46875 z m -0.03125,-0.25 v -2.6875 c 0,-0.34375 0.015625,-0.40625 0.48438,-0.40625 h 0.89062 c 1.5781,0 1.5781,1.0625 1.5781,1.5469 0,0.46875 0,1.5469 -1.5781,1.5469 z" />
      </g>
      <g
         id="id-2359493d-f095-42e5-bc42-e3b4162a5b2d">
        <g
           id="g21"
           transform="translate(155.21,134.76)">
          <path
             inkscape:connector-curvature="0"
             d="m 4.6875,-2.1406 c 0,-1.2656 -0.98438,-2.3281 -2.1875,-2.3281 -1.25,0 -2.2188,1.0938 -2.2188,2.3281 0,1.2969 1.0312,2.25 2.2031,2.25 1.2031,0 2.2031,-0.98438 2.2031,-2.25 z m -2.1875,2 c -0.4375,0 -0.875,-0.20312 -1.1406,-0.67188 -0.25,-0.4375 -0.25,-1.0469 -0.25,-1.4062 0,-0.39062 0,-0.92188 0.23438,-1.3594 0.26562,-0.45312 0.73438,-0.67188 1.1406,-0.67188 0.4375,0 0.85938,0.21875 1.125,0.65625 0.26562,0.42188 0.26562,1 0.26562,1.375 0,0.35938 0,0.90625 -0.21875,1.3438 -0.23438,0.45312 -0.67188,0.73438 -1.1562,0.73438 z"
             id="id-cf5186f2-5e37-4aa3-9578-5e7f3234a99e" />
        </g>
        <g
           id="g25"
           transform="translate(160.2,134.76)">
          <path
             inkscape:connector-curvature="0"
             id="path23"
             d="m 2.0781,-1.9375 c 0.21875,0.046875 1.0312,0.20312 1.0312,0.92188 0,0.5 -0.34375,0.90625 -1.125,0.90625 -0.84375,0 -1.2031,-0.5625 -1.3906,-1.4219 -0.03125,-0.125 -0.03125,-0.15625 -0.14062,-0.15625 -0.125,0 -0.125,0.0625 -0.125,0.23438 v 1.3281 c 0,0.17188 0,0.23438 0.10938,0.23438 0.046875,0 0.0625,-0.015625 0.25,-0.20312 0.015625,-0.015625 0.015625,-0.03125 0.20312,-0.21875 0.4375,0.40625 0.89062,0.42188 1.0938,0.42188 1.1406,0 1.6094,-0.67188 1.6094,-1.3906 0,-0.51562 -0.29688,-0.82812 -0.42188,-0.9375 C 2.84378,-2.54687 2.45315,-2.625 2.0313,-2.70313 1.4688,-2.81251 0.8125,-2.93751 0.8125,-3.51563 c 0,-0.35938 0.25,-0.76562 1.1094,-0.76562 1.0938,0 1.1562,0.90625 1.1719,1.2031 0,0.09375 0.09375,0.09375 0.10938,0.09375 0.14062,0 0.14062,-0.046875 0.14062,-0.23438 v -1.0156 c 0,-0.15625 0,-0.23438 -0.10938,-0.23438 -0.046875,0 -0.078125,0 -0.20312,0.125 -0.03125,0.03125 -0.125,0.125 -0.17188,0.15625 -0.375,-0.28125 -0.78125,-0.28125 -0.9375,-0.28125 -1.2188,0 -1.5938,0.67188 -1.5938,1.2344 0,0.34375 0.15625,0.625 0.42188,0.84375 0.32812,0.25 0.60938,0.3125 1.3281,0.45312 z" />
        </g>
        <g
           id="g28"
           transform="translate(164.12,134.76)">
          <path
             inkscape:connector-curvature="0"
             d="M 1.7656,-4.4062 0.375,-4.29682 v 0.3125 c 0.64062,0 0.73438,0.0625 0.73438,0.54688 v 2.6875 c 0,0.4375 -0.10938,0.4375 -0.78125,0.4375 V 6e-5 c 0.3125,-0.015625 0.85938,-0.03125 1.0938,-0.03125 0.35938,0 0.70312,0.015625 1.0469,0.03125 v -0.3125 c -0.67188,0 -0.70312,-0.046875 -0.70312,-0.4375 z m 0.03125,-1.7344 c 0,-0.3125 -0.23438,-0.53125 -0.51562,-0.53125 -0.3125,0 -0.53125,0.26562 -0.53125,0.53125 0,0.26563 0.21875,0.53125 0.53125,0.53125 0.28125,0 0.51562,-0.21875 0.51562,-0.53125 z"
             id="id-bf0ca746-773b-4a2a-aeb3-ebfe4950ce0c" />
        </g>
        <g
           id="g32"
           transform="translate(166.89,134.76)">
          <path
             inkscape:connector-curvature="0"
             id="path30"
             d="M 1.7188,-3.9844 H 3.1563 V -4.2969 H 1.7188 V -6.125 h -0.25 c 0,0.8125 -0.29688,1.875 -1.2812,1.9219 v 0.21875 h 0.84375 v 2.75 c 0,1.2188 0.9375,1.3438 1.2969,1.3438 0.70312,0 0.98438,-0.70312 0.98438,-1.3438 v -0.5625 h -0.25 v 0.54688 c 0,0.73438 -0.29688,1.1094 -0.67188,1.1094 -0.67188,0 -0.67188,-0.90625 -0.67188,-1.0781 z" />
        </g>
        <g
           id="g35"
           transform="translate(170.77,134.76)">
          <path
             inkscape:connector-curvature="0"
             d="M 1.7656,-4.4062 0.375,-4.29682 v 0.3125 c 0.64062,0 0.73438,0.0625 0.73438,0.54688 v 2.6875 c 0,0.4375 -0.10938,0.4375 -0.78125,0.4375 V 6e-5 c 0.3125,-0.015625 0.85938,-0.03125 1.0938,-0.03125 0.35938,0 0.70312,0.015625 1.0469,0.03125 v -0.3125 c -0.67188,0 -0.70312,-0.046875 -0.70312,-0.4375 z m 0.03125,-1.7344 c 0,-0.3125 -0.23438,-0.53125 -0.51562,-0.53125 -0.3125,0 -0.53125,0.26562 -0.53125,0.53125 0,0.26563 0.21875,0.53125 0.53125,0.53125 0.28125,0 0.51562,-0.21875 0.51562,-0.53125 z"
             id="id-95ef4228-bf19-4e3f-adc7-d41cebf844ec" />
        </g>
        <g
           id="g39"
           transform="translate(173.53,134.76)">
          <path
             inkscape:connector-curvature="0"
             id="path37"
             d="m 4.6875,-2.1406 c 0,-1.2656 -0.98438,-2.3281 -2.1875,-2.3281 -1.25,0 -2.2188,1.0938 -2.2188,2.3281 0,1.2969 1.0312,2.25 2.2031,2.25 1.2031,0 2.2031,-0.98438 2.2031,-2.25 z m -2.1875,2 c -0.4375,0 -0.875,-0.20312 -1.1406,-0.67188 -0.25,-0.4375 -0.25,-1.0469 -0.25,-1.4062 0,-0.39062 0,-0.92188 0.23438,-1.3594 0.26562,-0.45312 0.73438,-0.67188 1.1406,-0.67188 0.4375,0 0.85938,0.21875 1.125,0.65625 0.26562,0.42188 0.26562,1 0.26562,1.375 0,0.35938 0,0.90625 -0.21875,1.3438 -0.23438,0.45312 -0.67188,0.73438 -1.1562,0.73438 z" />
        </g>
        <g
           id="g42"
           transform="translate(178.52,134.76)">
          <path
             inkscape:connector-curvature="0"
             d="M 1.0938,-3.4219 V -0.75 c 0,0.4375 -0.10938,0.4375 -0.78125,0.4375 V 0 c 0.35938,-0.015625 0.85938,-0.03125 1.1406,-0.03125 0.25,0 0.76562,0.015625 1.1094,0.03125 v -0.3125 c -0.67188,0 -0.78125,0 -0.78125,-0.4375 v -1.8438 c 0,-1.0312 0.71875,-1.5938 1.3438,-1.5938 0.64062,0 0.75,0.53125 0.75,1.1094 v 2.3281 c 0,0.4375 -0.10938,0.4375 -0.78125,0.4375 v 0.3125 c 0.34375,-0.015625 0.85938,-0.03125 1.125,-0.03125 0.25,0 0.78125,0.015625 1.1094,0.03125 v -0.3125 c -0.51562,0 -0.76562,0 -0.76562,-0.29688 v -1.9062 c 0,-0.85938 0,-1.1562 -0.3125,-1.5156 -0.14062,-0.17188 -0.46875,-0.375 -1.0469,-0.375 -0.73438,0 -1.2031,0.42188 -1.4844,1.0469 v -1.0469 l -1.4062,0.10938 v 0.3125 c 0.70312,0 0.78125,0.0625 0.78125,0.5625 z"
             id="id-2606458e-0d15-48e4-88f0-4d1ebc66515c" />
        </g>
        <g
           id="g45"
           transform="translate(184.05,134.76)">
          <path
             inkscape:connector-curvature="0"
             d="m 2.0781,-1.9375 c 0.21875,0.046875 1.0312,0.20312 1.0312,0.92188 0,0.5 -0.34375,0.90625 -1.125,0.90625 -0.84375,0 -1.2031,-0.5625 -1.3906,-1.4219 -0.03125,-0.125 -0.03125,-0.15625 -0.14062,-0.15625 -0.125,0 -0.125,0.0625 -0.125,0.23438 v 1.3281 c 0,0.17188 0,0.23438 0.10938,0.23438 0.046875,0 0.0625,-0.015625 0.25,-0.20312 0.015625,-0.015625 0.015625,-0.03125 0.20312,-0.21875 0.4375,0.40625 0.89062,0.42188 1.0938,0.42188 1.1406,0 1.6094,-0.67188 1.6094,-1.3906 0,-0.51562 -0.29688,-0.82812 -0.42188,-0.9375 C 2.84378,-2.54687 2.45315,-2.625 2.0313,-2.70313 1.4688,-2.81251 0.8125,-2.93751 0.8125,-3.51563 c 0,-0.35938 0.25,-0.76562 1.1094,-0.76562 1.0938,0 1.1562,0.90625 1.1719,1.2031 0,0.09375 0.09375,0.09375 0.10938,0.09375 0.14062,0 0.14062,-0.046875 0.14062,-0.23438 v -1.0156 c 0,-0.15625 0,-0.23438 -0.10938,-0.23438 -0.046875,0 -0.078125,0 -0.20312,0.125 -0.03125,0.03125 -0.125,0.125 -0.17188,0.15625 -0.375,-0.28125 -0.78125,-0.28125 -0.9375,-0.28125 -1.2188,0 -1.5938,0.67188 -1.5938,1.2344 0,0.34375 0.15625,0.625 0.42188,0.84375 0.32812,0.25 0.60938,0.3125 1.3281,0.45312 z"
             id="id-221b5200-d83d-4df3-ba18-036339f7473a" />
        </g>
      </g>
      <g
         id="g49"
         transform="translate(191.31,134.76)">
        <path
           inkscape:connector-curvature="0"
           d="M 1.7188,-3.9844 H 3.1563 V -4.2969 H 1.7188 V -6.125 h -0.25 c 0,0.8125 -0.29688,1.875 -1.2812,1.9219 v 0.21875 h 0.84375 v 2.75 c 0,1.2188 0.9375,1.3438 1.2969,1.3438 0.70312,0 0.98438,-0.70312 0.98438,-1.3438 v -0.5625 h -0.25 v 0.54688 c 0,0.73438 -0.29688,1.1094 -0.67188,1.1094 -0.67188,0 -0.67188,-0.90625 -0.67188,-1.0781 z"
           id="id-c30b53ee-b60c-40ae-8fdf-d49a4b48599c" />
      </g>
      <g
         id="g53"
         transform="translate(195.18,134.76)">
        <path
           inkscape:connector-curvature="0"
           id="path51"
           d="m 4.6875,-2.1406 c 0,-1.2656 -0.98438,-2.3281 -2.1875,-2.3281 -1.25,0 -2.2188,1.0938 -2.2188,2.3281 0,1.2969 1.0312,2.25 2.2031,2.25 1.2031,0 2.2031,-0.98438 2.2031,-2.25 z m -2.1875,2 c -0.4375,0 -0.875,-0.20312 -1.1406,-0.67188 -0.25,-0.4375 -0.25,-1.0469 -0.25,-1.4062 0,-0.39062 0,-0.92188 0.23438,-1.3594 0.26562,-0.45312 0.73438,-0.67188 1.1406,-0.67188 0.4375,0 0.85938,0.21875 1.125,0.65625 0.26562,0.42188 0.26562,1 0.26562,1.375 0,0.35938 0,0.90625 -0.21875,1.3438 -0.23438,0.45312 -0.67188,0.73438 -1.1562,0.73438 z" />
      </g>
      <g
         id="g57"
         transform="translate(203.48,134.76)">
        <path
           inkscape:connector-curvature="0"
           id="path55"
           d="m 1.6719,-3.3125 v -1.0938 l -1.3906,0.10938 v 0.3125 c 0.70312,0 0.78125,0.0625 0.78125,0.5625 v 2.6719 c 0,0.4375 -0.10938,0.4375 -0.78125,0.4375 V -2e-5 c 0.39062,-0.015625 0.85938,-0.03125 1.1406,-0.03125 0.39062,0 0.85938,0 1.2656,0.03125 v -0.3125 H 2.46875 c -0.73438,0 -0.75,-0.10938 -0.75,-0.46875 v -1.5312 c 0,-0.98438 0.42188,-1.875 1.1719,-1.875 0.0625,0 0.09375,0 0.10938,0.015625 -0.03125,0 -0.23438,0.125 -0.23438,0.39062 0,0.26562 0.21875,0.42188 0.4375,0.42188 0.17188,0 0.42188,-0.125 0.42188,-0.4375 0,-0.3125 -0.3125,-0.60938 -0.73438,-0.60938 -0.73438,0 -1.0938,0.67188 -1.2188,1.0938 z" />
      </g>
      <g
         id="g61"
         transform="translate(207.38,134.76)">
        <path
           inkscape:connector-curvature="0"
           id="path59"
           d="M 1.1094,-2.5156 C 1.1719,-4 2.01565,-4.25 2.3594,-4.25 c 1.0156,0 1.125,1.3438 1.125,1.7344 z m 0,0.21875 h 2.7812 c 0.21875,0 0.25,0 0.25,-0.21875 0,-0.98438 -0.54688,-1.9531 -1.7812,-1.9531 -1.1562,0 -2.0781,1.0312 -2.0781,2.2812 0,1.3281 1.0469,2.2969 2.1875,2.2969 1.2188,0 1.6719,-1.1094 1.6719,-1.2969 0,-0.09375 -0.078125,-0.125 -0.14062,-0.125 -0.078125,0 -0.10938,0.0625 -0.125,0.14062 -0.34375,1.0312 -1.25,1.0312 -1.3438,1.0312 -0.5,0 -0.89062,-0.29688 -1.125,-0.67188 C 1.1094,-1.28131 1.1094,-1.93756 1.1094,-2.29696 Z" />
      </g>
      <g
         id="g65"
         transform="translate(211.81,134.76)">
        <path
           inkscape:connector-curvature="0"
           id="path63"
           d="M 1.0938,-3.4219 V -0.75 c 0,0.4375 -0.10938,0.4375 -0.78125,0.4375 V 0 c 0.35938,-0.015625 0.85938,-0.03125 1.1406,-0.03125 0.25,0 0.76562,0.015625 1.1094,0.03125 v -0.3125 c -0.67188,0 -0.78125,0 -0.78125,-0.4375 v -1.8438 c 0,-1.0312 0.71875,-1.5938 1.3438,-1.5938 0.64062,0 0.75,0.53125 0.75,1.1094 v 2.3281 c 0,0.4375 -0.10938,0.4375 -0.78125,0.4375 v 0.3125 c 0.34375,-0.015625 0.85938,-0.03125 1.125,-0.03125 0.25,0 0.78125,0.015625 1.1094,0.03125 v -0.3125 c -0.65625,0 -0.76562,0 -0.76562,-0.4375 v -1.8438 c 0,-1.0312 0.70312,-1.5938 1.3438,-1.5938 0.625,0 0.73438,0.53125 0.73438,1.1094 v 2.3281 c 0,0.4375 -0.10938,0.4375 -0.78125,0.4375 V -2e-4 c 0.34375,-0.015625 0.85938,-0.03125 1.125,-0.03125 0.26562,0 0.78125,0.015625 1.125,0.03125 v -0.3125 c -0.51562,0 -0.76562,0 -0.78125,-0.29688 v -1.9062 c 0,-0.85938 0,-1.1562 -0.3125,-1.5156 -0.14062,-0.17188 -0.46875,-0.375 -1.0469,-0.375 -0.82812,0 -1.2812,0.59375 -1.4375,0.98438 -0.14062,-0.875 -0.875,-0.98438 -1.3281,-0.98438 -0.73438,0 -1.2031,0.42188 -1.4844,1.0469 v -1.0469 L 0.31271,-4.297 v 0.3125 c 0.70312,0 0.78125,0.0625 0.78125,0.5625 z" />
      </g>
      <g
         id="g69"
         transform="translate(220.11,134.76)">
        <path
           inkscape:connector-curvature="0"
           id="path67"
           d="m 4.6875,-2.1406 c 0,-1.2656 -0.98438,-2.3281 -2.1875,-2.3281 -1.25,0 -2.2188,1.0938 -2.2188,2.3281 0,1.2969 1.0312,2.25 2.2031,2.25 1.2031,0 2.2031,-0.98438 2.2031,-2.25 z m -2.1875,2 c -0.4375,0 -0.875,-0.20312 -1.1406,-0.67188 -0.25,-0.4375 -0.25,-1.0469 -0.25,-1.4062 0,-0.39062 0,-0.92188 0.23438,-1.3594 0.26562,-0.45312 0.73438,-0.67188 1.1406,-0.67188 0.4375,0 0.85938,0.21875 1.125,0.65625 0.26562,0.42188 0.26562,1 0.26562,1.375 0,0.35938 0,0.90625 -0.21875,1.3438 -0.23438,0.45312 -0.67188,0.73438 -1.1562,0.73438 z" />
      </g>
      <g
         id="id-284a341a-1128-4550-8768-72fd1b9961ce">
        <g
           id="g73"
           transform="translate(224.81,134.76)">
          <path
             inkscape:connector-curvature="0"
             id="path71"
             d="m 4.1406,-3.3125 c 0.09375,-0.23438 0.26562,-0.67188 0.92188,-0.67188 v -0.3125 c -0.23438,0.015625 -0.51562,0.03125 -0.75,0.03125 -0.23438,0 -0.6875,-0.015625 -0.85938,-0.03125 v 0.3125 c 0.35938,0 0.46875,0.23438 0.46875,0.42188 0,0.09375 -0.015625,0.14062 -0.046875,0.25 l -1.0312,2.5312 -1.1094,-2.7812 c -0.0625,-0.125 -0.0625,-0.14062 -0.0625,-0.17188 0,-0.25 0.39062,-0.25 0.57812,-0.25 v -0.3125 c -0.3125,0.015625 -0.85938,0.03125 -1.0938,0.03125 -0.26562,0 -0.67188,-0.015625 -0.96875,-0.03125 v 0.3125 c 0.625,0 0.67188,0.0625 0.79688,0.35938 l 1.4375,3.5469 c 0.0625,0.14062 0.078125,0.1875 0.20312,0.1875 0.14062,0 0.17188,-0.09375 0.21875,-0.1875 z" />
        </g>
      </g>
      <g
         id="id-52208e49-6871-4bc8-a09d-ce7bc1a3e55f">
        <g
           id="g78"
           transform="translate(229.79,134.76)">
          <path
             inkscape:connector-curvature="0"
             id="path76"
             d="M 1.1094,-2.5156 C 1.1719,-4 2.01565,-4.25 2.3594,-4.25 c 1.0156,0 1.125,1.3438 1.125,1.7344 z m 0,0.21875 h 2.7812 c 0.21875,0 0.25,0 0.25,-0.21875 0,-0.98438 -0.54688,-1.9531 -1.7812,-1.9531 -1.1562,0 -2.0781,1.0312 -2.0781,2.2812 0,1.3281 1.0469,2.2969 2.1875,2.2969 1.2188,0 1.6719,-1.1094 1.6719,-1.2969 0,-0.09375 -0.078125,-0.125 -0.14062,-0.125 -0.078125,0 -0.10938,0.0625 -0.125,0.14062 -0.34375,1.0312 -1.25,1.0312 -1.3438,1.0312 -0.5,0 -0.89062,-0.29688 -1.125,-0.67188 C 1.1094,-1.28131 1.1094,-1.93756 1.1094,-2.29696 Z" />
        </g>
      </g>
    </g>
  </g>
  <g
     id="g327"
     transform="translate(-171.91306,-34.42732)">
    <g
       style="fill:#ff0000;stroke:#ff0000;stroke-width:0.25600001"
       id="g103">
      <path
         inkscape:connector-curvature="0"
         id="path85"
         d="m 222.21,39.081 v -1.5" />
      <path
         style="stroke-linecap:round"
         inkscape:connector-curvature="0"
         id="path87"
         d="m 222.2,37.581 h 6.1192" />
      <path
         inkscape:connector-curvature="0"
         id="path89"
         d="m 228.32,39.081 -1.2e-4,-1.5" />
      <path
         inkscape:connector-curvature="0"
         id="path91"
         d="m 207.3,39.081 v -1.5" />
      <path
         style="stroke-linecap:round"
         inkscape:connector-curvature="0"
         id="path93"
         d="m 207.3,37.581 h 8.7999" />
      <path
         inkscape:connector-curvature="0"
         id="path95"
         d="m 216.1,39.081 v -1.5" />
      <path
         inkscape:connector-curvature="0"
         id="path97"
         d="m 186.27,39.081 v -1.5" />
      <path
         style="stroke-linecap:round"
         inkscape:connector-curvature="0"
         id="path99"
         d="m 186.27,37.581 h 6.1117" />
      <path
         inkscape:connector-curvature="0"
         id="path101"
         d="m 192.38,39.081 v -1.5" />
    </g>
    <g
       id="g325"
       ns4:version="0.11.0"
       ns4:text="\\begin{table}[h!]\n\\label{tab:solution_representation}\n\\begin{tabular}{|c|c|c|c|c|c|c|c|c|c|c|}\n\\hline\n... &amp; Base &amp; 3 &amp; Base &amp; 2 &amp; Base &amp; 3 &amp; 4 &amp; 3 &amp; Base &amp; ... \\\\ \\hline\n... &amp; {[\\,]} &amp; {[0]} &amp; {[\\,]} &amp; {[1]} &amp; {[\\,]} &amp; {[1]} &amp; {[2]} &amp; {[\\,]} &amp; {[\\,]} &amp; ... \\\\ \\hline\n\\end{tabular}\n\\end{table}\n"
       ns4:texconverter="pdflatex"
       ns4:scale="0.771048259331"
       ns4:preamble="/home/chi/.config/inkscape/extensions/textext/default_packages.tex"
       ns4:pdfconverter="pdf2svg"
       ns4:jacobian_sqrt="0.272009"
       ns4:alignment="middle center"
       inkscapeversion="1.0.1"
       transform="matrix(0.27201,0,0,0.27201,135.58,5.026)">
      <path
         style="fill:none;stroke:#000000;stroke-width:0.398;stroke-miterlimit:10"
         inkscape:connector-curvature="0"
         id="path105"
         stroke-miterlimit="10"
         d="M 0.0015312,0.001 H 278.95153"
         transform="matrix(1,0,0,-1,133.77,125)" />
      <path
         style="fill:none;stroke:#000000;stroke-width:0.398;stroke-miterlimit:10"
         inkscape:connector-curvature="0"
         id="path107"
         stroke-miterlimit="10"
         d="m 0.0015312,-2.5e-4 v 11.957"
         transform="matrix(1,0,0,-1,133.77,137.16)" />
      <g
         id="g115">
        <path
           inkscape:connector-curvature="0"
           id="path109"
           d="m 1.9062,-0.53125 c 0,-0.28125 -0.23438,-0.53125 -0.51562,-0.53125 -0.29688,0 -0.53125,0.25 -0.53125,0.53125 C 0.85933,-0.23437 1.09371,0 1.39058,0 1.67183,0 1.9062,-0.23438 1.9062,-0.53125 Z"
           transform="translate(139.75,133.57)" />
        <path
           inkscape:connector-curvature="0"
           id="path111"
           d="m 1.9062,-0.53125 c 0,-0.28125 -0.23438,-0.53125 -0.51562,-0.53125 -0.29688,0 -0.53125,0.25 -0.53125,0.53125 C 0.85933,-0.23437 1.09371,0 1.39058,0 1.67183,0 1.9062,-0.23438 1.9062,-0.53125 Z"
           transform="translate(142.51,133.57)" />
        <path
           inkscape:connector-curvature="0"
           id="path113"
           d="m 1.9062,-0.53125 c 0,-0.28125 -0.23438,-0.53125 -0.51562,-0.53125 -0.29688,0 -0.53125,0.25 -0.53125,0.53125 C 0.85933,-0.23437 1.09371,0 1.39058,0 1.67183,0 1.9062,-0.23438 1.9062,-0.53125 Z"
           transform="translate(145.28,133.57)" />
      </g>
      <path
         style="fill:none;stroke:#000000;stroke-width:0.398;stroke-miterlimit:10"
         inkscape:connector-curvature="0"
         id="path117"
         stroke-miterlimit="10"
         d="m 0.0013438,-2.5e-4 v 11.957"
         transform="matrix(1,0,0,-1,154.03,137.16)" />
      <g
         id="g127">
        <path
           inkscape:connector-curvature="0"
           id="path119"
           d="m 2.2188,-3.6562 v -2.4375 c 0,-0.34375 0.015625,-0.40625 0.48438,-0.40625 h 1.2344 c 0.96875,0 1.3125,0.84375 1.3125,1.375 0,0.64062 -0.48438,1.4688 -1.5938,1.4688 z m 2.3438,0.09375 c 0.96875,-0.1875 1.6562,-0.82812 1.6562,-1.5625 0,-0.85938 -0.92188,-1.6875 -2.2188,-1.6875 H 0.3594 v 0.3125 h 0.23438 c 0.76562,0 0.79688,0.10938 0.79688,0.46875 v 5.25 c 0,0.35938 -0.03125,0.46875 -0.79688,0.46875 H 0.3594 V 5e-5 h 3.9062 c 1.3281,0 2.2188,-0.89062 2.2188,-1.8281 0,-0.85938 -0.8125,-1.6094 -1.9219,-1.7344 z m -0.60938,3.25 h -1.25 c -0.46875,0 -0.48438,-0.0625 -0.48438,-0.39062 v -2.7188 h 1.875 c 0.98438,0 1.4062,0.92188 1.4062,1.5938 0,0.70312 -0.53125,1.5156 -1.5469,1.5156 z"
           transform="translate(160,133.57)" />
        <path
           inkscape:connector-curvature="0"
           id="path121"
           d="m 3.3125,-0.75 c 0.046875,0.39062 0.3125,0.8125 0.78125,0.8125 0.21875,0 0.82812,-0.14062 0.82812,-0.95312 v -0.5625 h -0.25 v 0.5625 c 0,0.57812 -0.25,0.64062 -0.35938,0.64062 -0.32812,0 -0.375,-0.45312 -0.375,-0.5 v -1.9844 c 0,-0.42188 0,-0.8125 -0.35938,-1.1875 -0.39062,-0.39062 -0.89062,-0.54688 -1.3594,-0.54688 -0.82812,0 -1.5156,0.46875 -1.5156,1.125 0,0.29688 0.20312,0.46875 0.46875,0.46875 0.28125,0 0.45312,-0.20312 0.45312,-0.45312 0,-0.125 -0.046875,-0.45312 -0.51562,-0.45312 0.28125,-0.35938 0.76562,-0.46875 1.0781,-0.46875 0.5,0 1.0625,0.39062 1.0625,1.2812 v 0.35938 c -0.51562,0.03125 -1.2031,0.0625 -1.8281,0.35938 -0.75,0.34375 -1,0.85938 -1,1.2969 0,0.8125 0.96875,1.0625 1.5938,1.0625 0.65625,0 1.1094,-0.40625 1.2969,-0.85938 z M 3.25,-2.3906 v 1 c 0,0.9375 -0.71875,1.2812 -1.1719,1.2812 -0.48438,0 -0.89062,-0.34375 -0.89062,-0.84375 0,-0.54688 0.42188,-1.375 2.0625,-1.4375 z"
           transform="translate(167.06,133.57)" />
        <path
           inkscape:connector-curvature="0"
           id="path123"
           d="m 2.0781,-1.9375 c 0.21875,0.046875 1.0312,0.20312 1.0312,0.92188 0,0.5 -0.34375,0.90625 -1.125,0.90625 -0.84375,0 -1.2031,-0.5625 -1.3906,-1.4219 -0.03125,-0.125 -0.03125,-0.15625 -0.14062,-0.15625 -0.125,0 -0.125,0.0625 -0.125,0.23438 v 1.3281 c 0,0.17188 0,0.23438 0.10938,0.23438 0.046875,0 0.0625,-0.015625 0.25,-0.20312 0.015625,-0.015625 0.015625,-0.03125 0.20312,-0.21875 0.4375,0.40625 0.89062,0.42188 1.0938,0.42188 1.1406,0 1.6094,-0.67188 1.6094,-1.3906 0,-0.51562 -0.29688,-0.82812 -0.42188,-0.9375 C 2.84378,-2.54687 2.45315,-2.625 2.0313,-2.70313 1.4688,-2.81251 0.8125,-2.93751 0.8125,-3.51563 c 0,-0.35938 0.25,-0.76562 1.1094,-0.76562 1.0938,0 1.1562,0.90625 1.1719,1.2031 0,0.09375 0.09375,0.09375 0.10938,0.09375 0.14062,0 0.14062,-0.046875 0.14062,-0.23438 v -1.0156 c 0,-0.15625 0,-0.23438 -0.10938,-0.23438 -0.046875,0 -0.078125,0 -0.20312,0.125 -0.03125,0.03125 -0.125,0.125 -0.17188,0.15625 -0.375,-0.28125 -0.78125,-0.28125 -0.9375,-0.28125 -1.2188,0 -1.5938,0.67188 -1.5938,1.2344 0,0.34375 0.15625,0.625 0.42188,0.84375 0.32812,0.25 0.60938,0.3125 1.3281,0.45312 z"
           transform="translate(172.04,133.57)" />
        <path
           inkscape:connector-curvature="0"
           id="path125"
           d="M 1.1094,-2.5156 C 1.1719,-4 2.01565,-4.25 2.3594,-4.25 c 1.0156,0 1.125,1.3438 1.125,1.7344 z m 0,0.21875 h 2.7812 c 0.21875,0 0.25,0 0.25,-0.21875 0,-0.98438 -0.54688,-1.9531 -1.7812,-1.9531 -1.1562,0 -2.0781,1.0312 -2.0781,2.2812 0,1.3281 1.0469,2.2969 2.1875,2.2969 1.2188,0 1.6719,-1.1094 1.6719,-1.2969 0,-0.09375 -0.078125,-0.125 -0.14062,-0.125 -0.078125,0 -0.10938,0.0625 -0.125,0.14062 -0.34375,1.0312 -1.25,1.0312 -1.3438,1.0312 -0.5,0 -0.89062,-0.29688 -1.125,-0.67188 C 1.1094,-1.28131 1.1094,-1.93756 1.1094,-2.29696 Z"
           transform="translate(175.97,133.57)" />
      </g>
      <path
         style="fill:none;stroke:#000000;stroke-width:0.398;stroke-miterlimit:10"
         inkscape:connector-curvature="0"
         id="path129"
         stroke-miterlimit="10"
         d="m 0.0019062,-2.5e-4 v 11.957"
         transform="matrix(1,0,0,-1,186.38,137.16)" />
      <g
         id="g133">
        <path
           inkscape:connector-curvature="0"
           id="path131"
           d="m 2.8906,-3.5156 c 0.8125,-0.26562 1.3906,-0.95312 1.3906,-1.75 0,-0.8125 -0.875,-1.375 -1.8281,-1.375 -1,0 -1.7656,0.59375 -1.7656,1.3594 0,0.32812 0.21875,0.51562 0.51562,0.51562 0.29687,0 0.5,-0.21875 0.5,-0.51562 0,-0.48438 -0.46875,-0.48438 -0.60938,-0.48438 0.29688,-0.5 0.95312,-0.625 1.3125,-0.625 0.42188,0 0.96875,0.21875 0.96875,1.1094 0,0.125 -0.03125,0.70312 -0.28125,1.1406 -0.29688,0.48438 -0.64062,0.51562 -0.89062,0.51562 -0.078125,0.015625 -0.3125,0.03125 -0.39062,0.03125 -0.078125,0.015625 -0.14062,0.03125 -0.14062,0.125 0,0.10938 0.0625,0.10938 0.23438,0.10938 h 0.4375 c 0.8125,0 1.1875,0.67188 1.1875,1.6562 0,1.3594 -0.6875,1.6406 -1.125,1.6406 -0.4375,0 -1.1875,-0.17188 -1.5312,-0.75 0.34375,0.046875 0.65625,-0.17188 0.65625,-0.54688 0,-0.35938 -0.26562,-0.5625 -0.54688,-0.5625 -0.25,0 -0.5625,0.14062 -0.5625,0.57812 0,0.90625 0.92188,1.5625 2.0156,1.5625 1.2188,0 2.125,-0.90625 2.125,-1.9219 0,-0.8125 -0.64062,-1.5938 -1.6719,-1.8125 z"
           transform="translate(195.12,133.57)" />
      </g>
      <path
         style="fill:none;stroke:#000000;stroke-width:0.398;stroke-miterlimit:10"
         inkscape:connector-curvature="0"
         id="path135"
         stroke-miterlimit="10"
         d="m -3.4375e-4,-2.5e-4 v 11.957"
         transform="matrix(1,0,0,-1,208.85,137.16)" />
      <g
         id="g145">
        <path
           inkscape:connector-curvature="0"
           id="path137"
           d="m 2.2188,-3.6562 v -2.4375 c 0,-0.34375 0.015625,-0.40625 0.48438,-0.40625 h 1.2344 c 0.96875,0 1.3125,0.84375 1.3125,1.375 0,0.64062 -0.48438,1.4688 -1.5938,1.4688 z m 2.3438,0.09375 c 0.96875,-0.1875 1.6562,-0.82812 1.6562,-1.5625 0,-0.85938 -0.92188,-1.6875 -2.2188,-1.6875 H 0.3594 v 0.3125 h 0.23438 c 0.76562,0 0.79688,0.10938 0.79688,0.46875 v 5.25 c 0,0.35938 -0.03125,0.46875 -0.79688,0.46875 H 0.3594 V 5e-5 h 3.9062 c 1.3281,0 2.2188,-0.89062 2.2188,-1.8281 0,-0.85938 -0.8125,-1.6094 -1.9219,-1.7344 z m -0.60938,3.25 h -1.25 c -0.46875,0 -0.48438,-0.0625 -0.48438,-0.39062 v -2.7188 h 1.875 c 0.98438,0 1.4062,0.92188 1.4062,1.5938 0,0.70312 -0.53125,1.5156 -1.5469,1.5156 z"
           transform="translate(214.83,133.57)" />
        <path
           inkscape:connector-curvature="0"
           id="path139"
           d="m 3.3125,-0.75 c 0.046875,0.39062 0.3125,0.8125 0.78125,0.8125 0.21875,0 0.82812,-0.14062 0.82812,-0.95312 v -0.5625 h -0.25 v 0.5625 c 0,0.57812 -0.25,0.64062 -0.35938,0.64062 -0.32812,0 -0.375,-0.45312 -0.375,-0.5 v -1.9844 c 0,-0.42188 0,-0.8125 -0.35938,-1.1875 -0.39062,-0.39062 -0.89062,-0.54688 -1.3594,-0.54688 -0.82812,0 -1.5156,0.46875 -1.5156,1.125 0,0.29688 0.20312,0.46875 0.46875,0.46875 0.28125,0 0.45312,-0.20312 0.45312,-0.45312 0,-0.125 -0.046875,-0.45312 -0.51562,-0.45312 0.28125,-0.35938 0.76562,-0.46875 1.0781,-0.46875 0.5,0 1.0625,0.39062 1.0625,1.2812 v 0.35938 c -0.51562,0.03125 -1.2031,0.0625 -1.8281,0.35938 -0.75,0.34375 -1,0.85938 -1,1.2969 0,0.8125 0.96875,1.0625 1.5938,1.0625 0.65625,0 1.1094,-0.40625 1.2969,-0.85938 z M 3.25,-2.3906 v 1 c 0,0.9375 -0.71875,1.2812 -1.1719,1.2812 -0.48438,0 -0.89062,-0.34375 -0.89062,-0.84375 0,-0.54688 0.42188,-1.375 2.0625,-1.4375 z"
           transform="translate(221.88,133.57)" />
        <path
           inkscape:connector-curvature="0"
           id="path141"
           d="m 2.0781,-1.9375 c 0.21875,0.046875 1.0312,0.20312 1.0312,0.92188 0,0.5 -0.34375,0.90625 -1.125,0.90625 -0.84375,0 -1.2031,-0.5625 -1.3906,-1.4219 -0.03125,-0.125 -0.03125,-0.15625 -0.14062,-0.15625 -0.125,0 -0.125,0.0625 -0.125,0.23438 v 1.3281 c 0,0.17188 0,0.23438 0.10938,0.23438 0.046875,0 0.0625,-0.015625 0.25,-0.20312 0.015625,-0.015625 0.015625,-0.03125 0.20312,-0.21875 0.4375,0.40625 0.89062,0.42188 1.0938,0.42188 1.1406,0 1.6094,-0.67188 1.6094,-1.3906 0,-0.51562 -0.29688,-0.82812 -0.42188,-0.9375 C 2.84378,-2.54687 2.45315,-2.625 2.0313,-2.70313 1.4688,-2.81251 0.8125,-2.93751 0.8125,-3.51563 c 0,-0.35938 0.25,-0.76562 1.1094,-0.76562 1.0938,0 1.1562,0.90625 1.1719,1.2031 0,0.09375 0.09375,0.09375 0.10938,0.09375 0.14062,0 0.14062,-0.046875 0.14062,-0.23438 v -1.0156 c 0,-0.15625 0,-0.23438 -0.10938,-0.23438 -0.046875,0 -0.078125,0 -0.20312,0.125 -0.03125,0.03125 -0.125,0.125 -0.17188,0.15625 -0.375,-0.28125 -0.78125,-0.28125 -0.9375,-0.28125 -1.2188,0 -1.5938,0.67188 -1.5938,1.2344 0,0.34375 0.15625,0.625 0.42188,0.84375 0.32812,0.25 0.60938,0.3125 1.3281,0.45312 z"
           transform="translate(226.86,133.57)" />
        <path
           inkscape:connector-curvature="0"
           id="path143"
           d="M 1.1094,-2.5156 C 1.1719,-4 2.01565,-4.25 2.3594,-4.25 c 1.0156,0 1.125,1.3438 1.125,1.7344 z m 0,0.21875 h 2.7812 c 0.21875,0 0.25,0 0.25,-0.21875 0,-0.98438 -0.54688,-1.9531 -1.7812,-1.9531 -1.1562,0 -2.0781,1.0312 -2.0781,2.2812 0,1.3281 1.0469,2.2969 2.1875,2.2969 1.2188,0 1.6719,-1.1094 1.6719,-1.2969 0,-0.09375 -0.078125,-0.125 -0.14062,-0.125 -0.078125,0 -0.10938,0.0625 -0.125,0.14062 -0.34375,1.0312 -1.25,1.0312 -1.3438,1.0312 -0.5,0 -0.89062,-0.29688 -1.125,-0.67188 C 1.1094,-1.28131 1.1094,-1.93756 1.1094,-2.29696 Z"
           transform="translate(230.79,133.57)" />
      </g>
      <path
         style="fill:none;stroke:#000000;stroke-width:0.398;stroke-miterlimit:10"
         inkscape:connector-curvature="0"
         id="path147"
         stroke-miterlimit="10"
         d="m 2.1875e-4,-2.5e-4 v 11.957"
         transform="matrix(1,0,0,-1,241.2,137.16)" />
      <g
         id="g151">
        <path
           inkscape:connector-curvature="0"
           id="path149"
           d="m 1.2656,-0.76562 1.0625,-1.0312 c 1.5469,-1.375 2.1406,-1.9062 2.1406,-2.9062 0,-1.1406 -0.89062,-1.9375 -2.1094,-1.9375 -1.125,0 -1.8594,0.92188 -1.8594,1.8125 0,0.54688 0.5,0.54688 0.53125,0.54688 0.17188,0 0.51562,-0.10938 0.51562,-0.53125 0,-0.25 -0.1875,-0.51562 -0.53125,-0.51562 -0.078125,0 -0.09375,0 -0.125,0.015625 0.21875,-0.65625 0.76562,-1.0156 1.3438,-1.0156 0.90625,0 1.3281,0.8125 1.3281,1.625 0,0.79688 -0.48438,1.5781 -1.0469,2.2031 l -1.9062,2.125 c -0.10938,0.10938 -0.10938,0.14062 -0.10938,0.375 h 3.7031 l 0.26562,-1.7344 H 4.23428 c -0.0625,0.29688 -0.125,0.73438 -0.23438,0.89062 C 3.9374,-0.76554 3.28115,-0.76554 3.0624,-0.76554 Z"
           transform="translate(249.94,133.57)" />
      </g>
      <path
         style="fill:none;stroke:#000000;stroke-width:0.398;stroke-miterlimit:10"
         inkscape:connector-curvature="0"
         id="path153"
         stroke-miterlimit="10"
         d="m 0.001875,-2.5e-4 v 11.957"
         transform="matrix(1,0,0,-1,263.67,137.16)" />
      <g
         id="g163">
        <path
           inkscape:connector-curvature="0"
           id="path155"
           d="m 2.2188,-3.6562 v -2.4375 c 0,-0.34375 0.015625,-0.40625 0.48438,-0.40625 h 1.2344 c 0.96875,0 1.3125,0.84375 1.3125,1.375 0,0.64062 -0.48438,1.4688 -1.5938,1.4688 z m 2.3438,0.09375 c 0.96875,-0.1875 1.6562,-0.82812 1.6562,-1.5625 0,-0.85938 -0.92188,-1.6875 -2.2188,-1.6875 H 0.3594 v 0.3125 h 0.23438 c 0.76562,0 0.79688,0.10938 0.79688,0.46875 v 5.25 c 0,0.35938 -0.03125,0.46875 -0.79688,0.46875 H 0.3594 V 5e-5 h 3.9062 c 1.3281,0 2.2188,-0.89062 2.2188,-1.8281 0,-0.85938 -0.8125,-1.6094 -1.9219,-1.7344 z m -0.60938,3.25 h -1.25 c -0.46875,0 -0.48438,-0.0625 -0.48438,-0.39062 v -2.7188 h 1.875 c 0.98438,0 1.4062,0.92188 1.4062,1.5938 0,0.70312 -0.53125,1.5156 -1.5469,1.5156 z"
           transform="translate(269.65,133.57)" />
        <path
           inkscape:connector-curvature="0"
           id="path157"
           d="m 3.3125,-0.75 c 0.046875,0.39062 0.3125,0.8125 0.78125,0.8125 0.21875,0 0.82812,-0.14062 0.82812,-0.95312 v -0.5625 h -0.25 v 0.5625 c 0,0.57812 -0.25,0.64062 -0.35938,0.64062 -0.32812,0 -0.375,-0.45312 -0.375,-0.5 v -1.9844 c 0,-0.42188 0,-0.8125 -0.35938,-1.1875 -0.39062,-0.39062 -0.89062,-0.54688 -1.3594,-0.54688 -0.82812,0 -1.5156,0.46875 -1.5156,1.125 0,0.29688 0.20312,0.46875 0.46875,0.46875 0.28125,0 0.45312,-0.20312 0.45312,-0.45312 0,-0.125 -0.046875,-0.45312 -0.51562,-0.45312 0.28125,-0.35938 0.76562,-0.46875 1.0781,-0.46875 0.5,0 1.0625,0.39062 1.0625,1.2812 v 0.35938 c -0.51562,0.03125 -1.2031,0.0625 -1.8281,0.35938 -0.75,0.34375 -1,0.85938 -1,1.2969 0,0.8125 0.96875,1.0625 1.5938,1.0625 0.65625,0 1.1094,-0.40625 1.2969,-0.85938 z M 3.25,-2.3906 v 1 c 0,0.9375 -0.71875,1.2812 -1.1719,1.2812 -0.48438,0 -0.89062,-0.34375 -0.89062,-0.84375 0,-0.54688 0.42188,-1.375 2.0625,-1.4375 z"
           transform="translate(276.7,133.57)" />
        <path
           inkscape:connector-curvature="0"
           id="path159"
           d="m 2.0781,-1.9375 c 0.21875,0.046875 1.0312,0.20312 1.0312,0.92188 0,0.5 -0.34375,0.90625 -1.125,0.90625 -0.84375,0 -1.2031,-0.5625 -1.3906,-1.4219 -0.03125,-0.125 -0.03125,-0.15625 -0.14062,-0.15625 -0.125,0 -0.125,0.0625 -0.125,0.23438 v 1.3281 c 0,0.17188 0,0.23438 0.10938,0.23438 0.046875,0 0.0625,-0.015625 0.25,-0.20312 0.015625,-0.015625 0.015625,-0.03125 0.20312,-0.21875 0.4375,0.40625 0.89062,0.42188 1.0938,0.42188 1.1406,0 1.6094,-0.67188 1.6094,-1.3906 0,-0.51562 -0.29688,-0.82812 -0.42188,-0.9375 C 2.84378,-2.54687 2.45315,-2.625 2.0313,-2.70313 1.4688,-2.81251 0.8125,-2.93751 0.8125,-3.51563 c 0,-0.35938 0.25,-0.76562 1.1094,-0.76562 1.0938,0 1.1562,0.90625 1.1719,1.2031 0,0.09375 0.09375,0.09375 0.10938,0.09375 0.14062,0 0.14062,-0.046875 0.14062,-0.23438 v -1.0156 c 0,-0.15625 0,-0.23438 -0.10938,-0.23438 -0.046875,0 -0.078125,0 -0.20312,0.125 -0.03125,0.03125 -0.125,0.125 -0.17188,0.15625 -0.375,-0.28125 -0.78125,-0.28125 -0.9375,-0.28125 -1.2188,0 -1.5938,0.67188 -1.5938,1.2344 0,0.34375 0.15625,0.625 0.42188,0.84375 0.32812,0.25 0.60938,0.3125 1.3281,0.45312 z"
           transform="translate(281.69,133.57)" />
        <path
           inkscape:connector-curvature="0"
           id="path161"
           d="M 1.1094,-2.5156 C 1.1719,-4 2.01565,-4.25 2.3594,-4.25 c 1.0156,0 1.125,1.3438 1.125,1.7344 z m 0,0.21875 h 2.7812 c 0.21875,0 0.25,0 0.25,-0.21875 0,-0.98438 -0.54688,-1.9531 -1.7812,-1.9531 -1.1562,0 -2.0781,1.0312 -2.0781,2.2812 0,1.3281 1.0469,2.2969 2.1875,2.2969 1.2188,0 1.6719,-1.1094 1.6719,-1.2969 0,-0.09375 -0.078125,-0.125 -0.14062,-0.125 -0.078125,0 -0.10938,0.0625 -0.125,0.14062 -0.34375,1.0312 -1.25,1.0312 -1.3438,1.0312 -0.5,0 -0.89062,-0.29688 -1.125,-0.67188 C 1.1094,-1.28131 1.1094,-1.93756 1.1094,-2.29696 Z"
           transform="translate(285.62,133.57)" />
      </g>
      <path
         style="fill:none;stroke:#000000;stroke-width:0.398;stroke-miterlimit:10"
         inkscape:connector-curvature="0"
         id="path165"
         stroke-miterlimit="10"
         d="m -0.0014688,-2.5e-4 v 11.957"
         transform="matrix(1,0,0,-1,296.02,137.16)" />
      <g
         id="g169">
        <path
           inkscape:connector-curvature="0"
           id="path167"
           d="m 2.8906,-3.5156 c 0.8125,-0.26562 1.3906,-0.95312 1.3906,-1.75 0,-0.8125 -0.875,-1.375 -1.8281,-1.375 -1,0 -1.7656,0.59375 -1.7656,1.3594 0,0.32812 0.21875,0.51562 0.51562,0.51562 0.29687,0 0.5,-0.21875 0.5,-0.51562 0,-0.48438 -0.46875,-0.48438 -0.60938,-0.48438 0.29688,-0.5 0.95312,-0.625 1.3125,-0.625 0.42188,0 0.96875,0.21875 0.96875,1.1094 0,0.125 -0.03125,0.70312 -0.28125,1.1406 -0.29688,0.48438 -0.64062,0.51562 -0.89062,0.51562 -0.078125,0.015625 -0.3125,0.03125 -0.39062,0.03125 -0.078125,0.015625 -0.14062,0.03125 -0.14062,0.125 0,0.10938 0.0625,0.10938 0.23438,0.10938 h 0.4375 c 0.8125,0 1.1875,0.67188 1.1875,1.6562 0,1.3594 -0.6875,1.6406 -1.125,1.6406 -0.4375,0 -1.1875,-0.17188 -1.5312,-0.75 0.34375,0.046875 0.65625,-0.17188 0.65625,-0.54688 0,-0.35938 -0.26562,-0.5625 -0.54688,-0.5625 -0.25,0 -0.5625,0.14062 -0.5625,0.57812 0,0.90625 0.92188,1.5625 2.0156,1.5625 1.2188,0 2.125,-0.90625 2.125,-1.9219 0,-0.8125 -0.64062,-1.5938 -1.6719,-1.8125 z"
           transform="translate(304.77,133.57)" />
      </g>
      <path
         style="fill:none;stroke:#000000;stroke-width:0.398;stroke-miterlimit:10"
         inkscape:connector-curvature="0"
         id="path171"
         stroke-miterlimit="10"
         d="m -8.125e-4,-2.5e-4 v 11.957"
         transform="matrix(1,0,0,-1,318.49,137.16)" />
      <g
         id="g175">
        <path
           inkscape:connector-curvature="0"
           id="path173"
           d="m 2.9375,-1.6406 v 0.85938 c 0,0.35938 -0.03125,0.46875 -0.76562,0.46875 H 1.96876 V 3e-5 c 0.40625,-0.03125 0.92188,-0.03125 1.3438,-0.03125 0.42192,0 0.9375,0 1.3594,0.03125 v -0.3125 H 4.45321 c -0.73438,0 -0.75,-0.10938 -0.75,-0.46875 V -1.6406 H 4.68759 V -1.9531 H 3.70321 v -4.5312 c 0,-0.20312 0,-0.26562 -0.17188,-0.26562 -0.078125,0 -0.10938,0 -0.1875,0.125 l -3.0625,4.6719 v 0.3125 z m 0.046875,-0.3125 h -2.4219 l 2.4219,-3.7188 z"
           transform="translate(327.24,133.57)" />
      </g>
      <path
         style="fill:none;stroke:#000000;stroke-width:0.398;stroke-miterlimit:10"
         inkscape:connector-curvature="0"
         id="path177"
         stroke-miterlimit="10"
         d="m 8.4375e-4,-2.5e-4 v 11.957"
         transform="matrix(1,0,0,-1,340.96,137.16)" />
      <g
         id="g181">
        <path
           inkscape:connector-curvature="0"
           id="path179"
           d="m 2.8906,-3.5156 c 0.8125,-0.26562 1.3906,-0.95312 1.3906,-1.75 0,-0.8125 -0.875,-1.375 -1.8281,-1.375 -1,0 -1.7656,0.59375 -1.7656,1.3594 0,0.32812 0.21875,0.51562 0.51562,0.51562 0.29687,0 0.5,-0.21875 0.5,-0.51562 0,-0.48438 -0.46875,-0.48438 -0.60938,-0.48438 0.29688,-0.5 0.95312,-0.625 1.3125,-0.625 0.42188,0 0.96875,0.21875 0.96875,1.1094 0,0.125 -0.03125,0.70312 -0.28125,1.1406 -0.29688,0.48438 -0.64062,0.51562 -0.89062,0.51562 -0.078125,0.015625 -0.3125,0.03125 -0.39062,0.03125 -0.078125,0.015625 -0.14062,0.03125 -0.14062,0.125 0,0.10938 0.0625,0.10938 0.23438,0.10938 h 0.4375 c 0.8125,0 1.1875,0.67188 1.1875,1.6562 0,1.3594 -0.6875,1.6406 -1.125,1.6406 -0.4375,0 -1.1875,-0.17188 -1.5312,-0.75 0.34375,0.046875 0.65625,-0.17188 0.65625,-0.54688 0,-0.35938 -0.26562,-0.5625 -0.54688,-0.5625 -0.25,0 -0.5625,0.14062 -0.5625,0.57812 0,0.90625 0.92188,1.5625 2.0156,1.5625 1.2188,0 2.125,-0.90625 2.125,-1.9219 0,-0.8125 -0.64062,-1.5938 -1.6719,-1.8125 z"
           transform="translate(348.05,133.57)" />
      </g>
      <path
         style="fill:none;stroke:#000000;stroke-width:0.398;stroke-miterlimit:10"
         inkscape:connector-curvature="0"
         id="path183"
         stroke-miterlimit="10"
         d="m -0.0017188,-2.5e-4 v 11.957"
         transform="matrix(1,0,0,-1,360.12,137.16)" />
      <g
         id="g193">
        <path
           inkscape:connector-curvature="0"
           id="path185"
           d="m 2.2188,-3.6562 v -2.4375 c 0,-0.34375 0.015625,-0.40625 0.48438,-0.40625 h 1.2344 c 0.96875,0 1.3125,0.84375 1.3125,1.375 0,0.64062 -0.48438,1.4688 -1.5938,1.4688 z m 2.3438,0.09375 c 0.96875,-0.1875 1.6562,-0.82812 1.6562,-1.5625 0,-0.85938 -0.92188,-1.6875 -2.2188,-1.6875 H 0.3594 v 0.3125 h 0.23438 c 0.76562,0 0.79688,0.10938 0.79688,0.46875 v 5.25 c 0,0.35938 -0.03125,0.46875 -0.79688,0.46875 H 0.3594 V 5e-5 h 3.9062 c 1.3281,0 2.2188,-0.89062 2.2188,-1.8281 0,-0.85938 -0.8125,-1.6094 -1.9219,-1.7344 z m -0.60938,3.25 h -1.25 c -0.46875,0 -0.48438,-0.0625 -0.48438,-0.39062 v -2.7188 h 1.875 c 0.98438,0 1.4062,0.92188 1.4062,1.5938 0,0.70312 -0.53125,1.5156 -1.5469,1.5156 z"
           transform="translate(366.09,133.57)" />
        <path
           inkscape:connector-curvature="0"
           id="path187"
           d="m 3.3125,-0.75 c 0.046875,0.39062 0.3125,0.8125 0.78125,0.8125 0.21875,0 0.82812,-0.14062 0.82812,-0.95312 v -0.5625 h -0.25 v 0.5625 c 0,0.57812 -0.25,0.64062 -0.35938,0.64062 -0.32812,0 -0.375,-0.45312 -0.375,-0.5 v -1.9844 c 0,-0.42188 0,-0.8125 -0.35938,-1.1875 -0.39062,-0.39062 -0.89062,-0.54688 -1.3594,-0.54688 -0.82812,0 -1.5156,0.46875 -1.5156,1.125 0,0.29688 0.20312,0.46875 0.46875,0.46875 0.28125,0 0.45312,-0.20312 0.45312,-0.45312 0,-0.125 -0.046875,-0.45312 -0.51562,-0.45312 0.28125,-0.35938 0.76562,-0.46875 1.0781,-0.46875 0.5,0 1.0625,0.39062 1.0625,1.2812 v 0.35938 c -0.51562,0.03125 -1.2031,0.0625 -1.8281,0.35938 -0.75,0.34375 -1,0.85938 -1,1.2969 0,0.8125 0.96875,1.0625 1.5938,1.0625 0.65625,0 1.1094,-0.40625 1.2969,-0.85938 z M 3.25,-2.3906 v 1 c 0,0.9375 -0.71875,1.2812 -1.1719,1.2812 -0.48438,0 -0.89062,-0.34375 -0.89062,-0.84375 0,-0.54688 0.42188,-1.375 2.0625,-1.4375 z"
           transform="translate(373.15,133.57)" />
        <path
           inkscape:connector-curvature="0"
           id="path189"
           d="m 2.0781,-1.9375 c 0.21875,0.046875 1.0312,0.20312 1.0312,0.92188 0,0.5 -0.34375,0.90625 -1.125,0.90625 -0.84375,0 -1.2031,-0.5625 -1.3906,-1.4219 -0.03125,-0.125 -0.03125,-0.15625 -0.14062,-0.15625 -0.125,0 -0.125,0.0625 -0.125,0.23438 v 1.3281 c 0,0.17188 0,0.23438 0.10938,0.23438 0.046875,0 0.0625,-0.015625 0.25,-0.20312 0.015625,-0.015625 0.015625,-0.03125 0.20312,-0.21875 0.4375,0.40625 0.89062,0.42188 1.0938,0.42188 1.1406,0 1.6094,-0.67188 1.6094,-1.3906 0,-0.51562 -0.29688,-0.82812 -0.42188,-0.9375 C 2.84378,-2.54687 2.45315,-2.625 2.0313,-2.70313 1.4688,-2.81251 0.8125,-2.93751 0.8125,-3.51563 c 0,-0.35938 0.25,-0.76562 1.1094,-0.76562 1.0938,0 1.1562,0.90625 1.1719,1.2031 0,0.09375 0.09375,0.09375 0.10938,0.09375 0.14062,0 0.14062,-0.046875 0.14062,-0.23438 v -1.0156 c 0,-0.15625 0,-0.23438 -0.10938,-0.23438 -0.046875,0 -0.078125,0 -0.20312,0.125 -0.03125,0.03125 -0.125,0.125 -0.17188,0.15625 -0.375,-0.28125 -0.78125,-0.28125 -0.9375,-0.28125 -1.2188,0 -1.5938,0.67188 -1.5938,1.2344 0,0.34375 0.15625,0.625 0.42188,0.84375 0.32812,0.25 0.60938,0.3125 1.3281,0.45312 z"
           transform="translate(378.13,133.57)" />
        <path
           inkscape:connector-curvature="0"
           id="path191"
           d="M 1.1094,-2.5156 C 1.1719,-4 2.01565,-4.25 2.3594,-4.25 c 1.0156,0 1.125,1.3438 1.125,1.7344 z m 0,0.21875 h 2.7812 c 0.21875,0 0.25,0 0.25,-0.21875 0,-0.98438 -0.54688,-1.9531 -1.7812,-1.9531 -1.1562,0 -2.0781,1.0312 -2.0781,2.2812 0,1.3281 1.0469,2.2969 2.1875,2.2969 1.2188,0 1.6719,-1.1094 1.6719,-1.2969 0,-0.09375 -0.078125,-0.125 -0.14062,-0.125 -0.078125,0 -0.10938,0.0625 -0.125,0.14062 -0.34375,1.0312 -1.25,1.0312 -1.3438,1.0312 -0.5,0 -0.89062,-0.29688 -1.125,-0.67188 C 1.1094,-1.28131 1.1094,-1.93756 1.1094,-2.29696 Z"
           transform="translate(382.06,133.57)" />
      </g>
      <path
         style="fill:none;stroke:#000000;stroke-width:0.398;stroke-miterlimit:10"
         inkscape:connector-curvature="0"
         id="path195"
         stroke-miterlimit="10"
         d="m -0.0011562,-2.5e-4 v 11.957"
         transform="matrix(1,0,0,-1,392.47,137.16)" />
      <g
         id="g203">
        <path
           inkscape:connector-curvature="0"
           id="path197"
           d="m 1.9062,-0.53125 c 0,-0.28125 -0.23438,-0.53125 -0.51562,-0.53125 -0.29688,0 -0.53125,0.25 -0.53125,0.53125 C 0.85933,-0.23437 1.09371,0 1.39058,0 1.67183,0 1.9062,-0.23438 1.9062,-0.53125 Z"
           transform="translate(398.44,133.57)" />
        <path
           inkscape:connector-curvature="0"
           id="path199"
           d="m 1.9062,-0.53125 c 0,-0.28125 -0.23438,-0.53125 -0.51562,-0.53125 -0.29688,0 -0.53125,0.25 -0.53125,0.53125 C 0.85933,-0.23437 1.09371,0 1.39058,0 1.67183,0 1.9062,-0.23438 1.9062,-0.53125 Z"
           transform="translate(401.21,133.57)" />
        <path
           inkscape:connector-curvature="0"
           id="path201"
           d="m 1.9062,-0.53125 c 0,-0.28125 -0.23438,-0.53125 -0.51562,-0.53125 -0.29688,0 -0.53125,0.25 -0.53125,0.53125 C 0.85933,-0.23437 1.09371,0 1.39058,0 1.67183,0 1.9062,-0.23438 1.9062,-0.53125 Z"
           transform="translate(403.98,133.57)" />
      </g>
      <g
         style="fill:none;stroke:#000000;stroke-width:0.398;stroke-miterlimit:10"
         id="g211"
         stroke-miterlimit="10">
        <path
           inkscape:connector-curvature="0"
           id="path205"
           d="m -3.4375e-4,-2.5e-4 v 11.957"
           transform="matrix(1,0,0,-1,412.72,137.16)" />
        <path
           inkscape:connector-curvature="0"
           id="path207"
           d="M 0.0015312,-4.6875e-4 H 278.95153"
           transform="matrix(1,0,0,-1,133.77,137.36)" />
        <path
           inkscape:connector-curvature="0"
           id="path209"
           d="M 0.0015312,0.0011875 V 11.954188"
           transform="matrix(1,0,0,-1,133.77,149.51)" />
      </g>
      <g
         id="g219">
        <path
           inkscape:connector-curvature="0"
           id="path213"
           d="m 1.9062,-0.53125 c 0,-0.28125 -0.23438,-0.53125 -0.51562,-0.53125 -0.29688,0 -0.53125,0.25 -0.53125,0.53125 C 0.85933,-0.23437 1.09371,0 1.39058,0 1.67183,0 1.9062,-0.23438 1.9062,-0.53125 Z"
           transform="translate(139.75,145.92)" />
        <path
           inkscape:connector-curvature="0"
           id="path215"
           d="m 1.9062,-0.53125 c 0,-0.28125 -0.23438,-0.53125 -0.51562,-0.53125 -0.29688,0 -0.53125,0.25 -0.53125,0.53125 C 0.85933,-0.23437 1.09371,0 1.39058,0 1.67183,0 1.9062,-0.23438 1.9062,-0.53125 Z"
           transform="translate(142.51,145.92)" />
        <path
           inkscape:connector-curvature="0"
           id="path217"
           d="m 1.9062,-0.53125 c 0,-0.28125 -0.23438,-0.53125 -0.51562,-0.53125 -0.29688,0 -0.53125,0.25 -0.53125,0.53125 C 0.85933,-0.23437 1.09371,0 1.39058,0 1.67183,0 1.9062,-0.23438 1.9062,-0.53125 Z"
           transform="translate(145.28,145.92)" />
      </g>
      <path
         style="fill:none;stroke:#000000;stroke-width:0.398;stroke-miterlimit:10"
         inkscape:connector-curvature="0"
         id="path221"
         stroke-miterlimit="10"
         d="M 0.0013438,0.0011875 V 11.954188"
         transform="matrix(1,0,0,-1,154.03,149.51)" />
      <g
         id="g225">
        <path
           inkscape:connector-curvature="0"
           id="path223"
           d="M 2.5469,2.5 V 2.09375 H 1.57815 v -9.1719 H 2.5469 V -7.4844 H 1.1719 V 2.5 Z"
           transform="translate(166.6,145.92)" />
      </g>
      <g
         id="g229">
        <path
           inkscape:connector-curvature="0"
           id="path227"
           d="M 1.5781,-7.4844 H 0.2187 v 0.40625 h 0.96875 v 9.1719 H 0.2187 V 2.5 h 1.3594 z"
           transform="translate(171.03,145.92)" />
      </g>
      <path
         style="fill:none;stroke:#000000;stroke-width:0.398;stroke-miterlimit:10"
         inkscape:connector-curvature="0"
         id="path231"
         stroke-miterlimit="10"
         d="M 0.0019062,0.0011875 V 11.954188"
         transform="matrix(1,0,0,-1,186.38,149.51)" />
      <g
         id="g239">
        <path
           inkscape:connector-curvature="0"
           id="path233"
           d="M 2.5469,2.5 V 2.09375 H 1.57815 v -9.1719 H 2.5469 V -7.4844 H 1.1719 V 2.5 Z"
           transform="translate(192.35,145.92)" />
        <path
           inkscape:connector-curvature="0"
           id="path235"
           d="m 4.5781,-3.1875 c 0,-0.79688 -0.046875,-1.5938 -0.39062,-2.3281 -0.45312,-0.96875 -1.2812,-1.125 -1.6875,-1.125 -0.60938,0 -1.3281,0.26562 -1.75,1.1875 -0.3125,0.6875 -0.35938,1.4688 -0.35938,2.2656 0,0.75 0.03125,1.6406 0.45312,2.4062 0.42188,0.79688 1.1562,1 1.6406,1 0.53125,0 1.2969,-0.20312 1.7344,-1.1562 0.3125,-0.6875 0.35938,-1.4688 0.35938,-2.25 z M 2.4843,0 C 2.09368,0 1.49992,-0.25 1.3281,-1.2031 1.21872,-1.79685 1.21872,-2.7187 1.21872,-3.3125 c 0,-0.64062 0,-1.2969 0.078125,-1.8281 0.1875,-1.1875 0.9375,-1.2812 1.1875,-1.2812 0.32812,0 0.98438,0.1875 1.1719,1.1719 0.10938,0.5625 0.10938,1.3125 0.10938,1.9375 0,0.75 0,1.4219 -0.10938,2.0625 -0.15625,0.95312 -0.71875,1.25 -1.1719,1.25 z"
           transform="translate(195.12,145.92)" />
        <path
           inkscape:connector-curvature="0"
           id="path237"
           d="M 1.5781,-7.4844 H 0.2187 v 0.40625 h 0.96875 v 9.1719 H 0.2187 V 2.5 h 1.3594 z"
           transform="translate(200.1,145.92)" />
      </g>
      <path
         style="fill:none;stroke:#000000;stroke-width:0.398;stroke-miterlimit:10"
         inkscape:connector-curvature="0"
         id="path241"
         stroke-miterlimit="10"
         d="M -3.4375e-4,0.0011875 V 11.954188"
         transform="matrix(1,0,0,-1,208.85,149.51)" />
      <g
         id="g245">
        <path
           inkscape:connector-curvature="0"
           id="path243"
           d="M 2.5469,2.5 V 2.09375 H 1.57815 v -9.1719 H 2.5469 V -7.4844 H 1.1719 V 2.5 Z"
           transform="translate(221.43,145.92)" />
      </g>
      <g
         id="g249">
        <path
           inkscape:connector-curvature="0"
           id="path247"
           d="M 1.5781,-7.4844 H 0.2187 v 0.40625 h 0.96875 v 9.1719 H 0.2187 V 2.5 h 1.3594 z"
           transform="translate(225.86,145.92)" />
      </g>
      <path
         style="fill:none;stroke:#000000;stroke-width:0.398;stroke-miterlimit:10"
         inkscape:connector-curvature="0"
         id="path251"
         stroke-miterlimit="10"
         d="M 2.1875e-4,0.0011875 V 11.954188"
         transform="matrix(1,0,0,-1,241.2,149.51)" />
      <g
         id="g259">
        <path
           inkscape:connector-curvature="0"
           id="path253"
           d="M 2.5469,2.5 V 2.09375 H 1.57815 v -9.1719 H 2.5469 V -7.4844 H 1.1719 V 2.5 Z"
           transform="translate(247.18,145.92)" />
        <path
           inkscape:connector-curvature="0"
           id="path255"
           d="m 2.9375,-6.375 c 0,-0.25 0,-0.26562 -0.23438,-0.26562 C 2.07812,-6 1.20312,-6 0.89062,-6 v 0.3125 c 0.20312,0 0.78125,0 1.2969,-0.26562 v 5.1719 c 0,0.35938 -0.03125,0.46875 -0.92188,0.46875 H 0.95314 V 3e-5 c 0.34375,-0.03125 1.2031,-0.03125 1.6094,-0.03125 0.39062,0 1.2656,0 1.6094,0.03125 v -0.3125 h -0.3125 c -0.90625,0 -0.92188,-0.10938 -0.92188,-0.46875 z"
           transform="translate(249.94,145.92)" />
        <path
           inkscape:connector-curvature="0"
           id="path257"
           d="M 1.5781,-7.4844 H 0.2187 v 0.40625 h 0.96875 v 9.1719 H 0.2187 V 2.5 h 1.3594 z"
           transform="translate(254.93,145.92)" />
      </g>
      <path
         style="fill:none;stroke:#000000;stroke-width:0.398;stroke-miterlimit:10"
         inkscape:connector-curvature="0"
         id="path261"
         stroke-miterlimit="10"
         d="M 0.001875,0.0011875 V 11.954188"
         transform="matrix(1,0,0,-1,263.67,149.51)" />
      <g
         id="g265">
        <path
           inkscape:connector-curvature="0"
           id="path263"
           d="M 2.5469,2.5 V 2.09375 H 1.57815 v -9.1719 H 2.5469 V -7.4844 H 1.1719 V 2.5 Z"
           transform="translate(276.25,145.92)" />
      </g>
      <g
         id="g269">
        <path
           inkscape:connector-curvature="0"
           id="path267"
           d="M 1.5781,-7.4844 H 0.2187 v 0.40625 h 0.96875 v 9.1719 H 0.2187 V 2.5 h 1.3594 z"
           transform="translate(280.68,145.92)" />
      </g>
      <path
         style="fill:none;stroke:#000000;stroke-width:0.398;stroke-miterlimit:10"
         inkscape:connector-curvature="0"
         id="path271"
         stroke-miterlimit="10"
         d="M -0.0014688,0.0011875 V 11.954188"
         transform="matrix(1,0,0,-1,296.02,149.51)" />
      <g
         id="g279">
        <path
           inkscape:connector-curvature="0"
           id="path273"
           d="M 2.5469,2.5 V 2.09375 H 1.57815 v -9.1719 H 2.5469 V -7.4844 H 1.1719 V 2.5 Z"
           transform="translate(302,145.92)" />
        <path
           inkscape:connector-curvature="0"
           id="path275"
           d="m 2.9375,-6.375 c 0,-0.25 0,-0.26562 -0.23438,-0.26562 C 2.07812,-6 1.20312,-6 0.89062,-6 v 0.3125 c 0.20312,0 0.78125,0 1.2969,-0.26562 v 5.1719 c 0,0.35938 -0.03125,0.46875 -0.92188,0.46875 H 0.95314 V 3e-5 c 0.34375,-0.03125 1.2031,-0.03125 1.6094,-0.03125 0.39062,0 1.2656,0 1.6094,0.03125 v -0.3125 h -0.3125 c -0.90625,0 -0.92188,-0.10938 -0.92188,-0.46875 z"
           transform="translate(304.77,145.92)" />
        <path
           inkscape:connector-curvature="0"
           id="path277"
           d="M 1.5781,-7.4844 H 0.2187 v 0.40625 h 0.96875 v 9.1719 H 0.2187 V 2.5 h 1.3594 z"
           transform="translate(309.75,145.92)" />
      </g>
      <path
         style="fill:none;stroke:#000000;stroke-width:0.398;stroke-miterlimit:10"
         inkscape:connector-curvature="0"
         id="path281"
         stroke-miterlimit="10"
         d="M -8.125e-4,0.0011875 V 11.954188"
         transform="matrix(1,0,0,-1,318.49,149.51)" />
      <g
         id="g289">
        <path
           inkscape:connector-curvature="0"
           id="path283"
           d="M 2.5469,2.5 V 2.09375 H 1.57815 v -9.1719 H 2.5469 V -7.4844 H 1.1719 V 2.5 Z"
           transform="translate(324.47,145.92)" />
        <path
           inkscape:connector-curvature="0"
           id="path285"
           d="m 1.2656,-0.76562 1.0625,-1.0312 c 1.5469,-1.375 2.1406,-1.9062 2.1406,-2.9062 0,-1.1406 -0.89062,-1.9375 -2.1094,-1.9375 -1.125,0 -1.8594,0.92188 -1.8594,1.8125 0,0.54688 0.5,0.54688 0.53125,0.54688 0.17188,0 0.51562,-0.10938 0.51562,-0.53125 0,-0.25 -0.1875,-0.51562 -0.53125,-0.51562 -0.078125,0 -0.09375,0 -0.125,0.015625 0.21875,-0.65625 0.76562,-1.0156 1.3438,-1.0156 0.90625,0 1.3281,0.8125 1.3281,1.625 0,0.79688 -0.48438,1.5781 -1.0469,2.2031 l -1.9062,2.125 c -0.10938,0.10938 -0.10938,0.14062 -0.10938,0.375 h 3.7031 l 0.26562,-1.7344 H 4.23428 c -0.0625,0.29688 -0.125,0.73438 -0.23438,0.89062 C 3.9374,-0.76554 3.28115,-0.76554 3.0624,-0.76554 Z"
           transform="translate(327.24,145.92)" />
        <path
           inkscape:connector-curvature="0"
           id="path287"
           d="M 1.5781,-7.4844 H 0.2187 v 0.40625 h 0.96875 v 9.1719 H 0.2187 V 2.5 h 1.3594 z"
           transform="translate(332.22,145.92)" />
      </g>
      <path
         style="fill:none;stroke:#000000;stroke-width:0.398;stroke-miterlimit:10"
         inkscape:connector-curvature="0"
         id="path291"
         stroke-miterlimit="10"
         d="M 8.4375e-4,0.0011875 V 11.954188"
         transform="matrix(1,0,0,-1,340.96,149.51)" />
      <g
         id="g295">
        <path
           inkscape:connector-curvature="0"
           id="path293"
           d="M 2.5469,2.5 V 2.09375 H 1.57815 v -9.1719 H 2.5469 V -7.4844 H 1.1719 V 2.5 Z"
           transform="translate(346.94,145.92)" />
      </g>
      <g
         id="g299">
        <path
           inkscape:connector-curvature="0"
           id="path297"
           d="M 1.5781,-7.4844 H 0.2187 v 0.40625 h 0.96875 v 9.1719 H 0.2187 V 2.5 h 1.3594 z"
           transform="translate(351.37,145.92)" />
      </g>
      <path
         style="fill:none;stroke:#000000;stroke-width:0.398;stroke-miterlimit:10"
         inkscape:connector-curvature="0"
         id="path301"
         stroke-miterlimit="10"
         d="M -0.0017188,0.0011875 V 11.954188"
         transform="matrix(1,0,0,-1,360.12,149.51)" />
      <g
         id="g305">
        <path
           inkscape:connector-curvature="0"
           id="path303"
           d="M 2.5469,2.5 V 2.09375 H 1.57815 v -9.1719 H 2.5469 V -7.4844 H 1.1719 V 2.5 Z"
           transform="translate(372.69,145.92)" />
      </g>
      <g
         id="g309">
        <path
           inkscape:connector-curvature="0"
           id="path307"
           d="M 1.5781,-7.4844 H 0.2187 v 0.40625 h 0.96875 v 9.1719 H 0.2187 V 2.5 h 1.3594 z"
           transform="translate(377.12,145.92)" />
      </g>
      <path
         style="fill:none;stroke:#000000;stroke-width:0.398;stroke-miterlimit:10"
         inkscape:connector-curvature="0"
         id="path311"
         stroke-miterlimit="10"
         d="M -0.0011562,0.0011875 V 11.954188"
         transform="matrix(1,0,0,-1,392.47,149.51)" />
      <g
         id="g319">
        <path
           inkscape:connector-curvature="0"
           id="path313"
           d="m 1.9062,-0.53125 c 0,-0.28125 -0.23438,-0.53125 -0.51562,-0.53125 -0.29688,0 -0.53125,0.25 -0.53125,0.53125 C 0.85933,-0.23437 1.09371,0 1.39058,0 1.67183,0 1.9062,-0.23438 1.9062,-0.53125 Z"
           transform="translate(398.44,145.92)" />
        <path
           inkscape:connector-curvature="0"
           id="path315"
           d="m 1.9062,-0.53125 c 0,-0.28125 -0.23438,-0.53125 -0.51562,-0.53125 -0.29688,0 -0.53125,0.25 -0.53125,0.53125 C 0.85933,-0.23437 1.09371,0 1.39058,0 1.67183,0 1.9062,-0.23438 1.9062,-0.53125 Z"
           transform="translate(401.21,145.92)" />
        <path
           inkscape:connector-curvature="0"
           id="path317"
           d="m 1.9062,-0.53125 c 0,-0.28125 -0.23438,-0.53125 -0.51562,-0.53125 -0.29688,0 -0.53125,0.25 -0.53125,0.53125 C 0.85933,-0.23437 1.09371,0 1.39058,0 1.67183,0 1.9062,-0.23438 1.9062,-0.53125 Z"
           transform="translate(403.98,145.92)" />
      </g>
      <path
         style="fill:none;stroke:#000000;stroke-width:0.398;stroke-miterlimit:10"
         inkscape:connector-curvature="0"
         id="path321"
         stroke-miterlimit="10"
         d="M -3.4375e-4,0.0011875 V 11.954188"
         transform="matrix(1,0,0,-1,412.72,149.51)" />
      <path
         style="fill:none;stroke:#000000;stroke-width:0.398;stroke-miterlimit:10"
         inkscape:connector-curvature="0"
         id="path323"
         stroke-miterlimit="10"
         d="M 0.0015312,-0.0019375 H 278.95153"
         transform="matrix(1,0,0,-1,133.77,149.71)" />
    </g>
  </g>
  <g
     id="g495"
     ns4:version="0.11.0"
     ns4:text="\\begin{table}[h!]\n\\label{tab:solution_representation}\n\\begin{tabular}{|c|c|c|c|c|c|c|c|}\n\\hline\n... &amp; Base &amp; Base &amp; 2 &amp; 3 &amp; 3 &amp; Base &amp; ... \\\\ \\hline\n... &amp; {[\\,]} &amp; {[\\,]} &amp; {[1]} &amp; {[1]} &amp; {[\\,]} &amp; {[\\,]} &amp; ... \\\\ \\hline\n\\end{tabular}\n\\end{table}\n"
     ns4:texconverter="pdflatex"
     ns4:scale="0.771048259331"
     ns4:preamble="/home/chi/.config/inkscape/extensions/textext/default_packages.tex"
     ns4:pdfconverter="pdf2svg"
     ns4:jacobian_sqrt="0.272009"
     ns4:alignment="middle center"
     inkscapeversion="1.0.1"
     transform="matrix(0.27201,0,0,0.27201,-25.828764,-15.203986)">
    <path
       style="fill:none;stroke:#000000;stroke-width:0.398;stroke-miterlimit:10"
       inkscape:connector-curvature="0"
       id="path329"
       stroke-miterlimit="10"
       d="M 0.0015312,0.001 H 201.66153"
       transform="matrix(1,0,0,-1,133.77,125)" />
    <path
       style="fill:none;stroke:#000000;stroke-width:0.398;stroke-miterlimit:10"
       inkscape:connector-curvature="0"
       id="path331"
       stroke-miterlimit="10"
       d="m 0.0015312,-2.5e-4 v 11.957"
       transform="matrix(1,0,0,-1,133.77,137.16)" />
    <g
       id="g339">
      <path
         inkscape:connector-curvature="0"
         id="path333"
         d="m 1.9062,-0.53125 c 0,-0.28125 -0.23438,-0.53125 -0.51562,-0.53125 -0.29688,0 -0.53125,0.25 -0.53125,0.53125 C 0.85933,-0.23437 1.09371,0 1.39058,0 1.67183,0 1.9062,-0.23438 1.9062,-0.53125 Z"
         transform="translate(139.75,133.57)" />
      <path
         inkscape:connector-curvature="0"
         id="path335"
         d="m 1.9062,-0.53125 c 0,-0.28125 -0.23438,-0.53125 -0.51562,-0.53125 -0.29688,0 -0.53125,0.25 -0.53125,0.53125 C 0.85933,-0.23437 1.09371,0 1.39058,0 1.67183,0 1.9062,-0.23438 1.9062,-0.53125 Z"
         transform="translate(142.51,133.57)" />
      <path
         inkscape:connector-curvature="0"
         id="path337"
         d="m 1.9062,-0.53125 c 0,-0.28125 -0.23438,-0.53125 -0.51562,-0.53125 -0.29688,0 -0.53125,0.25 -0.53125,0.53125 C 0.85933,-0.23437 1.09371,0 1.39058,0 1.67183,0 1.9062,-0.23438 1.9062,-0.53125 Z"
         transform="translate(145.28,133.57)" />
    </g>
    <path
       style="fill:none;stroke:#000000;stroke-width:0.398;stroke-miterlimit:10"
       inkscape:connector-curvature="0"
       id="path341"
       stroke-miterlimit="10"
       d="m 0.0013438,-2.5e-4 v 11.957"
       transform="matrix(1,0,0,-1,154.03,137.16)" />
    <g
       id="g351">
      <path
         inkscape:connector-curvature="0"
         id="path343"
         d="m 2.2188,-3.6562 v -2.4375 c 0,-0.34375 0.015625,-0.40625 0.48438,-0.40625 h 1.2344 c 0.96875,0 1.3125,0.84375 1.3125,1.375 0,0.64062 -0.48438,1.4688 -1.5938,1.4688 z m 2.3438,0.09375 c 0.96875,-0.1875 1.6562,-0.82812 1.6562,-1.5625 0,-0.85938 -0.92188,-1.6875 -2.2188,-1.6875 H 0.3594 v 0.3125 h 0.23438 c 0.76562,0 0.79688,0.10938 0.79688,0.46875 v 5.25 c 0,0.35938 -0.03125,0.46875 -0.79688,0.46875 H 0.3594 V 5e-5 h 3.9062 c 1.3281,0 2.2188,-0.89062 2.2188,-1.8281 0,-0.85938 -0.8125,-1.6094 -1.9219,-1.7344 z m -0.60938,3.25 h -1.25 c -0.46875,0 -0.48438,-0.0625 -0.48438,-0.39062 v -2.7188 h 1.875 c 0.98438,0 1.4062,0.92188 1.4062,1.5938 0,0.70312 -0.53125,1.5156 -1.5469,1.5156 z"
         transform="translate(160,133.57)" />
      <path
         inkscape:connector-curvature="0"
         id="path345"
         d="m 3.3125,-0.75 c 0.046875,0.39062 0.3125,0.8125 0.78125,0.8125 0.21875,0 0.82812,-0.14062 0.82812,-0.95312 v -0.5625 h -0.25 v 0.5625 c 0,0.57812 -0.25,0.64062 -0.35938,0.64062 -0.32812,0 -0.375,-0.45312 -0.375,-0.5 v -1.9844 c 0,-0.42188 0,-0.8125 -0.35938,-1.1875 -0.39062,-0.39062 -0.89062,-0.54688 -1.3594,-0.54688 -0.82812,0 -1.5156,0.46875 -1.5156,1.125 0,0.29688 0.20312,0.46875 0.46875,0.46875 0.28125,0 0.45312,-0.20312 0.45312,-0.45312 0,-0.125 -0.046875,-0.45312 -0.51562,-0.45312 0.28125,-0.35938 0.76562,-0.46875 1.0781,-0.46875 0.5,0 1.0625,0.39062 1.0625,1.2812 v 0.35938 c -0.51562,0.03125 -1.2031,0.0625 -1.8281,0.35938 -0.75,0.34375 -1,0.85938 -1,1.2969 0,0.8125 0.96875,1.0625 1.5938,1.0625 0.65625,0 1.1094,-0.40625 1.2969,-0.85938 z M 3.25,-2.3906 v 1 c 0,0.9375 -0.71875,1.2812 -1.1719,1.2812 -0.48438,0 -0.89062,-0.34375 -0.89062,-0.84375 0,-0.54688 0.42188,-1.375 2.0625,-1.4375 z"
         transform="translate(167.06,133.57)" />
      <path
         inkscape:connector-curvature="0"
         id="path347"
         d="m 2.0781,-1.9375 c 0.21875,0.046875 1.0312,0.20312 1.0312,0.92188 0,0.5 -0.34375,0.90625 -1.125,0.90625 -0.84375,0 -1.2031,-0.5625 -1.3906,-1.4219 -0.03125,-0.125 -0.03125,-0.15625 -0.14062,-0.15625 -0.125,0 -0.125,0.0625 -0.125,0.23438 v 1.3281 c 0,0.17188 0,0.23438 0.10938,0.23438 0.046875,0 0.0625,-0.015625 0.25,-0.20312 0.015625,-0.015625 0.015625,-0.03125 0.20312,-0.21875 0.4375,0.40625 0.89062,0.42188 1.0938,0.42188 1.1406,0 1.6094,-0.67188 1.6094,-1.3906 0,-0.51562 -0.29688,-0.82812 -0.42188,-0.9375 C 2.84378,-2.54687 2.45315,-2.625 2.0313,-2.70313 1.4688,-2.81251 0.8125,-2.93751 0.8125,-3.51563 c 0,-0.35938 0.25,-0.76562 1.1094,-0.76562 1.0938,0 1.1562,0.90625 1.1719,1.2031 0,0.09375 0.09375,0.09375 0.10938,0.09375 0.14062,0 0.14062,-0.046875 0.14062,-0.23438 v -1.0156 c 0,-0.15625 0,-0.23438 -0.10938,-0.23438 -0.046875,0 -0.078125,0 -0.20312,0.125 -0.03125,0.03125 -0.125,0.125 -0.17188,0.15625 -0.375,-0.28125 -0.78125,-0.28125 -0.9375,-0.28125 -1.2188,0 -1.5938,0.67188 -1.5938,1.2344 0,0.34375 0.15625,0.625 0.42188,0.84375 0.32812,0.25 0.60938,0.3125 1.3281,0.45312 z"
         transform="translate(172.04,133.57)" />
      <path
         inkscape:connector-curvature="0"
         id="path349"
         d="M 1.1094,-2.5156 C 1.1719,-4 2.01565,-4.25 2.3594,-4.25 c 1.0156,0 1.125,1.3438 1.125,1.7344 z m 0,0.21875 h 2.7812 c 0.21875,0 0.25,0 0.25,-0.21875 0,-0.98438 -0.54688,-1.9531 -1.7812,-1.9531 -1.1562,0 -2.0781,1.0312 -2.0781,2.2812 0,1.3281 1.0469,2.2969 2.1875,2.2969 1.2188,0 1.6719,-1.1094 1.6719,-1.2969 0,-0.09375 -0.078125,-0.125 -0.14062,-0.125 -0.078125,0 -0.10938,0.0625 -0.125,0.14062 -0.34375,1.0312 -1.25,1.0312 -1.3438,1.0312 -0.5,0 -0.89062,-0.29688 -1.125,-0.67188 C 1.1094,-1.28131 1.1094,-1.93756 1.1094,-2.29696 Z"
         transform="translate(175.97,133.57)" />
    </g>
    <path
       style="fill:none;stroke:#000000;stroke-width:0.398;stroke-miterlimit:10"
       inkscape:connector-curvature="0"
       id="path353"
       stroke-miterlimit="10"
       d="m 0.0019062,-2.5e-4 v 11.957"
       transform="matrix(1,0,0,-1,186.38,137.16)" />
    <g
       id="g363">
      <path
         inkscape:connector-curvature="0"
         id="path355"
         d="m 2.2188,-3.6562 v -2.4375 c 0,-0.34375 0.015625,-0.40625 0.48438,-0.40625 h 1.2344 c 0.96875,0 1.3125,0.84375 1.3125,1.375 0,0.64062 -0.48438,1.4688 -1.5938,1.4688 z m 2.3438,0.09375 c 0.96875,-0.1875 1.6562,-0.82812 1.6562,-1.5625 0,-0.85938 -0.92188,-1.6875 -2.2188,-1.6875 H 0.3594 v 0.3125 h 0.23438 c 0.76562,0 0.79688,0.10938 0.79688,0.46875 v 5.25 c 0,0.35938 -0.03125,0.46875 -0.79688,0.46875 H 0.3594 V 5e-5 h 3.9062 c 1.3281,0 2.2188,-0.89062 2.2188,-1.8281 0,-0.85938 -0.8125,-1.6094 -1.9219,-1.7344 z m -0.60938,3.25 h -1.25 c -0.46875,0 -0.48438,-0.0625 -0.48438,-0.39062 v -2.7188 h 1.875 c 0.98438,0 1.4062,0.92188 1.4062,1.5938 0,0.70312 -0.53125,1.5156 -1.5469,1.5156 z"
         transform="translate(192.35,133.57)" />
      <path
         inkscape:connector-curvature="0"
         id="path357"
         d="m 3.3125,-0.75 c 0.046875,0.39062 0.3125,0.8125 0.78125,0.8125 0.21875,0 0.82812,-0.14062 0.82812,-0.95312 v -0.5625 h -0.25 v 0.5625 c 0,0.57812 -0.25,0.64062 -0.35938,0.64062 -0.32812,0 -0.375,-0.45312 -0.375,-0.5 v -1.9844 c 0,-0.42188 0,-0.8125 -0.35938,-1.1875 -0.39062,-0.39062 -0.89062,-0.54688 -1.3594,-0.54688 -0.82812,0 -1.5156,0.46875 -1.5156,1.125 0,0.29688 0.20312,0.46875 0.46875,0.46875 0.28125,0 0.45312,-0.20312 0.45312,-0.45312 0,-0.125 -0.046875,-0.45312 -0.51562,-0.45312 0.28125,-0.35938 0.76562,-0.46875 1.0781,-0.46875 0.5,0 1.0625,0.39062 1.0625,1.2812 v 0.35938 c -0.51562,0.03125 -1.2031,0.0625 -1.8281,0.35938 -0.75,0.34375 -1,0.85938 -1,1.2969 0,0.8125 0.96875,1.0625 1.5938,1.0625 0.65625,0 1.1094,-0.40625 1.2969,-0.85938 z M 3.25,-2.3906 v 1 c 0,0.9375 -0.71875,1.2812 -1.1719,1.2812 -0.48438,0 -0.89062,-0.34375 -0.89062,-0.84375 0,-0.54688 0.42188,-1.375 2.0625,-1.4375 z"
         transform="translate(199.41,133.57)" />
      <path
         inkscape:connector-curvature="0"
         id="path359"
         d="m 2.0781,-1.9375 c 0.21875,0.046875 1.0312,0.20312 1.0312,0.92188 0,0.5 -0.34375,0.90625 -1.125,0.90625 -0.84375,0 -1.2031,-0.5625 -1.3906,-1.4219 -0.03125,-0.125 -0.03125,-0.15625 -0.14062,-0.15625 -0.125,0 -0.125,0.0625 -0.125,0.23438 v 1.3281 c 0,0.17188 0,0.23438 0.10938,0.23438 0.046875,0 0.0625,-0.015625 0.25,-0.20312 0.015625,-0.015625 0.015625,-0.03125 0.20312,-0.21875 0.4375,0.40625 0.89062,0.42188 1.0938,0.42188 1.1406,0 1.6094,-0.67188 1.6094,-1.3906 0,-0.51562 -0.29688,-0.82812 -0.42188,-0.9375 C 2.84378,-2.54687 2.45315,-2.625 2.0313,-2.70313 1.4688,-2.81251 0.8125,-2.93751 0.8125,-3.51563 c 0,-0.35938 0.25,-0.76562 1.1094,-0.76562 1.0938,0 1.1562,0.90625 1.1719,1.2031 0,0.09375 0.09375,0.09375 0.10938,0.09375 0.14062,0 0.14062,-0.046875 0.14062,-0.23438 v -1.0156 c 0,-0.15625 0,-0.23438 -0.10938,-0.23438 -0.046875,0 -0.078125,0 -0.20312,0.125 -0.03125,0.03125 -0.125,0.125 -0.17188,0.15625 -0.375,-0.28125 -0.78125,-0.28125 -0.9375,-0.28125 -1.2188,0 -1.5938,0.67188 -1.5938,1.2344 0,0.34375 0.15625,0.625 0.42188,0.84375 0.32812,0.25 0.60938,0.3125 1.3281,0.45312 z"
         transform="translate(204.39,133.57)" />
      <path
         inkscape:connector-curvature="0"
         id="path361"
         d="M 1.1094,-2.5156 C 1.1719,-4 2.01565,-4.25 2.3594,-4.25 c 1.0156,0 1.125,1.3438 1.125,1.7344 z m 0,0.21875 h 2.7812 c 0.21875,0 0.25,0 0.25,-0.21875 0,-0.98438 -0.54688,-1.9531 -1.7812,-1.9531 -1.1562,0 -2.0781,1.0312 -2.0781,2.2812 0,1.3281 1.0469,2.2969 2.1875,2.2969 1.2188,0 1.6719,-1.1094 1.6719,-1.2969 0,-0.09375 -0.078125,-0.125 -0.14062,-0.125 -0.078125,0 -0.10938,0.0625 -0.125,0.14062 -0.34375,1.0312 -1.25,1.0312 -1.3438,1.0312 -0.5,0 -0.89062,-0.29688 -1.125,-0.67188 C 1.1094,-1.28131 1.1094,-1.93756 1.1094,-2.29696 Z"
         transform="translate(208.32,133.57)" />
    </g>
    <path
       style="fill:none;stroke:#000000;stroke-width:0.398;stroke-miterlimit:10"
       inkscape:connector-curvature="0"
       id="path365"
       stroke-miterlimit="10"
       d="m -0.0014375,-2.5e-4 v 11.957"
       transform="matrix(1,0,0,-1,218.73,137.16)" />
    <g
       id="g369">
      <path
         inkscape:connector-curvature="0"
         id="path367"
         d="m 1.2656,-0.76562 1.0625,-1.0312 c 1.5469,-1.375 2.1406,-1.9062 2.1406,-2.9062 0,-1.1406 -0.89062,-1.9375 -2.1094,-1.9375 -1.125,0 -1.8594,0.92188 -1.8594,1.8125 0,0.54688 0.5,0.54688 0.53125,0.54688 0.17188,0 0.51562,-0.10938 0.51562,-0.53125 0,-0.25 -0.1875,-0.51562 -0.53125,-0.51562 -0.078125,0 -0.09375,0 -0.125,0.015625 0.21875,-0.65625 0.76562,-1.0156 1.3438,-1.0156 0.90625,0 1.3281,0.8125 1.3281,1.625 0,0.79688 -0.48438,1.5781 -1.0469,2.2031 l -1.9062,2.125 c -0.10938,0.10938 -0.10938,0.14062 -0.10938,0.375 h 3.7031 l 0.26562,-1.7344 H 4.23428 c -0.0625,0.29688 -0.125,0.73438 -0.23438,0.89062 C 3.9374,-0.76554 3.28115,-0.76554 3.0624,-0.76554 Z"
         transform="translate(227.47,133.57)" />
    </g>
    <path
       style="fill:none;stroke:#000000;stroke-width:0.398;stroke-miterlimit:10"
       inkscape:connector-curvature="0"
       id="path371"
       stroke-miterlimit="10"
       d="m 2.1875e-4,-2.5e-4 v 11.957"
       transform="matrix(1,0,0,-1,241.2,137.16)" />
    <g
       id="g375">
      <path
         inkscape:connector-curvature="0"
         id="path373"
         d="m 2.8906,-3.5156 c 0.8125,-0.26562 1.3906,-0.95312 1.3906,-1.75 0,-0.8125 -0.875,-1.375 -1.8281,-1.375 -1,0 -1.7656,0.59375 -1.7656,1.3594 0,0.32812 0.21875,0.51562 0.51562,0.51562 0.29687,0 0.5,-0.21875 0.5,-0.51562 0,-0.48438 -0.46875,-0.48438 -0.60938,-0.48438 0.29688,-0.5 0.95312,-0.625 1.3125,-0.625 0.42188,0 0.96875,0.21875 0.96875,1.1094 0,0.125 -0.03125,0.70312 -0.28125,1.1406 -0.29688,0.48438 -0.64062,0.51562 -0.89062,0.51562 -0.078125,0.015625 -0.3125,0.03125 -0.39062,0.03125 -0.078125,0.015625 -0.14062,0.03125 -0.14062,0.125 0,0.10938 0.0625,0.10938 0.23438,0.10938 h 0.4375 c 0.8125,0 1.1875,0.67188 1.1875,1.6562 0,1.3594 -0.6875,1.6406 -1.125,1.6406 -0.4375,0 -1.1875,-0.17188 -1.5312,-0.75 0.34375,0.046875 0.65625,-0.17188 0.65625,-0.54688 0,-0.35938 -0.26562,-0.5625 -0.54688,-0.5625 -0.25,0 -0.5625,0.14062 -0.5625,0.57812 0,0.90625 0.92188,1.5625 2.0156,1.5625 1.2188,0 2.125,-0.90625 2.125,-1.9219 0,-0.8125 -0.64062,-1.5938 -1.6719,-1.8125 z"
         transform="translate(249.94,133.57)" />
    </g>
    <path
       style="fill:none;stroke:#000000;stroke-width:0.398;stroke-miterlimit:10"
       inkscape:connector-curvature="0"
       id="path377"
       stroke-miterlimit="10"
       d="m 0.001875,-2.5e-4 v 11.957"
       transform="matrix(1,0,0,-1,263.67,137.16)" />
    <g
       id="g381">
      <path
         inkscape:connector-curvature="0"
         id="path379"
         d="m 2.8906,-3.5156 c 0.8125,-0.26562 1.3906,-0.95312 1.3906,-1.75 0,-0.8125 -0.875,-1.375 -1.8281,-1.375 -1,0 -1.7656,0.59375 -1.7656,1.3594 0,0.32812 0.21875,0.51562 0.51562,0.51562 0.29687,0 0.5,-0.21875 0.5,-0.51562 0,-0.48438 -0.46875,-0.48438 -0.60938,-0.48438 0.29688,-0.5 0.95312,-0.625 1.3125,-0.625 0.42188,0 0.96875,0.21875 0.96875,1.1094 0,0.125 -0.03125,0.70312 -0.28125,1.1406 -0.29688,0.48438 -0.64062,0.51562 -0.89062,0.51562 -0.078125,0.015625 -0.3125,0.03125 -0.39062,0.03125 -0.078125,0.015625 -0.14062,0.03125 -0.14062,0.125 0,0.10938 0.0625,0.10938 0.23438,0.10938 h 0.4375 c 0.8125,0 1.1875,0.67188 1.1875,1.6562 0,1.3594 -0.6875,1.6406 -1.125,1.6406 -0.4375,0 -1.1875,-0.17188 -1.5312,-0.75 0.34375,0.046875 0.65625,-0.17188 0.65625,-0.54688 0,-0.35938 -0.26562,-0.5625 -0.54688,-0.5625 -0.25,0 -0.5625,0.14062 -0.5625,0.57812 0,0.90625 0.92188,1.5625 2.0156,1.5625 1.2188,0 2.125,-0.90625 2.125,-1.9219 0,-0.8125 -0.64062,-1.5938 -1.6719,-1.8125 z"
         transform="translate(270.76,133.57)" />
    </g>
    <path
       style="fill:none;stroke:#000000;stroke-width:0.398;stroke-miterlimit:10"
       inkscape:connector-curvature="0"
       id="path383"
       stroke-miterlimit="10"
       d="m -6.875e-4,-2.5e-4 v 11.957"
       transform="matrix(1,0,0,-1,282.82,137.16)" />
    <g
       id="g393">
      <path
         inkscape:connector-curvature="0"
         id="path385"
         d="m 2.2188,-3.6562 v -2.4375 c 0,-0.34375 0.015625,-0.40625 0.48438,-0.40625 h 1.2344 c 0.96875,0 1.3125,0.84375 1.3125,1.375 0,0.64062 -0.48438,1.4688 -1.5938,1.4688 z m 2.3438,0.09375 c 0.96875,-0.1875 1.6562,-0.82812 1.6562,-1.5625 0,-0.85938 -0.92188,-1.6875 -2.2188,-1.6875 H 0.3594 v 0.3125 h 0.23438 c 0.76562,0 0.79688,0.10938 0.79688,0.46875 v 5.25 c 0,0.35938 -0.03125,0.46875 -0.79688,0.46875 H 0.3594 V 5e-5 h 3.9062 c 1.3281,0 2.2188,-0.89062 2.2188,-1.8281 0,-0.85938 -0.8125,-1.6094 -1.9219,-1.7344 z m -0.60938,3.25 h -1.25 c -0.46875,0 -0.48438,-0.0625 -0.48438,-0.39062 v -2.7188 h 1.875 c 0.98438,0 1.4062,0.92188 1.4062,1.5938 0,0.70312 -0.53125,1.5156 -1.5469,1.5156 z"
         transform="translate(288.8,133.57)" />
      <path
         inkscape:connector-curvature="0"
         id="path387"
         d="m 3.3125,-0.75 c 0.046875,0.39062 0.3125,0.8125 0.78125,0.8125 0.21875,0 0.82812,-0.14062 0.82812,-0.95312 v -0.5625 h -0.25 v 0.5625 c 0,0.57812 -0.25,0.64062 -0.35938,0.64062 -0.32812,0 -0.375,-0.45312 -0.375,-0.5 v -1.9844 c 0,-0.42188 0,-0.8125 -0.35938,-1.1875 -0.39062,-0.39062 -0.89062,-0.54688 -1.3594,-0.54688 -0.82812,0 -1.5156,0.46875 -1.5156,1.125 0,0.29688 0.20312,0.46875 0.46875,0.46875 0.28125,0 0.45312,-0.20312 0.45312,-0.45312 0,-0.125 -0.046875,-0.45312 -0.51562,-0.45312 0.28125,-0.35938 0.76562,-0.46875 1.0781,-0.46875 0.5,0 1.0625,0.39062 1.0625,1.2812 v 0.35938 c -0.51562,0.03125 -1.2031,0.0625 -1.8281,0.35938 -0.75,0.34375 -1,0.85938 -1,1.2969 0,0.8125 0.96875,1.0625 1.5938,1.0625 0.65625,0 1.1094,-0.40625 1.2969,-0.85938 z M 3.25,-2.3906 v 1 c 0,0.9375 -0.71875,1.2812 -1.1719,1.2812 -0.48438,0 -0.89062,-0.34375 -0.89062,-0.84375 0,-0.54688 0.42188,-1.375 2.0625,-1.4375 z"
         transform="translate(295.86,133.57)" />
      <path
         inkscape:connector-curvature="0"
         id="path389"
         d="m 2.0781,-1.9375 c 0.21875,0.046875 1.0312,0.20312 1.0312,0.92188 0,0.5 -0.34375,0.90625 -1.125,0.90625 -0.84375,0 -1.2031,-0.5625 -1.3906,-1.4219 -0.03125,-0.125 -0.03125,-0.15625 -0.14062,-0.15625 -0.125,0 -0.125,0.0625 -0.125,0.23438 v 1.3281 c 0,0.17188 0,0.23438 0.10938,0.23438 0.046875,0 0.0625,-0.015625 0.25,-0.20312 0.015625,-0.015625 0.015625,-0.03125 0.20312,-0.21875 0.4375,0.40625 0.89062,0.42188 1.0938,0.42188 1.1406,0 1.6094,-0.67188 1.6094,-1.3906 0,-0.51562 -0.29688,-0.82812 -0.42188,-0.9375 C 2.84378,-2.54687 2.45315,-2.625 2.0313,-2.70313 1.4688,-2.81251 0.8125,-2.93751 0.8125,-3.51563 c 0,-0.35938 0.25,-0.76562 1.1094,-0.76562 1.0938,0 1.1562,0.90625 1.1719,1.2031 0,0.09375 0.09375,0.09375 0.10938,0.09375 0.14062,0 0.14062,-0.046875 0.14062,-0.23438 v -1.0156 c 0,-0.15625 0,-0.23438 -0.10938,-0.23438 -0.046875,0 -0.078125,0 -0.20312,0.125 -0.03125,0.03125 -0.125,0.125 -0.17188,0.15625 -0.375,-0.28125 -0.78125,-0.28125 -0.9375,-0.28125 -1.2188,0 -1.5938,0.67188 -1.5938,1.2344 0,0.34375 0.15625,0.625 0.42188,0.84375 0.32812,0.25 0.60938,0.3125 1.3281,0.45312 z"
         transform="translate(300.84,133.57)" />
      <path
         inkscape:connector-curvature="0"
         id="path391"
         d="M 1.1094,-2.5156 C 1.1719,-4 2.01565,-4.25 2.3594,-4.25 c 1.0156,0 1.125,1.3438 1.125,1.7344 z m 0,0.21875 h 2.7812 c 0.21875,0 0.25,0 0.25,-0.21875 0,-0.98438 -0.54688,-1.9531 -1.7812,-1.9531 -1.1562,0 -2.0781,1.0312 -2.0781,2.2812 0,1.3281 1.0469,2.2969 2.1875,2.2969 1.2188,0 1.6719,-1.1094 1.6719,-1.2969 0,-0.09375 -0.078125,-0.125 -0.14062,-0.125 -0.078125,0 -0.10938,0.0625 -0.125,0.14062 -0.34375,1.0312 -1.25,1.0312 -1.3438,1.0312 -0.5,0 -0.89062,-0.29688 -1.125,-0.67188 C 1.1094,-1.28131 1.1094,-1.93756 1.1094,-2.29696 Z"
         transform="translate(304.77,133.57)" />
    </g>
    <path
       style="fill:none;stroke:#000000;stroke-width:0.398;stroke-miterlimit:10"
       inkscape:connector-curvature="0"
       id="path395"
       stroke-miterlimit="10"
       d="m -1.25e-4,-2.5e-4 v 11.957"
       transform="matrix(1,0,0,-1,315.17,137.16)" />
    <g
       id="g403">
      <path
         inkscape:connector-curvature="0"
         id="path397"
         d="m 1.9062,-0.53125 c 0,-0.28125 -0.23438,-0.53125 -0.51562,-0.53125 -0.29688,0 -0.53125,0.25 -0.53125,0.53125 C 0.85933,-0.23437 1.09371,0 1.39058,0 1.67183,0 1.9062,-0.23438 1.9062,-0.53125 Z"
         transform="translate(321.15,133.57)" />
      <path
         inkscape:connector-curvature="0"
         id="path399"
         d="m 1.9062,-0.53125 c 0,-0.28125 -0.23438,-0.53125 -0.51562,-0.53125 -0.29688,0 -0.53125,0.25 -0.53125,0.53125 C 0.85933,-0.23437 1.09371,0 1.39058,0 1.67183,0 1.9062,-0.23438 1.9062,-0.53125 Z"
         transform="translate(323.92,133.57)" />
      <path
         inkscape:connector-curvature="0"
         id="path401"
         d="m 1.9062,-0.53125 c 0,-0.28125 -0.23438,-0.53125 -0.51562,-0.53125 -0.29688,0 -0.53125,0.25 -0.53125,0.53125 C 0.85933,-0.23437 1.09371,0 1.39058,0 1.67183,0 1.9062,-0.23438 1.9062,-0.53125 Z"
         transform="translate(326.69,133.57)" />
    </g>
    <g
       style="fill:none;stroke:#000000;stroke-width:0.398;stroke-miterlimit:10"
       id="g411"
       stroke-miterlimit="10">
      <path
         inkscape:connector-curvature="0"
         id="path405"
         d="m 6.875e-4,-2.5e-4 v 11.957"
         transform="matrix(1,0,0,-1,335.43,137.16)" />
      <path
         inkscape:connector-curvature="0"
         id="path407"
         d="M 0.0015312,-4.6875e-4 H 201.66153"
         transform="matrix(1,0,0,-1,133.77,137.36)" />
      <path
         inkscape:connector-curvature="0"
         id="path409"
         d="M 0.0015312,0.0011875 V 11.954188"
         transform="matrix(1,0,0,-1,133.77,149.51)" />
    </g>
    <g
       id="g419">
      <path
         inkscape:connector-curvature="0"
         id="path413"
         d="m 1.9062,-0.53125 c 0,-0.28125 -0.23438,-0.53125 -0.51562,-0.53125 -0.29688,0 -0.53125,0.25 -0.53125,0.53125 C 0.85933,-0.23437 1.09371,0 1.39058,0 1.67183,0 1.9062,-0.23438 1.9062,-0.53125 Z"
         transform="translate(139.75,145.92)" />
      <path
         inkscape:connector-curvature="0"
         id="path415"
         d="m 1.9062,-0.53125 c 0,-0.28125 -0.23438,-0.53125 -0.51562,-0.53125 -0.29688,0 -0.53125,0.25 -0.53125,0.53125 C 0.85933,-0.23437 1.09371,0 1.39058,0 1.67183,0 1.9062,-0.23438 1.9062,-0.53125 Z"
         transform="translate(142.51,145.92)" />
      <path
         inkscape:connector-curvature="0"
         id="path417"
         d="m 1.9062,-0.53125 c 0,-0.28125 -0.23438,-0.53125 -0.51562,-0.53125 -0.29688,0 -0.53125,0.25 -0.53125,0.53125 C 0.85933,-0.23437 1.09371,0 1.39058,0 1.67183,0 1.9062,-0.23438 1.9062,-0.53125 Z"
         transform="translate(145.28,145.92)" />
    </g>
    <path
       style="fill:none;stroke:#000000;stroke-width:0.398;stroke-miterlimit:10"
       inkscape:connector-curvature="0"
       id="path421"
       stroke-miterlimit="10"
       d="M 0.0013438,0.0011875 V 11.954188"
       transform="matrix(1,0,0,-1,154.03,149.51)" />
    <g
       id="g425">
      <path
         inkscape:connector-curvature="0"
         id="path423"
         d="M 2.5469,2.5 V 2.09375 H 1.57815 v -9.1719 H 2.5469 V -7.4844 H 1.1719 V 2.5 Z"
         transform="translate(166.6,145.92)" />
    </g>
    <g
       id="g429">
      <path
         inkscape:connector-curvature="0"
         id="path427"
         d="M 1.5781,-7.4844 H 0.2187 v 0.40625 h 0.96875 v 9.1719 H 0.2187 V 2.5 h 1.3594 z"
         transform="translate(171.03,145.92)" />
    </g>
    <path
       style="fill:none;stroke:#000000;stroke-width:0.398;stroke-miterlimit:10"
       inkscape:connector-curvature="0"
       id="path431"
       stroke-miterlimit="10"
       d="M 0.0019062,0.0011875 V 11.954188"
       transform="matrix(1,0,0,-1,186.38,149.51)" />
    <g
       id="g435">
      <path
         inkscape:connector-curvature="0"
         id="path433"
         d="M 2.5469,2.5 V 2.09375 H 1.57815 v -9.1719 H 2.5469 V -7.4844 H 1.1719 V 2.5 Z"
         transform="translate(198.95,145.92)" />
    </g>
    <g
       id="g439">
      <path
         inkscape:connector-curvature="0"
         id="path437"
         d="M 1.5781,-7.4844 H 0.2187 v 0.40625 h 0.96875 v 9.1719 H 0.2187 V 2.5 h 1.3594 z"
         transform="translate(203.39,145.92)" />
    </g>
    <path
       style="fill:none;stroke:#000000;stroke-width:0.398;stroke-miterlimit:10"
       inkscape:connector-curvature="0"
       id="path441"
       stroke-miterlimit="10"
       d="M -0.0014375,0.0011875 V 11.954188"
       transform="matrix(1,0,0,-1,218.73,149.51)" />
    <g
       id="g449">
      <path
         inkscape:connector-curvature="0"
         id="path443"
         d="M 2.5469,2.5 V 2.09375 H 1.57815 v -9.1719 H 2.5469 V -7.4844 H 1.1719 V 2.5 Z"
         transform="translate(224.7,145.92)" />
      <path
         inkscape:connector-curvature="0"
         id="path445"
         d="m 2.9375,-6.375 c 0,-0.25 0,-0.26562 -0.23438,-0.26562 C 2.07812,-6 1.20312,-6 0.89062,-6 v 0.3125 c 0.20312,0 0.78125,0 1.2969,-0.26562 v 5.1719 c 0,0.35938 -0.03125,0.46875 -0.92188,0.46875 H 0.95314 V 3e-5 c 0.34375,-0.03125 1.2031,-0.03125 1.6094,-0.03125 0.39062,0 1.2656,0 1.6094,0.03125 v -0.3125 h -0.3125 c -0.90625,0 -0.92188,-0.10938 -0.92188,-0.46875 z"
         transform="translate(227.47,145.92)" />
      <path
         inkscape:connector-curvature="0"
         id="path447"
         d="M 1.5781,-7.4844 H 0.2187 v 0.40625 h 0.96875 v 9.1719 H 0.2187 V 2.5 h 1.3594 z"
         transform="translate(232.45,145.92)" />
    </g>
    <path
       style="fill:none;stroke:#000000;stroke-width:0.398;stroke-miterlimit:10"
       inkscape:connector-curvature="0"
       id="path451"
       stroke-miterlimit="10"
       d="M 2.1875e-4,0.0011875 V 11.954188"
       transform="matrix(1,0,0,-1,241.2,149.51)" />
    <g
       id="g459">
      <path
         inkscape:connector-curvature="0"
         id="path453"
         d="M 2.5469,2.5 V 2.09375 H 1.57815 v -9.1719 H 2.5469 V -7.4844 H 1.1719 V 2.5 Z"
         transform="translate(247.18,145.92)" />
      <path
         inkscape:connector-curvature="0"
         id="path455"
         d="m 2.9375,-6.375 c 0,-0.25 0,-0.26562 -0.23438,-0.26562 C 2.07812,-6 1.20312,-6 0.89062,-6 v 0.3125 c 0.20312,0 0.78125,0 1.2969,-0.26562 v 5.1719 c 0,0.35938 -0.03125,0.46875 -0.92188,0.46875 H 0.95314 V 3e-5 c 0.34375,-0.03125 1.2031,-0.03125 1.6094,-0.03125 0.39062,0 1.2656,0 1.6094,0.03125 v -0.3125 h -0.3125 c -0.90625,0 -0.92188,-0.10938 -0.92188,-0.46875 z"
         transform="translate(249.94,145.92)" />
      <path
         inkscape:connector-curvature="0"
         id="path457"
         d="M 1.5781,-7.4844 H 0.2187 v 0.40625 h 0.96875 v 9.1719 H 0.2187 V 2.5 h 1.3594 z"
         transform="translate(254.93,145.92)" />
    </g>
    <path
       style="fill:none;stroke:#000000;stroke-width:0.398;stroke-miterlimit:10"
       inkscape:connector-curvature="0"
       id="path461"
       stroke-miterlimit="10"
       d="M 0.001875,0.0011875 V 11.954188"
       transform="matrix(1,0,0,-1,263.67,149.51)" />
    <g
       id="g465">
      <path
         inkscape:connector-curvature="0"
         id="path463"
         d="M 2.5469,2.5 V 2.09375 H 1.57815 v -9.1719 H 2.5469 V -7.4844 H 1.1719 V 2.5 Z"
         transform="translate(269.65,145.92)" />
    </g>
    <g
       id="g469">
      <path
         inkscape:connector-curvature="0"
         id="path467"
         d="M 1.5781,-7.4844 H 0.2187 v 0.40625 h 0.96875 v 9.1719 H 0.2187 V 2.5 h 1.3594 z"
         transform="translate(274.08,145.92)" />
    </g>
    <path
       style="fill:none;stroke:#000000;stroke-width:0.398;stroke-miterlimit:10"
       inkscape:connector-curvature="0"
       id="path471"
       stroke-miterlimit="10"
       d="M -6.875e-4,0.0011875 V 11.954188"
       transform="matrix(1,0,0,-1,282.82,149.51)" />
    <g
       id="g475">
      <path
         inkscape:connector-curvature="0"
         id="path473"
         d="M 2.5469,2.5 V 2.09375 H 1.57815 v -9.1719 H 2.5469 V -7.4844 H 1.1719 V 2.5 Z"
         transform="translate(295.4,145.92)" />
    </g>
    <g
       id="g479">
      <path
         inkscape:connector-curvature="0"
         id="path477"
         d="M 1.5781,-7.4844 H 0.2187 v 0.40625 h 0.96875 v 9.1719 H 0.2187 V 2.5 h 1.3594 z"
         transform="translate(299.83,145.92)" />
    </g>
    <path
       style="fill:none;stroke:#000000;stroke-width:0.398;stroke-miterlimit:10"
       inkscape:connector-curvature="0"
       id="path481"
       stroke-miterlimit="10"
       d="M -1.25e-4,0.0011875 V 11.954188"
       transform="matrix(1,0,0,-1,315.17,149.51)" />
    <g
       id="g489">
      <path
         inkscape:connector-curvature="0"
         id="path483"
         d="m 1.9062,-0.53125 c 0,-0.28125 -0.23438,-0.53125 -0.51562,-0.53125 -0.29688,0 -0.53125,0.25 -0.53125,0.53125 C 0.85933,-0.23437 1.09371,0 1.39058,0 1.67183,0 1.9062,-0.23438 1.9062,-0.53125 Z"
         transform="translate(321.15,145.92)" />
      <path
         inkscape:connector-curvature="0"
         id="path485"
         d="m 1.9062,-0.53125 c 0,-0.28125 -0.23438,-0.53125 -0.51562,-0.53125 -0.29688,0 -0.53125,0.25 -0.53125,0.53125 C 0.85933,-0.23437 1.09371,0 1.39058,0 1.67183,0 1.9062,-0.23438 1.9062,-0.53125 Z"
         transform="translate(323.92,145.92)" />
      <path
         inkscape:connector-curvature="0"
         id="path487"
         d="m 1.9062,-0.53125 c 0,-0.28125 -0.23438,-0.53125 -0.51562,-0.53125 -0.29688,0 -0.53125,0.25 -0.53125,0.53125 C 0.85933,-0.23437 1.09371,0 1.39058,0 1.67183,0 1.9062,-0.23438 1.9062,-0.53125 Z"
         transform="translate(326.69,145.92)" />
    </g>
    <path
       style="fill:none;stroke:#000000;stroke-width:0.398;stroke-miterlimit:10"
       inkscape:connector-curvature="0"
       id="path491"
       stroke-miterlimit="10"
       d="M 6.875e-4,0.0011875 V 11.954188"
       transform="matrix(1,0,0,-1,335.43,149.51)" />
    <path
       style="fill:none;stroke:#000000;stroke-width:0.398;stroke-miterlimit:10"
       inkscape:connector-curvature="0"
       id="path493"
       stroke-miterlimit="10"
       d="M 0.0015312,-0.0019375 H 201.66153"
       transform="matrix(1,0,0,-1,133.77,149.71)" />
  </g>
</svg>
