<?xml version="1.0" encoding="UTF-8" standalone="no"?>
<svg
   xmlns:ns4="http://www.iki.fi/pav/software/textext/"
   xmlns:dc="http://purl.org/dc/elements/1.1/"
   xmlns:cc="http://creativecommons.org/ns#"
   xmlns:rdf="http://www.w3.org/1999/02/22-rdf-syntax-ns#"
   xmlns:svg="http://www.w3.org/2000/svg"
   xmlns="http://www.w3.org/2000/svg"
   xmlns:sodipodi="http://sodipodi.sourceforge.net/DTD/sodipodi-0.dtd"
   xmlns:inkscape="http://www.inkscape.org/namespaces/inkscape"
   width="75.98494mm"
   height="26.909725mm"
   version="1.1"
   viewBox="0 0 75.98494 26.909727"
   id="svg499"
   sodipodi:docname="remove_rand_sps.svg"
   inkscape:version="0.92.3 (2405546, 2018-03-11)">
  <sodipodi:namedview
     pagecolor="#ffffff"
     bordercolor="#666666"
     borderopacity="1"
     objecttolerance="10"
     gridtolerance="10"
     guidetolerance="10"
     inkscape:pageopacity="0"
     inkscape:pageshadow="2"
     inkscape:window-width="1853"
     inkscape:window-height="1025"
     id="namedview501"
     showgrid="false"
     inkscape:zoom="3.5651882"
     inkscape:cx="119.97741"
     inkscape:cy="61.797976"
     inkscape:window-x="1987"
     inkscape:window-y="27"
     inkscape:window-maximized="1"
     inkscape:current-layer="svg499" />
  <metadata
     id="metadata503">
    <rdf:RDF>
      <cc:Work
         rdf:about="">
        <dc:format>image/svg+xml</dc:format>
        <dc:type
           rdf:resource="http://purl.org/dc/dcmitype/StillImage" />
      </cc:Work>
    </rdf:RDF>
  </metadata>
  <defs
     id="defs5">
    <marker
       id="TriangleOutL"
       overflow="visible"
       orient="auto"
       style="overflow:visible">
      <path
         transform="scale(0.8)"
         d="M 5.77,0 -2.88,5 V -5 Z"
         id="path2"
         inkscape:connector-curvature="0"
         style="fill-rule:evenodd;stroke:#000000;stroke-width:1.00000003pt" />
    </marker>
  </defs>
  <text
     id="text9"
     xml:space="preserve"
     style="font-size:25.39999962px;line-height:1.25;font-family:'Press Gothic';stroke-width:0.26458001"
     font-size="25.4px"
     y="-10.790017"
     x="312.28482"><tspan
       style="stroke-width:0.26458001"
       id="tspan7"
       y="11.683028"
       x="312.28482" /></text>
  <g
     id="g11"
     transform="matrix(0.43858,0,0,-0.43858,-247.41176,-75.50561)" />
  <path
     style="fill:none;stroke:#000000;stroke-width:0.25600001;marker-end:url(#TriangleOutL)"
     inkscape:connector-curvature="0"
     id="path13"
     d="m 37.991232,13.194557 v 4.9689" />
  <path
     inkscape:connector-curvature="0"
     id="path95"
     d="m 44.186936,5.9903894 v -1.5"
     style="fill:#ff0000;stroke:#ff0000;stroke-width:0.25600001" />
  <path
     style="fill:#ff0000;stroke:#ff0000;stroke-width:0.25600001;stroke-linecap:round;stroke-miterlimit:4;stroke-dasharray:none"
     inkscape:connector-curvature="0"
     id="path99"
     d="m 20.466936,4.4903894 h 23.72" />
  <path
     inkscape:connector-curvature="0"
     id="path101"
     d="m 20.466936,5.9903894 v -1.5"
     style="fill:#ff0000;stroke:#ff0000;stroke-width:0.25600001" />
  <g
     transform="matrix(0.27201,0,0,0.27201,-36.333064,-28.06461)"
     inkscapeversion="1.0.1"
     ns4:alignment="middle center"
     ns4:jacobian_sqrt="0.272009"
     ns4:pdfconverter="pdf2svg"
     ns4:preamble="/home/chi/.config/inkscape/extensions/textext/default_packages.tex"
     ns4:scale="0.771048259331"
     ns4:texconverter="pdflatex"
     ns4:text="\\begin{table}[h!]\n\\label{tab:solution_representation}\n\\begin{tabular}{|c|c|c|c|c|c|c|c|c|c|c|}\n\\hline\n... &amp; Base &amp; 3 &amp; Base &amp; 2 &amp; Base &amp; 3 &amp; 4 &amp; 3 &amp; Base &amp; ... \\\\ \\hline\n... &amp; {[\\,]} &amp; {[0]} &amp; {[\\,]} &amp; {[1]} &amp; {[\\,]} &amp; {[1]} &amp; {[2]} &amp; {[\\,]} &amp; {[\\,]} &amp; ... \\\\ \\hline\n\\end{tabular}\n\\end{table}\n"
     ns4:version="0.11.0"
     id="g325">
    <path
       transform="matrix(1,0,0,-1,133.77,125)"
       d="M 0.0015312,0.001 H 278.95153"
       stroke-miterlimit="10"
       id="path105"
       inkscape:connector-curvature="0"
       style="fill:none;stroke:#000000;stroke-width:0.398;stroke-miterlimit:10" />
    <path
       transform="matrix(1,0,0,-1,133.77,137.16)"
       d="m 0.0015312,-2.5e-4 v 11.957"
       stroke-miterlimit="10"
       id="path107"
       inkscape:connector-curvature="0"
       style="fill:none;stroke:#000000;stroke-width:0.398;stroke-miterlimit:10" />
    <g
       id="g115">
      <path
         transform="translate(139.75,133.57)"
         d="m 1.9062,-0.53125 c 0,-0.28125 -0.23438,-0.53125 -0.51562,-0.53125 -0.29688,0 -0.53125,0.25 -0.53125,0.53125 C 0.85933,-0.23437 1.09371,0 1.39058,0 1.67183,0 1.9062,-0.23438 1.9062,-0.53125 Z"
         id="path109"
         inkscape:connector-curvature="0" />
      <path
         transform="translate(142.51,133.57)"
         d="m 1.9062,-0.53125 c 0,-0.28125 -0.23438,-0.53125 -0.51562,-0.53125 -0.29688,0 -0.53125,0.25 -0.53125,0.53125 C 0.85933,-0.23437 1.09371,0 1.39058,0 1.67183,0 1.9062,-0.23438 1.9062,-0.53125 Z"
         id="path111"
         inkscape:connector-curvature="0" />
      <path
         transform="translate(145.28,133.57)"
         d="m 1.9062,-0.53125 c 0,-0.28125 -0.23438,-0.53125 -0.51562,-0.53125 -0.29688,0 -0.53125,0.25 -0.53125,0.53125 C 0.85933,-0.23437 1.09371,0 1.39058,0 1.67183,0 1.9062,-0.23438 1.9062,-0.53125 Z"
         id="path113"
         inkscape:connector-curvature="0" />
    </g>
    <path
       transform="matrix(1,0,0,-1,154.03,137.16)"
       d="m 0.0013438,-2.5e-4 v 11.957"
       stroke-miterlimit="10"
       id="path117"
       inkscape:connector-curvature="0"
       style="fill:none;stroke:#000000;stroke-width:0.398;stroke-miterlimit:10" />
    <g
       id="g127">
      <path
         transform="translate(160,133.57)"
         d="m 2.2188,-3.6562 v -2.4375 c 0,-0.34375 0.015625,-0.40625 0.48438,-0.40625 h 1.2344 c 0.96875,0 1.3125,0.84375 1.3125,1.375 0,0.64062 -0.48438,1.4688 -1.5938,1.4688 z m 2.3438,0.09375 c 0.96875,-0.1875 1.6562,-0.82812 1.6562,-1.5625 0,-0.85938 -0.92188,-1.6875 -2.2188,-1.6875 H 0.3594 v 0.3125 h 0.23438 c 0.76562,0 0.79688,0.10938 0.79688,0.46875 v 5.25 c 0,0.35938 -0.03125,0.46875 -0.79688,0.46875 H 0.3594 V 5e-5 h 3.9062 c 1.3281,0 2.2188,-0.89062 2.2188,-1.8281 0,-0.85938 -0.8125,-1.6094 -1.9219,-1.7344 z m -0.60938,3.25 h -1.25 c -0.46875,0 -0.48438,-0.0625 -0.48438,-0.39062 v -2.7188 h 1.875 c 0.98438,0 1.4062,0.92188 1.4062,1.5938 0,0.70312 -0.53125,1.5156 -1.5469,1.5156 z"
         id="path119"
         inkscape:connector-curvature="0" />
      <path
         transform="translate(167.06,133.57)"
         d="m 3.3125,-0.75 c 0.046875,0.39062 0.3125,0.8125 0.78125,0.8125 0.21875,0 0.82812,-0.14062 0.82812,-0.95312 v -0.5625 h -0.25 v 0.5625 c 0,0.57812 -0.25,0.64062 -0.35938,0.64062 -0.32812,0 -0.375,-0.45312 -0.375,-0.5 v -1.9844 c 0,-0.42188 0,-0.8125 -0.35938,-1.1875 -0.39062,-0.39062 -0.89062,-0.54688 -1.3594,-0.54688 -0.82812,0 -1.5156,0.46875 -1.5156,1.125 0,0.29688 0.20312,0.46875 0.46875,0.46875 0.28125,0 0.45312,-0.20312 0.45312,-0.45312 0,-0.125 -0.046875,-0.45312 -0.51562,-0.45312 0.28125,-0.35938 0.76562,-0.46875 1.0781,-0.46875 0.5,0 1.0625,0.39062 1.0625,1.2812 v 0.35938 c -0.51562,0.03125 -1.2031,0.0625 -1.8281,0.35938 -0.75,0.34375 -1,0.85938 -1,1.2969 0,0.8125 0.96875,1.0625 1.5938,1.0625 0.65625,0 1.1094,-0.40625 1.2969,-0.85938 z M 3.25,-2.3906 v 1 c 0,0.9375 -0.71875,1.2812 -1.1719,1.2812 -0.48438,0 -0.89062,-0.34375 -0.89062,-0.84375 0,-0.54688 0.42188,-1.375 2.0625,-1.4375 z"
         id="path121"
         inkscape:connector-curvature="0" />
      <path
         transform="translate(172.04,133.57)"
         d="m 2.0781,-1.9375 c 0.21875,0.046875 1.0312,0.20312 1.0312,0.92188 0,0.5 -0.34375,0.90625 -1.125,0.90625 -0.84375,0 -1.2031,-0.5625 -1.3906,-1.4219 -0.03125,-0.125 -0.03125,-0.15625 -0.14062,-0.15625 -0.125,0 -0.125,0.0625 -0.125,0.23438 v 1.3281 c 0,0.17188 0,0.23438 0.10938,0.23438 0.046875,0 0.0625,-0.015625 0.25,-0.20312 0.015625,-0.015625 0.015625,-0.03125 0.20312,-0.21875 0.4375,0.40625 0.89062,0.42188 1.0938,0.42188 1.1406,0 1.6094,-0.67188 1.6094,-1.3906 0,-0.51562 -0.29688,-0.82812 -0.42188,-0.9375 C 2.84378,-2.54687 2.45315,-2.625 2.0313,-2.70313 1.4688,-2.81251 0.8125,-2.93751 0.8125,-3.51563 c 0,-0.35938 0.25,-0.76562 1.1094,-0.76562 1.0938,0 1.1562,0.90625 1.1719,1.2031 0,0.09375 0.09375,0.09375 0.10938,0.09375 0.14062,0 0.14062,-0.046875 0.14062,-0.23438 v -1.0156 c 0,-0.15625 0,-0.23438 -0.10938,-0.23438 -0.046875,0 -0.078125,0 -0.20312,0.125 -0.03125,0.03125 -0.125,0.125 -0.17188,0.15625 -0.375,-0.28125 -0.78125,-0.28125 -0.9375,-0.28125 -1.2188,0 -1.5938,0.67188 -1.5938,1.2344 0,0.34375 0.15625,0.625 0.42188,0.84375 0.32812,0.25 0.60938,0.3125 1.3281,0.45312 z"
         id="path123"
         inkscape:connector-curvature="0" />
      <path
         transform="translate(175.97,133.57)"
         d="M 1.1094,-2.5156 C 1.1719,-4 2.01565,-4.25 2.3594,-4.25 c 1.0156,0 1.125,1.3438 1.125,1.7344 z m 0,0.21875 h 2.7812 c 0.21875,0 0.25,0 0.25,-0.21875 0,-0.98438 -0.54688,-1.9531 -1.7812,-1.9531 -1.1562,0 -2.0781,1.0312 -2.0781,2.2812 0,1.3281 1.0469,2.2969 2.1875,2.2969 1.2188,0 1.6719,-1.1094 1.6719,-1.2969 0,-0.09375 -0.078125,-0.125 -0.14062,-0.125 -0.078125,0 -0.10938,0.0625 -0.125,0.14062 -0.34375,1.0312 -1.25,1.0312 -1.3438,1.0312 -0.5,0 -0.89062,-0.29688 -1.125,-0.67188 C 1.1094,-1.28131 1.1094,-1.93756 1.1094,-2.29696 Z"
         id="path125"
         inkscape:connector-curvature="0" />
    </g>
    <path
       transform="matrix(1,0,0,-1,186.38,137.16)"
       d="m 0.0019062,-2.5e-4 v 11.957"
       stroke-miterlimit="10"
       id="path129"
       inkscape:connector-curvature="0"
       style="fill:none;stroke:#000000;stroke-width:0.398;stroke-miterlimit:10" />
    <g
       id="g133">
      <path
         transform="translate(195.12,133.57)"
         d="m 2.8906,-3.5156 c 0.8125,-0.26562 1.3906,-0.95312 1.3906,-1.75 0,-0.8125 -0.875,-1.375 -1.8281,-1.375 -1,0 -1.7656,0.59375 -1.7656,1.3594 0,0.32812 0.21875,0.51562 0.51562,0.51562 0.29687,0 0.5,-0.21875 0.5,-0.51562 0,-0.48438 -0.46875,-0.48438 -0.60938,-0.48438 0.29688,-0.5 0.95312,-0.625 1.3125,-0.625 0.42188,0 0.96875,0.21875 0.96875,1.1094 0,0.125 -0.03125,0.70312 -0.28125,1.1406 -0.29688,0.48438 -0.64062,0.51562 -0.89062,0.51562 -0.078125,0.015625 -0.3125,0.03125 -0.39062,0.03125 -0.078125,0.015625 -0.14062,0.03125 -0.14062,0.125 0,0.10938 0.0625,0.10938 0.23438,0.10938 h 0.4375 c 0.8125,0 1.1875,0.67188 1.1875,1.6562 0,1.3594 -0.6875,1.6406 -1.125,1.6406 -0.4375,0 -1.1875,-0.17188 -1.5312,-0.75 0.34375,0.046875 0.65625,-0.17188 0.65625,-0.54688 0,-0.35938 -0.26562,-0.5625 -0.54688,-0.5625 -0.25,0 -0.5625,0.14062 -0.5625,0.57812 0,0.90625 0.92188,1.5625 2.0156,1.5625 1.2188,0 2.125,-0.90625 2.125,-1.9219 0,-0.8125 -0.64062,-1.5938 -1.6719,-1.8125 z"
         id="path131"
         inkscape:connector-curvature="0" />
    </g>
    <path
       transform="matrix(1,0,0,-1,208.85,137.16)"
       d="m -3.4375e-4,-2.5e-4 v 11.957"
       stroke-miterlimit="10"
       id="path135"
       inkscape:connector-curvature="0"
       style="fill:none;stroke:#000000;stroke-width:0.398;stroke-miterlimit:10" />
    <g
       id="g145">
      <path
         transform="translate(214.83,133.57)"
         d="m 2.2188,-3.6562 v -2.4375 c 0,-0.34375 0.015625,-0.40625 0.48438,-0.40625 h 1.2344 c 0.96875,0 1.3125,0.84375 1.3125,1.375 0,0.64062 -0.48438,1.4688 -1.5938,1.4688 z m 2.3438,0.09375 c 0.96875,-0.1875 1.6562,-0.82812 1.6562,-1.5625 0,-0.85938 -0.92188,-1.6875 -2.2188,-1.6875 H 0.3594 v 0.3125 h 0.23438 c 0.76562,0 0.79688,0.10938 0.79688,0.46875 v 5.25 c 0,0.35938 -0.03125,0.46875 -0.79688,0.46875 H 0.3594 V 5e-5 h 3.9062 c 1.3281,0 2.2188,-0.89062 2.2188,-1.8281 0,-0.85938 -0.8125,-1.6094 -1.9219,-1.7344 z m -0.60938,3.25 h -1.25 c -0.46875,0 -0.48438,-0.0625 -0.48438,-0.39062 v -2.7188 h 1.875 c 0.98438,0 1.4062,0.92188 1.4062,1.5938 0,0.70312 -0.53125,1.5156 -1.5469,1.5156 z"
         id="path137"
         inkscape:connector-curvature="0" />
      <path
         transform="translate(221.88,133.57)"
         d="m 3.3125,-0.75 c 0.046875,0.39062 0.3125,0.8125 0.78125,0.8125 0.21875,0 0.82812,-0.14062 0.82812,-0.95312 v -0.5625 h -0.25 v 0.5625 c 0,0.57812 -0.25,0.64062 -0.35938,0.64062 -0.32812,0 -0.375,-0.45312 -0.375,-0.5 v -1.9844 c 0,-0.42188 0,-0.8125 -0.35938,-1.1875 -0.39062,-0.39062 -0.89062,-0.54688 -1.3594,-0.54688 -0.82812,0 -1.5156,0.46875 -1.5156,1.125 0,0.29688 0.20312,0.46875 0.46875,0.46875 0.28125,0 0.45312,-0.20312 0.45312,-0.45312 0,-0.125 -0.046875,-0.45312 -0.51562,-0.45312 0.28125,-0.35938 0.76562,-0.46875 1.0781,-0.46875 0.5,0 1.0625,0.39062 1.0625,1.2812 v 0.35938 c -0.51562,0.03125 -1.2031,0.0625 -1.8281,0.35938 -0.75,0.34375 -1,0.85938 -1,1.2969 0,0.8125 0.96875,1.0625 1.5938,1.0625 0.65625,0 1.1094,-0.40625 1.2969,-0.85938 z M 3.25,-2.3906 v 1 c 0,0.9375 -0.71875,1.2812 -1.1719,1.2812 -0.48438,0 -0.89062,-0.34375 -0.89062,-0.84375 0,-0.54688 0.42188,-1.375 2.0625,-1.4375 z"
         id="path139"
         inkscape:connector-curvature="0" />
      <path
         transform="translate(226.86,133.57)"
         d="m 2.0781,-1.9375 c 0.21875,0.046875 1.0312,0.20312 1.0312,0.92188 0,0.5 -0.34375,0.90625 -1.125,0.90625 -0.84375,0 -1.2031,-0.5625 -1.3906,-1.4219 -0.03125,-0.125 -0.03125,-0.15625 -0.14062,-0.15625 -0.125,0 -0.125,0.0625 -0.125,0.23438 v 1.3281 c 0,0.17188 0,0.23438 0.10938,0.23438 0.046875,0 0.0625,-0.015625 0.25,-0.20312 0.015625,-0.015625 0.015625,-0.03125 0.20312,-0.21875 0.4375,0.40625 0.89062,0.42188 1.0938,0.42188 1.1406,0 1.6094,-0.67188 1.6094,-1.3906 0,-0.51562 -0.29688,-0.82812 -0.42188,-0.9375 C 2.84378,-2.54687 2.45315,-2.625 2.0313,-2.70313 1.4688,-2.81251 0.8125,-2.93751 0.8125,-3.51563 c 0,-0.35938 0.25,-0.76562 1.1094,-0.76562 1.0938,0 1.1562,0.90625 1.1719,1.2031 0,0.09375 0.09375,0.09375 0.10938,0.09375 0.14062,0 0.14062,-0.046875 0.14062,-0.23438 v -1.0156 c 0,-0.15625 0,-0.23438 -0.10938,-0.23438 -0.046875,0 -0.078125,0 -0.20312,0.125 -0.03125,0.03125 -0.125,0.125 -0.17188,0.15625 -0.375,-0.28125 -0.78125,-0.28125 -0.9375,-0.28125 -1.2188,0 -1.5938,0.67188 -1.5938,1.2344 0,0.34375 0.15625,0.625 0.42188,0.84375 0.32812,0.25 0.60938,0.3125 1.3281,0.45312 z"
         id="path141"
         inkscape:connector-curvature="0" />
      <path
         transform="translate(230.79,133.57)"
         d="M 1.1094,-2.5156 C 1.1719,-4 2.01565,-4.25 2.3594,-4.25 c 1.0156,0 1.125,1.3438 1.125,1.7344 z m 0,0.21875 h 2.7812 c 0.21875,0 0.25,0 0.25,-0.21875 0,-0.98438 -0.54688,-1.9531 -1.7812,-1.9531 -1.1562,0 -2.0781,1.0312 -2.0781,2.2812 0,1.3281 1.0469,2.2969 2.1875,2.2969 1.2188,0 1.6719,-1.1094 1.6719,-1.2969 0,-0.09375 -0.078125,-0.125 -0.14062,-0.125 -0.078125,0 -0.10938,0.0625 -0.125,0.14062 -0.34375,1.0312 -1.25,1.0312 -1.3438,1.0312 -0.5,0 -0.89062,-0.29688 -1.125,-0.67188 C 1.1094,-1.28131 1.1094,-1.93756 1.1094,-2.29696 Z"
         id="path143"
         inkscape:connector-curvature="0" />
    </g>
    <path
       transform="matrix(1,0,0,-1,241.2,137.16)"
       d="m 2.1875e-4,-2.5e-4 v 11.957"
       stroke-miterlimit="10"
       id="path147"
       inkscape:connector-curvature="0"
       style="fill:none;stroke:#000000;stroke-width:0.398;stroke-miterlimit:10" />
    <g
       id="g151">
      <path
         transform="translate(249.94,133.57)"
         d="m 1.2656,-0.76562 1.0625,-1.0312 c 1.5469,-1.375 2.1406,-1.9062 2.1406,-2.9062 0,-1.1406 -0.89062,-1.9375 -2.1094,-1.9375 -1.125,0 -1.8594,0.92188 -1.8594,1.8125 0,0.54688 0.5,0.54688 0.53125,0.54688 0.17188,0 0.51562,-0.10938 0.51562,-0.53125 0,-0.25 -0.1875,-0.51562 -0.53125,-0.51562 -0.078125,0 -0.09375,0 -0.125,0.015625 0.21875,-0.65625 0.76562,-1.0156 1.3438,-1.0156 0.90625,0 1.3281,0.8125 1.3281,1.625 0,0.79688 -0.48438,1.5781 -1.0469,2.2031 l -1.9062,2.125 c -0.10938,0.10938 -0.10938,0.14062 -0.10938,0.375 h 3.7031 l 0.26562,-1.7344 H 4.23428 c -0.0625,0.29688 -0.125,0.73438 -0.23438,0.89062 C 3.9374,-0.76554 3.28115,-0.76554 3.0624,-0.76554 Z"
         id="path149"
         inkscape:connector-curvature="0" />
    </g>
    <path
       transform="matrix(1,0,0,-1,263.67,137.16)"
       d="m 0.001875,-2.5e-4 v 11.957"
       stroke-miterlimit="10"
       id="path153"
       inkscape:connector-curvature="0"
       style="fill:none;stroke:#000000;stroke-width:0.398;stroke-miterlimit:10" />
    <g
       id="g163">
      <path
         transform="translate(269.65,133.57)"
         d="m 2.2188,-3.6562 v -2.4375 c 0,-0.34375 0.015625,-0.40625 0.48438,-0.40625 h 1.2344 c 0.96875,0 1.3125,0.84375 1.3125,1.375 0,0.64062 -0.48438,1.4688 -1.5938,1.4688 z m 2.3438,0.09375 c 0.96875,-0.1875 1.6562,-0.82812 1.6562,-1.5625 0,-0.85938 -0.92188,-1.6875 -2.2188,-1.6875 H 0.3594 v 0.3125 h 0.23438 c 0.76562,0 0.79688,0.10938 0.79688,0.46875 v 5.25 c 0,0.35938 -0.03125,0.46875 -0.79688,0.46875 H 0.3594 V 5e-5 h 3.9062 c 1.3281,0 2.2188,-0.89062 2.2188,-1.8281 0,-0.85938 -0.8125,-1.6094 -1.9219,-1.7344 z m -0.60938,3.25 h -1.25 c -0.46875,0 -0.48438,-0.0625 -0.48438,-0.39062 v -2.7188 h 1.875 c 0.98438,0 1.4062,0.92188 1.4062,1.5938 0,0.70312 -0.53125,1.5156 -1.5469,1.5156 z"
         id="path155"
         inkscape:connector-curvature="0" />
      <path
         transform="translate(276.7,133.57)"
         d="m 3.3125,-0.75 c 0.046875,0.39062 0.3125,0.8125 0.78125,0.8125 0.21875,0 0.82812,-0.14062 0.82812,-0.95312 v -0.5625 h -0.25 v 0.5625 c 0,0.57812 -0.25,0.64062 -0.35938,0.64062 -0.32812,0 -0.375,-0.45312 -0.375,-0.5 v -1.9844 c 0,-0.42188 0,-0.8125 -0.35938,-1.1875 -0.39062,-0.39062 -0.89062,-0.54688 -1.3594,-0.54688 -0.82812,0 -1.5156,0.46875 -1.5156,1.125 0,0.29688 0.20312,0.46875 0.46875,0.46875 0.28125,0 0.45312,-0.20312 0.45312,-0.45312 0,-0.125 -0.046875,-0.45312 -0.51562,-0.45312 0.28125,-0.35938 0.76562,-0.46875 1.0781,-0.46875 0.5,0 1.0625,0.39062 1.0625,1.2812 v 0.35938 c -0.51562,0.03125 -1.2031,0.0625 -1.8281,0.35938 -0.75,0.34375 -1,0.85938 -1,1.2969 0,0.8125 0.96875,1.0625 1.5938,1.0625 0.65625,0 1.1094,-0.40625 1.2969,-0.85938 z M 3.25,-2.3906 v 1 c 0,0.9375 -0.71875,1.2812 -1.1719,1.2812 -0.48438,0 -0.89062,-0.34375 -0.89062,-0.84375 0,-0.54688 0.42188,-1.375 2.0625,-1.4375 z"
         id="path157"
         inkscape:connector-curvature="0" />
      <path
         transform="translate(281.69,133.57)"
         d="m 2.0781,-1.9375 c 0.21875,0.046875 1.0312,0.20312 1.0312,0.92188 0,0.5 -0.34375,0.90625 -1.125,0.90625 -0.84375,0 -1.2031,-0.5625 -1.3906,-1.4219 -0.03125,-0.125 -0.03125,-0.15625 -0.14062,-0.15625 -0.125,0 -0.125,0.0625 -0.125,0.23438 v 1.3281 c 0,0.17188 0,0.23438 0.10938,0.23438 0.046875,0 0.0625,-0.015625 0.25,-0.20312 0.015625,-0.015625 0.015625,-0.03125 0.20312,-0.21875 0.4375,0.40625 0.89062,0.42188 1.0938,0.42188 1.1406,0 1.6094,-0.67188 1.6094,-1.3906 0,-0.51562 -0.29688,-0.82812 -0.42188,-0.9375 C 2.84378,-2.54687 2.45315,-2.625 2.0313,-2.70313 1.4688,-2.81251 0.8125,-2.93751 0.8125,-3.51563 c 0,-0.35938 0.25,-0.76562 1.1094,-0.76562 1.0938,0 1.1562,0.90625 1.1719,1.2031 0,0.09375 0.09375,0.09375 0.10938,0.09375 0.14062,0 0.14062,-0.046875 0.14062,-0.23438 v -1.0156 c 0,-0.15625 0,-0.23438 -0.10938,-0.23438 -0.046875,0 -0.078125,0 -0.20312,0.125 -0.03125,0.03125 -0.125,0.125 -0.17188,0.15625 -0.375,-0.28125 -0.78125,-0.28125 -0.9375,-0.28125 -1.2188,0 -1.5938,0.67188 -1.5938,1.2344 0,0.34375 0.15625,0.625 0.42188,0.84375 0.32812,0.25 0.60938,0.3125 1.3281,0.45312 z"
         id="path159"
         inkscape:connector-curvature="0" />
      <path
         transform="translate(285.62,133.57)"
         d="M 1.1094,-2.5156 C 1.1719,-4 2.01565,-4.25 2.3594,-4.25 c 1.0156,0 1.125,1.3438 1.125,1.7344 z m 0,0.21875 h 2.7812 c 0.21875,0 0.25,0 0.25,-0.21875 0,-0.98438 -0.54688,-1.9531 -1.7812,-1.9531 -1.1562,0 -2.0781,1.0312 -2.0781,2.2812 0,1.3281 1.0469,2.2969 2.1875,2.2969 1.2188,0 1.6719,-1.1094 1.6719,-1.2969 0,-0.09375 -0.078125,-0.125 -0.14062,-0.125 -0.078125,0 -0.10938,0.0625 -0.125,0.14062 -0.34375,1.0312 -1.25,1.0312 -1.3438,1.0312 -0.5,0 -0.89062,-0.29688 -1.125,-0.67188 C 1.1094,-1.28131 1.1094,-1.93756 1.1094,-2.29696 Z"
         id="path161"
         inkscape:connector-curvature="0" />
    </g>
    <path
       transform="matrix(1,0,0,-1,296.02,137.16)"
       d="m -0.0014688,-2.5e-4 v 11.957"
       stroke-miterlimit="10"
       id="path165"
       inkscape:connector-curvature="0"
       style="fill:none;stroke:#000000;stroke-width:0.398;stroke-miterlimit:10" />
    <g
       id="g169">
      <path
         transform="translate(304.77,133.57)"
         d="m 2.8906,-3.5156 c 0.8125,-0.26562 1.3906,-0.95312 1.3906,-1.75 0,-0.8125 -0.875,-1.375 -1.8281,-1.375 -1,0 -1.7656,0.59375 -1.7656,1.3594 0,0.32812 0.21875,0.51562 0.51562,0.51562 0.29687,0 0.5,-0.21875 0.5,-0.51562 0,-0.48438 -0.46875,-0.48438 -0.60938,-0.48438 0.29688,-0.5 0.95312,-0.625 1.3125,-0.625 0.42188,0 0.96875,0.21875 0.96875,1.1094 0,0.125 -0.03125,0.70312 -0.28125,1.1406 -0.29688,0.48438 -0.64062,0.51562 -0.89062,0.51562 -0.078125,0.015625 -0.3125,0.03125 -0.39062,0.03125 -0.078125,0.015625 -0.14062,0.03125 -0.14062,0.125 0,0.10938 0.0625,0.10938 0.23438,0.10938 h 0.4375 c 0.8125,0 1.1875,0.67188 1.1875,1.6562 0,1.3594 -0.6875,1.6406 -1.125,1.6406 -0.4375,0 -1.1875,-0.17188 -1.5312,-0.75 0.34375,0.046875 0.65625,-0.17188 0.65625,-0.54688 0,-0.35938 -0.26562,-0.5625 -0.54688,-0.5625 -0.25,0 -0.5625,0.14062 -0.5625,0.57812 0,0.90625 0.92188,1.5625 2.0156,1.5625 1.2188,0 2.125,-0.90625 2.125,-1.9219 0,-0.8125 -0.64062,-1.5938 -1.6719,-1.8125 z"
         id="path167"
         inkscape:connector-curvature="0" />
    </g>
    <path
       transform="matrix(1,0,0,-1,318.49,137.16)"
       d="m -8.125e-4,-2.5e-4 v 11.957"
       stroke-miterlimit="10"
       id="path171"
       inkscape:connector-curvature="0"
       style="fill:none;stroke:#000000;stroke-width:0.398;stroke-miterlimit:10" />
    <g
       id="g175">
      <path
         transform="translate(327.24,133.57)"
         d="m 2.9375,-1.6406 v 0.85938 c 0,0.35938 -0.03125,0.46875 -0.76562,0.46875 H 1.96876 V 3e-5 c 0.40625,-0.03125 0.92188,-0.03125 1.3438,-0.03125 0.42192,0 0.9375,0 1.3594,0.03125 v -0.3125 H 4.45321 c -0.73438,0 -0.75,-0.10938 -0.75,-0.46875 V -1.6406 H 4.68759 V -1.9531 H 3.70321 v -4.5312 c 0,-0.20312 0,-0.26562 -0.17188,-0.26562 -0.078125,0 -0.10938,0 -0.1875,0.125 l -3.0625,4.6719 v 0.3125 z m 0.046875,-0.3125 h -2.4219 l 2.4219,-3.7188 z"
         id="path173"
         inkscape:connector-curvature="0" />
    </g>
    <path
       transform="matrix(1,0,0,-1,340.96,137.16)"
       d="m 8.4375e-4,-2.5e-4 v 11.957"
       stroke-miterlimit="10"
       id="path177"
       inkscape:connector-curvature="0"
       style="fill:none;stroke:#000000;stroke-width:0.398;stroke-miterlimit:10" />
    <g
       id="g181">
      <path
         transform="translate(348.05,133.57)"
         d="m 2.8906,-3.5156 c 0.8125,-0.26562 1.3906,-0.95312 1.3906,-1.75 0,-0.8125 -0.875,-1.375 -1.8281,-1.375 -1,0 -1.7656,0.59375 -1.7656,1.3594 0,0.32812 0.21875,0.51562 0.51562,0.51562 0.29687,0 0.5,-0.21875 0.5,-0.51562 0,-0.48438 -0.46875,-0.48438 -0.60938,-0.48438 0.29688,-0.5 0.95312,-0.625 1.3125,-0.625 0.42188,0 0.96875,0.21875 0.96875,1.1094 0,0.125 -0.03125,0.70312 -0.28125,1.1406 -0.29688,0.48438 -0.64062,0.51562 -0.89062,0.51562 -0.078125,0.015625 -0.3125,0.03125 -0.39062,0.03125 -0.078125,0.015625 -0.14062,0.03125 -0.14062,0.125 0,0.10938 0.0625,0.10938 0.23438,0.10938 h 0.4375 c 0.8125,0 1.1875,0.67188 1.1875,1.6562 0,1.3594 -0.6875,1.6406 -1.125,1.6406 -0.4375,0 -1.1875,-0.17188 -1.5312,-0.75 0.34375,0.046875 0.65625,-0.17188 0.65625,-0.54688 0,-0.35938 -0.26562,-0.5625 -0.54688,-0.5625 -0.25,0 -0.5625,0.14062 -0.5625,0.57812 0,0.90625 0.92188,1.5625 2.0156,1.5625 1.2188,0 2.125,-0.90625 2.125,-1.9219 0,-0.8125 -0.64062,-1.5938 -1.6719,-1.8125 z"
         id="path179"
         inkscape:connector-curvature="0" />
    </g>
    <path
       transform="matrix(1,0,0,-1,360.12,137.16)"
       d="m -0.0017188,-2.5e-4 v 11.957"
       stroke-miterlimit="10"
       id="path183"
       inkscape:connector-curvature="0"
       style="fill:none;stroke:#000000;stroke-width:0.398;stroke-miterlimit:10" />
    <g
       id="g193">
      <path
         transform="translate(366.09,133.57)"
         d="m 2.2188,-3.6562 v -2.4375 c 0,-0.34375 0.015625,-0.40625 0.48438,-0.40625 h 1.2344 c 0.96875,0 1.3125,0.84375 1.3125,1.375 0,0.64062 -0.48438,1.4688 -1.5938,1.4688 z m 2.3438,0.09375 c 0.96875,-0.1875 1.6562,-0.82812 1.6562,-1.5625 0,-0.85938 -0.92188,-1.6875 -2.2188,-1.6875 H 0.3594 v 0.3125 h 0.23438 c 0.76562,0 0.79688,0.10938 0.79688,0.46875 v 5.25 c 0,0.35938 -0.03125,0.46875 -0.79688,0.46875 H 0.3594 V 5e-5 h 3.9062 c 1.3281,0 2.2188,-0.89062 2.2188,-1.8281 0,-0.85938 -0.8125,-1.6094 -1.9219,-1.7344 z m -0.60938,3.25 h -1.25 c -0.46875,0 -0.48438,-0.0625 -0.48438,-0.39062 v -2.7188 h 1.875 c 0.98438,0 1.4062,0.92188 1.4062,1.5938 0,0.70312 -0.53125,1.5156 -1.5469,1.5156 z"
         id="path185"
         inkscape:connector-curvature="0" />
      <path
         transform="translate(373.15,133.57)"
         d="m 3.3125,-0.75 c 0.046875,0.39062 0.3125,0.8125 0.78125,0.8125 0.21875,0 0.82812,-0.14062 0.82812,-0.95312 v -0.5625 h -0.25 v 0.5625 c 0,0.57812 -0.25,0.64062 -0.35938,0.64062 -0.32812,0 -0.375,-0.45312 -0.375,-0.5 v -1.9844 c 0,-0.42188 0,-0.8125 -0.35938,-1.1875 -0.39062,-0.39062 -0.89062,-0.54688 -1.3594,-0.54688 -0.82812,0 -1.5156,0.46875 -1.5156,1.125 0,0.29688 0.20312,0.46875 0.46875,0.46875 0.28125,0 0.45312,-0.20312 0.45312,-0.45312 0,-0.125 -0.046875,-0.45312 -0.51562,-0.45312 0.28125,-0.35938 0.76562,-0.46875 1.0781,-0.46875 0.5,0 1.0625,0.39062 1.0625,1.2812 v 0.35938 c -0.51562,0.03125 -1.2031,0.0625 -1.8281,0.35938 -0.75,0.34375 -1,0.85938 -1,1.2969 0,0.8125 0.96875,1.0625 1.5938,1.0625 0.65625,0 1.1094,-0.40625 1.2969,-0.85938 z M 3.25,-2.3906 v 1 c 0,0.9375 -0.71875,1.2812 -1.1719,1.2812 -0.48438,0 -0.89062,-0.34375 -0.89062,-0.84375 0,-0.54688 0.42188,-1.375 2.0625,-1.4375 z"
         id="path187"
         inkscape:connector-curvature="0" />
      <path
         transform="translate(378.13,133.57)"
         d="m 2.0781,-1.9375 c 0.21875,0.046875 1.0312,0.20312 1.0312,0.92188 0,0.5 -0.34375,0.90625 -1.125,0.90625 -0.84375,0 -1.2031,-0.5625 -1.3906,-1.4219 -0.03125,-0.125 -0.03125,-0.15625 -0.14062,-0.15625 -0.125,0 -0.125,0.0625 -0.125,0.23438 v 1.3281 c 0,0.17188 0,0.23438 0.10938,0.23438 0.046875,0 0.0625,-0.015625 0.25,-0.20312 0.015625,-0.015625 0.015625,-0.03125 0.20312,-0.21875 0.4375,0.40625 0.89062,0.42188 1.0938,0.42188 1.1406,0 1.6094,-0.67188 1.6094,-1.3906 0,-0.51562 -0.29688,-0.82812 -0.42188,-0.9375 C 2.84378,-2.54687 2.45315,-2.625 2.0313,-2.70313 1.4688,-2.81251 0.8125,-2.93751 0.8125,-3.51563 c 0,-0.35938 0.25,-0.76562 1.1094,-0.76562 1.0938,0 1.1562,0.90625 1.1719,1.2031 0,0.09375 0.09375,0.09375 0.10938,0.09375 0.14062,0 0.14062,-0.046875 0.14062,-0.23438 v -1.0156 c 0,-0.15625 0,-0.23438 -0.10938,-0.23438 -0.046875,0 -0.078125,0 -0.20312,0.125 -0.03125,0.03125 -0.125,0.125 -0.17188,0.15625 -0.375,-0.28125 -0.78125,-0.28125 -0.9375,-0.28125 -1.2188,0 -1.5938,0.67188 -1.5938,1.2344 0,0.34375 0.15625,0.625 0.42188,0.84375 0.32812,0.25 0.60938,0.3125 1.3281,0.45312 z"
         id="path189"
         inkscape:connector-curvature="0" />
      <path
         transform="translate(382.06,133.57)"
         d="M 1.1094,-2.5156 C 1.1719,-4 2.01565,-4.25 2.3594,-4.25 c 1.0156,0 1.125,1.3438 1.125,1.7344 z m 0,0.21875 h 2.7812 c 0.21875,0 0.25,0 0.25,-0.21875 0,-0.98438 -0.54688,-1.9531 -1.7812,-1.9531 -1.1562,0 -2.0781,1.0312 -2.0781,2.2812 0,1.3281 1.0469,2.2969 2.1875,2.2969 1.2188,0 1.6719,-1.1094 1.6719,-1.2969 0,-0.09375 -0.078125,-0.125 -0.14062,-0.125 -0.078125,0 -0.10938,0.0625 -0.125,0.14062 -0.34375,1.0312 -1.25,1.0312 -1.3438,1.0312 -0.5,0 -0.89062,-0.29688 -1.125,-0.67188 C 1.1094,-1.28131 1.1094,-1.93756 1.1094,-2.29696 Z"
         id="path191"
         inkscape:connector-curvature="0" />
    </g>
    <path
       transform="matrix(1,0,0,-1,392.47,137.16)"
       d="m -0.0011562,-2.5e-4 v 11.957"
       stroke-miterlimit="10"
       id="path195"
       inkscape:connector-curvature="0"
       style="fill:none;stroke:#000000;stroke-width:0.398;stroke-miterlimit:10" />
    <g
       id="g203">
      <path
         transform="translate(398.44,133.57)"
         d="m 1.9062,-0.53125 c 0,-0.28125 -0.23438,-0.53125 -0.51562,-0.53125 -0.29688,0 -0.53125,0.25 -0.53125,0.53125 C 0.85933,-0.23437 1.09371,0 1.39058,0 1.67183,0 1.9062,-0.23438 1.9062,-0.53125 Z"
         id="path197"
         inkscape:connector-curvature="0" />
      <path
         transform="translate(401.21,133.57)"
         d="m 1.9062,-0.53125 c 0,-0.28125 -0.23438,-0.53125 -0.51562,-0.53125 -0.29688,0 -0.53125,0.25 -0.53125,0.53125 C 0.85933,-0.23437 1.09371,0 1.39058,0 1.67183,0 1.9062,-0.23438 1.9062,-0.53125 Z"
         id="path199"
         inkscape:connector-curvature="0" />
      <path
         transform="translate(403.98,133.57)"
         d="m 1.9062,-0.53125 c 0,-0.28125 -0.23438,-0.53125 -0.51562,-0.53125 -0.29688,0 -0.53125,0.25 -0.53125,0.53125 C 0.85933,-0.23437 1.09371,0 1.39058,0 1.67183,0 1.9062,-0.23438 1.9062,-0.53125 Z"
         id="path201"
         inkscape:connector-curvature="0" />
    </g>
    <g
       stroke-miterlimit="10"
       id="g211"
       style="fill:none;stroke:#000000;stroke-width:0.398;stroke-miterlimit:10">
      <path
         transform="matrix(1,0,0,-1,412.72,137.16)"
         d="m -3.4375e-4,-2.5e-4 v 11.957"
         id="path205"
         inkscape:connector-curvature="0" />
      <path
         transform="matrix(1,0,0,-1,133.77,137.36)"
         d="M 0.0015312,-4.6875e-4 H 278.95153"
         id="path207"
         inkscape:connector-curvature="0" />
      <path
         transform="matrix(1,0,0,-1,133.77,149.51)"
         d="M 0.0015312,0.0011875 V 11.954188"
         id="path209"
         inkscape:connector-curvature="0" />
    </g>
    <g
       id="g219">
      <path
         transform="translate(139.75,145.92)"
         d="m 1.9062,-0.53125 c 0,-0.28125 -0.23438,-0.53125 -0.51562,-0.53125 -0.29688,0 -0.53125,0.25 -0.53125,0.53125 C 0.85933,-0.23437 1.09371,0 1.39058,0 1.67183,0 1.9062,-0.23438 1.9062,-0.53125 Z"
         id="path213"
         inkscape:connector-curvature="0" />
      <path
         transform="translate(142.51,145.92)"
         d="m 1.9062,-0.53125 c 0,-0.28125 -0.23438,-0.53125 -0.51562,-0.53125 -0.29688,0 -0.53125,0.25 -0.53125,0.53125 C 0.85933,-0.23437 1.09371,0 1.39058,0 1.67183,0 1.9062,-0.23438 1.9062,-0.53125 Z"
         id="path215"
         inkscape:connector-curvature="0" />
      <path
         transform="translate(145.28,145.92)"
         d="m 1.9062,-0.53125 c 0,-0.28125 -0.23438,-0.53125 -0.51562,-0.53125 -0.29688,0 -0.53125,0.25 -0.53125,0.53125 C 0.85933,-0.23437 1.09371,0 1.39058,0 1.67183,0 1.9062,-0.23438 1.9062,-0.53125 Z"
         id="path217"
         inkscape:connector-curvature="0" />
    </g>
    <path
       transform="matrix(1,0,0,-1,154.03,149.51)"
       d="M 0.0013438,0.0011875 V 11.954188"
       stroke-miterlimit="10"
       id="path221"
       inkscape:connector-curvature="0"
       style="fill:none;stroke:#000000;stroke-width:0.398;stroke-miterlimit:10" />
    <g
       id="g225">
      <path
         transform="translate(166.6,145.92)"
         d="M 2.5469,2.5 V 2.09375 H 1.57815 v -9.1719 H 2.5469 V -7.4844 H 1.1719 V 2.5 Z"
         id="path223"
         inkscape:connector-curvature="0" />
    </g>
    <g
       id="g229">
      <path
         transform="translate(171.03,145.92)"
         d="M 1.5781,-7.4844 H 0.2187 v 0.40625 h 0.96875 v 9.1719 H 0.2187 V 2.5 h 1.3594 z"
         id="path227"
         inkscape:connector-curvature="0" />
    </g>
    <path
       transform="matrix(1,0,0,-1,186.38,149.51)"
       d="M 0.0019062,0.0011875 V 11.954188"
       stroke-miterlimit="10"
       id="path231"
       inkscape:connector-curvature="0"
       style="fill:none;stroke:#000000;stroke-width:0.398;stroke-miterlimit:10" />
    <g
       id="g239">
      <path
         transform="translate(192.35,145.92)"
         d="M 2.5469,2.5 V 2.09375 H 1.57815 v -9.1719 H 2.5469 V -7.4844 H 1.1719 V 2.5 Z"
         id="path233"
         inkscape:connector-curvature="0" />
      <path
         transform="translate(195.12,145.92)"
         d="m 4.5781,-3.1875 c 0,-0.79688 -0.046875,-1.5938 -0.39062,-2.3281 -0.45312,-0.96875 -1.2812,-1.125 -1.6875,-1.125 -0.60938,0 -1.3281,0.26562 -1.75,1.1875 -0.3125,0.6875 -0.35938,1.4688 -0.35938,2.2656 0,0.75 0.03125,1.6406 0.45312,2.4062 0.42188,0.79688 1.1562,1 1.6406,1 0.53125,0 1.2969,-0.20312 1.7344,-1.1562 0.3125,-0.6875 0.35938,-1.4688 0.35938,-2.25 z M 2.4843,0 C 2.09368,0 1.49992,-0.25 1.3281,-1.2031 1.21872,-1.79685 1.21872,-2.7187 1.21872,-3.3125 c 0,-0.64062 0,-1.2969 0.078125,-1.8281 0.1875,-1.1875 0.9375,-1.2812 1.1875,-1.2812 0.32812,0 0.98438,0.1875 1.1719,1.1719 0.10938,0.5625 0.10938,1.3125 0.10938,1.9375 0,0.75 0,1.4219 -0.10938,2.0625 -0.15625,0.95312 -0.71875,1.25 -1.1719,1.25 z"
         id="path235"
         inkscape:connector-curvature="0" />
      <path
         transform="translate(200.1,145.92)"
         d="M 1.5781,-7.4844 H 0.2187 v 0.40625 h 0.96875 v 9.1719 H 0.2187 V 2.5 h 1.3594 z"
         id="path237"
         inkscape:connector-curvature="0" />
    </g>
    <path
       transform="matrix(1,0,0,-1,208.85,149.51)"
       d="M -3.4375e-4,0.0011875 V 11.954188"
       stroke-miterlimit="10"
       id="path241"
       inkscape:connector-curvature="0"
       style="fill:none;stroke:#000000;stroke-width:0.398;stroke-miterlimit:10" />
    <g
       id="g245">
      <path
         transform="translate(221.43,145.92)"
         d="M 2.5469,2.5 V 2.09375 H 1.57815 v -9.1719 H 2.5469 V -7.4844 H 1.1719 V 2.5 Z"
         id="path243"
         inkscape:connector-curvature="0" />
    </g>
    <g
       id="g249">
      <path
         transform="translate(225.86,145.92)"
         d="M 1.5781,-7.4844 H 0.2187 v 0.40625 h 0.96875 v 9.1719 H 0.2187 V 2.5 h 1.3594 z"
         id="path247"
         inkscape:connector-curvature="0" />
    </g>
    <path
       transform="matrix(1,0,0,-1,241.2,149.51)"
       d="M 2.1875e-4,0.0011875 V 11.954188"
       stroke-miterlimit="10"
       id="path251"
       inkscape:connector-curvature="0"
       style="fill:none;stroke:#000000;stroke-width:0.398;stroke-miterlimit:10" />
    <g
       id="g259">
      <path
         transform="translate(247.18,145.92)"
         d="M 2.5469,2.5 V 2.09375 H 1.57815 v -9.1719 H 2.5469 V -7.4844 H 1.1719 V 2.5 Z"
         id="path253"
         inkscape:connector-curvature="0" />
      <path
         transform="translate(249.94,145.92)"
         d="m 2.9375,-6.375 c 0,-0.25 0,-0.26562 -0.23438,-0.26562 C 2.07812,-6 1.20312,-6 0.89062,-6 v 0.3125 c 0.20312,0 0.78125,0 1.2969,-0.26562 v 5.1719 c 0,0.35938 -0.03125,0.46875 -0.92188,0.46875 H 0.95314 V 3e-5 c 0.34375,-0.03125 1.2031,-0.03125 1.6094,-0.03125 0.39062,0 1.2656,0 1.6094,0.03125 v -0.3125 h -0.3125 c -0.90625,0 -0.92188,-0.10938 -0.92188,-0.46875 z"
         id="path255"
         inkscape:connector-curvature="0" />
      <path
         transform="translate(254.93,145.92)"
         d="M 1.5781,-7.4844 H 0.2187 v 0.40625 h 0.96875 v 9.1719 H 0.2187 V 2.5 h 1.3594 z"
         id="path257"
         inkscape:connector-curvature="0" />
    </g>
    <path
       transform="matrix(1,0,0,-1,263.67,149.51)"
       d="M 0.001875,0.0011875 V 11.954188"
       stroke-miterlimit="10"
       id="path261"
       inkscape:connector-curvature="0"
       style="fill:none;stroke:#000000;stroke-width:0.398;stroke-miterlimit:10" />
    <g
       id="g265">
      <path
         transform="translate(276.25,145.92)"
         d="M 2.5469,2.5 V 2.09375 H 1.57815 v -9.1719 H 2.5469 V -7.4844 H 1.1719 V 2.5 Z"
         id="path263"
         inkscape:connector-curvature="0" />
    </g>
    <g
       id="g269">
      <path
         transform="translate(280.68,145.92)"
         d="M 1.5781,-7.4844 H 0.2187 v 0.40625 h 0.96875 v 9.1719 H 0.2187 V 2.5 h 1.3594 z"
         id="path267"
         inkscape:connector-curvature="0" />
    </g>
    <path
       transform="matrix(1,0,0,-1,296.02,149.51)"
       d="M -0.0014688,0.0011875 V 11.954188"
       stroke-miterlimit="10"
       id="path271"
       inkscape:connector-curvature="0"
       style="fill:none;stroke:#000000;stroke-width:0.398;stroke-miterlimit:10" />
    <g
       id="g279">
      <path
         transform="translate(302,145.92)"
         d="M 2.5469,2.5 V 2.09375 H 1.57815 v -9.1719 H 2.5469 V -7.4844 H 1.1719 V 2.5 Z"
         id="path273"
         inkscape:connector-curvature="0" />
      <path
         transform="translate(304.77,145.92)"
         d="m 2.9375,-6.375 c 0,-0.25 0,-0.26562 -0.23438,-0.26562 C 2.07812,-6 1.20312,-6 0.89062,-6 v 0.3125 c 0.20312,0 0.78125,0 1.2969,-0.26562 v 5.1719 c 0,0.35938 -0.03125,0.46875 -0.92188,0.46875 H 0.95314 V 3e-5 c 0.34375,-0.03125 1.2031,-0.03125 1.6094,-0.03125 0.39062,0 1.2656,0 1.6094,0.03125 v -0.3125 h -0.3125 c -0.90625,0 -0.92188,-0.10938 -0.92188,-0.46875 z"
         id="path275"
         inkscape:connector-curvature="0" />
      <path
         transform="translate(309.75,145.92)"
         d="M 1.5781,-7.4844 H 0.2187 v 0.40625 h 0.96875 v 9.1719 H 0.2187 V 2.5 h 1.3594 z"
         id="path277"
         inkscape:connector-curvature="0" />
    </g>
    <path
       transform="matrix(1,0,0,-1,318.49,149.51)"
       d="M -8.125e-4,0.0011875 V 11.954188"
       stroke-miterlimit="10"
       id="path281"
       inkscape:connector-curvature="0"
       style="fill:none;stroke:#000000;stroke-width:0.398;stroke-miterlimit:10" />
    <g
       id="g289">
      <path
         transform="translate(324.47,145.92)"
         d="M 2.5469,2.5 V 2.09375 H 1.57815 v -9.1719 H 2.5469 V -7.4844 H 1.1719 V 2.5 Z"
         id="path283"
         inkscape:connector-curvature="0" />
      <path
         transform="translate(327.24,145.92)"
         d="m 1.2656,-0.76562 1.0625,-1.0312 c 1.5469,-1.375 2.1406,-1.9062 2.1406,-2.9062 0,-1.1406 -0.89062,-1.9375 -2.1094,-1.9375 -1.125,0 -1.8594,0.92188 -1.8594,1.8125 0,0.54688 0.5,0.54688 0.53125,0.54688 0.17188,0 0.51562,-0.10938 0.51562,-0.53125 0,-0.25 -0.1875,-0.51562 -0.53125,-0.51562 -0.078125,0 -0.09375,0 -0.125,0.015625 0.21875,-0.65625 0.76562,-1.0156 1.3438,-1.0156 0.90625,0 1.3281,0.8125 1.3281,1.625 0,0.79688 -0.48438,1.5781 -1.0469,2.2031 l -1.9062,2.125 c -0.10938,0.10938 -0.10938,0.14062 -0.10938,0.375 h 3.7031 l 0.26562,-1.7344 H 4.23428 c -0.0625,0.29688 -0.125,0.73438 -0.23438,0.89062 C 3.9374,-0.76554 3.28115,-0.76554 3.0624,-0.76554 Z"
         id="path285"
         inkscape:connector-curvature="0" />
      <path
         transform="translate(332.22,145.92)"
         d="M 1.5781,-7.4844 H 0.2187 v 0.40625 h 0.96875 v 9.1719 H 0.2187 V 2.5 h 1.3594 z"
         id="path287"
         inkscape:connector-curvature="0" />
    </g>
    <path
       transform="matrix(1,0,0,-1,340.96,149.51)"
       d="M 8.4375e-4,0.0011875 V 11.954188"
       stroke-miterlimit="10"
       id="path291"
       inkscape:connector-curvature="0"
       style="fill:none;stroke:#000000;stroke-width:0.398;stroke-miterlimit:10" />
    <g
       id="g295">
      <path
         transform="translate(346.94,145.92)"
         d="M 2.5469,2.5 V 2.09375 H 1.57815 v -9.1719 H 2.5469 V -7.4844 H 1.1719 V 2.5 Z"
         id="path293"
         inkscape:connector-curvature="0" />
    </g>
    <g
       id="g299">
      <path
         transform="translate(351.37,145.92)"
         d="M 1.5781,-7.4844 H 0.2187 v 0.40625 h 0.96875 v 9.1719 H 0.2187 V 2.5 h 1.3594 z"
         id="path297"
         inkscape:connector-curvature="0" />
    </g>
    <path
       transform="matrix(1,0,0,-1,360.12,149.51)"
       d="M -0.0017188,0.0011875 V 11.954188"
       stroke-miterlimit="10"
       id="path301"
       inkscape:connector-curvature="0"
       style="fill:none;stroke:#000000;stroke-width:0.398;stroke-miterlimit:10" />
    <g
       id="g305">
      <path
         transform="translate(372.69,145.92)"
         d="M 2.5469,2.5 V 2.09375 H 1.57815 v -9.1719 H 2.5469 V -7.4844 H 1.1719 V 2.5 Z"
         id="path303"
         inkscape:connector-curvature="0" />
    </g>
    <g
       id="g309">
      <path
         transform="translate(377.12,145.92)"
         d="M 1.5781,-7.4844 H 0.2187 v 0.40625 h 0.96875 v 9.1719 H 0.2187 V 2.5 h 1.3594 z"
         id="path307"
         inkscape:connector-curvature="0" />
    </g>
    <path
       transform="matrix(1,0,0,-1,392.47,149.51)"
       d="M -0.0011562,0.0011875 V 11.954188"
       stroke-miterlimit="10"
       id="path311"
       inkscape:connector-curvature="0"
       style="fill:none;stroke:#000000;stroke-width:0.398;stroke-miterlimit:10" />
    <g
       id="g319">
      <path
         transform="translate(398.44,145.92)"
         d="m 1.9062,-0.53125 c 0,-0.28125 -0.23438,-0.53125 -0.51562,-0.53125 -0.29688,0 -0.53125,0.25 -0.53125,0.53125 C 0.85933,-0.23437 1.09371,0 1.39058,0 1.67183,0 1.9062,-0.23438 1.9062,-0.53125 Z"
         id="path313"
         inkscape:connector-curvature="0" />
      <path
         transform="translate(401.21,145.92)"
         d="m 1.9062,-0.53125 c 0,-0.28125 -0.23438,-0.53125 -0.51562,-0.53125 -0.29688,0 -0.53125,0.25 -0.53125,0.53125 C 0.85933,-0.23437 1.09371,0 1.39058,0 1.67183,0 1.9062,-0.23438 1.9062,-0.53125 Z"
         id="path315"
         inkscape:connector-curvature="0" />
      <path
         transform="translate(403.98,145.92)"
         d="m 1.9062,-0.53125 c 0,-0.28125 -0.23438,-0.53125 -0.51562,-0.53125 -0.29688,0 -0.53125,0.25 -0.53125,0.53125 C 0.85933,-0.23437 1.09371,0 1.39058,0 1.67183,0 1.9062,-0.23438 1.9062,-0.53125 Z"
         id="path317"
         inkscape:connector-curvature="0" />
    </g>
    <path
       transform="matrix(1,0,0,-1,412.72,149.51)"
       d="M -3.4375e-4,0.0011875 V 11.954188"
       stroke-miterlimit="10"
       id="path321"
       inkscape:connector-curvature="0"
       style="fill:none;stroke:#000000;stroke-width:0.398;stroke-miterlimit:10" />
    <path
       transform="matrix(1,0,0,-1,133.77,149.71)"
       d="M 0.0015312,-0.0019375 H 278.95153"
       stroke-miterlimit="10"
       id="path323"
       inkscape:connector-curvature="0"
       style="fill:none;stroke:#000000;stroke-width:0.398;stroke-miterlimit:10" />
  </g>
  <g
     transform="matrix(0.27201,0,0,0.27201,-14.28816,-34.744857)"
     ns4:version="0.11.0"
     ns4:texconverter="pdflatex"
     ns4:pdfconverter="pdf2svg"
     ns4:text="Subpaths to remove"
     ns4:preamble="/home/chi/.config/inkscape/extensions/textext/default_packages.tex"
     ns4:scale="0.771051093973"
     ns4:alignment="middle center"
     inkscapeversion="0.92.3"
     ns4:jacobian_sqrt="0.27201"
     id="g1327">
    <g
       id="surface1">
      <g
         style="fill:#000000;fill-opacity:1"
         id="g1300">
        <path
           inkscape:connector-curvature="0"
           style="stroke:none;stroke-width:0"
           d="m 3.484375,-3.875 -1.28125,-0.296875 c -0.625,-0.15625 -1,-0.6875 -1,-1.265625 0,-0.703125 0.53125,-1.3125 1.3125,-1.3125 1.65625,0 1.875,1.640625 1.9375,2.078125 0.015625,0.0625 0.015625,0.125 0.125,0.125 0.125,0 0.125,-0.046875 0.125,-0.234375 v -2 c 0,-0.171875 0,-0.25 -0.109375,-0.25 -0.0625,0 -0.078125,0.015625 -0.140625,0.140625 l -0.359375,0.5625 C 3.796875,-6.625 3.390625,-7.03125 2.5,-7.03125 c -1.109375,0 -1.9375,0.875 -1.9375,1.9375 0,0.828125 0.53125,1.5625 1.296875,1.828125 0.109375,0.03125 0.625,0.15625 1.328125,0.328125 0.265625,0.0625 0.5625,0.140625 0.84375,0.5 0.203125,0.265625 0.3125,0.59375 0.3125,0.921875 0,0.703125 -0.5,1.421875 -1.34375,1.421875 -0.28125,0 -1.046875,-0.046875 -1.578125,-0.53125 C 0.84375,-1.171875 0.8125,-1.796875 0.8125,-2.15625 0.796875,-2.265625 0.71875,-2.265625 0.6875,-2.265625 c -0.125,0 -0.125,0.078125 -0.125,0.25 v 2 c 0,0.171875 0,0.234375 0.109375,0.234375 0.0625,0 0.078125,-0.015625 0.140625,-0.125 0,-0.015625 0.03125,-0.046875 0.359375,-0.578125 0.3125,0.34375 0.953125,0.703125 1.84375,0.703125 1.15625,0 1.953125,-0.96875 1.953125,-2.078125 0,-0.984375 -0.65625,-1.8125 -1.484375,-2.015625 z m 0,0"
           transform="translate(148.712,134.765)"
           id="path1284" />
        <path
           inkscape:connector-curvature="0"
           style="stroke:none;stroke-width:0"
           d="M 3.890625,-0.78125 V 0.109375 L 5.328125,0 V -0.3125 C 4.640625,-0.3125 4.5625,-0.375 4.5625,-0.875 v -3.53125 l -1.46875,0.109375 v 0.3125 c 0.6875,0 0.78125,0.0625 0.78125,0.5625 v 1.765625 c 0,0.875 -0.484375,1.546875 -1.21875,1.546875 -0.828125,0 -0.875,-0.46875 -0.875,-0.984375 v -3.3125 L 0.3125,-4.296875 v 0.3125 c 0.78125,0 0.78125,0.03125 0.78125,0.90625 v 1.5 c 0,0.78125 0,1.6875 1.515625,1.6875 0.5625,0 1,-0.28125 1.28125,-0.890625 z m 0,0"
           transform="translate(154.24722,134.765)"
           id="path1286" />
        <path
           inkscape:connector-curvature="0"
           style="stroke:none;stroke-width:0"
           d="m 1.71875,-3.765625 v -3.15625 L 0.28125,-6.8125 V -6.5 c 0.703125,0 0.78125,0.0625 0.78125,0.5625 V 0 h 0.25 c 0,-0.015625 0.078125,-0.15625 0.359375,-0.625 0.140625,0.234375 0.5625,0.734375 1.296875,0.734375 1.1875,0 2.21875,-0.984375 2.21875,-2.265625 0,-1.265625 -0.96875,-2.25 -2.109375,-2.25 -0.78125,0 -1.203125,0.46875 -1.359375,0.640625 z m 0.03125,2.625 V -3.1875 c 0,-0.1875 0,-0.203125 0.109375,-0.359375 C 2.25,-4.109375 2.796875,-4.1875 3.03125,-4.1875 c 0.453125,0 0.8125,0.265625 1.046875,0.640625 0.265625,0.40625 0.28125,0.96875 0.28125,1.390625 0,0.359375 -0.015625,0.953125 -0.296875,1.40625 -0.21875,0.3125 -0.59375,0.640625 -1.125,0.640625 -0.453125,0 -0.8125,-0.234375 -1.046875,-0.609375 C 1.75,-0.921875 1.75,-0.953125 1.75,-1.140625 Z m 0,0"
           transform="translate(159.78244,134.765)"
           id="path1288" />
        <path
           inkscape:connector-curvature="0"
           style="stroke:none;stroke-width:0"
           d="m 1.71875,-3.75 v -0.65625 l -1.4375,0.109375 v 0.3125 c 0.703125,0 0.78125,0.0625 0.78125,0.5 v 4.65625 C 1.0625,1.625 0.953125,1.625 0.28125,1.625 V 1.9375 C 0.625,1.921875 1.140625,1.90625 1.390625,1.90625 c 0.28125,0 0.78125,0.015625 1.125,0.03125 V 1.625 C 1.859375,1.625 1.75,1.625 1.75,1.171875 V -0.59375 c 0.046875,0.171875 0.46875,0.703125 1.21875,0.703125 1.1875,0 2.21875,-0.984375 2.21875,-2.265625 0,-1.265625 -0.953125,-2.25 -2.078125,-2.25 -0.78125,0 -1.203125,0.4375 -1.390625,0.65625 z M 1.75,-1.140625 v -2.21875 C 2.03125,-3.875 2.515625,-4.15625 3.03125,-4.15625 c 0.734375,0 1.328125,0.875 1.328125,2 0,1.203125 -0.6875,2.046875 -1.421875,2.046875 -0.40625,0 -0.78125,-0.203125 -1.046875,-0.609375 C 1.75,-0.921875 1.75,-0.9375 1.75,-1.140625 Z m 0,0"
           transform="translate(165.31766,134.765)"
           id="path1290" />
        <path
           inkscape:connector-curvature="0"
           style="stroke:none;stroke-width:0"
           d="m 3.3125,-0.75 c 0.046875,0.390625 0.3125,0.8125 0.78125,0.8125 0.21875,0 0.828125,-0.140625 0.828125,-0.953125 v -0.5625 h -0.25 v 0.5625 c 0,0.578125 -0.25,0.640625 -0.359375,0.640625 -0.328125,0 -0.375,-0.453125 -0.375,-0.5 v -1.984375 c 0,-0.421875 0,-0.8125 -0.359375,-1.1875 C 3.1875,-4.3125 2.6875,-4.46875 2.21875,-4.46875 c -0.828125,0 -1.515625,0.46875 -1.515625,1.125 0,0.296875 0.203125,0.46875 0.46875,0.46875 0.28125,0 0.453125,-0.203125 0.453125,-0.453125 0,-0.125 -0.046875,-0.453125 -0.515625,-0.453125 C 1.390625,-4.140625 1.875,-4.25 2.1875,-4.25 c 0.5,0 1.0625,0.390625 1.0625,1.28125 v 0.359375 c -0.515625,0.03125 -1.203125,0.0625 -1.828125,0.359375 -0.75,0.34375 -1,0.859375 -1,1.296875 0,0.8125 0.96875,1.0625 1.59375,1.0625 0.65625,0 1.109375,-0.40625 1.296875,-0.859375 z M 3.25,-2.390625 v 1 c 0,0.9375 -0.71875,1.28125 -1.171875,1.28125 -0.484375,0 -0.890625,-0.34375 -0.890625,-0.84375 0,-0.546875 0.421875,-1.375 2.0625,-1.4375 z m 0,0"
           transform="translate(170.85288,134.765)"
           id="path1292" />
        <path
           inkscape:connector-curvature="0"
           style="stroke:none;stroke-width:0"
           d="m 1.71875,-3.984375 h 1.4375 v -0.3125 H 1.71875 V -6.125 h -0.25 c 0,0.8125 -0.296875,1.875 -1.28125,1.921875 v 0.21875 h 0.84375 v 2.75 c 0,1.21875 0.9375,1.34375 1.296875,1.34375 0.703125,0 0.984375,-0.703125 0.984375,-1.34375 v -0.5625 h -0.25 V -1.25 c 0,0.734375 -0.296875,1.109375 -0.671875,1.109375 -0.671875,0 -0.671875,-0.90625 -0.671875,-1.078125 z m 0,0"
           transform="translate(175.83418,134.765)"
           id="path1294" />
        <path
           inkscape:connector-curvature="0"
           style="stroke:none;stroke-width:0"
           d="m 1.09375,-0.75 c 0,0.4375 -0.109375,0.4375 -0.78125,0.4375 V 0 c 0.359375,-0.015625 0.859375,-0.03125 1.140625,-0.03125 0.25,0 0.765625,0.015625 1.109375,0.03125 v -0.3125 c -0.671875,0 -0.78125,0 -0.78125,-0.4375 V -2.59375 C 1.78125,-3.625 2.5,-4.1875 3.125,-4.1875 c 0.640625,0 0.75,0.53125 0.75,1.109375 V -0.75 c 0,0.4375 -0.109375,0.4375 -0.78125,0.4375 V 0 c 0.34375,-0.015625 0.859375,-0.03125 1.125,-0.03125 0.25,0 0.78125,0.015625 1.109375,0.03125 v -0.3125 c -0.515625,0 -0.765625,0 -0.765625,-0.296875 v -1.90625 c 0,-0.859375 0,-1.15625 -0.3125,-1.515625 -0.140625,-0.171875 -0.46875,-0.375 -1.046875,-0.375 -0.84375,0 -1.28125,0.59375 -1.453125,0.984375 v -3.5 L 0.3125,-6.8125 V -6.5 c 0.703125,0 0.78125,0.0625 0.78125,0.5625 z m 0,0"
           transform="translate(179.70864,134.765)"
           id="path1296" />
        <path
           inkscape:connector-curvature="0"
           style="stroke:none;stroke-width:0"
           d="m 2.078125,-1.9375 c 0.21875,0.046875 1.03125,0.203125 1.03125,0.921875 0,0.5 -0.34375,0.90625 -1.125,0.90625 -0.84375,0 -1.203125,-0.5625 -1.390625,-1.421875 C 0.5625,-1.65625 0.5625,-1.6875 0.453125,-1.6875 c -0.125,0 -0.125,0.0625 -0.125,0.234375 V -0.125 c 0,0.171875 0,0.234375 0.109375,0.234375 0.046875,0 0.0625,-0.015625 0.25,-0.203125 0.015625,-0.015625 0.015625,-0.03125 0.203125,-0.21875 0.4375,0.40625 0.890625,0.421875 1.09375,0.421875 1.140625,0 1.609375,-0.671875 1.609375,-1.390625 0,-0.515625 -0.296875,-0.828125 -0.421875,-0.9375 C 2.84375,-2.546875 2.453125,-2.625 2.03125,-2.703125 1.46875,-2.8125 0.8125,-2.9375 0.8125,-3.515625 c 0,-0.359375 0.25,-0.765625 1.109375,-0.765625 1.09375,0 1.15625,0.90625 1.171875,1.203125 0,0.09375 0.09375,0.09375 0.109375,0.09375 0.140625,0 0.140625,-0.046875 0.140625,-0.234375 v -1.015625 c 0,-0.15625 0,-0.234375 -0.109375,-0.234375 -0.046875,0 -0.078125,0 -0.203125,0.125 -0.03125,0.03125 -0.125,0.125 -0.171875,0.15625 -0.375,-0.28125 -0.78125,-0.28125 -0.9375,-0.28125 -1.21875,0 -1.59375,0.671875 -1.59375,1.234375 0,0.34375 0.15625,0.625 0.421875,0.84375 0.328125,0.25 0.609375,0.3125 1.328125,0.453125 z m 0,0"
           transform="translate(185.24386,134.765)"
           id="path1298" />
      </g>
      <g
         style="fill:#000000;fill-opacity:1"
         id="g1306">
        <path
           inkscape:connector-curvature="0"
           style="stroke:none;stroke-width:0"
           d="m 1.71875,-3.984375 h 1.4375 v -0.3125 H 1.71875 V -6.125 h -0.25 c 0,0.8125 -0.296875,1.875 -1.28125,1.921875 v 0.21875 h 0.84375 v 2.75 c 0,1.21875 0.9375,1.34375 1.296875,1.34375 0.703125,0 0.984375,-0.703125 0.984375,-1.34375 v -0.5625 h -0.25 V -1.25 c 0,0.734375 -0.296875,1.109375 -0.671875,1.109375 -0.671875,0 -0.671875,-0.90625 -0.671875,-1.078125 z m 0,0"
           transform="translate(192.49065,134.765)"
           id="path1302" />
        <path
           inkscape:connector-curvature="0"
           style="stroke:none;stroke-width:0"
           d="M 4.6875,-2.140625 C 4.6875,-3.40625 3.703125,-4.46875 2.5,-4.46875 c -1.25,0 -2.21875,1.09375 -2.21875,2.328125 0,1.296875 1.03125,2.25 2.203125,2.25 1.203125,0 2.203125,-0.984375 2.203125,-2.25 z m -2.1875,2 c -0.4375,0 -0.875,-0.203125 -1.140625,-0.671875 -0.25,-0.4375 -0.25,-1.046875 -0.25,-1.40625 0,-0.390625 0,-0.921875 0.234375,-1.359375 C 1.609375,-4.03125 2.078125,-4.25 2.484375,-4.25 c 0.4375,0 0.859375,0.21875 1.125,0.65625 0.265625,0.421875 0.265625,1 0.265625,1.375 0,0.359375 0,0.90625 -0.21875,1.34375 C 3.421875,-0.421875 2.984375,-0.140625 2.5,-0.140625 Z m 0,0"
           transform="translate(196.36511,134.765)"
           id="path1304" />
      </g>
      <g
         style="fill:#000000;fill-opacity:1"
         id="g1316">
        <path
           inkscape:connector-curvature="0"
           style="stroke:none;stroke-width:0"
           d="M 1.671875,-3.3125 V -4.40625 L 0.28125,-4.296875 v 0.3125 c 0.703125,0 0.78125,0.0625 0.78125,0.5625 V -0.75 c 0,0.4375 -0.109375,0.4375 -0.78125,0.4375 V 0 c 0.390625,-0.015625 0.859375,-0.03125 1.140625,-0.03125 0.390625,0 0.859375,0 1.265625,0.03125 V -0.3125 H 2.46875 c -0.734375,0 -0.75,-0.109375 -0.75,-0.46875 V -2.3125 c 0,-0.984375 0.421875,-1.875 1.171875,-1.875 0.0625,0 0.09375,0 0.109375,0.015625 -0.03125,0 -0.234375,0.125 -0.234375,0.390625 0,0.265625 0.21875,0.421875 0.4375,0.421875 0.171875,0 0.421875,-0.125 0.421875,-0.4375 0,-0.3125 -0.3125,-0.609375 -0.734375,-0.609375 -0.734375,0 -1.09375,0.671875 -1.21875,1.09375 z m 0,0"
           transform="translate(204.67392,134.765)"
           id="path1308" />
        <path
           inkscape:connector-curvature="0"
           style="stroke:none;stroke-width:0"
           d="M 1.109375,-2.515625 C 1.171875,-4 2.015625,-4.25 2.359375,-4.25 c 1.015625,0 1.125,1.34375 1.125,1.734375 z m 0,0.21875 h 2.78125 c 0.21875,0 0.25,0 0.25,-0.21875 0,-0.984375 -0.546875,-1.953125 -1.78125,-1.953125 -1.15625,0 -2.078125,1.03125 -2.078125,2.28125 0,1.328125 1.046875,2.296875 2.1875,2.296875 C 3.6875,0.109375 4.140625,-1 4.140625,-1.1875 4.140625,-1.28125 4.0625,-1.3125 4,-1.3125 c -0.078125,0 -0.109375,0.0625 -0.125,0.140625 -0.34375,1.03125 -1.25,1.03125 -1.34375,1.03125 -0.5,0 -0.890625,-0.296875 -1.125,-0.671875 -0.296875,-0.46875 -0.296875,-1.125 -0.296875,-1.484375 z m 0,0"
           transform="translate(208.57627,134.765)"
           id="path1310" />
        <path
           inkscape:connector-curvature="0"
           style="stroke:none;stroke-width:0"
           d="M 1.09375,-3.421875 V -0.75 c 0,0.4375 -0.109375,0.4375 -0.78125,0.4375 V 0 c 0.359375,-0.015625 0.859375,-0.03125 1.140625,-0.03125 0.25,0 0.765625,0.015625 1.109375,0.03125 v -0.3125 c -0.671875,0 -0.78125,0 -0.78125,-0.4375 V -2.59375 C 1.78125,-3.625 2.5,-4.1875 3.125,-4.1875 c 0.640625,0 0.75,0.53125 0.75,1.109375 V -0.75 c 0,0.4375 -0.109375,0.4375 -0.78125,0.4375 V 0 c 0.34375,-0.015625 0.859375,-0.03125 1.125,-0.03125 0.25,0 0.78125,0.015625 1.109375,0.03125 v -0.3125 c -0.65625,0 -0.765625,0 -0.765625,-0.4375 v -1.84375 c 0,-1.03125 0.703125,-1.59375 1.34375,-1.59375 0.625,0 0.734375,0.53125 0.734375,1.109375 V -0.75 c 0,0.4375 -0.109375,0.4375 -0.78125,0.4375 V 0 c 0.34375,-0.015625 0.859375,-0.03125 1.125,-0.03125 0.265625,0 0.78125,0.015625 1.125,0.03125 v -0.3125 c -0.515625,0 -0.765625,0 -0.78125,-0.296875 v -1.90625 c 0,-0.859375 0,-1.15625 -0.3125,-1.515625 -0.140625,-0.171875 -0.46875,-0.375 -1.046875,-0.375 -0.828125,0 -1.28125,0.59375 -1.4375,0.984375 C 4.390625,-4.296875 3.65625,-4.40625 3.203125,-4.40625 2.46875,-4.40625 2,-3.984375 1.71875,-3.359375 V -4.40625 L 0.3125,-4.296875 v 0.3125 c 0.703125,0 0.78125,0.0625 0.78125,0.5625 z m 0,0"
           transform="translate(213.00365,134.765)"
           id="path1312" />
        <path
           inkscape:connector-curvature="0"
           style="stroke:none;stroke-width:0"
           d="M 4.6875,-2.140625 C 4.6875,-3.40625 3.703125,-4.46875 2.5,-4.46875 c -1.25,0 -2.21875,1.09375 -2.21875,2.328125 0,1.296875 1.03125,2.25 2.203125,2.25 1.203125,0 2.203125,-0.984375 2.203125,-2.25 z m -2.1875,2 c -0.4375,0 -0.875,-0.203125 -1.140625,-0.671875 -0.25,-0.4375 -0.25,-1.046875 -0.25,-1.40625 0,-0.390625 0,-0.921875 0.234375,-1.359375 C 1.609375,-4.03125 2.078125,-4.25 2.484375,-4.25 c 0.4375,0 0.859375,0.21875 1.125,0.65625 0.265625,0.421875 0.265625,1 0.265625,1.375 0,0.359375 0,0.90625 -0.21875,1.34375 C 3.421875,-0.421875 2.984375,-0.140625 2.5,-0.140625 Z m 0,0"
           transform="translate(221.30548,134.765)"
           id="path1314" />
      </g>
      <g
         style="fill:#000000;fill-opacity:1"
         id="g1320">
        <path
           inkscape:connector-curvature="0"
           style="stroke:none;stroke-width:0"
           d="M 4.140625,-3.3125 C 4.234375,-3.546875 4.40625,-3.984375 5.0625,-3.984375 v -0.3125 c -0.234375,0.015625 -0.515625,0.03125 -0.75,0.03125 -0.234375,0 -0.6875,-0.015625 -0.859375,-0.03125 v 0.3125 c 0.359375,0 0.46875,0.234375 0.46875,0.421875 0,0.09375 -0.015625,0.140625 -0.046875,0.25 L 2.84375,-0.78125 1.734375,-3.5625 c -0.0625,-0.125 -0.0625,-0.140625 -0.0625,-0.171875 0,-0.25 0.390625,-0.25 0.578125,-0.25 v -0.3125 c -0.3125,0.015625 -0.859375,0.03125 -1.09375,0.03125 -0.265625,0 -0.671875,-0.015625 -0.96875,-0.03125 v 0.3125 c 0.625,0 0.671875,0.0625 0.796875,0.359375 l 1.4375,3.546875 C 2.484375,0.0625 2.5,0.109375 2.625,0.109375 c 0.140625,0 0.171875,-0.09375 0.21875,-0.1875 z m 0,0"
           transform="translate(226.00783,134.765)"
           id="path1318" />
      </g>
      <g
         style="fill:#000000;fill-opacity:1"
         id="g1324">
        <path
           inkscape:connector-curvature="0"
           style="stroke:none;stroke-width:0"
           d="M 1.109375,-2.515625 C 1.171875,-4 2.015625,-4.25 2.359375,-4.25 c 1.015625,0 1.125,1.34375 1.125,1.734375 z m 0,0.21875 h 2.78125 c 0.21875,0 0.25,0 0.25,-0.21875 0,-0.984375 -0.546875,-1.953125 -1.78125,-1.953125 -1.15625,0 -2.078125,1.03125 -2.078125,2.28125 0,1.328125 1.046875,2.296875 2.1875,2.296875 C 3.6875,0.109375 4.140625,-1 4.140625,-1.1875 4.140625,-1.28125 4.0625,-1.3125 4,-1.3125 c -0.078125,0 -0.109375,0.0625 -0.125,0.140625 -0.34375,1.03125 -1.25,1.03125 -1.34375,1.03125 -0.5,0 -0.890625,-0.296875 -1.125,-0.671875 -0.296875,-0.46875 -0.296875,-1.125 -0.296875,-1.484375 z m 0,0"
           transform="translate(230.98714,134.765)"
           id="path1322" />
      </g>
    </g>
  </g>
  <path
     style="fill:#ff0000;stroke:#ff0000;stroke-width:0.25600001"
     d="m 35.388323,5.9919254 v -1.5"
     id="path1697"
     inkscape:connector-curvature="0" />
  <path
     inkscape:connector-curvature="0"
     id="path1699"
     d="m 35.388323,4.4919254 v -1.5"
     style="fill:#ff0000;stroke:#ff0000;stroke-width:0.25600001" />
  <path
     d="M 35.388323,2.9919254 H 70.422386"
     id="path1701"
     inkscape:connector-curvature="0"
     style="fill:#ff0000;stroke:#ff0000;stroke-width:0.25600001;stroke-linecap:round;stroke-miterlimit:4;stroke-dasharray:none" />
  <path
     style="fill:#ff0000;stroke:#ff0000;stroke-width:0.25600001"
     d="m 70.422386,5.9919254 v -1.5"
     id="path1718"
     inkscape:connector-curvature="0" />
  <path
     inkscape:connector-curvature="0"
     id="path1720"
     d="m 70.422386,4.4919254 v -1.5"
     style="fill:#ff0000;stroke:#ff0000;stroke-width:0.25600001" />
  <g
     id="g2207"
     ns4:jacobian_sqrt="0.27201"
     inkscapeversion="0.92.3"
     ns4:alignment="middle center"
     ns4:scale="0.771051093973"
     ns4:preamble="/home/chi/.config/inkscape/extensions/textext/default_packages.tex"
     ns4:text="\\begin{table}[h!]\n\\label{tab:solution_representation}\n\\begin{tabular}{|c|c|c|c|c|}\n\\hline\n... &amp; Base   &amp; 3      &amp; Base  &amp; ... \\\\ \\hline\n... &amp; {[\\,]} &amp; {[0]} &amp; {[\\,]} &amp; ... \\\\ \\hline\n\\end{tabular}\n\\end{table}\n"
     ns4:pdfconverter="pdf2svg"
     ns4:texconverter="pdflatex"
     ns4:version="0.11.0"
     transform="matrix(0.27201,0,0,0.27201,-15.767594,-13.867276)">
    <g
       id="g2205">
      <path
         id="path2095"
         transform="matrix(1,0,0,-1,133.768,125.001)"
         d="M 0.00153125,0.001 H 127.68903"
         style="fill:none;stroke:#000000;stroke-width:0.398;stroke-linecap:butt;stroke-linejoin:miter;stroke-miterlimit:10;stroke-opacity:1"
         inkscape:connector-curvature="0" />
      <path
         id="path2097"
         transform="matrix(1,0,0,-1,133.768,137.156)"
         d="M 0.00153125,-2.5e-4 V 11.956781"
         style="fill:none;stroke:#000000;stroke-width:0.398;stroke-linecap:butt;stroke-linejoin:miter;stroke-miterlimit:10;stroke-opacity:1"
         inkscape:connector-curvature="0" />
      <g
         id="g2105"
         style="fill:#000000;fill-opacity:1">
        <path
           id="path2099"
           transform="translate(139.746,133.569)"
           d="m 1.90625,-0.53125 c 0,-0.28125 -0.234375,-0.53125 -0.515625,-0.53125 -0.296875,0 -0.53125,0.25 -0.53125,0.53125 C 0.859375,-0.234375 1.09375,0 1.390625,0 1.671875,0 1.90625,-0.234375 1.90625,-0.53125 Z m 0,0"
           style="stroke:none;stroke-width:0"
           inkscape:connector-curvature="0" />
        <path
           id="path2101"
           transform="translate(142.51361,133.569)"
           d="m 1.90625,-0.53125 c 0,-0.28125 -0.234375,-0.53125 -0.515625,-0.53125 -0.296875,0 -0.53125,0.25 -0.53125,0.53125 C 0.859375,-0.234375 1.09375,0 1.390625,0 1.671875,0 1.90625,-0.234375 1.90625,-0.53125 Z m 0,0"
           style="stroke:none;stroke-width:0"
           inkscape:connector-curvature="0" />
        <path
           id="path2103"
           transform="translate(145.28122,133.569)"
           d="m 1.90625,-0.53125 c 0,-0.28125 -0.234375,-0.53125 -0.515625,-0.53125 -0.296875,0 -0.53125,0.25 -0.53125,0.53125 C 0.859375,-0.234375 1.09375,0 1.390625,0 1.671875,0 1.90625,-0.234375 1.90625,-0.53125 Z m 0,0"
           style="stroke:none;stroke-width:0"
           inkscape:connector-curvature="0" />
      </g>
      <path
         id="path2107"
         transform="matrix(1,0,0,-1,154.026,137.156)"
         d="M 0.00134375,-2.5e-4 V 11.956781"
         style="fill:none;stroke:#000000;stroke-width:0.398;stroke-linecap:butt;stroke-linejoin:miter;stroke-miterlimit:10;stroke-opacity:1"
         inkscape:connector-curvature="0" />
      <g
         id="g2117"
         style="fill:#000000;fill-opacity:1">
        <path
           id="path2109"
           transform="translate(160.003,133.569)"
           d="m 2.21875,-3.65625 v -2.4375 C 2.21875,-6.4375 2.234375,-6.5 2.703125,-6.5 H 3.9375 c 0.96875,0 1.3125,0.84375 1.3125,1.375 0,0.640625 -0.484375,1.46875 -1.59375,1.46875 z M 4.5625,-3.5625 C 5.53125,-3.75 6.21875,-4.390625 6.21875,-5.125 6.21875,-5.984375 5.296875,-6.8125 4,-6.8125 H 0.359375 V -6.5 H 0.59375 c 0.765625,0 0.796875,0.109375 0.796875,0.46875 v 5.25 c 0,0.359375 -0.03125,0.46875 -0.796875,0.46875 H 0.359375 V 0 h 3.90625 c 1.328125,0 2.21875,-0.890625 2.21875,-1.828125 0,-0.859375 -0.8125,-1.609375 -1.921875,-1.734375 z m -0.609375,3.25 h -1.25 c -0.46875,0 -0.484375,-0.0625 -0.484375,-0.390625 v -2.71875 h 1.875 C 5.078125,-3.421875 5.5,-2.5 5.5,-1.828125 5.5,-1.125 4.96875,-0.3125 3.953125,-0.3125 Z m 0,0"
           style="stroke:none;stroke-width:0"
           inkscape:connector-curvature="0" />
        <path
           id="path2111"
           transform="translate(167.05951,133.569)"
           d="m 3.3125,-0.75 c 0.046875,0.390625 0.3125,0.8125 0.78125,0.8125 0.21875,0 0.828125,-0.140625 0.828125,-0.953125 v -0.5625 h -0.25 v 0.5625 c 0,0.578125 -0.25,0.640625 -0.359375,0.640625 -0.328125,0 -0.375,-0.453125 -0.375,-0.5 v -1.984375 c 0,-0.421875 0,-0.8125 -0.359375,-1.1875 C 3.1875,-4.3125 2.6875,-4.46875 2.21875,-4.46875 c -0.828125,0 -1.515625,0.46875 -1.515625,1.125 0,0.296875 0.203125,0.46875 0.46875,0.46875 0.28125,0 0.453125,-0.203125 0.453125,-0.453125 0,-0.125 -0.046875,-0.453125 -0.515625,-0.453125 C 1.390625,-4.140625 1.875,-4.25 2.1875,-4.25 c 0.5,0 1.0625,0.390625 1.0625,1.28125 v 0.359375 c -0.515625,0.03125 -1.203125,0.0625 -1.828125,0.359375 -0.75,0.34375 -1,0.859375 -1,1.296875 0,0.8125 0.96875,1.0625 1.59375,1.0625 0.65625,0 1.109375,-0.40625 1.296875,-0.859375 z M 3.25,-2.390625 v 1 c 0,0.9375 -0.71875,1.28125 -1.171875,1.28125 -0.484375,0 -0.890625,-0.34375 -0.890625,-0.84375 0,-0.546875 0.421875,-1.375 2.0625,-1.4375 z m 0,0"
           style="stroke:none;stroke-width:0"
           inkscape:connector-curvature="0" />
        <path
           id="path2113"
           transform="translate(172.04081,133.569)"
           d="m 2.078125,-1.9375 c 0.21875,0.046875 1.03125,0.203125 1.03125,0.921875 0,0.5 -0.34375,0.90625 -1.125,0.90625 -0.84375,0 -1.203125,-0.5625 -1.390625,-1.421875 C 0.5625,-1.65625 0.5625,-1.6875 0.453125,-1.6875 c -0.125,0 -0.125,0.0625 -0.125,0.234375 V -0.125 c 0,0.171875 0,0.234375 0.109375,0.234375 0.046875,0 0.0625,-0.015625 0.25,-0.203125 0.015625,-0.015625 0.015625,-0.03125 0.203125,-0.21875 0.4375,0.40625 0.890625,0.421875 1.09375,0.421875 1.140625,0 1.609375,-0.671875 1.609375,-1.390625 0,-0.515625 -0.296875,-0.828125 -0.421875,-0.9375 C 2.84375,-2.546875 2.453125,-2.625 2.03125,-2.703125 1.46875,-2.8125 0.8125,-2.9375 0.8125,-3.515625 c 0,-0.359375 0.25,-0.765625 1.109375,-0.765625 1.09375,0 1.15625,0.90625 1.171875,1.203125 0,0.09375 0.09375,0.09375 0.109375,0.09375 0.140625,0 0.140625,-0.046875 0.140625,-0.234375 v -1.015625 c 0,-0.15625 0,-0.234375 -0.109375,-0.234375 -0.046875,0 -0.078125,0 -0.203125,0.125 -0.03125,0.03125 -0.125,0.125 -0.171875,0.15625 -0.375,-0.28125 -0.78125,-0.28125 -0.9375,-0.28125 -1.21875,0 -1.59375,0.671875 -1.59375,1.234375 0,0.34375 0.15625,0.625 0.421875,0.84375 0.328125,0.25 0.609375,0.3125 1.328125,0.453125 z m 0,0"
           style="stroke:none;stroke-width:0"
           inkscape:connector-curvature="0" />
        <path
           id="path2115"
           transform="translate(175.97006,133.569)"
           d="M 1.109375,-2.515625 C 1.171875,-4 2.015625,-4.25 2.359375,-4.25 c 1.015625,0 1.125,1.34375 1.125,1.734375 z m 0,0.21875 h 2.78125 c 0.21875,0 0.25,0 0.25,-0.21875 0,-0.984375 -0.546875,-1.953125 -1.78125,-1.953125 -1.15625,0 -2.078125,1.03125 -2.078125,2.28125 0,1.328125 1.046875,2.296875 2.1875,2.296875 C 3.6875,0.109375 4.140625,-1 4.140625,-1.1875 4.140625,-1.28125 4.0625,-1.3125 4,-1.3125 c -0.078125,0 -0.109375,0.0625 -0.125,0.140625 -0.34375,1.03125 -1.25,1.03125 -1.34375,1.03125 -0.5,0 -0.890625,-0.296875 -1.125,-0.671875 -0.296875,-0.46875 -0.296875,-1.125 -0.296875,-1.484375 z m 0,0"
           style="stroke:none;stroke-width:0"
           inkscape:connector-curvature="0" />
      </g>
      <path
         id="path2119"
         transform="matrix(1,0,0,-1,186.377,137.156)"
         d="M 0.00190625,-2.5e-4 V 11.956781"
         style="fill:none;stroke:#000000;stroke-width:0.398;stroke-linecap:butt;stroke-linejoin:miter;stroke-miterlimit:10;stroke-opacity:1"
         inkscape:connector-curvature="0" />
      <g
         id="g2123"
         style="fill:#000000;fill-opacity:1">
        <path
           id="path2121"
           transform="translate(195.122,133.569)"
           d="m 2.890625,-3.515625 c 0.8125,-0.265625 1.390625,-0.953125 1.390625,-1.75 0,-0.8125 -0.875,-1.375 -1.828125,-1.375 -1,0 -1.765625,0.59375 -1.765625,1.359375 0,0.328125 0.21875,0.515625 0.515625,0.515625 0.296875,0 0.5,-0.21875 0.5,-0.515625 0,-0.484375 -0.46875,-0.484375 -0.609375,-0.484375 0.296875,-0.5 0.953125,-0.625 1.3125,-0.625 0.421875,0 0.96875,0.21875 0.96875,1.109375 0,0.125 -0.03125,0.703125 -0.28125,1.140625 C 2.796875,-3.65625 2.453125,-3.625 2.203125,-3.625 2.125,-3.609375 1.890625,-3.59375 1.8125,-3.59375 c -0.078125,0.015625 -0.140625,0.03125 -0.140625,0.125 0,0.109375 0.0625,0.109375 0.234375,0.109375 h 0.4375 c 0.8125,0 1.1875,0.671875 1.1875,1.65625 0,1.359375 -0.6875,1.640625 -1.125,1.640625 -0.4375,0 -1.1875,-0.171875 -1.53125,-0.75 0.34375,0.046875 0.65625,-0.171875 0.65625,-0.546875 0,-0.359375 -0.265625,-0.5625 -0.546875,-0.5625 -0.25,0 -0.5625,0.140625 -0.5625,0.578125 0,0.90625 0.921875,1.5625 2.015625,1.5625 1.21875,0 2.125,-0.90625 2.125,-1.921875 0,-0.8125 -0.640625,-1.59375 -1.671875,-1.8125 z m 0,0"
           style="stroke:none;stroke-width:0"
           inkscape:connector-curvature="0" />
      </g>
      <path
         id="path2125"
         transform="matrix(1,0,0,-1,208.848,137.156)"
         d="M -3.4375e-4,-2.5e-4 V 11.956781"
         style="fill:none;stroke:#000000;stroke-width:0.398;stroke-linecap:butt;stroke-linejoin:miter;stroke-miterlimit:10;stroke-opacity:1"
         inkscape:connector-curvature="0" />
      <g
         id="g2135"
         style="fill:#000000;fill-opacity:1">
        <path
           id="path2127"
           transform="translate(214.826,133.569)"
           d="m 2.21875,-3.65625 v -2.4375 C 2.21875,-6.4375 2.234375,-6.5 2.703125,-6.5 H 3.9375 c 0.96875,0 1.3125,0.84375 1.3125,1.375 0,0.640625 -0.484375,1.46875 -1.59375,1.46875 z M 4.5625,-3.5625 C 5.53125,-3.75 6.21875,-4.390625 6.21875,-5.125 6.21875,-5.984375 5.296875,-6.8125 4,-6.8125 H 0.359375 V -6.5 H 0.59375 c 0.765625,0 0.796875,0.109375 0.796875,0.46875 v 5.25 c 0,0.359375 -0.03125,0.46875 -0.796875,0.46875 H 0.359375 V 0 h 3.90625 c 1.328125,0 2.21875,-0.890625 2.21875,-1.828125 0,-0.859375 -0.8125,-1.609375 -1.921875,-1.734375 z m -0.609375,3.25 h -1.25 c -0.46875,0 -0.484375,-0.0625 -0.484375,-0.390625 v -2.71875 h 1.875 C 5.078125,-3.421875 5.5,-2.5 5.5,-1.828125 5.5,-1.125 4.96875,-0.3125 3.953125,-0.3125 Z m 0,0"
           style="stroke:none;stroke-width:0"
           inkscape:connector-curvature="0" />
        <path
           id="path2129"
           transform="translate(221.88251,133.569)"
           d="m 3.3125,-0.75 c 0.046875,0.390625 0.3125,0.8125 0.78125,0.8125 0.21875,0 0.828125,-0.140625 0.828125,-0.953125 v -0.5625 h -0.25 v 0.5625 c 0,0.578125 -0.25,0.640625 -0.359375,0.640625 -0.328125,0 -0.375,-0.453125 -0.375,-0.5 v -1.984375 c 0,-0.421875 0,-0.8125 -0.359375,-1.1875 C 3.1875,-4.3125 2.6875,-4.46875 2.21875,-4.46875 c -0.828125,0 -1.515625,0.46875 -1.515625,1.125 0,0.296875 0.203125,0.46875 0.46875,0.46875 0.28125,0 0.453125,-0.203125 0.453125,-0.453125 0,-0.125 -0.046875,-0.453125 -0.515625,-0.453125 C 1.390625,-4.140625 1.875,-4.25 2.1875,-4.25 c 0.5,0 1.0625,0.390625 1.0625,1.28125 v 0.359375 c -0.515625,0.03125 -1.203125,0.0625 -1.828125,0.359375 -0.75,0.34375 -1,0.859375 -1,1.296875 0,0.8125 0.96875,1.0625 1.59375,1.0625 0.65625,0 1.109375,-0.40625 1.296875,-0.859375 z M 3.25,-2.390625 v 1 c 0,0.9375 -0.71875,1.28125 -1.171875,1.28125 -0.484375,0 -0.890625,-0.34375 -0.890625,-0.84375 0,-0.546875 0.421875,-1.375 2.0625,-1.4375 z m 0,0"
           style="stroke:none;stroke-width:0"
           inkscape:connector-curvature="0" />
        <path
           id="path2131"
           transform="translate(226.86381,133.569)"
           d="m 2.078125,-1.9375 c 0.21875,0.046875 1.03125,0.203125 1.03125,0.921875 0,0.5 -0.34375,0.90625 -1.125,0.90625 -0.84375,0 -1.203125,-0.5625 -1.390625,-1.421875 C 0.5625,-1.65625 0.5625,-1.6875 0.453125,-1.6875 c -0.125,0 -0.125,0.0625 -0.125,0.234375 V -0.125 c 0,0.171875 0,0.234375 0.109375,0.234375 0.046875,0 0.0625,-0.015625 0.25,-0.203125 0.015625,-0.015625 0.015625,-0.03125 0.203125,-0.21875 0.4375,0.40625 0.890625,0.421875 1.09375,0.421875 1.140625,0 1.609375,-0.671875 1.609375,-1.390625 0,-0.515625 -0.296875,-0.828125 -0.421875,-0.9375 C 2.84375,-2.546875 2.453125,-2.625 2.03125,-2.703125 1.46875,-2.8125 0.8125,-2.9375 0.8125,-3.515625 c 0,-0.359375 0.25,-0.765625 1.109375,-0.765625 1.09375,0 1.15625,0.90625 1.171875,1.203125 0,0.09375 0.09375,0.09375 0.109375,0.09375 0.140625,0 0.140625,-0.046875 0.140625,-0.234375 v -1.015625 c 0,-0.15625 0,-0.234375 -0.109375,-0.234375 -0.046875,0 -0.078125,0 -0.203125,0.125 -0.03125,0.03125 -0.125,0.125 -0.171875,0.15625 -0.375,-0.28125 -0.78125,-0.28125 -0.9375,-0.28125 -1.21875,0 -1.59375,0.671875 -1.59375,1.234375 0,0.34375 0.15625,0.625 0.421875,0.84375 0.328125,0.25 0.609375,0.3125 1.328125,0.453125 z m 0,0"
           style="stroke:none;stroke-width:0"
           inkscape:connector-curvature="0" />
        <path
           id="path2133"
           transform="translate(230.79306,133.569)"
           d="M 1.109375,-2.515625 C 1.171875,-4 2.015625,-4.25 2.359375,-4.25 c 1.015625,0 1.125,1.34375 1.125,1.734375 z m 0,0.21875 h 2.78125 c 0.21875,0 0.25,0 0.25,-0.21875 0,-0.984375 -0.546875,-1.953125 -1.78125,-1.953125 -1.15625,0 -2.078125,1.03125 -2.078125,2.28125 0,1.328125 1.046875,2.296875 2.1875,2.296875 C 3.6875,0.109375 4.140625,-1 4.140625,-1.1875 4.140625,-1.28125 4.0625,-1.3125 4,-1.3125 c -0.078125,0 -0.109375,0.0625 -0.125,0.140625 -0.34375,1.03125 -1.25,1.03125 -1.34375,1.03125 -0.5,0 -0.890625,-0.296875 -1.125,-0.671875 -0.296875,-0.46875 -0.296875,-1.125 -0.296875,-1.484375 z m 0,0"
           style="stroke:none;stroke-width:0"
           inkscape:connector-curvature="0" />
      </g>
      <path
         id="path2137"
         transform="matrix(1,0,0,-1,241.199,137.156)"
         d="M 2.1875e-4,-2.5e-4 V 11.956781"
         style="fill:none;stroke:#000000;stroke-width:0.398;stroke-linecap:butt;stroke-linejoin:miter;stroke-miterlimit:10;stroke-opacity:1"
         inkscape:connector-curvature="0" />
      <g
         id="g2145"
         style="fill:#000000;fill-opacity:1">
        <path
           id="path2139"
           transform="translate(247.177,133.569)"
           d="m 1.90625,-0.53125 c 0,-0.28125 -0.234375,-0.53125 -0.515625,-0.53125 -0.296875,0 -0.53125,0.25 -0.53125,0.53125 C 0.859375,-0.234375 1.09375,0 1.390625,0 1.671875,0 1.90625,-0.234375 1.90625,-0.53125 Z m 0,0"
           style="stroke:none;stroke-width:0"
           inkscape:connector-curvature="0" />
        <path
           id="path2141"
           transform="translate(249.94461,133.569)"
           d="m 1.90625,-0.53125 c 0,-0.28125 -0.234375,-0.53125 -0.515625,-0.53125 -0.296875,0 -0.53125,0.25 -0.53125,0.53125 C 0.859375,-0.234375 1.09375,0 1.390625,0 1.671875,0 1.90625,-0.234375 1.90625,-0.53125 Z m 0,0"
           style="stroke:none;stroke-width:0"
           inkscape:connector-curvature="0" />
        <path
           id="path2143"
           transform="translate(252.71222,133.569)"
           d="m 1.90625,-0.53125 c 0,-0.28125 -0.234375,-0.53125 -0.515625,-0.53125 -0.296875,0 -0.53125,0.25 -0.53125,0.53125 C 0.859375,-0.234375 1.09375,0 1.390625,0 1.671875,0 1.90625,-0.234375 1.90625,-0.53125 Z m 0,0"
           style="stroke:none;stroke-width:0"
           inkscape:connector-curvature="0" />
      </g>
      <path
         id="path2147"
         transform="matrix(1,0,0,-1,261.456,137.156)"
         d="M 0.00103125,-2.5e-4 V 11.956781"
         style="fill:none;stroke:#000000;stroke-width:0.398;stroke-linecap:butt;stroke-linejoin:miter;stroke-miterlimit:10;stroke-opacity:1"
         inkscape:connector-curvature="0" />
      <path
         id="path2149"
         transform="matrix(1,0,0,-1,133.768,137.355)"
         d="M 0.00153125,-4.6875e-4 H 127.68903"
         style="fill:none;stroke:#000000;stroke-width:0.398;stroke-linecap:butt;stroke-linejoin:miter;stroke-miterlimit:10;stroke-opacity:1"
         inkscape:connector-curvature="0" />
      <path
         id="path2151"
         transform="matrix(1,0,0,-1,133.768,149.509)"
         d="M 0.00153125,0.0011875 V 11.954313"
         style="fill:none;stroke:#000000;stroke-width:0.398;stroke-linecap:butt;stroke-linejoin:miter;stroke-miterlimit:10;stroke-opacity:1"
         inkscape:connector-curvature="0" />
      <g
         id="g2159"
         style="fill:#000000;fill-opacity:1">
        <path
           id="path2153"
           transform="translate(139.746,145.923)"
           d="m 1.90625,-0.53125 c 0,-0.28125 -0.234375,-0.53125 -0.515625,-0.53125 -0.296875,0 -0.53125,0.25 -0.53125,0.53125 C 0.859375,-0.234375 1.09375,0 1.390625,0 1.671875,0 1.90625,-0.234375 1.90625,-0.53125 Z m 0,0"
           style="stroke:none;stroke-width:0"
           inkscape:connector-curvature="0" />
        <path
           id="path2155"
           transform="translate(142.51361,145.923)"
           d="m 1.90625,-0.53125 c 0,-0.28125 -0.234375,-0.53125 -0.515625,-0.53125 -0.296875,0 -0.53125,0.25 -0.53125,0.53125 C 0.859375,-0.234375 1.09375,0 1.390625,0 1.671875,0 1.90625,-0.234375 1.90625,-0.53125 Z m 0,0"
           style="stroke:none;stroke-width:0"
           inkscape:connector-curvature="0" />
        <path
           id="path2157"
           transform="translate(145.28122,145.923)"
           d="m 1.90625,-0.53125 c 0,-0.28125 -0.234375,-0.53125 -0.515625,-0.53125 -0.296875,0 -0.53125,0.25 -0.53125,0.53125 C 0.859375,-0.234375 1.09375,0 1.390625,0 1.671875,0 1.90625,-0.234375 1.90625,-0.53125 Z m 0,0"
           style="stroke:none;stroke-width:0"
           inkscape:connector-curvature="0" />
      </g>
      <path
         id="path2161"
         transform="matrix(1,0,0,-1,154.026,149.509)"
         d="M 0.00134375,0.0011875 V 11.954313"
         style="fill:none;stroke:#000000;stroke-width:0.398;stroke-linecap:butt;stroke-linejoin:miter;stroke-miterlimit:10;stroke-opacity:1"
         inkscape:connector-curvature="0" />
      <g
         id="g2165"
         style="fill:#000000;fill-opacity:1">
        <path
           id="path2163"
           transform="translate(166.603,145.923)"
           d="M 2.546875,2.5 V 2.09375 h -0.96875 v -9.171875 h 0.96875 v -0.40625 h -1.375 V 2.5 Z m 0,0"
           style="stroke:none;stroke-width:0"
           inkscape:connector-curvature="0" />
      </g>
      <g
         id="g2169"
         style="fill:#000000;fill-opacity:1">
        <path
           id="path2167"
           transform="translate(171.03436,145.923)"
           d="M 1.578125,-7.484375 H 0.21875 v 0.40625 H 1.1875 V 2.09375 H 0.21875 V 2.5 h 1.359375 z m 0,0"
           style="stroke:none;stroke-width:0"
           inkscape:connector-curvature="0" />
      </g>
      <path
         id="path2171"
         transform="matrix(1,0,0,-1,186.377,149.509)"
         d="M 0.00190625,0.0011875 V 11.954313"
         style="fill:none;stroke:#000000;stroke-width:0.398;stroke-linecap:butt;stroke-linejoin:miter;stroke-miterlimit:10;stroke-opacity:1"
         inkscape:connector-curvature="0" />
      <g
         id="g2179"
         style="fill:#000000;fill-opacity:1">
        <path
           id="path2173"
           transform="translate(192.354,145.923)"
           d="M 2.546875,2.5 V 2.09375 h -0.96875 v -9.171875 h 0.96875 v -0.40625 h -1.375 V 2.5 Z m 0,0"
           style="stroke:none;stroke-width:0"
           inkscape:connector-curvature="0" />
        <path
           id="path2175"
           transform="translate(195.12161,145.923)"
           d="m 4.578125,-3.1875 c 0,-0.796875 -0.046875,-1.59375 -0.390625,-2.328125 -0.453125,-0.96875 -1.28125,-1.125 -1.6875,-1.125 -0.609375,0 -1.328125,0.265625 -1.75,1.1875 -0.3125,0.6875 -0.359375,1.46875 -0.359375,2.265625 0,0.75 0.03125,1.640625 0.453125,2.40625 0.421875,0.796875 1.15625,1 1.640625,1 0.53125,0 1.296875,-0.203125 1.734375,-1.15625 0.3125,-0.6875 0.359375,-1.46875 0.359375,-2.25 z M 2.484375,0 C 2.09375,0 1.5,-0.25 1.328125,-1.203125 1.21875,-1.796875 1.21875,-2.71875 1.21875,-3.3125 c 0,-0.640625 0,-1.296875 0.078125,-1.828125 0.1875,-1.1875 0.9375,-1.28125 1.1875,-1.28125 0.328125,0 0.984375,0.1875 1.171875,1.171875 0.109375,0.5625 0.109375,1.3125 0.109375,1.9375 0,0.75 0,1.421875 -0.109375,2.0625 C 3.5,-0.296875 2.9375,0 2.484375,0 Z m 0,0"
           style="stroke:none;stroke-width:0"
           inkscape:connector-curvature="0" />
        <path
           id="path2177"
           transform="translate(200.10291,145.923)"
           d="M 1.578125,-7.484375 H 0.21875 v 0.40625 H 1.1875 V 2.09375 H 0.21875 V 2.5 h 1.359375 z m 0,0"
           style="stroke:none;stroke-width:0"
           inkscape:connector-curvature="0" />
      </g>
      <path
         id="path2181"
         transform="matrix(1,0,0,-1,208.848,149.509)"
         d="M -3.4375e-4,0.0011875 V 11.954313"
         style="fill:none;stroke:#000000;stroke-width:0.398;stroke-linecap:butt;stroke-linejoin:miter;stroke-miterlimit:10;stroke-opacity:1"
         inkscape:connector-curvature="0" />
      <g
         id="g2185"
         style="fill:#000000;fill-opacity:1">
        <path
           id="path2183"
           transform="translate(221.426,145.923)"
           d="M 2.546875,2.5 V 2.09375 h -0.96875 v -9.171875 h 0.96875 v -0.40625 h -1.375 V 2.5 Z m 0,0"
           style="stroke:none;stroke-width:0"
           inkscape:connector-curvature="0" />
      </g>
      <g
         id="g2189"
         style="fill:#000000;fill-opacity:1">
        <path
           id="path2187"
           transform="translate(225.85736,145.923)"
           d="M 1.578125,-7.484375 H 0.21875 v 0.40625 H 1.1875 V 2.09375 H 0.21875 V 2.5 h 1.359375 z m 0,0"
           style="stroke:none;stroke-width:0"
           inkscape:connector-curvature="0" />
      </g>
      <path
         id="path2191"
         transform="matrix(1,0,0,-1,241.199,149.509)"
         d="M 2.1875e-4,0.0011875 V 11.954313"
         style="fill:none;stroke:#000000;stroke-width:0.398;stroke-linecap:butt;stroke-linejoin:miter;stroke-miterlimit:10;stroke-opacity:1"
         inkscape:connector-curvature="0" />
      <g
         id="g2199"
         style="fill:#000000;fill-opacity:1">
        <path
           id="path2193"
           transform="translate(247.177,145.923)"
           d="m 1.90625,-0.53125 c 0,-0.28125 -0.234375,-0.53125 -0.515625,-0.53125 -0.296875,0 -0.53125,0.25 -0.53125,0.53125 C 0.859375,-0.234375 1.09375,0 1.390625,0 1.671875,0 1.90625,-0.234375 1.90625,-0.53125 Z m 0,0"
           style="stroke:none;stroke-width:0"
           inkscape:connector-curvature="0" />
        <path
           id="path2195"
           transform="translate(249.94461,145.923)"
           d="m 1.90625,-0.53125 c 0,-0.28125 -0.234375,-0.53125 -0.515625,-0.53125 -0.296875,0 -0.53125,0.25 -0.53125,0.53125 C 0.859375,-0.234375 1.09375,0 1.390625,0 1.671875,0 1.90625,-0.234375 1.90625,-0.53125 Z m 0,0"
           style="stroke:none;stroke-width:0"
           inkscape:connector-curvature="0" />
        <path
           id="path2197"
           transform="translate(252.71222,145.923)"
           d="m 1.90625,-0.53125 c 0,-0.28125 -0.234375,-0.53125 -0.515625,-0.53125 -0.296875,0 -0.53125,0.25 -0.53125,0.53125 C 0.859375,-0.234375 1.09375,0 1.390625,0 1.671875,0 1.90625,-0.234375 1.90625,-0.53125 Z m 0,0"
           style="stroke:none;stroke-width:0"
           inkscape:connector-curvature="0" />
      </g>
      <path
         id="path2201"
         transform="matrix(1,0,0,-1,261.456,149.509)"
         d="M 0.00103125,0.0011875 V 11.954313"
         style="fill:none;stroke:#000000;stroke-width:0.398;stroke-linecap:butt;stroke-linejoin:miter;stroke-miterlimit:10;stroke-opacity:1"
         inkscape:connector-curvature="0" />
      <path
         id="path2203"
         transform="matrix(1,0,0,-1,133.768,149.709)"
         d="M 0.00153125,-0.0019375 H 127.68903"
         style="fill:none;stroke:#000000;stroke-width:0.398;stroke-linecap:butt;stroke-linejoin:miter;stroke-miterlimit:10;stroke-opacity:1"
         inkscape:connector-curvature="0" />
    </g>
  </g>
</svg>
