<?xml version="1.0" encoding="UTF-8" standalone="no"?>
<!-- Created with matplotlib (https://matplotlib.org/) -->

<svg
   xmlns:ns1="http://www.iki.fi/pav/software/textext/"
   xmlns:dc="http://purl.org/dc/elements/1.1/"
   xmlns:cc="http://creativecommons.org/ns#"
   xmlns:rdf="http://www.w3.org/1999/02/22-rdf-syntax-ns#"
   xmlns:svg="http://www.w3.org/2000/svg"
   xmlns="http://www.w3.org/2000/svg"
   xmlns:xlink="http://www.w3.org/1999/xlink"
   xmlns:sodipodi="http://sodipodi.sourceforge.net/DTD/sodipodi-0.dtd"
   xmlns:inkscape="http://www.inkscape.org/namespaces/inkscape"
   height="270.26868pt"
   version="1.1"
   viewBox="0 0 558.70589 270.26867"
   width="558.70587pt"
   id="svg531"
   sodipodi:docname="instance_1.svg"
   inkscape:version="0.92.3 (2405546, 2018-03-11)">
  <sodipodi:namedview
     pagecolor="#ffffff"
     bordercolor="#666666"
     borderopacity="1"
     objecttolerance="10"
     gridtolerance="10"
     guidetolerance="10"
     inkscape:pageopacity="0"
     inkscape:pageshadow="2"
     inkscape:window-width="1853"
     inkscape:window-height="1025"
     id="namedview533"
     showgrid="false"
     inkscape:zoom="0.96871278"
     inkscape:cx="279.24434"
     inkscape:cy="147.35289"
     inkscape:window-x="1987"
     inkscape:window-y="27"
     inkscape:window-maximized="1"
     inkscape:current-layer="svg531" />
  <metadata
     id="metadata2">
    <rdf:RDF>
      <cc:Work>
        <dc:type
           rdf:resource="http://purl.org/dc/dcmitype/StillImage" />
        <dc:date>2021-01-30T23:45:10.468457</dc:date>
        <dc:format>image/svg+xml</dc:format>
        <dc:creator>
          <cc:Agent>
            <dc:title>Matplotlib v3.3.4, https://matplotlib.org/</dc:title>
          </cc:Agent>
        </dc:creator>
      </cc:Work>
    </rdf:RDF>
  </metadata>
  <defs
     id="defs6"
     style="stroke-linecap:butt;stroke-linejoin:round">
    <style
       id="style4"
       type="text/css">*{stroke-linecap:butt;stroke-linejoin:round;}</style>
    <style
       id="style5479"
       type="text/css">*{stroke-linecap:butt;stroke-linejoin:round;}</style>
    <path
       style="stroke:#000000;stroke-width:0.80000001;stroke-linecap:butt;stroke-linejoin:round"
       id="m3a4ec08eb6"
       d="M 0,0 V 3.5"
       inkscape:connector-curvature="0" />
    <path
       id="DejaVuSans-48-2"
       d="m 31.78125,66.40625 q -7.609375,0 -11.453125,-7.5 Q 16.5,51.421875 16.5,36.375 q 0,-14.984375 3.828125,-22.484375 3.84375,-7.5 11.453125,-7.5 7.671875,0 11.5,7.5 3.84375,7.5 3.84375,22.484375 0,15.046875 -3.84375,22.53125 -3.828125,7.5 -11.5,7.5 z m 0,7.8125 q 12.265625,0 18.734375,-9.703125 6.46875,-9.6875 6.46875,-28.140625 0,-18.40625 -6.46875,-28.109375 -6.46875,-9.6875 -18.734375,-9.6875 -12.25,0 -18.71875,9.6875 Q 6.59375,17.96875 6.59375,36.375 q 0,18.453125 6.46875,28.140625 6.46875,9.703125 18.71875,9.703125 z"
       inkscape:connector-curvature="0"
       style="stroke-linecap:butt;stroke-linejoin:round" />
    <path
       id="DejaVuSans-49-3"
       d="m 12.40625,8.296875 h 16.109375 v 55.625 L 10.984375,60.40625 v 8.984375 l 17.4375,3.515625 H 38.28125 V 8.296875 H 54.390625 V 0 H 12.40625 Z"
       inkscape:connector-curvature="0"
       style="stroke-linecap:butt;stroke-linejoin:round" />
    <path
       id="DejaVuSans-50-2"
       d="M 19.1875,8.296875 H 53.609375 V 0 H 7.328125 v 8.296875 q 5.609375,5.8125 15.296875,15.59375 9.703125,9.796875 12.1875,12.640625 4.734375,5.3125 6.609375,9 1.890625,3.6875 1.890625,7.25 0,5.8125 -4.078125,9.46875 -4.078125,3.671875 -10.625,3.671875 -4.640625,0 -9.796875,-1.609375 -5.140625,-1.609375 -11,-4.890625 v 9.96875 Q 13.765625,71.78125 18.9375,73 q 5.1875,1.21875 9.484375,1.21875 11.328125,0 18.0625,-5.671875 6.734375,-5.65625 6.734375,-15.125 0,-4.5 -1.6875,-8.53125 Q 49.859375,40.875 45.40625,35.40625 44.1875,33.984375 37.640625,27.21875 31.109375,20.453125 19.1875,8.296875 Z"
       inkscape:connector-curvature="0"
       style="stroke-linecap:butt;stroke-linejoin:round" />
    <path
       id="DejaVuSans-51-7"
       d="M 40.578125,39.3125 Q 47.65625,37.796875 51.625,33 q 3.984375,-4.78125 3.984375,-11.8125 0,-10.78125 -7.421875,-16.703125 -7.421875,-5.90625 -21.09375,-5.90625 -4.578125,0 -9.4375,0.90625 -4.859375,0.90625 -10.03125,2.71875 v 9.515625 q 4.09375,-2.390625 8.96875,-3.609375 4.890625,-1.21875 10.21875,-1.21875 9.265625,0 14.125,3.65625 4.859375,3.65625 4.859375,10.640625 0,6.453125 -4.515625,10.078125 -4.515625,3.640625 -12.5625,3.640625 h -8.5 v 8.109375 h 8.890625 q 7.265625,0 11.125,2.90625 3.859375,2.90625 3.859375,8.375 0,5.609375 -3.984375,8.609375 -3.96875,3.015625 -11.390625,3.015625 -4.0625,0 -8.703125,-0.890625 Q 15.375,64.15625 9.8125,62.3125 v 8.78125 q 5.625,1.5625 10.53125,2.34375 4.90625,0.78125 9.25,0.78125 11.234375,0 17.765625,-5.109375 6.546875,-5.09375 6.546875,-13.78125 0,-6.0625 -3.46875,-10.234375 -3.46875,-4.171875 -9.859375,-5.78125 z"
       inkscape:connector-curvature="0"
       style="stroke-linecap:butt;stroke-linejoin:round" />
    <path
       id="DejaVuSans-52-2"
       d="M 37.796875,64.3125 12.890625,25.390625 h 24.90625 z m -2.59375,8.59375 h 12.40625 V 25.390625 h 10.40625 V 17.1875 H 47.609375 V 0 h -9.8125 V 17.1875 H 4.890625 v 9.515625 z"
       inkscape:connector-curvature="0"
       style="stroke-linecap:butt;stroke-linejoin:round" />
    <path
       id="DejaVuSans-53-9"
       d="m 10.796875,72.90625 h 38.71875 v -8.3125 h -29.6875 V 46.734375 q 2.140625,0.734375 4.28125,1.09375 2.15625,0.359375 4.3125,0.359375 Q 40.625,48.1875 47.75,41.5 54.890625,34.8125 54.890625,23.390625 54.890625,11.625 47.5625,5.09375 40.234375,-1.421875 26.90625,-1.421875 q -4.59375,0 -9.359375,0.78125 -4.75,0.78125 -9.828125,2.34375 V 11.625 q 4.390625,-2.390625 9.078125,-3.5625 4.6875,-1.171875 9.90625,-1.171875 8.453125,0 13.375,4.4375 4.9375,4.4375 4.9375,12.0625 0,7.609375 -4.9375,12.046875 -4.921875,4.453125 -13.375,4.453125 -3.953125,0 -7.890625,-0.875 -3.921875,-0.875 -8.015625,-2.734375 z"
       inkscape:connector-curvature="0"
       style="stroke-linecap:butt;stroke-linejoin:round" />
    <path
       id="DejaVuSans-54"
       d="m 33.015625,40.375 q -6.640625,0 -10.53125,-4.546875 -3.875,-4.53125 -3.875,-12.4375 0,-7.859375 3.875,-12.4375 3.890625,-4.5625 10.53125,-4.5625 6.640625,0 10.515625,4.5625 3.875,4.578125 3.875,12.4375 0,7.90625 -3.875,12.4375 Q 39.65625,40.375 33.015625,40.375 Z M 52.59375,71.296875 V 62.3125 q -3.71875,1.75 -7.5,2.671875 -3.78125,0.9375 -7.5,0.9375 -9.765625,0 -14.921875,-6.59375 -5.140625,-6.59375 -5.875,-19.921875 2.875,4.25 7.21875,6.515625 4.359375,2.265625 9.578125,2.265625 10.984375,0 17.359375,-6.671875 6.375,-6.65625 6.375,-18.125 0,-11.234375 -6.640625,-18.03125 -6.640625,-6.78125 -17.671875,-6.78125 -12.65625,0 -19.34375,9.6875 -6.6875,9.703125 -6.6875,28.109375 0,17.28125 8.203125,27.5625 8.203125,10.28125 22.015625,10.28125 3.71875,0 7.5,-0.734375 3.78125,-0.734375 7.890625,-2.1875 z"
       inkscape:connector-curvature="0"
       style="stroke-linecap:butt;stroke-linejoin:round" />
    <path
       id="DejaVuSans-55-6"
       d="m 8.203125,72.90625 h 46.875 V 68.703125 L 28.609375,0 H 18.3125 L 43.21875,64.59375 H 8.203125 Z"
       inkscape:connector-curvature="0"
       style="stroke-linecap:butt;stroke-linejoin:round" />
    <path
       id="DejaVuSans-56"
       d="m 31.78125,34.625 q -7.03125,0 -11.0625,-3.765625 -4.015625,-3.765625 -4.015625,-10.34375 0,-6.59375 4.015625,-10.359375 4.03125,-3.765625 11.0625,-3.765625 7.03125,0 11.078125,3.78125 4.0625,3.796875 4.0625,10.34375 0,6.578125 -4.03125,10.34375 Q 38.875,34.625 31.78125,34.625 Z m -9.859375,4.1875 Q 15.578125,40.375 12.03125,44.71875 8.5,49.078125 8.5,55.328125 q 0,8.734375 6.21875,13.8125 6.234375,5.078125 17.0625,5.078125 10.890625,0 17.09375,-5.078125 6.203125,-5.078125 6.203125,-13.8125 0,-6.25 -3.546875,-10.609375 Q 48,40.375 41.703125,38.8125 q 7.125,-1.65625 11.09375,-6.5 3.984375,-4.828125 3.984375,-11.796875 0,-10.609375 -6.46875,-16.28125 -6.46875,-5.65625 -18.53125,-5.65625 -12.046875,0 -18.53125,5.65625 -6.46875,5.671875 -6.46875,16.28125 0,6.96875 4,11.796875 4.015625,4.84375 11.140625,6.5 z M 18.3125,54.390625 q 0,-5.65625 3.53125,-8.828125 3.546875,-3.171875 9.9375,-3.171875 6.359375,0 9.9375,3.171875 3.59375,3.171875 3.59375,8.828125 0,5.671875 -3.59375,8.84375 -3.578125,3.171875 -9.9375,3.171875 -6.390625,0 -9.9375,-3.171875 Q 18.3125,60.0625 18.3125,54.390625 Z"
       inkscape:connector-curvature="0"
       style="stroke-linecap:butt;stroke-linejoin:round" />
    <path
       id="DejaVuSans-73-1"
       d="m 9.8125,72.90625 h 9.859375 V 0 H 9.8125 Z"
       inkscape:connector-curvature="0"
       style="stroke-linecap:butt;stroke-linejoin:round" />
    <path
       id="DejaVuSans-116-9"
       d="M 18.3125,70.21875 V 54.6875 h 18.5 v -6.984375 h -18.5 v -29.6875 q 0,-6.6875 1.828125,-8.59375 1.828125,-1.90625 7.453125,-1.90625 H 36.8125 V 0 H 27.59375 Q 17.1875,0 13.234375,3.875 9.28125,7.765625 9.28125,18.015625 v 29.6875 H 2.6875 V 54.6875 h 6.59375 v 15.53125 z"
       inkscape:connector-curvature="0"
       style="stroke-linecap:butt;stroke-linejoin:round" />
    <path
       id="DejaVuSans-101-4"
       d="m 56.203125,29.59375 v -4.390625 h -41.3125 q 0.59375,-9.28125 5.59375,-14.140625 5,-4.859375 13.9375,-4.859375 5.171875,0 10.03125,1.265625 4.859375,1.265625 9.65625,3.8125 v -8.5 q -4.84375,-2.046875 -9.921875,-3.125 -5.078125,-1.078125 -10.296875,-1.078125 -13.09375,0 -20.734375,7.609375 -7.640625,7.625 -7.640625,20.625 0,13.421875 7.25,21.296875 Q 20.015625,56 32.328125,56 q 11.03125,0 17.453125,-7.109375 6.421875,-7.09375 6.421875,-19.296875 z m -8.984375,2.640625 q -0.09375,7.359375 -4.125,11.75 -4.03125,4.40625 -10.671875,4.40625 -7.515625,0 -12.03125,-4.25 -4.515625,-4.25 -5.203125,-11.96875 z"
       inkscape:connector-curvature="0"
       style="stroke-linecap:butt;stroke-linejoin:round" />
    <path
       id="DejaVuSans-114-7"
       d="m 41.109375,46.296875 q -1.515625,0.875 -3.296875,1.28125 Q 36.03125,48 33.890625,48 26.265625,48 22.1875,43.046875 18.109375,38.09375 18.109375,28.8125 V 0 h -9.03125 v 54.6875 h 9.03125 v -8.5 q 2.84375,4.984375 7.375,7.390625 Q 30.03125,56 36.53125,56 q 0.921875,0 2.046875,-0.125 1.125,-0.109375 2.484375,-0.359375 z"
       inkscape:connector-curvature="0"
       style="stroke-linecap:butt;stroke-linejoin:round" />
    <path
       id="DejaVuSans-97-8"
       d="m 34.28125,27.484375 q -10.890625,0 -15.09375,-2.484375 -4.203125,-2.484375 -4.203125,-8.5 0,-4.78125 3.15625,-7.59375 3.15625,-2.796875 8.5625,-2.796875 7.484375,0 12,5.296875 4.515625,5.296875 4.515625,14.078125 v 2 z m 17.921875,3.71875 V 0 H 43.21875 v 8.296875 q -3.078125,-4.96875 -7.671875,-7.34375 -4.59375,-2.375 -11.234375,-2.375 -8.390625,0 -13.359375,4.71875 Q 6,8.015625 6,15.921875 q 0,9.21875 6.171875,13.90625 6.1875,4.6875 18.4375,4.6875 H 43.21875 v 0.890625 q 0,6.203125 -4.078125,9.59375 -4.078125,3.390625 -11.453125,3.390625 -4.6875,0 -9.140625,-1.125 -4.4375,-1.125 -8.53125,-3.375 v 8.3125 q 4.921875,1.90625 9.5625,2.84375 Q 24.21875,56 28.609375,56 q 11.875,0 17.734375,-6.15625 5.859375,-6.140625 5.859375,-18.640625 z"
       inkscape:connector-curvature="0"
       style="stroke-linecap:butt;stroke-linejoin:round" />
    <path
       id="DejaVuSans-105-4"
       d="M 9.421875,54.6875 H 18.40625 V 0 H 9.421875 Z m 0,21.296875 H 18.40625 V 64.59375 H 9.421875 Z"
       inkscape:connector-curvature="0"
       style="stroke-linecap:butt;stroke-linejoin:round" />
    <path
       id="DejaVuSans-111-5"
       d="m 30.609375,48.390625 q -7.21875,0 -11.421875,-5.640625 -4.203125,-5.640625 -4.203125,-15.453125 0,-9.8125 4.171875,-15.453125 4.1875,-5.640625 11.453125,-5.640625 7.1875,0 11.375,5.65625 4.203125,5.671875 4.203125,15.4375 0,9.71875 -4.203125,15.40625 -4.1875,5.6875 -11.375,5.6875 z m 0,7.609375 q 11.71875,0 18.40625,-7.625 6.703125,-7.609375 6.703125,-21.078125 0,-13.421875 -6.703125,-21.078125 -6.6875,-7.640625 -18.40625,-7.640625 -11.765625,0 -18.4375,7.640625 -6.65625,7.65625 -6.65625,21.078125 0,13.46875 6.65625,21.078125 Q 18.84375,56 30.609375,56 Z"
       inkscape:connector-curvature="0"
       style="stroke-linecap:butt;stroke-linejoin:round" />
    <path
       id="DejaVuSans-110-0"
       d="M 54.890625,33.015625 V 0 H 45.90625 v 32.71875 q 0,7.765625 -3.03125,11.609375 -3.03125,3.859375 -9.078125,3.859375 -7.28125,0 -11.484375,-4.640625 -4.203125,-4.625 -4.203125,-12.640625 V 0 h -9.03125 v 54.6875 h 9.03125 v -8.5 q 3.234375,4.9375 7.59375,7.375 4.375,2.4375 10.09375,2.4375 9.421875,0 14.25,-5.828125 4.84375,-5.828125 4.84375,-17.15625 z"
       inkscape:connector-curvature="0"
       style="stroke-linecap:butt;stroke-linejoin:round" />
    <path
       id="DejaVuSans-115-3"
       d="m 44.28125,53.078125 v -8.5 Q 40.484375,46.53125 36.375,47.5 q -4.09375,0.984375 -8.5,0.984375 -6.6875,0 -10.03125,-2.046875 Q 14.5,44.390625 14.5,40.28125 q 0,-3.125 2.390625,-4.90625 2.390625,-1.78125 9.625,-3.390625 l 3.078125,-0.6875 Q 39.15625,29.25 43.1875,25.515625 47.21875,21.78125 47.21875,15.09375 q 0,-7.625 -6.03125,-12.078125 -6.03125,-4.4375 -16.578125,-4.4375 -4.390625,0 -9.15625,0.859375 Q 10.6875,0.296875 5.421875,2 v 9.28125 q 4.984375,-2.59375 9.8125,-3.890625 4.828125,-1.28125 9.578125,-1.28125 6.34375,0 9.75,2.171875 3.421875,2.171875 3.421875,6.125 0,3.65625 -2.46875,5.609375 -2.453125,1.953125 -10.8125,3.765625 l -3.125,0.734375 q -8.34375,1.75 -12.0625,5.390625 -3.703125,3.640625 -3.703125,9.984375 0,7.71875 5.46875,11.90625 Q 16.75,56 26.8125,56 q 4.96875,0 9.359375,-0.734375 4.40625,-0.71875 8.109375,-2.1875 z"
       inkscape:connector-curvature="0"
       style="stroke-linecap:butt;stroke-linejoin:round" />
    <path
       id="DejaVuSans-32-6"
       d=""
       inkscape:connector-curvature="0"
       style="stroke-linecap:butt;stroke-linejoin:round" />
    <path
       id="DejaVuSans-119"
       d="M 4.203125,54.6875 H 13.1875 L 24.421875,12.015625 35.59375,54.6875 H 46.1875 L 57.421875,12.015625 68.609375,54.6875 H 77.59375 L 63.28125,0 H 52.6875 L 40.921875,44.828125 29.109375,0 H 18.5 Z"
       inkscape:connector-curvature="0"
       style="stroke-linecap:butt;stroke-linejoin:round" />
    <path
       id="DejaVuSans-104"
       d="M 54.890625,33.015625 V 0 H 45.90625 v 32.71875 q 0,7.765625 -3.03125,11.609375 -3.03125,3.859375 -9.078125,3.859375 -7.28125,0 -11.484375,-4.640625 -4.203125,-4.625 -4.203125,-12.640625 V 0 h -9.03125 v 75.984375 h 9.03125 V 46.1875 q 3.234375,4.9375 7.59375,7.375 4.375,2.4375 10.09375,2.4375 9.421875,0 14.25,-5.828125 4.84375,-5.828125 4.84375,-17.15625 z"
       inkscape:connector-curvature="0"
       style="stroke-linecap:butt;stroke-linejoin:round" />
    <path
       id="DejaVuSans-112"
       d="m 18.109375,8.203125 v -29 H 9.078125 V 54.6875 h 9.03125 v -8.296875 q 2.84375,4.875 7.15625,7.234375 Q 29.59375,56 35.59375,56 q 9.96875,0 16.1875,-7.90625 6.234375,-7.90625 6.234375,-20.796875 0,-12.890625 -6.234375,-20.8125 -6.21875,-7.90625 -16.1875,-7.90625 -6,0 -10.328125,2.375 -4.3125,2.375 -7.15625,7.25 z M 48.6875,27.296875 q 0,9.90625 -4.078125,15.546875 -4.078125,5.640625 -11.203125,5.640625 -7.140625,0 -11.21875,-5.640625 -4.078125,-5.640625 -4.078125,-15.546875 0,-9.90625 4.078125,-15.546875 4.078125,-5.640625 11.21875,-5.640625 7.125,0 11.203125,5.640625 4.078125,5.640625 4.078125,15.546875 z"
       inkscape:connector-curvature="0"
       style="stroke-linecap:butt;stroke-linejoin:round" />
    <path
       id="DejaVuSans-117"
       d="M 8.5,21.578125 V 54.6875 h 8.984375 V 21.921875 q 0,-7.765625 3.015625,-11.65625 3.03125,-3.875 9.09375,-3.875 7.265625,0 11.484375,4.640625 4.234375,4.640625 4.234375,12.65625 v 31 h 8.984375 V 0 H 45.3125 V 8.40625 Q 42.046875,3.421875 37.71875,1 33.40625,-1.421875 27.6875,-1.421875 18.265625,-1.421875 13.375,4.4375 8.5,10.296875 8.5,21.578125 Z M 31.109375,56 Z"
       inkscape:connector-curvature="0"
       style="stroke-linecap:butt;stroke-linejoin:round" />
    <path
       id="DejaVuSans-108"
       d="M 9.421875,75.984375 H 18.40625 V 0 H 9.421875 Z"
       inkscape:connector-curvature="0"
       style="stroke-linecap:butt;stroke-linejoin:round" />
    <path
       id="DejaVuSans-100"
       d="m 45.40625,46.390625 v 29.59375 h 8.984375 V 0 H 45.40625 v 8.203125 q -2.828125,-4.875 -7.15625,-7.25 -4.3125,-2.375 -10.375,-2.375 -9.90625,0 -16.140625,7.90625 -6.21875,7.921875 -6.21875,20.8125 0,12.890625 6.21875,20.796875 Q 17.96875,56 27.875,56 q 6.0625,0 10.375,-2.375 4.328125,-2.359375 7.15625,-7.234375 z M 14.796875,27.296875 q 0,-9.90625 4.078125,-15.546875 4.078125,-5.640625 11.203125,-5.640625 7.125,0 11.21875,5.640625 4.109375,5.640625 4.109375,15.546875 0,9.90625 -4.109375,15.546875 -4.09375,5.640625 -11.21875,5.640625 -7.125,0 -11.203125,-5.640625 -4.078125,-5.640625 -4.078125,-15.546875 z"
       inkscape:connector-curvature="0"
       style="stroke-linecap:butt;stroke-linejoin:round" />
    <path
       id="DejaVuSans-99"
       d="M 48.78125,52.59375 V 44.1875 q -3.8125,2.109375 -7.640625,3.15625 -3.828125,1.046875 -7.734375,1.046875 -8.75,0 -13.59375,-5.546875 -4.828125,-5.53125 -4.828125,-15.546875 0,-10.015625 4.828125,-15.5625 4.84375,-5.53125 13.59375,-5.53125 3.90625,0 7.734375,1.046875 3.828125,1.046875 7.640625,3.15625 v -8.3125 q -3.765625,-1.75 -7.796875,-2.625 -4.015625,-0.890625 -8.5625,-0.890625 -12.359375,0 -19.640625,7.765625 -7.265625,7.765625 -7.265625,20.953125 0,13.375 7.34375,21.03125 Q 20.21875,56 33.015625,56 q 4.140625,0 8.09375,-0.859375 3.953125,-0.84375 7.671875,-2.546875 z"
       inkscape:connector-curvature="0"
       style="stroke-linecap:butt;stroke-linejoin:round" />
    <path
       id="DejaVuSans-109"
       d="M 52,44.1875 Q 55.375,50.25 60.0625,53.125 64.75,56 71.09375,56 q 8.546875,0 13.1875,-5.984375 4.640625,-5.96875 4.640625,-17 V 0 h -9.03125 v 32.71875 q 0,7.859375 -2.796875,11.65625 -2.78125,3.8125 -8.484375,3.8125 -6.984375,0 -11.046875,-4.640625 -4.046875,-4.625 -4.046875,-12.640625 V 0 h -9.03125 v 32.71875 q 0,7.90625 -2.78125,11.6875 -2.78125,3.78125 -8.59375,3.78125 -6.890625,0 -10.953125,-4.65625 -4.046875,-4.65625 -4.046875,-12.625 V 0 h -9.03125 v 54.6875 h 9.03125 v -8.5 q 3.078125,5.03125 7.375,7.421875 Q 29.78125,56 35.6875,56 41.65625,56 45.828125,52.96875 50,49.953125 52,44.1875 Z"
       inkscape:connector-curvature="0"
       style="stroke-linecap:butt;stroke-linejoin:round" />
    <path
       id="DejaVuSans-40-1"
       d="M 31,75.875 Q 24.46875,64.65625 21.28125,53.65625 18.109375,42.671875 18.109375,31.390625 18.109375,20.125 21.3125,9.0625 24.515625,-2 31,-13.1875 H 23.1875 Q 15.875,-1.703125 12.234375,9.375 8.59375,20.453125 8.59375,31.390625 q 0,10.890625 3.609375,21.921875 3.625,11.046875 10.984375,22.5625 z"
       inkscape:connector-curvature="0"
       style="stroke-linecap:butt;stroke-linejoin:round" />
    <path
       id="DejaVuSans-35-0"
       d="M 51.125,44 H 36.921875 L 32.8125,27.6875 H 47.125 Z M 43.796875,71.78125 38.71875,51.515625 h 14.265625 l 5.125,20.265625 h 7.8125 L 60.890625,51.515625 H 76.125 V 44 H 58.984375 l -4,-16.3125 h 15.53125 v -7.46875 h -17.4375 L 48,0 h -7.8125 l 5.03125,20.21875 H 30.90625 L 25.875,0 h -7.859375 l 5.078125,20.21875 h -15.375 v 7.46875 h 17.1875 L 29,44 H 13.28125 v 7.515625 h 17.625 l 4.984375,20.265625 z"
       inkscape:connector-curvature="0"
       style="stroke-linecap:butt;stroke-linejoin:round" />
    <path
       id="DejaVuSans-41-6"
       d="m 8.015625,75.875 h 7.8125 q 7.3125,-11.515625 10.953125,-22.5625 3.640625,-11.03125 3.640625,-21.921875 0,-10.9375 -3.640625,-22.015625 -3.640625,-11.078125 -10.953125,-22.5625 h -7.8125 Q 14.5,-2 17.703125,9.0625 20.90625,20.125 20.90625,31.390625 q 0,11.28125 -3.203125,22.265625 -3.203125,11 -9.6875,22.21875 z"
       inkscape:connector-curvature="0"
       style="stroke-linecap:butt;stroke-linejoin:round" />
    <path
       style="stroke:#000000;stroke-width:0.80000001;stroke-linecap:butt;stroke-linejoin:round"
       id="m9bb1011650"
       d="M 0,0 H -3.5"
       inkscape:connector-curvature="0" />
    <path
       id="DejaVuSans-118"
       d="M 2.984375,54.6875 H 12.5 L 29.59375,8.796875 46.6875,54.6875 h 9.515625 L 35.6875,0 H 23.484375 Z"
       inkscape:connector-curvature="0"
       style="stroke-linecap:butt;stroke-linejoin:round" />
    <path
       id="DejaVuSans-95"
       d="m 50.984375,-16.609375 v -6.96875 h -51.96875 v 6.96875 z"
       inkscape:connector-curvature="0"
       style="stroke-linecap:butt;stroke-linejoin:round" />
    <path
       id="DejaVuSans-79"
       d="m 39.40625,66.21875 q -10.75,0 -17.078125,-8.015625 -6.3125,-8 -6.3125,-21.828125 0,-13.765625 6.3125,-21.78125 6.328125,-8 17.078125,-8 10.734375,0 17.015625,8 6.28125,8.015625 6.28125,21.78125 0,13.828125 -6.28125,21.828125 -6.28125,8.015625 -17.015625,8.015625 z m 0,8 q 15.328125,0 24.5,-10.28125 9.1875,-10.28125 9.1875,-27.5625 0,-17.234375 -9.1875,-27.515625 -9.171875,-10.28125 -24.5,-10.28125 -15.375,0 -24.59375,10.25 Q 5.609375,19.09375 5.609375,36.375 q 0,17.28125 9.203125,27.5625 9.21875,10.28125 24.59375,10.28125 z"
       inkscape:connector-curvature="0"
       style="stroke-linecap:butt;stroke-linejoin:round" />
    <path
       id="DejaVuSans-68"
       d="M 19.671875,64.796875 V 8.109375 H 31.59375 q 15.09375,0 22.09375,6.828125 7,6.84375 7,21.59375 0,14.640625 -7,21.453125 -7,6.8125 -22.09375,6.8125 z M 9.8125,72.90625 h 20.265625 q 21.1875,0 31.09375,-8.8125 9.921875,-8.8125 9.921875,-27.5625 0,-18.859375 -9.96875,-27.703125 Q 51.171875,0 30.078125,0 H 9.8125 Z"
       inkscape:connector-curvature="0"
       style="stroke-linecap:butt;stroke-linejoin:round" />
    <path
       id="DejaVuSans-121"
       d="M 32.171875,-5.078125 Q 28.375,-14.84375 24.75,-17.8125 q -3.609375,-2.984375 -9.65625,-2.984375 h -7.1875 v 7.515625 h 5.28125 q 3.703125,0 5.75,1.765625 2.0625,1.75 4.546875,8.296875 L 25.09375,0.875 2.984375,54.6875 H 12.5 L 29.59375,11.921875 46.6875,54.6875 h 9.515625 z"
       inkscape:connector-curvature="0"
       style="stroke-linecap:butt;stroke-linejoin:round" />
    <path
       id="DejaVuSans-46"
       d="M 10.6875,12.40625 H 21 V 0 H 10.6875 Z"
       inkscape:connector-curvature="0"
       style="stroke-linecap:butt;stroke-linejoin:round" />
    <path
       id="DejaVuSans-103"
       d="m 45.40625,27.984375 q 0,9.765625 -4.03125,15.125 -4.015625,5.375 -11.296875,5.375 -7.21875,0 -11.25,-5.375 -4.03125,-5.359375 -4.03125,-15.125 0,-9.71875 4.03125,-15.09375 4.03125,-5.375 11.25,-5.375 7.28125,0 11.296875,5.375 4.03125,5.375 4.03125,15.09375 z M 54.390625,6.78125 q 0,-13.953125 -6.203125,-20.765625 -6.1875,-6.8125 -18.984375,-6.8125 -4.734375,0 -8.9375,0.703125 -4.203125,0.703125 -8.15625,2.171875 V -9.1875 q 3.953125,-2.140625 7.8125,-3.15625 3.859375,-1.03125 7.859375,-1.03125 8.84375,0 13.234375,4.609375 4.390625,4.609375 4.390625,13.9375 V 9.625 Q 42.625,4.78125 38.28125,2.390625 33.9375,0 27.875,0 17.828125,0 11.671875,7.65625 q -6.15625,7.671875 -6.15625,20.328125 0,12.6875 6.15625,20.34375 Q 17.828125,56 27.875,56 q 6.0625,0 10.40625,-2.390625 4.34375,-2.390625 7.125,-7.21875 V 54.6875 h 8.984375 z"
       inkscape:connector-curvature="0"
       style="stroke-linecap:butt;stroke-linejoin:round" />
    <path
       id="DejaVuSans-82"
       d="m 44.390625,34.1875 q 3.171875,-1.078125 6.171875,-4.59375 3,-3.515625 6.03125,-9.671875 L 66.609375,0 H 56 l -9.3125,18.703125 q -3.625,7.328125 -7.015625,9.71875 -3.390625,2.390625 -9.25,2.390625 h -10.75 V 0 H 9.8125 v 72.90625 h 22.265625 q 12.5,0 18.65625,-5.234375 6.15625,-5.21875 6.15625,-15.765625 0,-6.890625 -3.203125,-11.4375 -3.203125,-4.53125 -9.296875,-6.28125 z m -24.71875,30.609375 v -25.875 h 12.40625 q 7.125,0 10.765625,3.296875 3.640625,3.296875 3.640625,9.6875 0,6.390625 -3.640625,9.640625 -3.640625,3.25 -10.765625,3.25 z"
       inkscape:connector-curvature="0"
       style="stroke-linecap:butt;stroke-linejoin:round" />
    <path
       id="DejaVuSans-66-8"
       d="M 19.671875,34.8125 V 8.109375 H 35.5 q 7.953125,0 11.78125,3.296875 3.84375,3.296875 3.84375,10.078125 0,6.84375 -3.84375,10.078125 -3.828125,3.25 -11.78125,3.25 z m 0,29.984375 V 42.828125 H 34.28125 q 7.21875,0 10.75,2.703125 3.546875,2.71875 3.546875,8.28125 0,5.515625 -3.546875,8.25 -3.53125,2.734375 -10.75,2.734375 z M 9.8125,72.90625 h 25.203125 q 11.28125,0 17.375,-4.6875 Q 58.5,63.53125 58.5,54.890625 58.5,48.1875 55.375,44.234375 52.25,40.28125 46.1875,39.3125 53.46875,37.75 57.5,32.78125 q 4.03125,-4.953125 4.03125,-12.375 0,-9.765625 -6.640625,-15.09375 Q 48.25,0 35.984375,0 H 9.8125 Z"
       inkscape:connector-curvature="0"
       style="stroke-linecap:butt;stroke-linejoin:round" />
    <path
       id="DejaVuSans-65"
       d="M 34.1875,63.1875 20.796875,26.90625 h 26.8125 z m -5.578125,9.71875 h 11.1875 L 67.578125,0 h -10.25 L 50.6875,18.703125 H 17.828125 L 11.1875,0 H 0.78125 Z"
       inkscape:connector-curvature="0"
       style="stroke-linecap:butt;stroke-linejoin:round" />
    <clipPath
       id="p8115f7b8a3"
       style="stroke-linecap:butt;stroke-linejoin:round">
      <rect
         id="rect6576"
         y="45.964802"
         x="99.089996"
         width="614.35797"
         height="111.84768"
         style="stroke-linecap:butt;stroke-linejoin:round" />
    </clipPath>
    <clipPath
       id="p7cbae92306"
       style="stroke-linecap:butt;stroke-linejoin:round">
      <rect
         id="rect6579"
         y="213.73631"
         x="99.089996"
         width="614.35797"
         height="111.84768"
         style="stroke-linecap:butt;stroke-linejoin:round" />
    </clipPath>
  </defs>
  <g
     id="xtick_1"
     style="stroke-linecap:butt;stroke-linejoin:round"
     transform="matrix(0.83000388,0,0,0.83000388,-33.79076,-37.675536)">
    <g
       id="line2d_1"
       style="stroke-linecap:butt;stroke-linejoin:round">
      <defs
         id="defs15">
        <path
           d="M 0,0 V 3.5"
           id="m4f4f8305b7"
           style="stroke:#000000;stroke-width:0.80000001;stroke-linecap:butt;stroke-linejoin:round"
           inkscape:connector-curvature="0" />
      </defs>
      <g
         id="g19"
         style="stroke-linecap:butt;stroke-linejoin:round">
        <use
           style="stroke:#000000;stroke-width:0.80000001;stroke-linecap:butt;stroke-linejoin:round"
           x="127.01537"
           xlink:href="#m4f4f8305b7"
           y="339.62399"
           id="use17"
           width="100%"
           height="100%" />
      </g>
    </g>
    <g
       id="text_1"
       style="stroke-linecap:butt;stroke-linejoin:round">
      <!-- 0 -->
      <g
         transform="matrix(0.1,0,0,-0.1,123.83411,354.22244)"
         id="g27"
         style="stroke-linecap:butt;stroke-linejoin:round">
        <defs
           id="defs23">
          <path
             d="m 31.78125,66.40625 q -7.609375,0 -11.453125,-7.5 Q 16.5,51.421875 16.5,36.375 q 0,-14.984375 3.828125,-22.484375 3.84375,-7.5 11.453125,-7.5 7.671875,0 11.5,7.5 3.84375,7.5 3.84375,22.484375 0,15.046875 -3.84375,22.53125 -3.828125,7.5 -11.5,7.5 z m 0,7.8125 q 12.265625,0 18.734375,-9.703125 6.46875,-9.6875 6.46875,-28.140625 0,-18.40625 -6.46875,-28.109375 -6.46875,-9.6875 -18.734375,-9.6875 -12.25,0 -18.71875,9.6875 Q 6.59375,17.96875 6.59375,36.375 q 0,18.453125 6.46875,28.140625 6.46875,9.703125 18.71875,9.703125 z"
             id="DejaVuSans-48"
             inkscape:connector-curvature="0"
             style="stroke-linecap:butt;stroke-linejoin:round" />
        </defs>
        <use
           xlink:href="#DejaVuSans-48"
           id="use25"
           style="stroke-linecap:butt;stroke-linejoin:round"
           x="0"
           y="0"
           width="100%"
           height="100%" />
      </g>
    </g>
  </g>
  <g
     id="xtick_2"
     style="stroke-linecap:butt;stroke-linejoin:round"
     transform="matrix(0.83000388,0,0,0.83000388,-33.79076,-37.675536)">
    <g
       id="line2d_2"
       style="stroke-linecap:butt;stroke-linejoin:round">
      <g
         id="g33"
         style="stroke-linecap:butt;stroke-linejoin:round">
        <use
           style="stroke:#000000;stroke-width:0.80000001;stroke-linecap:butt;stroke-linejoin:round"
           x="196.82877"
           xlink:href="#m4f4f8305b7"
           y="339.62399"
           id="use31"
           width="100%"
           height="100%" />
      </g>
    </g>
    <g
       id="text_2"
       style="stroke-linecap:butt;stroke-linejoin:round">
      <!-- 25 -->
      <g
         transform="matrix(0.1,0,0,-0.1,190.46627,354.22244)"
         id="g44"
         style="stroke-linecap:butt;stroke-linejoin:round">
        <defs
           id="defs38">
          <path
             d="M 19.1875,8.296875 H 53.609375 V 0 H 7.328125 v 8.296875 q 5.609375,5.8125 15.296875,15.59375 9.703125,9.796875 12.1875,12.640625 4.734375,5.3125 6.609375,9 1.890625,3.6875 1.890625,7.25 0,5.8125 -4.078125,9.46875 -4.078125,3.671875 -10.625,3.671875 -4.640625,0 -9.796875,-1.609375 -5.140625,-1.609375 -11,-4.890625 v 9.96875 Q 13.765625,71.78125 18.9375,73 q 5.1875,1.21875 9.484375,1.21875 11.328125,0 18.0625,-5.671875 6.734375,-5.65625 6.734375,-15.125 0,-4.5 -1.6875,-8.53125 Q 49.859375,40.875 45.40625,35.40625 44.1875,33.984375 37.640625,27.21875 31.109375,20.453125 19.1875,8.296875 Z"
             id="DejaVuSans-50"
             inkscape:connector-curvature="0"
             style="stroke-linecap:butt;stroke-linejoin:round" />
          <path
             d="m 10.796875,72.90625 h 38.71875 v -8.3125 h -29.6875 V 46.734375 q 2.140625,0.734375 4.28125,1.09375 2.15625,0.359375 4.3125,0.359375 Q 40.625,48.1875 47.75,41.5 54.890625,34.8125 54.890625,23.390625 54.890625,11.625 47.5625,5.09375 40.234375,-1.421875 26.90625,-1.421875 q -4.59375,0 -9.359375,0.78125 -4.75,0.78125 -9.828125,2.34375 V 11.625 q 4.390625,-2.390625 9.078125,-3.5625 4.6875,-1.171875 9.90625,-1.171875 8.453125,0 13.375,4.4375 4.9375,4.4375 4.9375,12.0625 0,7.609375 -4.9375,12.046875 -4.921875,4.453125 -13.375,4.453125 -3.953125,0 -7.890625,-0.875 -3.921875,-0.875 -8.015625,-2.734375 z"
             id="DejaVuSans-53"
             inkscape:connector-curvature="0"
             style="stroke-linecap:butt;stroke-linejoin:round" />
        </defs>
        <use
           xlink:href="#DejaVuSans-50"
           id="use40"
           style="stroke-linecap:butt;stroke-linejoin:round"
           x="0"
           y="0"
           width="100%"
           height="100%" />
        <use
           x="63.623047"
           xlink:href="#DejaVuSans-53"
           id="use42"
           style="stroke-linecap:butt;stroke-linejoin:round"
           y="0"
           width="100%"
           height="100%" />
      </g>
    </g>
  </g>
  <g
     id="xtick_3"
     style="stroke-linecap:butt;stroke-linejoin:round"
     transform="matrix(0.83000388,0,0,0.83000388,-33.79076,-37.675536)">
    <g
       id="line2d_3"
       style="stroke-linecap:butt;stroke-linejoin:round">
      <g
         id="g50"
         style="stroke-linecap:butt;stroke-linejoin:round">
        <use
           style="stroke:#000000;stroke-width:0.80000001;stroke-linecap:butt;stroke-linejoin:round"
           x="266.64218"
           xlink:href="#m4f4f8305b7"
           y="339.62399"
           id="use48"
           width="100%"
           height="100%" />
      </g>
    </g>
    <g
       id="text_3"
       style="stroke-linecap:butt;stroke-linejoin:round">
      <!-- 50 -->
      <g
         transform="matrix(0.1,0,0,-0.1,260.27968,354.22244)"
         id="g57"
         style="stroke-linecap:butt;stroke-linejoin:round">
        <use
           xlink:href="#DejaVuSans-53"
           id="use53"
           style="stroke-linecap:butt;stroke-linejoin:round"
           x="0"
           y="0"
           width="100%"
           height="100%" />
        <use
           x="63.623047"
           xlink:href="#DejaVuSans-48"
           id="use55"
           style="stroke-linecap:butt;stroke-linejoin:round"
           y="0"
           width="100%"
           height="100%" />
      </g>
    </g>
  </g>
  <g
     id="xtick_4"
     style="stroke-linecap:butt;stroke-linejoin:round"
     transform="matrix(0.83000388,0,0,0.83000388,-33.79076,-37.675536)">
    <g
       id="line2d_4"
       style="stroke-linecap:butt;stroke-linejoin:round">
      <g
         id="g63"
         style="stroke-linecap:butt;stroke-linejoin:round">
        <use
           style="stroke:#000000;stroke-width:0.80000001;stroke-linecap:butt;stroke-linejoin:round"
           x="336.4556"
           xlink:href="#m4f4f8305b7"
           y="339.62399"
           id="use61"
           width="100%"
           height="100%" />
      </g>
    </g>
    <g
       id="text_4"
       style="stroke-linecap:butt;stroke-linejoin:round">
      <!-- 75 -->
      <g
         transform="matrix(0.1,0,0,-0.1,330.09309,354.22244)"
         id="g73"
         style="stroke-linecap:butt;stroke-linejoin:round">
        <defs
           id="defs67">
          <path
             d="m 8.203125,72.90625 h 46.875 V 68.703125 L 28.609375,0 H 18.3125 L 43.21875,64.59375 H 8.203125 Z"
             id="DejaVuSans-55"
             inkscape:connector-curvature="0"
             style="stroke-linecap:butt;stroke-linejoin:round" />
        </defs>
        <use
           xlink:href="#DejaVuSans-55"
           id="use69"
           style="stroke-linecap:butt;stroke-linejoin:round"
           x="0"
           y="0"
           width="100%"
           height="100%" />
        <use
           x="63.623047"
           xlink:href="#DejaVuSans-53"
           id="use71"
           style="stroke-linecap:butt;stroke-linejoin:round"
           y="0"
           width="100%"
           height="100%" />
      </g>
    </g>
  </g>
  <g
     id="xtick_5"
     style="stroke-linecap:butt;stroke-linejoin:round"
     transform="matrix(0.83000388,0,0,0.83000388,-33.79076,-37.675536)">
    <g
       id="line2d_5"
       style="stroke-linecap:butt;stroke-linejoin:round">
      <g
         id="g79"
         style="stroke-linecap:butt;stroke-linejoin:round">
        <use
           style="stroke:#000000;stroke-width:0.80000001;stroke-linecap:butt;stroke-linejoin:round"
           x="406.26901"
           xlink:href="#m4f4f8305b7"
           y="339.62399"
           id="use77"
           width="100%"
           height="100%" />
      </g>
    </g>
    <g
       id="text_5"
       style="stroke-linecap:butt;stroke-linejoin:round">
      <!-- 100 -->
      <g
         transform="matrix(0.1,0,0,-0.1,396.72525,354.22244)"
         id="g91"
         style="stroke-linecap:butt;stroke-linejoin:round">
        <defs
           id="defs83">
          <path
             d="m 12.40625,8.296875 h 16.109375 v 55.625 L 10.984375,60.40625 v 8.984375 l 17.4375,3.515625 H 38.28125 V 8.296875 H 54.390625 V 0 H 12.40625 Z"
             id="DejaVuSans-49"
             inkscape:connector-curvature="0"
             style="stroke-linecap:butt;stroke-linejoin:round" />
        </defs>
        <use
           xlink:href="#DejaVuSans-49"
           id="use85"
           style="stroke-linecap:butt;stroke-linejoin:round"
           x="0"
           y="0"
           width="100%"
           height="100%" />
        <use
           x="63.623047"
           xlink:href="#DejaVuSans-48"
           id="use87"
           style="stroke-linecap:butt;stroke-linejoin:round"
           y="0"
           width="100%"
           height="100%" />
        <use
           x="127.24609"
           xlink:href="#DejaVuSans-48"
           id="use89"
           style="stroke-linecap:butt;stroke-linejoin:round"
           y="0"
           width="100%"
           height="100%" />
      </g>
    </g>
  </g>
  <g
     id="xtick_6"
     style="stroke-linecap:butt;stroke-linejoin:round"
     transform="matrix(0.83000388,0,0,0.83000388,-33.79076,-37.675536)">
    <g
       id="line2d_6"
       style="stroke-linecap:butt;stroke-linejoin:round">
      <g
         id="g97"
         style="stroke-linecap:butt;stroke-linejoin:round">
        <use
           style="stroke:#000000;stroke-width:0.80000001;stroke-linecap:butt;stroke-linejoin:round"
           x="476.0824"
           xlink:href="#m4f4f8305b7"
           y="339.62399"
           id="use95"
           width="100%"
           height="100%" />
      </g>
    </g>
    <g
       id="text_6"
       style="stroke-linecap:butt;stroke-linejoin:round">
      <!-- 125 -->
      <g
         transform="matrix(0.1,0,0,-0.1,466.53866,354.22244)"
         id="g106"
         style="stroke-linecap:butt;stroke-linejoin:round">
        <use
           xlink:href="#DejaVuSans-49"
           id="use100"
           style="stroke-linecap:butt;stroke-linejoin:round"
           x="0"
           y="0"
           width="100%"
           height="100%" />
        <use
           x="63.623047"
           xlink:href="#DejaVuSans-50"
           id="use102"
           style="stroke-linecap:butt;stroke-linejoin:round"
           y="0"
           width="100%"
           height="100%" />
        <use
           x="127.24609"
           xlink:href="#DejaVuSans-53"
           id="use104"
           style="stroke-linecap:butt;stroke-linejoin:round"
           y="0"
           width="100%"
           height="100%" />
      </g>
    </g>
  </g>
  <g
     id="xtick_7"
     style="stroke-linecap:butt;stroke-linejoin:round"
     transform="matrix(0.83000388,0,0,0.83000388,-33.79076,-37.675536)">
    <g
       id="line2d_7"
       style="stroke-linecap:butt;stroke-linejoin:round">
      <g
         id="g112"
         style="stroke-linecap:butt;stroke-linejoin:round">
        <use
           style="stroke:#000000;stroke-width:0.80000001;stroke-linecap:butt;stroke-linejoin:round"
           x="545.89581"
           xlink:href="#m4f4f8305b7"
           y="339.62399"
           id="use110"
           width="100%"
           height="100%" />
      </g>
    </g>
    <g
       id="text_7"
       style="stroke-linecap:butt;stroke-linejoin:round">
      <!-- 150 -->
      <g
         transform="matrix(0.1,0,0,-0.1,536.35207,354.22244)"
         id="g121"
         style="stroke-linecap:butt;stroke-linejoin:round">
        <use
           xlink:href="#DejaVuSans-49"
           id="use115"
           style="stroke-linecap:butt;stroke-linejoin:round"
           x="0"
           y="0"
           width="100%"
           height="100%" />
        <use
           x="63.623047"
           xlink:href="#DejaVuSans-53"
           id="use117"
           style="stroke-linecap:butt;stroke-linejoin:round"
           y="0"
           width="100%"
           height="100%" />
        <use
           x="127.24609"
           xlink:href="#DejaVuSans-48"
           id="use119"
           style="stroke-linecap:butt;stroke-linejoin:round"
           y="0"
           width="100%"
           height="100%" />
      </g>
    </g>
  </g>
  <g
     id="xtick_8"
     style="stroke-linecap:butt;stroke-linejoin:round"
     transform="matrix(0.83000388,0,0,0.83000388,-33.79076,-37.675536)">
    <g
       id="line2d_8"
       style="stroke-linecap:butt;stroke-linejoin:round">
      <g
         id="g127"
         style="stroke-linecap:butt;stroke-linejoin:round">
        <use
           style="stroke:#000000;stroke-width:0.80000001;stroke-linecap:butt;stroke-linejoin:round"
           x="615.70923"
           xlink:href="#m4f4f8305b7"
           y="339.62399"
           id="use125"
           width="100%"
           height="100%" />
      </g>
    </g>
    <g
       id="text_8"
       style="stroke-linecap:butt;stroke-linejoin:round">
      <!-- 175 -->
      <g
         transform="matrix(0.1,0,0,-0.1,606.16548,354.22244)"
         id="g136"
         style="stroke-linecap:butt;stroke-linejoin:round">
        <use
           xlink:href="#DejaVuSans-49"
           id="use130"
           style="stroke-linecap:butt;stroke-linejoin:round"
           x="0"
           y="0"
           width="100%"
           height="100%" />
        <use
           x="63.623047"
           xlink:href="#DejaVuSans-55"
           id="use132"
           style="stroke-linecap:butt;stroke-linejoin:round"
           y="0"
           width="100%"
           height="100%" />
        <use
           x="127.24609"
           xlink:href="#DejaVuSans-53"
           id="use134"
           style="stroke-linecap:butt;stroke-linejoin:round"
           y="0"
           width="100%"
           height="100%" />
      </g>
    </g>
  </g>
  <g
     id="xtick_9"
     style="stroke-linecap:butt;stroke-linejoin:round"
     transform="matrix(0.83000388,0,0,0.83000388,-33.79076,-37.675536)">
    <g
       id="line2d_9"
       style="stroke-linecap:butt;stroke-linejoin:round">
      <g
         id="g142"
         style="stroke-linecap:butt;stroke-linejoin:round">
        <use
           style="stroke:#000000;stroke-width:0.80000001;stroke-linecap:butt;stroke-linejoin:round"
           x="685.52264"
           xlink:href="#m4f4f8305b7"
           y="339.62399"
           id="use140"
           width="100%"
           height="100%" />
      </g>
    </g>
    <g
       id="text_9"
       style="stroke-linecap:butt;stroke-linejoin:round">
      <!-- 200 -->
      <g
         transform="matrix(0.1,0,0,-0.1,675.97889,354.22244)"
         id="g151"
         style="stroke-linecap:butt;stroke-linejoin:round">
        <use
           xlink:href="#DejaVuSans-50"
           id="use145"
           style="stroke-linecap:butt;stroke-linejoin:round"
           x="0"
           y="0"
           width="100%"
           height="100%" />
        <use
           x="63.623047"
           xlink:href="#DejaVuSans-48"
           id="use147"
           style="stroke-linecap:butt;stroke-linejoin:round"
           y="0"
           width="100%"
           height="100%" />
        <use
           x="127.24609"
           xlink:href="#DejaVuSans-48"
           id="use149"
           style="stroke-linecap:butt;stroke-linejoin:round"
           y="0"
           width="100%"
           height="100%" />
      </g>
    </g>
  </g>
  <g
     id="ytick_1"
     style="stroke-linecap:butt;stroke-linejoin:round"
     transform="matrix(0.83000388,0,0,0.83000388,-33.79076,-37.675536)">
    <g
       id="line2d_10"
       style="stroke-linecap:butt;stroke-linejoin:round">
      <defs
         id="defs200">
        <path
           d="M 0,0 H -3.5"
           id="medfc474ff2"
           style="stroke:#000000;stroke-width:0.80000001;stroke-linecap:butt;stroke-linejoin:round"
           inkscape:connector-curvature="0" />
      </defs>
      <g
         id="g204"
         style="stroke-linecap:butt;stroke-linejoin:round">
        <use
           style="stroke:#000000;stroke-width:0.80000001;stroke-linecap:butt;stroke-linejoin:round"
           x="99.089996"
           xlink:href="#medfc474ff2"
           y="314.78052"
           id="use202"
           width="100%"
           height="100%" />
      </g>
    </g>
    <g
       id="text_11"
       style="stroke-linecap:butt;stroke-linejoin:round">
      <!-- 3500 -->
      <g
         transform="matrix(0.1,0,0,-0.1,66.64,318.57975)"
         id="g218"
         style="stroke-linecap:butt;stroke-linejoin:round">
        <defs
           id="defs208">
          <path
             d="M 40.578125,39.3125 Q 47.65625,37.796875 51.625,33 q 3.984375,-4.78125 3.984375,-11.8125 0,-10.78125 -7.421875,-16.703125 -7.421875,-5.90625 -21.09375,-5.90625 -4.578125,0 -9.4375,0.90625 -4.859375,0.90625 -10.03125,2.71875 v 9.515625 q 4.09375,-2.390625 8.96875,-3.609375 4.890625,-1.21875 10.21875,-1.21875 9.265625,0 14.125,3.65625 4.859375,3.65625 4.859375,10.640625 0,6.453125 -4.515625,10.078125 -4.515625,3.640625 -12.5625,3.640625 h -8.5 v 8.109375 h 8.890625 q 7.265625,0 11.125,2.90625 3.859375,2.90625 3.859375,8.375 0,5.609375 -3.984375,8.609375 -3.96875,3.015625 -11.390625,3.015625 -4.0625,0 -8.703125,-0.890625 Q 15.375,64.15625 9.8125,62.3125 v 8.78125 q 5.625,1.5625 10.53125,2.34375 4.90625,0.78125 9.25,0.78125 11.234375,0 17.765625,-5.109375 6.546875,-5.09375 6.546875,-13.78125 0,-6.0625 -3.46875,-10.234375 -3.46875,-4.171875 -9.859375,-5.78125 z"
             id="DejaVuSans-51"
             inkscape:connector-curvature="0"
             style="stroke-linecap:butt;stroke-linejoin:round" />
        </defs>
        <use
           xlink:href="#DejaVuSans-51"
           id="use210"
           style="stroke-linecap:butt;stroke-linejoin:round"
           x="0"
           y="0"
           width="100%"
           height="100%" />
        <use
           x="63.623047"
           xlink:href="#DejaVuSans-53"
           id="use212"
           style="stroke-linecap:butt;stroke-linejoin:round"
           y="0"
           width="100%"
           height="100%" />
        <use
           x="127.24609"
           xlink:href="#DejaVuSans-48"
           id="use214"
           style="stroke-linecap:butt;stroke-linejoin:round"
           y="0"
           width="100%"
           height="100%" />
        <use
           x="190.86914"
           xlink:href="#DejaVuSans-48"
           id="use216"
           style="stroke-linecap:butt;stroke-linejoin:round"
           y="0"
           width="100%"
           height="100%" />
      </g>
    </g>
  </g>
  <g
     id="ytick_2"
     style="stroke-linecap:butt;stroke-linejoin:round"
     transform="matrix(0.83000388,0,0,0.83000388,-33.79076,-37.675536)">
    <g
       id="line2d_11"
       style="stroke-linecap:butt;stroke-linejoin:round">
      <g
         id="g224"
         style="stroke-linecap:butt;stroke-linejoin:round">
        <use
           style="stroke:#000000;stroke-width:0.80000001;stroke-linecap:butt;stroke-linejoin:round"
           x="99.089996"
           xlink:href="#medfc474ff2"
           y="278.4278"
           id="use222"
           width="100%"
           height="100%" />
      </g>
    </g>
    <g
       id="text_12"
       style="stroke-linecap:butt;stroke-linejoin:round">
      <!-- 3750 -->
      <g
         transform="matrix(0.1,0,0,-0.1,66.64,282.227)"
         id="g235"
         style="stroke-linecap:butt;stroke-linejoin:round">
        <use
           xlink:href="#DejaVuSans-51"
           id="use227"
           style="stroke-linecap:butt;stroke-linejoin:round"
           x="0"
           y="0"
           width="100%"
           height="100%" />
        <use
           x="63.623047"
           xlink:href="#DejaVuSans-55"
           id="use229"
           style="stroke-linecap:butt;stroke-linejoin:round"
           y="0"
           width="100%"
           height="100%" />
        <use
           x="127.24609"
           xlink:href="#DejaVuSans-53"
           id="use231"
           style="stroke-linecap:butt;stroke-linejoin:round"
           y="0"
           width="100%"
           height="100%" />
        <use
           x="190.86914"
           xlink:href="#DejaVuSans-48"
           id="use233"
           style="stroke-linecap:butt;stroke-linejoin:round"
           y="0"
           width="100%"
           height="100%" />
      </g>
    </g>
  </g>
  <g
     id="ytick_3"
     style="stroke-linecap:butt;stroke-linejoin:round"
     transform="matrix(0.83000388,0,0,0.83000388,-33.79076,-37.675536)">
    <g
       id="line2d_12"
       style="stroke-linecap:butt;stroke-linejoin:round">
      <g
         id="g241"
         style="stroke-linecap:butt;stroke-linejoin:round">
        <use
           style="stroke:#000000;stroke-width:0.80000001;stroke-linecap:butt;stroke-linejoin:round"
           x="99.089996"
           xlink:href="#medfc474ff2"
           y="242.07503"
           id="use239"
           width="100%"
           height="100%" />
      </g>
    </g>
    <g
       id="text_13"
       style="stroke-linecap:butt;stroke-linejoin:round">
      <!-- 4000 -->
      <g
         transform="matrix(0.1,0,0,-0.1,66.64,245.87425)"
         id="g255"
         style="stroke-linecap:butt;stroke-linejoin:round">
        <defs
           id="defs245">
          <path
             d="M 37.796875,64.3125 12.890625,25.390625 h 24.90625 z m -2.59375,8.59375 h 12.40625 V 25.390625 h 10.40625 V 17.1875 H 47.609375 V 0 h -9.8125 V 17.1875 H 4.890625 v 9.515625 z"
             id="DejaVuSans-52"
             inkscape:connector-curvature="0"
             style="stroke-linecap:butt;stroke-linejoin:round" />
        </defs>
        <use
           xlink:href="#DejaVuSans-52"
           id="use247"
           style="stroke-linecap:butt;stroke-linejoin:round"
           x="0"
           y="0"
           width="100%"
           height="100%" />
        <use
           x="63.623047"
           xlink:href="#DejaVuSans-48"
           id="use249"
           style="stroke-linecap:butt;stroke-linejoin:round"
           y="0"
           width="100%"
           height="100%" />
        <use
           x="127.24609"
           xlink:href="#DejaVuSans-48"
           id="use251"
           style="stroke-linecap:butt;stroke-linejoin:round"
           y="0"
           width="100%"
           height="100%" />
        <use
           x="190.86914"
           xlink:href="#DejaVuSans-48"
           id="use253"
           style="stroke-linecap:butt;stroke-linejoin:round"
           y="0"
           width="100%"
           height="100%" />
      </g>
    </g>
  </g>
  <g
     id="ytick_4"
     style="stroke-linecap:butt;stroke-linejoin:round"
     transform="matrix(0.83000388,0,0,0.83000388,-33.79076,-37.675536)">
    <g
       id="line2d_13"
       style="stroke-linecap:butt;stroke-linejoin:round">
      <g
         id="g261"
         style="stroke-linecap:butt;stroke-linejoin:round">
        <use
           style="stroke:#000000;stroke-width:0.80000001;stroke-linecap:butt;stroke-linejoin:round"
           x="99.089996"
           xlink:href="#medfc474ff2"
           y="205.72229"
           id="use259"
           width="100%"
           height="100%" />
      </g>
    </g>
    <g
       id="text_14"
       style="stroke-linecap:butt;stroke-linejoin:round">
      <!-- 4250 -->
      <g
         transform="matrix(0.1,0,0,-0.1,66.64,209.5215)"
         id="g272"
         style="stroke-linecap:butt;stroke-linejoin:round">
        <use
           xlink:href="#DejaVuSans-52"
           id="use264"
           style="stroke-linecap:butt;stroke-linejoin:round"
           x="0"
           y="0"
           width="100%"
           height="100%" />
        <use
           x="63.623047"
           xlink:href="#DejaVuSans-50"
           id="use266"
           style="stroke-linecap:butt;stroke-linejoin:round"
           y="0"
           width="100%"
           height="100%" />
        <use
           x="127.24609"
           xlink:href="#DejaVuSans-53"
           id="use268"
           style="stroke-linecap:butt;stroke-linejoin:round"
           y="0"
           width="100%"
           height="100%" />
        <use
           x="190.86914"
           xlink:href="#DejaVuSans-48"
           id="use270"
           style="stroke-linecap:butt;stroke-linejoin:round"
           y="0"
           width="100%"
           height="100%" />
      </g>
    </g>
  </g>
  <g
     id="ytick_5"
     style="stroke-linecap:butt;stroke-linejoin:round"
     transform="matrix(0.83000388,0,0,0.83000388,-33.79076,-37.675536)">
    <g
       id="line2d_14"
       style="stroke-linecap:butt;stroke-linejoin:round">
      <g
         id="g278"
         style="stroke-linecap:butt;stroke-linejoin:round">
        <use
           style="stroke:#000000;stroke-width:0.80000001;stroke-linecap:butt;stroke-linejoin:round"
           x="99.089996"
           xlink:href="#medfc474ff2"
           y="169.36954"
           id="use276"
           width="100%"
           height="100%" />
      </g>
    </g>
    <g
       id="text_15"
       style="stroke-linecap:butt;stroke-linejoin:round">
      <!-- 4500 -->
      <g
         transform="matrix(0.1,0,0,-0.1,66.64,173.16875)"
         id="g289"
         style="stroke-linecap:butt;stroke-linejoin:round">
        <use
           xlink:href="#DejaVuSans-52"
           id="use281"
           style="stroke-linecap:butt;stroke-linejoin:round"
           x="0"
           y="0"
           width="100%"
           height="100%" />
        <use
           x="63.623047"
           xlink:href="#DejaVuSans-53"
           id="use283"
           style="stroke-linecap:butt;stroke-linejoin:round"
           y="0"
           width="100%"
           height="100%" />
        <use
           x="127.24609"
           xlink:href="#DejaVuSans-48"
           id="use285"
           style="stroke-linecap:butt;stroke-linejoin:round"
           y="0"
           width="100%"
           height="100%" />
        <use
           x="190.86914"
           xlink:href="#DejaVuSans-48"
           id="use287"
           style="stroke-linecap:butt;stroke-linejoin:round"
           y="0"
           width="100%"
           height="100%" />
      </g>
    </g>
  </g>
  <g
     id="ytick_6"
     style="stroke-linecap:butt;stroke-linejoin:round"
     transform="matrix(0.83000388,0,0,0.83000388,-33.79076,-37.675536)">
    <g
       id="line2d_15"
       style="stroke-linecap:butt;stroke-linejoin:round">
      <g
         id="g295"
         style="stroke-linecap:butt;stroke-linejoin:round">
        <use
           style="stroke:#000000;stroke-width:0.80000001;stroke-linecap:butt;stroke-linejoin:round"
           x="99.089996"
           xlink:href="#medfc474ff2"
           y="133.01678"
           id="use293"
           width="100%"
           height="100%" />
      </g>
    </g>
    <g
       id="text_16"
       style="stroke-linecap:butt;stroke-linejoin:round">
      <!-- 4750 -->
      <g
         transform="matrix(0.1,0,0,-0.1,66.64,136.816)"
         id="g306"
         style="stroke-linecap:butt;stroke-linejoin:round">
        <use
           xlink:href="#DejaVuSans-52"
           id="use298"
           style="stroke-linecap:butt;stroke-linejoin:round"
           x="0"
           y="0"
           width="100%"
           height="100%" />
        <use
           x="63.623047"
           xlink:href="#DejaVuSans-55"
           id="use300"
           style="stroke-linecap:butt;stroke-linejoin:round"
           y="0"
           width="100%"
           height="100%" />
        <use
           x="127.24609"
           xlink:href="#DejaVuSans-53"
           id="use302"
           style="stroke-linecap:butt;stroke-linejoin:round"
           y="0"
           width="100%"
           height="100%" />
        <use
           x="190.86914"
           xlink:href="#DejaVuSans-48"
           id="use304"
           style="stroke-linecap:butt;stroke-linejoin:round"
           y="0"
           width="100%"
           height="100%" />
      </g>
    </g>
  </g>
  <g
     id="ytick_7"
     style="stroke-linecap:butt;stroke-linejoin:round"
     transform="matrix(0.83000388,0,0,0.83000388,-33.79076,-37.675536)">
    <g
       id="line2d_16"
       style="stroke-linecap:butt;stroke-linejoin:round">
      <g
         id="g312"
         style="stroke-linecap:butt;stroke-linejoin:round">
        <use
           style="stroke:#000000;stroke-width:0.80000001;stroke-linecap:butt;stroke-linejoin:round"
           x="99.089996"
           xlink:href="#medfc474ff2"
           y="96.66404"
           id="use310"
           width="100%"
           height="100%" />
      </g>
    </g>
    <g
       id="text_17"
       style="stroke-linecap:butt;stroke-linejoin:round">
      <!-- 5000 -->
      <g
         transform="matrix(0.1,0,0,-0.1,66.64,100.46326)"
         id="g323"
         style="stroke-linecap:butt;stroke-linejoin:round">
        <use
           xlink:href="#DejaVuSans-53"
           id="use315"
           style="stroke-linecap:butt;stroke-linejoin:round"
           x="0"
           y="0"
           width="100%"
           height="100%" />
        <use
           x="63.623047"
           xlink:href="#DejaVuSans-48"
           id="use317"
           style="stroke-linecap:butt;stroke-linejoin:round"
           y="0"
           width="100%"
           height="100%" />
        <use
           x="127.24609"
           xlink:href="#DejaVuSans-48"
           id="use319"
           style="stroke-linecap:butt;stroke-linejoin:round"
           y="0"
           width="100%"
           height="100%" />
        <use
           x="190.86914"
           xlink:href="#DejaVuSans-48"
           id="use321"
           style="stroke-linecap:butt;stroke-linejoin:round"
           y="0"
           width="100%"
           height="100%" />
      </g>
    </g>
  </g>
  <g
     id="ytick_8"
     style="stroke-linecap:butt;stroke-linejoin:round"
     transform="matrix(0.83000388,0,0,0.83000388,-33.79076,-37.675536)">
    <g
       id="line2d_17"
       style="stroke-linecap:butt;stroke-linejoin:round">
      <g
         id="g329"
         style="stroke-linecap:butt;stroke-linejoin:round">
        <use
           style="stroke:#000000;stroke-width:0.80000001;stroke-linecap:butt;stroke-linejoin:round"
           x="99.089996"
           xlink:href="#medfc474ff2"
           y="60.311287"
           id="use327"
           width="100%"
           height="100%" />
      </g>
    </g>
    <g
       id="text_18"
       style="stroke-linecap:butt;stroke-linejoin:round">
      <!-- 5250 -->
      <g
         transform="matrix(0.1,0,0,-0.1,66.64,64.110507)"
         id="g340"
         style="stroke-linecap:butt;stroke-linejoin:round">
        <use
           xlink:href="#DejaVuSans-53"
           id="use332"
           style="stroke-linecap:butt;stroke-linejoin:round"
           x="0"
           y="0"
           width="100%"
           height="100%" />
        <use
           x="63.623047"
           xlink:href="#DejaVuSans-50"
           id="use334"
           style="stroke-linecap:butt;stroke-linejoin:round"
           y="0"
           width="100%"
           height="100%" />
        <use
           x="127.24609"
           xlink:href="#DejaVuSans-53"
           id="use336"
           style="stroke-linecap:butt;stroke-linejoin:round"
           y="0"
           width="100%"
           height="100%" />
        <use
           x="190.86914"
           xlink:href="#DejaVuSans-48"
           id="use338"
           style="stroke-linecap:butt;stroke-linejoin:round"
           y="0"
           width="100%"
           height="100%" />
      </g>
    </g>
  </g>
  <g
     style="stroke-linecap:butt;stroke-linejoin:round"
     id="line2d_18"
     transform="matrix(0.83000388,0,0,0.83000388,-33.79076,-37.675536)">
    <path
       inkscape:connector-curvature="0"
       id="path387"
       style="fill:none;stroke:#1f77b4;stroke-width:2;stroke-linecap:square;stroke-linejoin:round"
       d="m 127.01536,59.148 2.79254,26.173979 h 2.79254 l 2.79253,66.889061 h 2.79254 l 2.79253,16.43144 h 2.79254 l 2.79254,38.67932 2.79254,-5.81644 h 2.79253 l 2.79254,-15.55897 2.79253,2.47199 h 5.58508 l 2.79253,4.65315 2.79254,41.29672 h 16.75522 l 2.79253,11.05124 h 30.7179 l 2.79254,40.71507 h 2.79254 l 2.79253,14.25028 h 13.96268 l 2.79254,12.50535 h 80.98355 l 2.79254,4.94397 h 36.30297 l 2.79254,2.03576 h 187.09994 l 2.79253,-0.87247 h 33.51044 l 2.79254,7.27055 h 92.1537 v 0"
       clip-path="url(#p0f3ef419c0)" />
  </g>
  <g
     style="stroke-linecap:butt;stroke-linejoin:round"
     id="line2d_19"
     transform="matrix(0.83000388,0,0,0.83000388,-33.79076,-37.675536)">
    <path
       inkscape:connector-curvature="0"
       id="path390"
       style="fill:none;stroke:#ff7f0e;stroke-width:2;stroke-linecap:square;stroke-linejoin:round"
       d="m 127.01536,59.148 2.79254,26.173979 h 2.79254 l 2.79253,66.889061 h 2.79254 l 2.79253,16.43144 h 2.79254 l 2.79254,38.67932 h 19.54775 l 2.79254,27.04645 h 16.75522 l 2.79253,11.05124 h 30.7179 l 2.79254,40.71507 h 2.79254 l 2.79253,14.25028 h 13.96268 l 2.79254,12.50535 h 80.98355 l 2.79254,4.94397 h 36.30297 l 2.79254,2.03576 H 590.5764 l 2.79254,6.39808 h 92.1537 v 0"
       clip-path="url(#p0f3ef419c0)" />
  </g>
  <g
     style="stroke-linecap:butt;stroke-linejoin:round"
     id="patch_3"
     transform="matrix(0.83000388,0,0,0.83000388,-33.79076,-37.675536)">
    <path
       inkscape:connector-curvature="0"
       id="path393"
       style="fill:none;stroke:#000000;stroke-width:0.80000001;stroke-linecap:square;stroke-linejoin:miter"
       d="M 99.09,339.624 V 45.792" />
  </g>
  <g
     style="stroke-linecap:butt;stroke-linejoin:round"
     id="patch_4"
     transform="matrix(0.83000388,0,0,0.83000388,-33.79076,-37.675536)">
    <path
       inkscape:connector-curvature="0"
       id="path396"
       style="fill:none;stroke:#000000;stroke-width:0.80000001;stroke-linecap:square;stroke-linejoin:miter"
       d="M 713.448,339.624 V 45.792" />
  </g>
  <g
     style="stroke-linecap:butt;stroke-linejoin:round"
     id="patch_5"
     transform="matrix(0.83000388,0,0,0.83000388,-33.79076,-37.675536)">
    <path
       inkscape:connector-curvature="0"
       id="path399"
       style="fill:none;stroke:#000000;stroke-width:0.80000001;stroke-linecap:square;stroke-linejoin:miter"
       d="M 99.09,339.624 H 713.448" />
  </g>
  <g
     style="stroke-linecap:butt;stroke-linejoin:round"
     id="patch_6"
     transform="matrix(0.83000388,0,0,0.83000388,-33.79076,-37.675536)">
    <path
       inkscape:connector-curvature="0"
       id="path402"
       style="fill:none;stroke:#000000;stroke-width:0.80000001;stroke-linecap:square;stroke-linejoin:miter"
       d="M 99.09,45.792 H 713.448" />
  </g>
  <g
     id="patch_7"
     style="stroke-linecap:butt;stroke-linejoin:round"
     transform="matrix(0.83000388,0,0,0.83000388,-33.79076,-37.675536)">
    <path
       d="M 636.89487,83.14825 H 706.448 q 2,0 2,-2 V 52.792 q 0,-2 -2,-2 h -69.55313 q -2,0 -2,2 v 28.35625 q 0,2 2,2 z"
       style="opacity:0.8;fill:#ffffff;stroke:#cccccc;stroke-linecap:butt;stroke-linejoin:miter"
       id="path477"
       inkscape:connector-curvature="0" />
  </g>
  <g
     id="line2d_20"
     style="stroke-linecap:butt;stroke-linejoin:round"
     transform="matrix(0.83000388,0,0,0.83000388,-33.79076,-37.675536)">
    <path
       d="m 638.89487,58.890437 h 20"
       style="fill:none;stroke:#1f77b4;stroke-width:2;stroke-linecap:square;stroke-linejoin:round"
       id="path480"
       inkscape:connector-curvature="0" />
  </g>
  <g
     id="line2d_21"
     style="stroke-linecap:butt;stroke-linejoin:round"
     transform="matrix(0.83000388,0,0,0.83000388,-33.79076,-37.675536)" />
  <g
     id="line2d_22"
     style="stroke-linecap:butt;stroke-linejoin:round"
     transform="matrix(0.83000388,0,0,0.83000388,-33.79076,-37.675536)">
    <path
       d="m 638.89487,73.568562 h 20"
       style="fill:none;stroke:#ff7f0e;stroke-width:2;stroke-linecap:square;stroke-linejoin:round"
       id="path504"
       inkscape:connector-curvature="0" />
  </g>
  <g
     id="line2d_23"
     style="stroke-linecap:butt;stroke-linejoin:round"
     transform="matrix(0.83000388,0,0,0.83000388,-33.79076,-37.675536)" />
  <defs
     id="defs529">
    <clipPath
       id="p0f3ef419c0"
       style="stroke-linecap:butt;stroke-linejoin:round">
      <rect
         id="rect526"
         y="45.792"
         x="99.089996"
         width="614.35797"
         height="293.832"
         style="stroke-linecap:butt;stroke-linejoin:round" />
    </clipPath>
  </defs>
  <g
     id="g5147"
     ns1:jacobian_sqrt="1.5"
     ns1:alignment="middle center"
     ns1:scale="1.5"
     ns1:preamble="/home/chi/.config/inkscape/extensions/textext/default_packages.tex"
     ns1:text="Cost"
     ns1:pdfconverter="pdf2svg"
     ns1:texconverter="pdflatex"
     ns1:version="0.11.0"
     transform="matrix(0,-1.5,1.5,0,-191.60062,360.32626)"
     style="stroke-linecap:butt;stroke-linejoin:round">
    <g
       id="g5145"
       style="stroke-linecap:butt;stroke-linejoin:round">
      <g
         id="g5143"
         style="fill:#000000;fill-opacity:1;stroke-linecap:butt;stroke-linejoin:round">
        <path
           id="path5135"
           transform="translate(148.712,134.765)"
           d="m 0.5625,-3.40625 c 0,2.0625 1.609375,3.625 3.46875,3.625 1.625,0 2.59375,-1.390625 2.59375,-2.546875 C 6.625,-2.421875 6.625,-2.5 6.5,-2.5 6.390625,-2.5 6.390625,-2.4375 6.375,-2.328125 6.296875,-0.90625 5.234375,-0.09375 4.140625,-0.09375 c -0.609375,0 -2.5625,-0.328125 -2.5625,-3.3125 0,-2.96875 1.953125,-3.3125 2.5625,-3.3125 1.078125,0 1.96875,0.90625 2.171875,2.359375 C 6.328125,-4.21875 6.328125,-4.1875 6.46875,-4.1875 6.625,-4.1875 6.625,-4.21875 6.625,-4.421875 V -6.78125 c 0,-0.171875 0,-0.25 -0.109375,-0.25 -0.03125,0 -0.078125,0 -0.15625,0.125 l -0.5,0.734375 C 5.5,-6.53125 4.984375,-7.03125 4.03125,-7.03125 c -1.875,0 -3.46875,1.59375 -3.46875,3.625 z m 0,0"
           style="stroke:none;stroke-width:0;stroke-linecap:butt;stroke-linejoin:round"
           inkscape:connector-curvature="0" />
        <path
           id="path5137"
           transform="translate(155.90699,134.765)"
           d="M 4.6875,-2.140625 C 4.6875,-3.40625 3.703125,-4.46875 2.5,-4.46875 c -1.25,0 -2.21875,1.09375 -2.21875,2.328125 0,1.296875 1.03125,2.25 2.203125,2.25 1.203125,0 2.203125,-0.984375 2.203125,-2.25 z m -2.1875,2 c -0.4375,0 -0.875,-0.203125 -1.140625,-0.671875 -0.25,-0.4375 -0.25,-1.046875 -0.25,-1.40625 0,-0.390625 0,-0.921875 0.234375,-1.359375 C 1.609375,-4.03125 2.078125,-4.25 2.484375,-4.25 c 0.4375,0 0.859375,0.21875 1.125,0.65625 0.265625,0.421875 0.265625,1 0.265625,1.375 0,0.359375 0,0.90625 -0.21875,1.34375 C 3.421875,-0.421875 2.984375,-0.140625 2.5,-0.140625 Z m 0,0"
           style="stroke:none;stroke-width:0;stroke-linecap:butt;stroke-linejoin:round"
           inkscape:connector-curvature="0" />
        <path
           id="path5139"
           transform="translate(160.88829,134.765)"
           d="m 2.078125,-1.9375 c 0.21875,0.046875 1.03125,0.203125 1.03125,0.921875 0,0.5 -0.34375,0.90625 -1.125,0.90625 -0.84375,0 -1.203125,-0.5625 -1.390625,-1.421875 C 0.5625,-1.65625 0.5625,-1.6875 0.453125,-1.6875 c -0.125,0 -0.125,0.0625 -0.125,0.234375 V -0.125 c 0,0.171875 0,0.234375 0.109375,0.234375 0.046875,0 0.0625,-0.015625 0.25,-0.203125 0.015625,-0.015625 0.015625,-0.03125 0.203125,-0.21875 0.4375,0.40625 0.890625,0.421875 1.09375,0.421875 1.140625,0 1.609375,-0.671875 1.609375,-1.390625 0,-0.515625 -0.296875,-0.828125 -0.421875,-0.9375 C 2.84375,-2.546875 2.453125,-2.625 2.03125,-2.703125 1.46875,-2.8125 0.8125,-2.9375 0.8125,-3.515625 c 0,-0.359375 0.25,-0.765625 1.109375,-0.765625 1.09375,0 1.15625,0.90625 1.171875,1.203125 0,0.09375 0.09375,0.09375 0.109375,0.09375 0.140625,0 0.140625,-0.046875 0.140625,-0.234375 v -1.015625 c 0,-0.15625 0,-0.234375 -0.109375,-0.234375 -0.046875,0 -0.078125,0 -0.203125,0.125 -0.03125,0.03125 -0.125,0.125 -0.171875,0.15625 -0.375,-0.28125 -0.78125,-0.28125 -0.9375,-0.28125 -1.21875,0 -1.59375,0.671875 -1.59375,1.234375 0,0.34375 0.15625,0.625 0.421875,0.84375 0.328125,0.25 0.609375,0.3125 1.328125,0.453125 z m 0,0"
           style="stroke:none;stroke-width:0;stroke-linecap:butt;stroke-linejoin:round"
           inkscape:connector-curvature="0" />
        <path
           id="path5141"
           transform="translate(164.81754,134.765)"
           d="m 1.71875,-3.984375 h 1.4375 v -0.3125 H 1.71875 V -6.125 h -0.25 c 0,0.8125 -0.296875,1.875 -1.28125,1.921875 v 0.21875 h 0.84375 v 2.75 c 0,1.21875 0.9375,1.34375 1.296875,1.34375 0.703125,0 0.984375,-0.703125 0.984375,-1.34375 v -0.5625 h -0.25 V -1.25 c 0,0.734375 -0.296875,1.109375 -0.671875,1.109375 -0.671875,0 -0.671875,-0.90625 -0.671875,-1.078125 z m 0,0"
           style="stroke:none;stroke-width:0;stroke-linecap:butt;stroke-linejoin:round"
           inkscape:connector-curvature="0" />
      </g>
    </g>
  </g>
  <g
     id="g34469"
     ns1:jacobian_sqrt="1.0"
     inkscapeversion="0.92.3"
     ns1:alignment="middle center"
     ns1:scale="1.0"
     ns1:preamble="/home/chi/.config/inkscape/extensions/textext/default_packages.tex"
     ns1:text="Best"
     ns1:pdfconverter="pdf2svg"
     ns1:texconverter="pdflatex"
     ns1:version="0.11.0"
     transform="translate(368.78522,-108.02678)"
     style="stroke-linecap:butt;stroke-linejoin:round">
    <g
       id="g34467"
       style="stroke-linecap:butt;stroke-linejoin:round">
      <g
         id="g34465"
         style="fill:#000000;fill-opacity:1;stroke-linecap:butt;stroke-linejoin:round">
        <path
           id="path34457"
           transform="translate(148.712,134.765)"
           d="m 2.21875,-3.65625 v -2.4375 C 2.21875,-6.4375 2.234375,-6.5 2.703125,-6.5 H 3.9375 c 0.96875,0 1.3125,0.84375 1.3125,1.375 0,0.640625 -0.484375,1.46875 -1.59375,1.46875 z M 4.5625,-3.5625 C 5.53125,-3.75 6.21875,-4.390625 6.21875,-5.125 6.21875,-5.984375 5.296875,-6.8125 4,-6.8125 H 0.359375 V -6.5 H 0.59375 c 0.765625,0 0.796875,0.109375 0.796875,0.46875 v 5.25 c 0,0.359375 -0.03125,0.46875 -0.796875,0.46875 H 0.359375 V 0 h 3.90625 c 1.328125,0 2.21875,-0.890625 2.21875,-1.828125 0,-0.859375 -0.8125,-1.609375 -1.921875,-1.734375 z m -0.609375,3.25 h -1.25 c -0.46875,0 -0.484375,-0.0625 -0.484375,-0.390625 v -2.71875 h 1.875 C 5.078125,-3.421875 5.5,-2.5 5.5,-1.828125 5.5,-1.125 4.96875,-0.3125 3.953125,-0.3125 Z m 0,0"
           style="stroke:none;stroke-width:0;stroke-linecap:butt;stroke-linejoin:round"
           inkscape:connector-curvature="0" />
        <path
           id="path34459"
           transform="translate(155.76851,134.765)"
           d="M 1.109375,-2.515625 C 1.171875,-4 2.015625,-4.25 2.359375,-4.25 c 1.015625,0 1.125,1.34375 1.125,1.734375 z m 0,0.21875 h 2.78125 c 0.21875,0 0.25,0 0.25,-0.21875 0,-0.984375 -0.546875,-1.953125 -1.78125,-1.953125 -1.15625,0 -2.078125,1.03125 -2.078125,2.28125 0,1.328125 1.046875,2.296875 2.1875,2.296875 C 3.6875,0.109375 4.140625,-1 4.140625,-1.1875 4.140625,-1.28125 4.0625,-1.3125 4,-1.3125 c -0.078125,0 -0.109375,0.0625 -0.125,0.140625 -0.34375,1.03125 -1.25,1.03125 -1.34375,1.03125 -0.5,0 -0.890625,-0.296875 -1.125,-0.671875 -0.296875,-0.46875 -0.296875,-1.125 -0.296875,-1.484375 z m 0,0"
           style="stroke:none;stroke-width:0;stroke-linecap:butt;stroke-linejoin:round"
           inkscape:connector-curvature="0" />
        <path
           id="path34461"
           transform="translate(160.19589,134.765)"
           d="m 2.078125,-1.9375 c 0.21875,0.046875 1.03125,0.203125 1.03125,0.921875 0,0.5 -0.34375,0.90625 -1.125,0.90625 -0.84375,0 -1.203125,-0.5625 -1.390625,-1.421875 C 0.5625,-1.65625 0.5625,-1.6875 0.453125,-1.6875 c -0.125,0 -0.125,0.0625 -0.125,0.234375 V -0.125 c 0,0.171875 0,0.234375 0.109375,0.234375 0.046875,0 0.0625,-0.015625 0.25,-0.203125 0.015625,-0.015625 0.015625,-0.03125 0.203125,-0.21875 0.4375,0.40625 0.890625,0.421875 1.09375,0.421875 1.140625,0 1.609375,-0.671875 1.609375,-1.390625 0,-0.515625 -0.296875,-0.828125 -0.421875,-0.9375 C 2.84375,-2.546875 2.453125,-2.625 2.03125,-2.703125 1.46875,-2.8125 0.8125,-2.9375 0.8125,-3.515625 c 0,-0.359375 0.25,-0.765625 1.109375,-0.765625 1.09375,0 1.15625,0.90625 1.171875,1.203125 0,0.09375 0.09375,0.09375 0.109375,0.09375 0.140625,0 0.140625,-0.046875 0.140625,-0.234375 v -1.015625 c 0,-0.15625 0,-0.234375 -0.109375,-0.234375 -0.046875,0 -0.078125,0 -0.203125,0.125 -0.03125,0.03125 -0.125,0.125 -0.171875,0.15625 -0.375,-0.28125 -0.78125,-0.28125 -0.9375,-0.28125 -1.21875,0 -1.59375,0.671875 -1.59375,1.234375 0,0.34375 0.15625,0.625 0.421875,0.84375 0.328125,0.25 0.609375,0.3125 1.328125,0.453125 z m 0,0"
           style="stroke:none;stroke-width:0;stroke-linecap:butt;stroke-linejoin:round"
           inkscape:connector-curvature="0" />
        <path
           id="path34463"
           transform="translate(164.12514,134.765)"
           d="m 1.71875,-3.984375 h 1.4375 v -0.3125 H 1.71875 V -6.125 h -0.25 c 0,0.8125 -0.296875,1.875 -1.28125,1.921875 v 0.21875 h 0.84375 v 2.75 c 0,1.21875 0.9375,1.34375 1.296875,1.34375 0.703125,0 0.984375,-0.703125 0.984375,-1.34375 v -0.5625 h -0.25 V -1.25 c 0,0.734375 -0.296875,1.109375 -0.671875,1.109375 -0.671875,0 -0.671875,-0.90625 -0.671875,-1.078125 z m 0,0"
           style="stroke:none;stroke-width:0;stroke-linecap:butt;stroke-linejoin:round"
           inkscape:connector-curvature="0" />
      </g>
    </g>
  </g>
  <g
     id="g35406"
     style="stroke-linecap:butt;stroke-linejoin:round"
     ns1:jacobian_sqrt="1.0"
     inkscapeversion="0.92.3"
     ns1:alignment="middle center"
     ns1:scale="1.0"
     ns1:preamble="/home/chi/.config/inkscape/extensions/textext/default_packages.tex"
     ns1:text="Current"
     ns1:pdfconverter="pdf2svg"
     ns1:texconverter="pdflatex"
     ns1:version="0.11.0"
     transform="translate(368.5821,-120.15499)">
    <g
       style="stroke-linecap:butt;stroke-linejoin:round"
       id="g35404">
      <g
         id="g35398"
         style="fill:#000000;fill-opacity:1;stroke-linecap:butt;stroke-linejoin:round">
        <path
           id="path35386"
           transform="translate(148.712,134.765)"
           d="m 0.5625,-3.40625 c 0,2.0625 1.609375,3.625 3.46875,3.625 1.625,0 2.59375,-1.390625 2.59375,-2.546875 C 6.625,-2.421875 6.625,-2.5 6.5,-2.5 6.390625,-2.5 6.390625,-2.4375 6.375,-2.328125 6.296875,-0.90625 5.234375,-0.09375 4.140625,-0.09375 c -0.609375,0 -2.5625,-0.328125 -2.5625,-3.3125 0,-2.96875 1.953125,-3.3125 2.5625,-3.3125 1.078125,0 1.96875,0.90625 2.171875,2.359375 C 6.328125,-4.21875 6.328125,-4.1875 6.46875,-4.1875 6.625,-4.1875 6.625,-4.21875 6.625,-4.421875 V -6.78125 c 0,-0.171875 0,-0.25 -0.109375,-0.25 -0.03125,0 -0.078125,0 -0.15625,0.125 l -0.5,0.734375 C 5.5,-6.53125 4.984375,-7.03125 4.03125,-7.03125 c -1.875,0 -3.46875,1.59375 -3.46875,3.625 z m 0,0"
           style="stroke:none;stroke-width:0;stroke-linecap:butt;stroke-linejoin:round"
           inkscape:connector-curvature="0" />
        <path
           id="path35388"
           transform="translate(155.90699,134.765)"
           d="M 3.890625,-0.78125 V 0.109375 L 5.328125,0 V -0.3125 C 4.640625,-0.3125 4.5625,-0.375 4.5625,-0.875 v -3.53125 l -1.46875,0.109375 v 0.3125 c 0.6875,0 0.78125,0.0625 0.78125,0.5625 v 1.765625 c 0,0.875 -0.484375,1.546875 -1.21875,1.546875 -0.828125,0 -0.875,-0.46875 -0.875,-0.984375 v -3.3125 L 0.3125,-4.296875 v 0.3125 c 0.78125,0 0.78125,0.03125 0.78125,0.90625 v 1.5 c 0,0.78125 0,1.6875 1.515625,1.6875 0.5625,0 1,-0.28125 1.28125,-0.890625 z m 0,0"
           style="stroke:none;stroke-width:0;stroke-linecap:butt;stroke-linejoin:round"
           inkscape:connector-curvature="0" />
        <path
           id="path35390"
           transform="translate(161.44221,134.765)"
           d="M 1.671875,-3.3125 V -4.40625 L 0.28125,-4.296875 v 0.3125 c 0.703125,0 0.78125,0.0625 0.78125,0.5625 V -0.75 c 0,0.4375 -0.109375,0.4375 -0.78125,0.4375 V 0 c 0.390625,-0.015625 0.859375,-0.03125 1.140625,-0.03125 0.390625,0 0.859375,0 1.265625,0.03125 V -0.3125 H 2.46875 c -0.734375,0 -0.75,-0.109375 -0.75,-0.46875 V -2.3125 c 0,-0.984375 0.421875,-1.875 1.171875,-1.875 0.0625,0 0.09375,0 0.109375,0.015625 -0.03125,0 -0.234375,0.125 -0.234375,0.390625 0,0.265625 0.21875,0.421875 0.4375,0.421875 0.171875,0 0.421875,-0.125 0.421875,-0.4375 0,-0.3125 -0.3125,-0.609375 -0.734375,-0.609375 -0.734375,0 -1.09375,0.671875 -1.21875,1.09375 z m 0,0"
           style="stroke:none;stroke-width:0;stroke-linecap:butt;stroke-linejoin:round"
           inkscape:connector-curvature="0" />
        <path
           id="path35392"
           transform="translate(165.34456,134.765)"
           d="M 1.671875,-3.3125 V -4.40625 L 0.28125,-4.296875 v 0.3125 c 0.703125,0 0.78125,0.0625 0.78125,0.5625 V -0.75 c 0,0.4375 -0.109375,0.4375 -0.78125,0.4375 V 0 c 0.390625,-0.015625 0.859375,-0.03125 1.140625,-0.03125 0.390625,0 0.859375,0 1.265625,0.03125 V -0.3125 H 2.46875 c -0.734375,0 -0.75,-0.109375 -0.75,-0.46875 V -2.3125 c 0,-0.984375 0.421875,-1.875 1.171875,-1.875 0.0625,0 0.09375,0 0.109375,0.015625 -0.03125,0 -0.234375,0.125 -0.234375,0.390625 0,0.265625 0.21875,0.421875 0.4375,0.421875 0.171875,0 0.421875,-0.125 0.421875,-0.4375 0,-0.3125 -0.3125,-0.609375 -0.734375,-0.609375 -0.734375,0 -1.09375,0.671875 -1.21875,1.09375 z m 0,0"
           style="stroke:none;stroke-width:0;stroke-linecap:butt;stroke-linejoin:round"
           inkscape:connector-curvature="0" />
        <path
           id="path35394"
           transform="translate(169.24691,134.765)"
           d="M 1.109375,-2.515625 C 1.171875,-4 2.015625,-4.25 2.359375,-4.25 c 1.015625,0 1.125,1.34375 1.125,1.734375 z m 0,0.21875 h 2.78125 c 0.21875,0 0.25,0 0.25,-0.21875 0,-0.984375 -0.546875,-1.953125 -1.78125,-1.953125 -1.15625,0 -2.078125,1.03125 -2.078125,2.28125 0,1.328125 1.046875,2.296875 2.1875,2.296875 C 3.6875,0.109375 4.140625,-1 4.140625,-1.1875 4.140625,-1.28125 4.0625,-1.3125 4,-1.3125 c -0.078125,0 -0.109375,0.0625 -0.125,0.140625 -0.34375,1.03125 -1.25,1.03125 -1.34375,1.03125 -0.5,0 -0.890625,-0.296875 -1.125,-0.671875 -0.296875,-0.46875 -0.296875,-1.125 -0.296875,-1.484375 z m 0,0"
           style="stroke:none;stroke-width:0;stroke-linecap:butt;stroke-linejoin:round"
           inkscape:connector-curvature="0" />
        <path
           id="path35396"
           transform="translate(173.67429,134.765)"
           d="M 1.09375,-3.421875 V -0.75 c 0,0.4375 -0.109375,0.4375 -0.78125,0.4375 V 0 c 0.359375,-0.015625 0.859375,-0.03125 1.140625,-0.03125 0.25,0 0.765625,0.015625 1.109375,0.03125 v -0.3125 c -0.671875,0 -0.78125,0 -0.78125,-0.4375 V -2.59375 C 1.78125,-3.625 2.5,-4.1875 3.125,-4.1875 c 0.640625,0 0.75,0.53125 0.75,1.109375 V -0.75 c 0,0.4375 -0.109375,0.4375 -0.78125,0.4375 V 0 c 0.34375,-0.015625 0.859375,-0.03125 1.125,-0.03125 0.25,0 0.78125,0.015625 1.109375,0.03125 v -0.3125 c -0.515625,0 -0.765625,0 -0.765625,-0.296875 v -1.90625 c 0,-0.859375 0,-1.15625 -0.3125,-1.515625 -0.140625,-0.171875 -0.46875,-0.375 -1.046875,-0.375 C 2.46875,-4.40625 2,-3.984375 1.71875,-3.359375 V -4.40625 L 0.3125,-4.296875 v 0.3125 c 0.703125,0 0.78125,0.0625 0.78125,0.5625 z m 0,0"
           style="stroke:none;stroke-width:0;stroke-linecap:butt;stroke-linejoin:round"
           inkscape:connector-curvature="0" />
      </g>
      <g
         id="g35402"
         style="fill:#000000;fill-opacity:1;stroke-linecap:butt;stroke-linejoin:round">
        <path
           id="path35400"
           transform="translate(178.93056,134.765)"
           d="m 1.71875,-3.984375 h 1.4375 v -0.3125 H 1.71875 V -6.125 h -0.25 c 0,0.8125 -0.296875,1.875 -1.28125,1.921875 v 0.21875 h 0.84375 v 2.75 c 0,1.21875 0.9375,1.34375 1.296875,1.34375 0.703125,0 0.984375,-0.703125 0.984375,-1.34375 v -0.5625 h -0.25 V -1.25 c 0,0.734375 -0.296875,1.109375 -0.671875,1.109375 -0.671875,0 -0.671875,-0.90625 -0.671875,-1.078125 z m 0,0"
           style="stroke:none;stroke-width:0;stroke-linecap:butt;stroke-linejoin:round"
           inkscape:connector-curvature="0" />
      </g>
    </g>
  </g>
  <g
     id="g39085"
     ns1:jacobian_sqrt="1.5"
     inkscapeversion="0.92.3"
     ns1:alignment="middle center"
     ns1:scale="1.5"
     ns1:preamble="/home/chi/.config/inkscape/extensions/textext/default_packages.tex"
     ns1:text="Iteration"
     ns1:pdfconverter="pdf2svg"
     ns1:texconverter="pdflatex"
     ns1:version="0.11.0"
     transform="matrix(1.5,0,0,1.5,51.8343,67.957118)"
     style="stroke-linecap:butt;stroke-linejoin:round">
    <g
       id="g39083"
       style="stroke-linecap:butt;stroke-linejoin:round">
      <g
         id="g39081"
         style="fill:#000000;fill-opacity:1;stroke-linecap:butt;stroke-linejoin:round">
        <path
           id="path39063"
           transform="translate(148.712,134.765)"
           d="M 2.25,-6.03125 C 2.25,-6.390625 2.265625,-6.5 3.0625,-6.5 h 0.25 v -0.3125 c -0.34375,0.03125 -1.125,0.03125 -1.515625,0.03125 -0.375,0 -1.171875,0 -1.515625,-0.03125 V -6.5 h 0.25 c 0.796875,0 0.828125,0.109375 0.828125,0.46875 v 5.25 c 0,0.359375 -0.03125,0.46875 -0.828125,0.46875 h -0.25 V 0 c 0.34375,-0.03125 1.140625,-0.03125 1.515625,-0.03125 0.390625,0 1.171875,0 1.515625,0.03125 v -0.3125 h -0.25 C 2.265625,-0.3125 2.25,-0.421875 2.25,-0.78125 Z m 0,0"
           style="stroke:none;stroke-width:0;stroke-linecap:butt;stroke-linejoin:round"
           inkscape:connector-curvature="0" />
        <path
           id="path39065"
           transform="translate(152.30949,134.765)"
           d="m 1.71875,-3.984375 h 1.4375 v -0.3125 H 1.71875 V -6.125 h -0.25 c 0,0.8125 -0.296875,1.875 -1.28125,1.921875 v 0.21875 h 0.84375 v 2.75 c 0,1.21875 0.9375,1.34375 1.296875,1.34375 0.703125,0 0.984375,-0.703125 0.984375,-1.34375 v -0.5625 h -0.25 V -1.25 c 0,0.734375 -0.296875,1.109375 -0.671875,1.109375 -0.671875,0 -0.671875,-0.90625 -0.671875,-1.078125 z m 0,0"
           style="stroke:none;stroke-width:0;stroke-linecap:butt;stroke-linejoin:round"
           inkscape:connector-curvature="0" />
        <path
           id="path39067"
           transform="translate(156.18395,134.765)"
           d="M 1.109375,-2.515625 C 1.171875,-4 2.015625,-4.25 2.359375,-4.25 c 1.015625,0 1.125,1.34375 1.125,1.734375 z m 0,0.21875 h 2.78125 c 0.21875,0 0.25,0 0.25,-0.21875 0,-0.984375 -0.546875,-1.953125 -1.78125,-1.953125 -1.15625,0 -2.078125,1.03125 -2.078125,2.28125 0,1.328125 1.046875,2.296875 2.1875,2.296875 C 3.6875,0.109375 4.140625,-1 4.140625,-1.1875 4.140625,-1.28125 4.0625,-1.3125 4,-1.3125 c -0.078125,0 -0.109375,0.0625 -0.125,0.140625 -0.34375,1.03125 -1.25,1.03125 -1.34375,1.03125 -0.5,0 -0.890625,-0.296875 -1.125,-0.671875 -0.296875,-0.46875 -0.296875,-1.125 -0.296875,-1.484375 z m 0,0"
           style="stroke:none;stroke-width:0;stroke-linecap:butt;stroke-linejoin:round"
           inkscape:connector-curvature="0" />
        <path
           id="path39069"
           transform="translate(160.61133,134.765)"
           d="M 1.671875,-3.3125 V -4.40625 L 0.28125,-4.296875 v 0.3125 c 0.703125,0 0.78125,0.0625 0.78125,0.5625 V -0.75 c 0,0.4375 -0.109375,0.4375 -0.78125,0.4375 V 0 c 0.390625,-0.015625 0.859375,-0.03125 1.140625,-0.03125 0.390625,0 0.859375,0 1.265625,0.03125 V -0.3125 H 2.46875 c -0.734375,0 -0.75,-0.109375 -0.75,-0.46875 V -2.3125 c 0,-0.984375 0.421875,-1.875 1.171875,-1.875 0.0625,0 0.09375,0 0.109375,0.015625 -0.03125,0 -0.234375,0.125 -0.234375,0.390625 0,0.265625 0.21875,0.421875 0.4375,0.421875 0.171875,0 0.421875,-0.125 0.421875,-0.4375 0,-0.3125 -0.3125,-0.609375 -0.734375,-0.609375 -0.734375,0 -1.09375,0.671875 -1.21875,1.09375 z m 0,0"
           style="stroke:none;stroke-width:0;stroke-linecap:butt;stroke-linejoin:round"
           inkscape:connector-curvature="0" />
        <path
           id="path39071"
           transform="translate(164.51368,134.765)"
           d="m 3.3125,-0.75 c 0.046875,0.390625 0.3125,0.8125 0.78125,0.8125 0.21875,0 0.828125,-0.140625 0.828125,-0.953125 v -0.5625 h -0.25 v 0.5625 c 0,0.578125 -0.25,0.640625 -0.359375,0.640625 -0.328125,0 -0.375,-0.453125 -0.375,-0.5 v -1.984375 c 0,-0.421875 0,-0.8125 -0.359375,-1.1875 C 3.1875,-4.3125 2.6875,-4.46875 2.21875,-4.46875 c -0.828125,0 -1.515625,0.46875 -1.515625,1.125 0,0.296875 0.203125,0.46875 0.46875,0.46875 0.28125,0 0.453125,-0.203125 0.453125,-0.453125 0,-0.125 -0.046875,-0.453125 -0.515625,-0.453125 C 1.390625,-4.140625 1.875,-4.25 2.1875,-4.25 c 0.5,0 1.0625,0.390625 1.0625,1.28125 v 0.359375 c -0.515625,0.03125 -1.203125,0.0625 -1.828125,0.359375 -0.75,0.34375 -1,0.859375 -1,1.296875 0,0.8125 0.96875,1.0625 1.59375,1.0625 0.65625,0 1.109375,-0.40625 1.296875,-0.859375 z M 3.25,-2.390625 v 1 c 0,0.9375 -0.71875,1.28125 -1.171875,1.28125 -0.484375,0 -0.890625,-0.34375 -0.890625,-0.84375 0,-0.546875 0.421875,-1.375 2.0625,-1.4375 z m 0,0"
           style="stroke:none;stroke-width:0;stroke-linecap:butt;stroke-linejoin:round"
           inkscape:connector-curvature="0" />
        <path
           id="path39073"
           transform="translate(169.49498,134.765)"
           d="m 1.71875,-3.984375 h 1.4375 v -0.3125 H 1.71875 V -6.125 h -0.25 c 0,0.8125 -0.296875,1.875 -1.28125,1.921875 v 0.21875 h 0.84375 v 2.75 c 0,1.21875 0.9375,1.34375 1.296875,1.34375 0.703125,0 0.984375,-0.703125 0.984375,-1.34375 v -0.5625 h -0.25 V -1.25 c 0,0.734375 -0.296875,1.109375 -0.671875,1.109375 -0.671875,0 -0.671875,-0.90625 -0.671875,-1.078125 z m 0,0"
           style="stroke:none;stroke-width:0;stroke-linecap:butt;stroke-linejoin:round"
           inkscape:connector-curvature="0" />
        <path
           id="path39075"
           transform="translate(173.36943,134.765)"
           d="M 1.765625,-4.40625 0.375,-4.296875 v 0.3125 c 0.640625,0 0.734375,0.0625 0.734375,0.546875 V -0.75 c 0,0.4375 -0.109375,0.4375 -0.78125,0.4375 V 0 C 0.640625,-0.015625 1.1875,-0.03125 1.421875,-0.03125 1.78125,-0.03125 2.125,-0.015625 2.46875,0 v -0.3125 c -0.671875,0 -0.703125,-0.046875 -0.703125,-0.4375 z m 0.03125,-1.734375 c 0,-0.3125 -0.234375,-0.53125 -0.515625,-0.53125 -0.3125,0 -0.53125,0.265625 -0.53125,0.53125 0,0.265625 0.21875,0.53125 0.53125,0.53125 0.28125,0 0.515625,-0.21875 0.515625,-0.53125 z m 0,0"
           style="stroke:none;stroke-width:0;stroke-linecap:butt;stroke-linejoin:round"
           inkscape:connector-curvature="0" />
        <path
           id="path39077"
           transform="translate(176.13704,134.765)"
           d="M 4.6875,-2.140625 C 4.6875,-3.40625 3.703125,-4.46875 2.5,-4.46875 c -1.25,0 -2.21875,1.09375 -2.21875,2.328125 0,1.296875 1.03125,2.25 2.203125,2.25 1.203125,0 2.203125,-0.984375 2.203125,-2.25 z m -2.1875,2 c -0.4375,0 -0.875,-0.203125 -1.140625,-0.671875 -0.25,-0.4375 -0.25,-1.046875 -0.25,-1.40625 0,-0.390625 0,-0.921875 0.234375,-1.359375 C 1.609375,-4.03125 2.078125,-4.25 2.484375,-4.25 c 0.4375,0 0.859375,0.21875 1.125,0.65625 0.265625,0.421875 0.265625,1 0.265625,1.375 0,0.359375 0,0.90625 -0.21875,1.34375 C 3.421875,-0.421875 2.984375,-0.140625 2.5,-0.140625 Z m 0,0"
           style="stroke:none;stroke-width:0;stroke-linecap:butt;stroke-linejoin:round"
           inkscape:connector-curvature="0" />
        <path
           id="path39079"
           transform="translate(181.11834,134.765)"
           d="M 1.09375,-3.421875 V -0.75 c 0,0.4375 -0.109375,0.4375 -0.78125,0.4375 V 0 c 0.359375,-0.015625 0.859375,-0.03125 1.140625,-0.03125 0.25,0 0.765625,0.015625 1.109375,0.03125 v -0.3125 c -0.671875,0 -0.78125,0 -0.78125,-0.4375 V -2.59375 C 1.78125,-3.625 2.5,-4.1875 3.125,-4.1875 c 0.640625,0 0.75,0.53125 0.75,1.109375 V -0.75 c 0,0.4375 -0.109375,0.4375 -0.78125,0.4375 V 0 c 0.34375,-0.015625 0.859375,-0.03125 1.125,-0.03125 0.25,0 0.78125,0.015625 1.109375,0.03125 v -0.3125 c -0.515625,0 -0.765625,0 -0.765625,-0.296875 v -1.90625 c 0,-0.859375 0,-1.15625 -0.3125,-1.515625 -0.140625,-0.171875 -0.46875,-0.375 -1.046875,-0.375 C 2.46875,-4.40625 2,-3.984375 1.71875,-3.359375 V -4.40625 L 0.3125,-4.296875 v 0.3125 c 0.703125,0 0.78125,0.0625 0.78125,0.5625 z m 0,0"
           style="stroke:none;stroke-width:0;stroke-linecap:butt;stroke-linejoin:round"
           inkscape:connector-curvature="0" />
      </g>
    </g>
  </g>
</svg>
