<?xml version="1.0" encoding="UTF-8"?>
<svg width="104.74mm" height="56.413mm" version="1.1" viewBox="0 0 104.74 56.413" xmlns="http://www.w3.org/2000/svg" xmlns:cc="http://creativecommons.org/ns#" xmlns:dc="http://purl.org/dc/elements/1.1/" xmlns:ns4="http://www.iki.fi/pav/software/textext/" xmlns:rdf="http://www.w3.org/1999/02/22-rdf-syntax-ns#" xmlns:xlink="http://www.w3.org/1999/xlink">
 <defs></defs>
 <metadata>
  <rdf:RDF>
   <cc:Work rdf:about="">
    <dc:format>image/svg+xml</dc:format>
    <dc:type rdf:resource="http://purl.org/dc/dcmitype/StillImage"/>
    <dc:title/>
   </cc:Work>
  </rdf:RDF>
 </metadata>
 <g transform="translate(-177.2 69.135)">
  <path d="m273.9-38.791h-44.764" fill="none" stroke="#000" stroke-width=".26458px"/>
  <path d="m198.57-18.219 30.905-20.401" fill="none" stroke="#000" stroke-width=".26458px"/>
  <text x="483.05359" y="22.300594" font-family="'Press Gothic'" font-size="25.4px" stroke-width=".26458" style="line-height:1.25" xml:space="preserve"><tspan x="483.05359" y="22.300594" stroke-width=".26458"/></text>
  <g transform="matrix(.43858 0 0 -.43858 -76.643 -42.415)"></g>
  <g fill="none" stroke="#000">
   <path d="m228.56-61.998s-29.681 22.372 0.18935 44.617" stroke-width=".26458px"/>
   <g>
    <path d="m182.25-39.067 16.32 20.848" stroke-width=".265"/>
    <path d="m228.92-62.763 43.415 23.654" stroke-width=".24984"/>
    <g stroke-width=".256">
     <path d="m229.11-17.648 44.791-21.143"/>
     <path d="m229.11-62.734v45.086"/>
     <path d="m198.69-62.264h30.613"/>
     <path d="m199.22-62.179v44.652"/>
    </g>
   </g>
  </g>
  <path d="m281.94-39.052c0 4.4501-3.6075 8.0575-8.0576 8.0575-4.45 0-8.0575-3.6075-8.0575-8.0575 0-4.4501 3.6075-8.0575 8.0575-8.0575 4.4501 0 8.0576 3.6075 8.0576 8.0575z" fill="#4d4d4d" stroke-width=".86416"/>
  <g transform="matrix(.27201 0 0 .27201 271.19 -39.993)" fill="#fff" stroke-width="0" ns4:alignment="middle center" ns4:inkscapeversion="1.0.1" ns4:jacobian_sqrt="0.272009" ns4:pdfconverter="inkscape" ns4:preamble="C:\Users\jfato\AppData\Roaming\inkscape\extensions\textext\default_packages.tex" ns4:scale="0.7710482309841764" ns4:texconverter="pdflatex" ns4:text="Base" ns4:version="1.3.0">
   <defs id="id-8952a3ac-0943-4b2b-b326-9d562e20d2db"></defs>
   <g transform="translate(-149.07 -127.95)" fill="#fff" stroke-width="0">
    <g id="id-f74c589f-0b63-4f54-bb97-77c723c5fbae" fill="#fff" stroke-width="0">
     <g transform="translate(148.71 134.76)">
      <path d="m2.2188-3.6562v-2.4375c0-0.34375 0.015625-0.40625 0.48438-0.40625h1.2344c0.96875 0 1.3125 0.84375 1.3125 1.375 0 0.64062-0.48438 1.4688-1.5938 1.4688zm2.3438 0.09375c0.96875-0.1875 1.6562-0.82812 1.6562-1.5625 0-0.85938-0.92188-1.6875-2.2188-1.6875h-3.6406v0.3125h0.23438c0.76562 0 0.79688 0.10938 0.79688 0.46875v5.25c0 0.35938-0.03125 0.46875-0.79688 0.46875h-0.23438v0.3125h3.9062c1.3281 0 2.2188-0.89062 2.2188-1.8281 0-0.85938-0.8125-1.6094-1.9219-1.7344zm-0.60938 3.25h-1.25c-0.46875 0-0.48438-0.0625-0.48438-0.39062v-2.7188h1.875c0.98438 0 1.4062 0.92188 1.4062 1.5938 0 0.70312-0.53125 1.5156-1.5469 1.5156z" fill="#fff" stroke-width="0"/>
     </g>
     <g transform="translate(155.77 134.76)">
      <path d="m3.3125-0.75c0.046875 0.39062 0.3125 0.8125 0.78125 0.8125 0.21875 0 0.82812-0.14062 0.82812-0.95312v-0.5625h-0.25v0.5625c0 0.57812-0.25 0.64062-0.35938 0.64062-0.32812 0-0.375-0.45312-0.375-0.5v-1.9844c0-0.42188 0-0.8125-0.35938-1.1875-0.39062-0.39062-0.89062-0.54688-1.3594-0.54688-0.82812 0-1.5156 0.46875-1.5156 1.125 0 0.29688 0.20312 0.46875 0.46875 0.46875 0.28125 0 0.45312-0.20312 0.45312-0.45312 0-0.125-0.046875-0.45312-0.51562-0.45312 0.28125-0.35938 0.76562-0.46875 1.0781-0.46875 0.5 0 1.0625 0.39062 1.0625 1.2812v0.35938c-0.51562 0.03125-1.2031 0.0625-1.8281 0.35938-0.75 0.34375-1 0.85938-1 1.2969 0 0.8125 0.96875 1.0625 1.5938 1.0625 0.65625 0 1.1094-0.40625 1.2969-0.85938zm-0.0625-1.6406v1c0 0.9375-0.71875 1.2812-1.1719 1.2812-0.48438 0-0.89062-0.34375-0.89062-0.84375 0-0.54688 0.42188-1.375 2.0625-1.4375z" fill="#fff" stroke-width="0"/>
     </g>
     <g transform="translate(160.75 134.76)">
      <path id="id-cd81c462-567f-417d-8a91-b37d4a1881dd" d="m2.0781-1.9375c0.21875 0.046875 1.0312 0.20312 1.0312 0.92188 0 0.5-0.34375 0.90625-1.125 0.90625-0.84375 0-1.2031-0.5625-1.3906-1.4219-0.03125-0.125-0.03125-0.15625-0.14062-0.15625-0.125 0-0.125 0.0625-0.125 0.23438v1.3281c0 0.17188 0 0.23438 0.10938 0.23438 0.046875 0 0.0625-0.015625 0.25-0.20312 0.015625-0.015625 0.015625-0.03125 0.20312-0.21875 0.4375 0.40625 0.89062 0.42188 1.0938 0.42188 1.1406 0 1.6094-0.67188 1.6094-1.3906 0-0.51562-0.29688-0.82812-0.42188-0.9375-0.32812-0.32812-0.71875-0.40625-1.1406-0.48438-0.5625-0.10938-1.2188-0.23438-1.2188-0.8125 0-0.35938 0.25-0.76562 1.1094-0.76562 1.0938 0 1.1562 0.90625 1.1719 1.2031 0 0.09375 0.09375 0.09375 0.10938 0.09375 0.14062 0 0.14062-0.046875 0.14062-0.23438v-1.0156c0-0.15625 0-0.23438-0.10938-0.23438-0.046875 0-0.078125 0-0.20312 0.125-0.03125 0.03125-0.125 0.125-0.17188 0.15625-0.375-0.28125-0.78125-0.28125-0.9375-0.28125-1.2188 0-1.5938 0.67188-1.5938 1.2344 0 0.34375 0.15625 0.625 0.42188 0.84375 0.32812 0.25 0.60938 0.3125 1.3281 0.45312z" fill="#fff" stroke-width="0"/>
     </g>
     <g transform="translate(164.68 134.76)">
      <path d="m1.1094-2.5156c0.0625-1.4844 0.90625-1.7344 1.25-1.7344 1.0156 0 1.125 1.3438 1.125 1.7344zm0 0.21875h2.7812c0.21875 0 0.25 0 0.25-0.21875 0-0.98438-0.54688-1.9531-1.7812-1.9531-1.1562 0-2.0781 1.0312-2.0781 2.2812 0 1.3281 1.0469 2.2969 2.1875 2.2969 1.2188 0 1.6719-1.1094 1.6719-1.2969 0-0.09375-0.078125-0.125-0.14062-0.125-0.078125 0-0.10938 0.0625-0.125 0.14062-0.34375 1.0312-1.25 1.0312-1.3438 1.0312-0.5 0-0.89062-0.29688-1.125-0.67188-0.29688-0.46875-0.29688-1.125-0.29688-1.4844z" fill="#fff" stroke-width="0"/>
     </g>
    </g>
   </g>
  </g>
  <path d="m234.37-18.094c0 2.9667-2.405 5.3717-5.3717 5.3717-2.9667 0-5.3717-2.405-5.3717-5.3717s2.405-5.3717 5.3717-5.3717c2.9667 0 5.3717 2.405 5.3717 5.3717z" fill="#4d4d4d" stroke-width=".57611"/>
  <g transform="matrix(.27201 0 0 .27201 228.55 -18.997)" fill="#fff" stroke-width="0" ns4:alignment="middle center" ns4:inkscapeversion="1.0.1" ns4:jacobian_sqrt="1.01275" ns4:pdfconverter="inkscape" ns4:preamble="C:\Users\jfato\AppData\Roaming\inkscape\extensions\textext\default_packages.tex" ns4:scale="2.870779923918158" ns4:texconverter="pdflatex" ns4:text="1" ns4:version="1.3.0">
   <defs></defs>
   <g transform="translate(-149.6 -128.12)" fill="#fff" stroke-width="0">
    <g fill="#fff" stroke-width="0">
     <g transform="translate(148.71 134.76)" fill="#fff" stroke-width="0">
      <path d="m2.9375-6.375c0-0.25 0-0.26562-0.23438-0.26562-0.625 0.64062-1.5 0.64062-1.8125 0.64062v0.3125c0.20312 0 0.78125 0 1.2969-0.26562v5.1719c0 0.35938-0.03125 0.46875-0.92188 0.46875h-0.3125v0.3125c0.34375-0.03125 1.2031-0.03125 1.6094-0.03125 0.39062 0 1.2656 0 1.6094 0.03125v-0.3125h-0.3125c-0.90625 0-0.92188-0.10938-0.92188-0.46875z" fill="#fff" stroke-width="0"/>
     </g>
    </g>
   </g>
  </g>
  <g transform="translate(21.917 -40.416)">
   <g transform="matrix(.22078 0 0 .20549 45.096 43.007)">
    <rect x="749.11" y="-93.126" width="17.133" height="29.767" fill="#999" stroke="#000"/>
    <g transform="matrix(1.0128 0 0 1.0128 755.58 -81.716)" fill="#fff" stroke-width="0" ns4:alignment="middle center" ns4:inkscapeversion="1.0.1" ns4:jacobian_sqrt="1.01275" ns4:pdfconverter="inkscape" ns4:preamble="C:\Users\jfato\AppData\Roaming\inkscape\extensions\textext\default_packages.tex" ns4:scale="2.870779923918158" ns4:texconverter="pdflatex" ns4:text="3" ns4:version="1.3.0">
     <defs></defs>
     <g transform="translate(-149.13 -128.12)" fill="#fff" stroke-width="0">
      <g fill="#fff" stroke-width="0">
       <g transform="translate(148.71 134.76)" fill="#fff" stroke-width="0">
        <path d="m2.8906-3.5156c0.8125-0.26562 1.3906-0.95312 1.3906-1.75 0-0.8125-0.875-1.375-1.8281-1.375-1 0-1.7656 0.59375-1.7656 1.3594 0 0.32812 0.21875 0.51562 0.51562 0.51562s0.5-0.21875 0.5-0.51562c0-0.48438-0.46875-0.48438-0.60938-0.48438 0.29688-0.5 0.95312-0.625 1.3125-0.625 0.42188 0 0.96875 0.21875 0.96875 1.1094 0 0.125-0.03125 0.70312-0.28125 1.1406-0.29688 0.48438-0.64062 0.51562-0.89062 0.51562-0.078125 0.015625-0.3125 0.03125-0.39062 0.03125-0.078125 0.015625-0.14062 0.03125-0.14062 0.125 0 0.10938 0.0625 0.10938 0.23438 0.10938h0.4375c0.8125 0 1.1875 0.67188 1.1875 1.6562 0 1.3594-0.6875 1.6406-1.125 1.6406s-1.1875-0.17188-1.5312-0.75c0.34375 0.046875 0.65625-0.17188 0.65625-0.54688 0-0.35938-0.26562-0.5625-0.54688-0.5625-0.25 0-0.5625 0.14062-0.5625 0.57812 0 0.90625 0.92188 1.5625 2.0156 1.5625 1.2188 0 2.125-0.90625 2.125-1.9219 0-0.8125-0.64062-1.5938-1.6719-1.8125z" fill="#fff" stroke-width="0"/>
       </g>
      </g>
     </g>
    </g>
   </g>
   <g transform="matrix(.79864 0 0 .79864 -13.738 43.97)">
    <rect x="280.76" y="-30.933" width="4.7345" height="5.1029" fill="#999" stroke="#000" stroke-width=".26858"/>
    <g transform="matrix(.27201 0 0 .27201 282.58 -29.284)" fill="#fff" stroke-width="0" ns4:alignment="middle center" ns4:inkscapeversion="1.0.1" ns4:jacobian_sqrt="1.01275" ns4:pdfconverter="inkscape" ns4:preamble="C:\Users\jfato\AppData\Roaming\inkscape\extensions\textext\default_packages.tex" ns4:scale="2.870779923918158" ns4:texconverter="pdflatex" ns4:text="2" ns4:version="1.3.0">
     <defs></defs>
     <g transform="translate(-149.21 -128.12)" fill="#fff" stroke-width="0">
      <g fill="#fff" stroke-width="0">
       <g transform="translate(148.71 134.76)" fill="#fff" stroke-width="0">
        <path d="m1.2656-0.76562 1.0625-1.0312c1.5469-1.375 2.1406-1.9062 2.1406-2.9062 0-1.1406-0.89062-1.9375-2.1094-1.9375-1.125 0-1.8594 0.92188-1.8594 1.8125 0 0.54688 0.5 0.54688 0.53125 0.54688 0.17188 0 0.51562-0.10938 0.51562-0.53125 0-0.25-0.1875-0.51562-0.53125-0.51562-0.078125 0-0.09375 0-0.125 0.015625 0.21875-0.65625 0.76562-1.0156 1.3438-1.0156 0.90625 0 1.3281 0.8125 1.3281 1.625 0 0.79688-0.48438 1.5781-1.0469 2.2031l-1.9062 2.125c-0.10938 0.10938-0.10938 0.14062-0.10938 0.375h3.7031l0.26562-1.7344h-0.23438c-0.0625 0.29688-0.125 0.73438-0.23438 0.89062-0.0625 0.078125-0.71875 0.078125-0.9375 0.078125z" fill="#fff" stroke-width="0"/>
       </g>
      </g>
     </g>
    </g>
   </g>
   <g transform="matrix(.79864 0 0 .79864 -13.738 39.365)">
    <rect x="280.76" y="-30.933" width="4.7345" height="5.1029" fill="#999" stroke="#000" stroke-width=".26858"/>
    <g transform="matrix(.27201 0 0 .27201 282.58 -29.284)" fill="#fff" stroke-width="0" ns4:alignment="middle center" ns4:inkscapeversion="1.0.1" ns4:jacobian_sqrt="1.01275" ns4:pdfconverter="inkscape" ns4:preamble="C:\Users\jfato\AppData\Roaming\inkscape\extensions\textext\default_packages.tex" ns4:scale="2.870779923918158" ns4:texconverter="pdflatex" ns4:text="2" ns4:version="1.3.0">
     <defs></defs>
     <g transform="translate(-149.21 -128.12)" fill="#fff" stroke-width="0">
      <g fill="#fff" stroke-width="0">
       <g transform="translate(148.71 134.76)" fill="#fff" stroke-width="0">
        <path d="m1.2656-0.76562 1.0625-1.0312c1.5469-1.375 2.1406-1.9062 2.1406-2.9062 0-1.1406-0.89062-1.9375-2.1094-1.9375-1.125 0-1.8594 0.92188-1.8594 1.8125 0 0.54688 0.5 0.54688 0.53125 0.54688 0.17188 0 0.51562-0.10938 0.51562-0.53125 0-0.25-0.1875-0.51562-0.53125-0.51562-0.078125 0-0.09375 0-0.125 0.015625 0.21875-0.65625 0.76562-1.0156 1.3438-1.0156 0.90625 0 1.3281 0.8125 1.3281 1.625 0 0.79688-0.48438 1.5781-1.0469 2.2031l-1.9062 2.125c-0.10938 0.10938-0.10938 0.14062-0.10938 0.375h3.7031l0.26562-1.7344h-0.23438c-0.0625 0.29688-0.125 0.73438-0.23438 0.89062-0.0625 0.078125-0.71875 0.078125-0.9375 0.078125z" fill="#fff" stroke-width="0"/>
       </g>
      </g>
     </g>
    </g>
   </g>
  </g>
  <path d="m234.37-39.052c0 2.9667-2.405 5.3717-5.3717 5.3717-2.9667 0-5.3717-2.405-5.3717-5.3717 0-2.9667 2.405-5.3717 5.3717-5.3717 2.9667 0 5.3717 2.405 5.3717 5.3717z" fill="#4d4d4d" stroke-width=".57611"/>
  <g transform="matrix(.27201 0 0 .27201 228.46 -39.955)" fill="#fff" stroke-width="0" ns4:alignment="middle center" ns4:inkscapeversion="1.0.1" ns4:jacobian_sqrt="1.01275" ns4:pdfconverter="inkscape" ns4:preamble="C:\Users\jfato\AppData\Roaming\inkscape\extensions\textext\default_packages.tex" ns4:scale="2.870779923918158" ns4:texconverter="pdflatex" ns4:text="2" ns4:version="1.3.0">
   <defs></defs>
   <g transform="translate(-149.21 -128.12)" fill="#fff" stroke-width="0">
    <g fill="#fff" stroke-width="0">
     <g transform="translate(148.71 134.76)" fill="#fff" stroke-width="0">
      <path d="m1.2656-0.76562 1.0625-1.0312c1.5469-1.375 2.1406-1.9062 2.1406-2.9062 0-1.1406-0.89062-1.9375-2.1094-1.9375-1.125 0-1.8594 0.92188-1.8594 1.8125 0 0.54688 0.5 0.54688 0.53125 0.54688 0.17188 0 0.51562-0.10938 0.51562-0.53125 0-0.25-0.1875-0.51562-0.53125-0.51562-0.078125 0-0.09375 0-0.125 0.015625 0.21875-0.65625 0.76562-1.0156 1.3438-1.0156 0.90625 0 1.3281 0.8125 1.3281 1.625 0 0.79688-0.48438 1.5781-1.0469 2.2031l-1.9062 2.125c-0.10938 0.10938-0.10938 0.14062-0.10938 0.375h3.7031l0.26562-1.7344h-0.23438c-0.0625 0.29688-0.125 0.73438-0.23438 0.89062-0.0625 0.078125-0.71875 0.078125-0.9375 0.078125z" fill="#fff" stroke-width="0"/>
     </g>
    </g>
   </g>
  </g>
  <g transform="translate(-8.9864 -48.017)">
   <g transform="matrix(.78852 0 0 .78852 20.033 31.262)">
    <rect x="280.72" y="-34.085" width="4.7988" height="2.5514" fill="#999" stroke="#000" stroke-width=".26858"/>
    <g transform="matrix(.27201 0 0 .27201 282.68 -33.712)" fill="#fff" stroke-width="0" ns4:alignment="middle center" ns4:inkscapeversion="1.0.1" ns4:jacobian_sqrt="1.01275" ns4:pdfconverter="inkscape" ns4:preamble="C:\Users\jfato\AppData\Roaming\inkscape\extensions\textext\default_packages.tex" ns4:scale="2.870779923918158" ns4:texconverter="pdflatex" ns4:text="1" ns4:version="1.3.0">
     <defs></defs>
     <g transform="translate(-149.6 -128.12)" fill="#fff" stroke-width="0">
      <g fill="#fff" stroke-width="0">
       <g transform="translate(148.71 134.76)" fill="#fff" stroke-width="0">
        <path d="m2.9375-6.375c0-0.25 0-0.26562-0.23438-0.26562-0.625 0.64062-1.5 0.64062-1.8125 0.64062v0.3125c0.20312 0 0.78125 0 1.2969-0.26562v5.1719c0 0.35938-0.03125 0.46875-0.92188 0.46875h-0.3125v0.3125c0.34375-0.03125 1.2031-0.03125 1.6094-0.03125 0.39062 0 1.2656 0 1.6094 0.03125v-0.3125h-0.3125c-0.90625 0-0.92188-0.10938-0.92188-0.46875z" fill="#fff" stroke-width="0"/>
       </g>
      </g>
     </g>
    </g>
   </g>
   <g transform="matrix(.78852 0 0 .78852 20.033 33.803)">
    <rect x="280.72" y="-34.085" width="4.7988" height="2.5514" fill="#999" stroke="#000" stroke-width=".26858"/>
    <g transform="matrix(.27201 0 0 .27201 282.68 -33.712)" fill="#fff" stroke-width="0" ns4:alignment="middle center" ns4:inkscapeversion="1.0.1" ns4:jacobian_sqrt="1.01275" ns4:pdfconverter="inkscape" ns4:preamble="C:\Users\jfato\AppData\Roaming\inkscape\extensions\textext\default_packages.tex" ns4:scale="2.870779923918158" ns4:texconverter="pdflatex" ns4:text="1" ns4:version="1.3.0">
     <defs></defs>
     <g transform="translate(-149.6 -128.12)" fill="#fff" stroke-width="0">
      <g fill="#fff" stroke-width="0">
       <g transform="translate(148.71 134.76)" fill="#fff" stroke-width="0">
        <path d="m2.9375-6.375c0-0.25 0-0.26562-0.23438-0.26562-0.625 0.64062-1.5 0.64062-1.8125 0.64062v0.3125c0.20312 0 0.78125 0 1.2969-0.26562v5.1719c0 0.35938-0.03125 0.46875-0.92188 0.46875h-0.3125v0.3125c0.34375-0.03125 1.2031-0.03125 1.6094-0.03125 0.39062 0 1.2656 0 1.6094 0.03125v-0.3125h-0.3125c-0.90625 0-0.92188-0.10938-0.92188-0.46875z" fill="#fff" stroke-width="0"/>
       </g>
      </g>
     </g>
    </g>
   </g>
   <g transform="matrix(.79864 0 0 .79864 17.165 34.171)">
    <rect x="280.76" y="-30.933" width="4.7345" height="5.1029" fill="#999" stroke="#000" stroke-width=".26858"/>
    <g transform="matrix(.27201 0 0 .27201 282.58 -29.284)" fill="#fff" stroke-width="0" ns4:alignment="middle center" ns4:inkscapeversion="1.0.1" ns4:jacobian_sqrt="1.01275" ns4:pdfconverter="inkscape" ns4:preamble="C:\Users\jfato\AppData\Roaming\inkscape\extensions\textext\default_packages.tex" ns4:scale="2.870779923918158" ns4:texconverter="pdflatex" ns4:text="2" ns4:version="1.3.0">
     <defs></defs>
     <g transform="translate(-149.21 -128.12)" fill="#fff" stroke-width="0">
      <g fill="#fff" stroke-width="0">
       <g transform="translate(148.71 134.76)" fill="#fff" stroke-width="0">
        <path d="m1.2656-0.76562 1.0625-1.0312c1.5469-1.375 2.1406-1.9062 2.1406-2.9062 0-1.1406-0.89062-1.9375-2.1094-1.9375-1.125 0-1.8594 0.92188-1.8594 1.8125 0 0.54688 0.5 0.54688 0.53125 0.54688 0.17188 0 0.51562-0.10938 0.51562-0.53125 0-0.25-0.1875-0.51562-0.53125-0.51562-0.078125 0-0.09375 0-0.125 0.015625 0.21875-0.65625 0.76562-1.0156 1.3438-1.0156 0.90625 0 1.3281 0.8125 1.3281 1.625 0 0.79688-0.48438 1.5781-1.0469 2.2031l-1.9062 2.125c-0.10938 0.10938-0.10938 0.14062-0.10938 0.375h3.7031l0.26562-1.7344h-0.23438c-0.0625 0.29688-0.125 0.73438-0.23438 0.89062-0.0625 0.078125-0.71875 0.078125-0.9375 0.078125z" fill="#fff" stroke-width="0"/>
       </g>
      </g>
     </g>
    </g>
   </g>
  </g>
  <path d="m234.37-62.651c0 2.9667-2.405 5.3717-5.3717 5.3717-2.9667 0-5.3717-2.405-5.3717-5.3717 0-2.9667 2.405-5.3717 5.3717-5.3717s5.3717 2.405 5.3717 5.3717z" fill="#4d4d4d" stroke-width=".57611"/>
  <g transform="matrix(.27201 0 0 .27201 228.44 -63.584)" fill="#fff" stroke-width="0" ns4:alignment="middle center" ns4:inkscapeversion="1.0.1" ns4:jacobian_sqrt="1.01275" ns4:pdfconverter="inkscape" ns4:preamble="C:\Users\jfato\AppData\Roaming\inkscape\extensions\textext\default_packages.tex" ns4:scale="2.870779923918158" ns4:texconverter="pdflatex" ns4:text="3" ns4:version="1.3.0">
   <defs></defs>
   <g id="id-d2e3b819-12f1-4351-a365-849aae86070b" transform="translate(-149.13 -128.12)" fill="#fff" stroke-width="0">
    <g fill="#fff" stroke-width="0">
     <g transform="translate(148.71 134.76)" fill="#fff" stroke-width="0">
      <path d="m2.8906-3.5156c0.8125-0.26562 1.3906-0.95312 1.3906-1.75 0-0.8125-0.875-1.375-1.8281-1.375-1 0-1.7656 0.59375-1.7656 1.3594 0 0.32812 0.21875 0.51562 0.51562 0.51562s0.5-0.21875 0.5-0.51562c0-0.48438-0.46875-0.48438-0.60938-0.48438 0.29688-0.5 0.95312-0.625 1.3125-0.625 0.42188 0 0.96875 0.21875 0.96875 1.1094 0 0.125-0.03125 0.70312-0.28125 1.1406-0.29688 0.48438-0.64062 0.51562-0.89062 0.51562-0.078125 0.015625-0.3125 0.03125-0.39062 0.03125-0.078125 0.015625-0.14062 0.03125-0.14062 0.125 0 0.10938 0.0625 0.10938 0.23438 0.10938h0.4375c0.8125 0 1.1875 0.67188 1.1875 1.6562 0 1.3594-0.6875 1.6406-1.125 1.6406s-1.1875-0.17188-1.5312-0.75c0.34375 0.046875 0.65625-0.17188 0.65625-0.54688 0-0.35938-0.26562-0.5625-0.54688-0.5625-0.25 0-0.5625 0.14062-0.5625 0.57812 0 0.90625 0.92188 1.5625 2.0156 1.5625 1.2188 0 2.125-0.90625 2.125-1.9219 0-0.8125-0.64062-1.5938-1.6719-1.8125z" fill="#fff" stroke-width="0"/>
     </g>
    </g>
   </g>
  </g>
  <g transform="translate(66.678 -36.959)">
   <g transform="matrix(.22078 0 0 .20549 .33487 -12.937)">
    <rect x="749.11" y="-93.126" width="17.133" height="29.767" fill="#999" stroke="#000"/>
    <g transform="matrix(1.0128 0 0 1.0128 755.58 -81.716)" fill="#fff" stroke-width="0" ns4:alignment="middle center" ns4:inkscapeversion="1.0.1" ns4:jacobian_sqrt="1.01275" ns4:pdfconverter="inkscape" ns4:preamble="C:\Users\jfato\AppData\Roaming\inkscape\extensions\textext\default_packages.tex" ns4:scale="2.870779923918158" ns4:texconverter="pdflatex" ns4:text="3" ns4:version="1.3.0">
     <defs></defs>
     <g transform="translate(-149.13 -128.12)" fill="#fff" stroke-width="0">
      <g fill="#fff" stroke-width="0">
       <g transform="translate(148.71 134.76)" fill="#fff" stroke-width="0">
        <path d="m2.8906-3.5156c0.8125-0.26562 1.3906-0.95312 1.3906-1.75 0-0.8125-0.875-1.375-1.8281-1.375-1 0-1.7656 0.59375-1.7656 1.3594 0 0.32812 0.21875 0.51562 0.51562 0.51562s0.5-0.21875 0.5-0.51562c0-0.48438-0.46875-0.48438-0.60938-0.48438 0.29688-0.5 0.95312-0.625 1.3125-0.625 0.42188 0 0.96875 0.21875 0.96875 1.1094 0 0.125-0.03125 0.70312-0.28125 1.1406-0.29688 0.48438-0.64062 0.51562-0.89062 0.51562-0.078125 0.015625-0.3125 0.03125-0.39062 0.03125-0.078125 0.015625-0.14062 0.03125-0.14062 0.125 0 0.10938 0.0625 0.10938 0.23438 0.10938h0.4375c0.8125 0 1.1875 0.67188 1.1875 1.6562 0 1.3594-0.6875 1.6406-1.125 1.6406s-1.1875-0.17188-1.5312-0.75c0.34375 0.046875 0.65625-0.17188 0.65625-0.54688 0-0.35938-0.26562-0.5625-0.54688-0.5625-0.25 0-0.5625 0.14062-0.5625 0.57812 0 0.90625 0.92188 1.5625 2.0156 1.5625 1.2188 0 2.125-0.90625 2.125-1.9219 0-0.8125-0.64062-1.5938-1.6719-1.8125z" fill="#fff" stroke-width="0"/>
       </g>
      </g>
     </g>
    </g>
   </g>
   <g transform="matrix(.22078 0 0 .20549 .33487 -6.2908)">
    <rect x="749.11" y="-93.126" width="17.133" height="29.767" fill="#999" stroke="#000"/>
    <g transform="matrix(1.0128 0 0 1.0128 755.58 -81.716)" fill="#fff" stroke-width="0" ns4:alignment="middle center" ns4:inkscapeversion="1.0.1" ns4:jacobian_sqrt="1.01275" ns4:pdfconverter="inkscape" ns4:preamble="C:\Users\jfato\AppData\Roaming\inkscape\extensions\textext\default_packages.tex" ns4:scale="2.870779923918158" ns4:texconverter="pdflatex" ns4:text="3" ns4:version="1.3.0">
     <defs></defs>
     <g transform="translate(-149.13 -128.12)" fill="#fff" stroke-width="0">
      <g fill="#fff" stroke-width="0">
       <g transform="translate(148.71 134.76)" fill="#fff" stroke-width="0">
        <path d="m2.8906-3.5156c0.8125-0.26562 1.3906-0.95312 1.3906-1.75 0-0.8125-0.875-1.375-1.8281-1.375-1 0-1.7656 0.59375-1.7656 1.3594 0 0.32812 0.21875 0.51562 0.51562 0.51562s0.5-0.21875 0.5-0.51562c0-0.48438-0.46875-0.48438-0.60938-0.48438 0.29688-0.5 0.95312-0.625 1.3125-0.625 0.42188 0 0.96875 0.21875 0.96875 1.1094 0 0.125-0.03125 0.70312-0.28125 1.1406-0.29688 0.48438-0.64062 0.51562-0.89062 0.51562-0.078125 0.015625-0.3125 0.03125-0.39062 0.03125-0.078125 0.015625-0.14062 0.03125-0.14062 0.125 0 0.10938 0.0625 0.10938 0.23438 0.10938h0.4375c0.8125 0 1.1875 0.67188 1.1875 1.6562 0 1.3594-0.6875 1.6406-1.125 1.6406s-1.1875-0.17188-1.5312-0.75c0.34375 0.046875 0.65625-0.17188 0.65625-0.54688 0-0.35938-0.26562-0.5625-0.54688-0.5625-0.25 0-0.5625 0.14062-0.5625 0.57812 0 0.90625 0.92188 1.5625 2.0156 1.5625 1.2188 0 2.125-0.90625 2.125-1.9219 0-0.8125-0.64062-1.5938-1.6719-1.8125z" fill="#fff" stroke-width="0"/>
       </g>
      </g>
     </g>
    </g>
   </g>
  </g>
  <path d="m204.26-62.651c0 2.9667-2.405 5.3717-5.3717 5.3717-2.9667 0-5.3717-2.405-5.3717-5.3717 0-2.9667 2.405-5.3717 5.3717-5.3717 2.9667 0 5.3717 2.405 5.3717 5.3717z" fill="#4d4d4d" stroke-width=".57611"/>
  <g transform="matrix(.27201 0 0 .27201 198.29 -63.569)" fill="#fff" stroke-width="0" ns4:alignment="middle center" ns4:inkscapeversion="1.0.1" ns4:jacobian_sqrt="1.01275" ns4:pdfconverter="inkscape" ns4:preamble="C:\Users\jfato\AppData\Roaming\inkscape\extensions\textext\default_packages.tex" ns4:scale="2.870779923918158" ns4:texconverter="pdflatex" ns4:text="4" ns4:version="1.3.0">
   <defs></defs>
   <g transform="translate(-148.99 -128.02)" fill="#fff" stroke-width="0">
    <g id="id-ebefdac4-94b6-47ea-b53c-b4c870e3931d" fill="#fff" stroke-width="0">
     <g transform="translate(148.71 134.76)" fill="#fff" stroke-width="0">
      <path d="m2.9375-1.6406v0.85938c0 0.35938-0.03125 0.46875-0.76562 0.46875h-0.20312v0.3125c0.40625-0.03125 0.92188-0.03125 1.3438-0.03125s0.9375 0 1.3594 0.03125v-0.3125h-0.21875c-0.73438 0-0.75-0.10938-0.75-0.46875v-0.85938h0.98438v-0.3125h-0.98438v-4.5312c0-0.20312 0-0.26562-0.17188-0.26562-0.078125 0-0.10938 0-0.1875 0.125l-3.0625 4.6719v0.3125zm0.046875-0.3125h-2.4219l2.4219-3.7188z" fill="#fff" stroke-width="0"/>
     </g>
    </g>
   </g>
  </g>
  <g transform="translate(11.841 -15.627)">
   <g transform="matrix(.78852 0 0 .78852 -30.907 -25.759)">
    <rect x="280.72" y="-34.085" width="4.7988" height="2.5514" fill="#999" stroke="#000" stroke-width=".26858"/>
    <g transform="matrix(.27201 0 0 .27201 282.68 -33.712)" fill="#fff" stroke-width="0" ns4:alignment="middle center" ns4:inkscapeversion="1.0.1" ns4:jacobian_sqrt="1.01275" ns4:pdfconverter="inkscape" ns4:preamble="C:\Users\jfato\AppData\Roaming\inkscape\extensions\textext\default_packages.tex" ns4:scale="2.870779923918158" ns4:texconverter="pdflatex" ns4:text="1" ns4:version="1.3.0">
     <defs></defs>
     <g transform="translate(-149.6 -128.12)" fill="#fff" stroke-width="0">
      <g fill="#fff" stroke-width="0">
       <g transform="translate(148.71 134.76)" fill="#fff" stroke-width="0">
        <path d="m2.9375-6.375c0-0.25 0-0.26562-0.23438-0.26562-0.625 0.64062-1.5 0.64062-1.8125 0.64062v0.3125c0.20312 0 0.78125 0 1.2969-0.26562v5.1719c0 0.35938-0.03125 0.46875-0.92188 0.46875h-0.3125v0.3125c0.34375-0.03125 1.2031-0.03125 1.6094-0.03125 0.39062 0 1.2656 0 1.6094 0.03125v-0.3125h-0.3125c-0.90625 0-0.92188-0.10938-0.92188-0.46875z" fill="#fff" stroke-width="0"/>
       </g>
      </g>
     </g>
    </g>
   </g>
   <g transform="matrix(.79864 0 0 .79864 -33.771 -25.39)">
    <rect x="280.76" y="-30.933" width="4.7345" height="5.1029" fill="#999" stroke="#000" stroke-width=".26858"/>
    <g transform="matrix(.27201 0 0 .27201 282.58 -29.284)" fill="#fff" stroke-width="0" ns4:alignment="middle center" ns4:inkscapeversion="1.0.1" ns4:jacobian_sqrt="1.01275" ns4:pdfconverter="inkscape" ns4:preamble="C:\Users\jfato\AppData\Roaming\inkscape\extensions\textext\default_packages.tex" ns4:scale="2.870779923918158" ns4:texconverter="pdflatex" ns4:text="2" ns4:version="1.3.0">
     <defs></defs>
     <g transform="translate(-149.21 -128.12)" fill="#fff" stroke-width="0">
      <g fill="#fff" stroke-width="0">
       <g transform="translate(148.71 134.76)" fill="#fff" stroke-width="0">
        <path d="m1.2656-0.76562 1.0625-1.0312c1.5469-1.375 2.1406-1.9062 2.1406-2.9062 0-1.1406-0.89062-1.9375-2.1094-1.9375-1.125 0-1.8594 0.92188-1.8594 1.8125 0 0.54688 0.5 0.54688 0.53125 0.54688 0.17188 0 0.51562-0.10938 0.51562-0.53125 0-0.25-0.1875-0.51562-0.53125-0.51562-0.078125 0-0.09375 0-0.125 0.015625 0.21875-0.65625 0.76562-1.0156 1.3438-1.0156 0.90625 0 1.3281 0.8125 1.3281 1.625 0 0.79688-0.48438 1.5781-1.0469 2.2031l-1.9062 2.125c-0.10938 0.10938-0.10938 0.14062-0.10938 0.375h3.7031l0.26562-1.7344h-0.23438c-0.0625 0.29688-0.125 0.73438-0.23438 0.89062-0.0625 0.078125-0.71875 0.078125-0.9375 0.078125z" fill="#fff" stroke-width="0"/>
       </g>
      </g>
     </g>
    </g>
   </g>
   <g transform="matrix(.79864 0 0 .79864 -33.771 -20.785)">
    <rect x="280.76" y="-30.933" width="4.7345" height="5.1029" fill="#999" stroke="#000" stroke-width=".26858"/>
    <g transform="matrix(.27201 0 0 .27201 282.58 -29.284)" fill="#fff" stroke-width="0" ns4:alignment="middle center" ns4:inkscapeversion="1.0.1" ns4:jacobian_sqrt="1.01275" ns4:pdfconverter="inkscape" ns4:preamble="C:\Users\jfato\AppData\Roaming\inkscape\extensions\textext\default_packages.tex" ns4:scale="2.870779923918158" ns4:texconverter="pdflatex" ns4:text="2" ns4:version="1.3.0">
     <defs></defs>
     <g transform="translate(-149.21 -128.12)" fill="#fff" stroke-width="0">
      <g fill="#fff" stroke-width="0">
       <g transform="translate(148.71 134.76)" fill="#fff" stroke-width="0">
        <path d="m1.2656-0.76562 1.0625-1.0312c1.5469-1.375 2.1406-1.9062 2.1406-2.9062 0-1.1406-0.89062-1.9375-2.1094-1.9375-1.125 0-1.8594 0.92188-1.8594 1.8125 0 0.54688 0.5 0.54688 0.53125 0.54688 0.17188 0 0.51562-0.10938 0.51562-0.53125 0-0.25-0.1875-0.51562-0.53125-0.51562-0.078125 0-0.09375 0-0.125 0.015625 0.21875-0.65625 0.76562-1.0156 1.3438-1.0156 0.90625 0 1.3281 0.8125 1.3281 1.625 0 0.79688-0.48438 1.5781-1.0469 2.2031l-1.9062 2.125c-0.10938 0.10938-0.10938 0.14062-0.10938 0.375h3.7031l0.26562-1.7344h-0.23438c-0.0625 0.29688-0.125 0.73438-0.23438 0.89062-0.0625 0.078125-0.71875 0.078125-0.9375 0.078125z" fill="#fff" stroke-width="0"/>
       </g>
      </g>
     </g>
    </g>
   </g>
  </g>
  <path d="m204.26-18.094c0 2.9667-2.405 5.3717-5.3717 5.3717s-5.3717-2.405-5.3717-5.3717c0-2.9667 2.405-5.3717 5.3717-5.3717s5.3717 2.405 5.3717 5.3717z" fill="#4d4d4d" stroke-width=".57611"/>
  <g transform="matrix(.27201 0 0 .27201 198.35 -19.027)" fill="#fff" stroke-width="0" ns4:alignment="middle center" ns4:inkscapeversion="1.0.1" ns4:jacobian_sqrt="0.272009" ns4:pdfconverter="inkscape" ns4:preamble="C:\Users\jfato\AppData\Roaming\inkscape\extensions\textext\default_packages.tex" ns4:scale="0.7710482309841764" ns4:texconverter="pdflatex" ns4:text="5" ns4:version="1.3.0">
   <defs id="id-4a96e90b-97e8-4ae3-975a-495f2d3e06dd"></defs>
   <g id="id-d71aa5b4-d03b-4cd3-92fd-91c4925cd81d" transform="translate(-149.21 -128.12)" fill="#fff" stroke-width="0">
    <g id="id-60de5ce9-0cc1-4095-9c48-0eb68e08748a" fill="#fff" stroke-width="0">
     <g transform="translate(148.71 134.76)" fill="#fff" stroke-width="0">
      <path d="m4.4688-2c0-1.1875-0.8125-2.1875-1.8906-2.1875-0.46875 0-0.90625 0.15625-1.2656 0.51562v-1.9531c0.20312 0.0625 0.53125 0.125 0.84375 0.125 1.2344 0 1.9375-0.90625 1.9375-1.0312 0-0.0625-0.03125-0.10938-0.10938-0.10938 0 0-0.03125 0-0.078125 0.03125-0.20312 0.09375-0.6875 0.29688-1.3594 0.29688-0.39062 0-0.85938-0.078125-1.3281-0.28125-0.078125-0.03125-0.09375-0.03125-0.10938-0.03125-0.10938 0-0.10938 0.078125-0.10938 0.23438v2.9531c0 0.17188 0 0.25 0.14062 0.25 0.078125 0 0.09375-0.015625 0.14062-0.078125 0.10938-0.15625 0.46875-0.70312 1.2812-0.70312 0.51562 0 0.76562 0.45312 0.84375 0.64062 0.15625 0.375 0.1875 0.75 0.1875 1.25 0 0.35938 0 0.95312-0.25 1.375-0.23438 0.39062-0.60938 0.64062-1.0625 0.64062-0.71875 0-1.2969-0.53125-1.4688-1.1094 0.03125 0 0.0625 0.015625 0.17188 0.015625 0.32812 0 0.5-0.25 0.5-0.48438 0-0.25-0.17188-0.5-0.5-0.5-0.14062 0-0.48438 0.078125-0.48438 0.53125 0 0.85938 0.6875 1.8281 1.7969 1.8281 1.1562 0 2.1719-0.95312 2.1719-2.2188z" fill="#fff" stroke-width="0"/>
     </g>
    </g>
   </g>
  </g>
  <g transform="translate(-10.942 8.2032)">
   <g transform="matrix(.78852 0 0 .78852 -8.1231 -2.7294)">
    <rect x="280.72" y="-34.085" width="4.7988" height="2.5514" fill="#999" stroke="#000" stroke-width=".26858"/>
    <g transform="matrix(.27201 0 0 .27201 282.68 -33.712)" fill="#fff" stroke-width="0" ns4:alignment="middle center" ns4:inkscapeversion="1.0.1" ns4:jacobian_sqrt="1.01275" ns4:pdfconverter="inkscape" ns4:preamble="C:\Users\jfato\AppData\Roaming\inkscape\extensions\textext\default_packages.tex" ns4:scale="2.870779923918158" ns4:texconverter="pdflatex" ns4:text="1" ns4:version="1.3.0">
     <defs></defs>
     <g transform="translate(-149.6 -128.12)" fill="#fff" stroke-width="0">
      <g fill="#fff" stroke-width="0">
       <g transform="translate(148.71 134.76)" fill="#fff" stroke-width="0">
        <path d="m2.9375-6.375c0-0.25 0-0.26562-0.23438-0.26562-0.625 0.64062-1.5 0.64062-1.8125 0.64062v0.3125c0.20312 0 0.78125 0 1.2969-0.26562v5.1719c0 0.35938-0.03125 0.46875-0.92188 0.46875h-0.3125v0.3125c0.34375-0.03125 1.2031-0.03125 1.6094-0.03125 0.39062 0 1.2656 0 1.6094 0.03125v-0.3125h-0.3125c-0.90625 0-0.92188-0.10938-0.92188-0.46875z" fill="#fff" stroke-width="0"/>
       </g>
      </g>
     </g>
    </g>
   </g>
   <g transform="matrix(.79864 0 0 .79864 -10.988 -2.3607)">
    <rect x="280.76" y="-30.933" width="4.7345" height="5.1029" fill="#999" stroke="#000" stroke-width=".26858"/>
    <g transform="matrix(.27201 0 0 .27201 282.58 -29.284)" fill="#fff" stroke-width="0" ns4:alignment="middle center" ns4:inkscapeversion="1.0.1" ns4:jacobian_sqrt="1.01275" ns4:pdfconverter="inkscape" ns4:preamble="C:\Users\jfato\AppData\Roaming\inkscape\extensions\textext\default_packages.tex" ns4:scale="2.870779923918158" ns4:texconverter="pdflatex" ns4:text="2" ns4:version="1.3.0">
     <defs></defs>
     <g transform="translate(-149.21 -128.12)" fill="#fff" stroke-width="0">
      <g fill="#fff" stroke-width="0">
       <g transform="translate(148.71 134.76)" fill="#fff" stroke-width="0">
        <path d="m1.2656-0.76562 1.0625-1.0312c1.5469-1.375 2.1406-1.9062 2.1406-2.9062 0-1.1406-0.89062-1.9375-2.1094-1.9375-1.125 0-1.8594 0.92188-1.8594 1.8125 0 0.54688 0.5 0.54688 0.53125 0.54688 0.17188 0 0.51562-0.10938 0.51562-0.53125 0-0.25-0.1875-0.51562-0.53125-0.51562-0.078125 0-0.09375 0-0.125 0.015625 0.21875-0.65625 0.76562-1.0156 1.3438-1.0156 0.90625 0 1.3281 0.8125 1.3281 1.625 0 0.79688-0.48438 1.5781-1.0469 2.2031l-1.9062 2.125c-0.10938 0.10938-0.10938 0.14062-0.10938 0.375h3.7031l0.26562-1.7344h-0.23438c-0.0625 0.29688-0.125 0.73438-0.23438 0.89062-0.0625 0.078125-0.71875 0.078125-0.9375 0.078125z" fill="#fff" stroke-width="0"/>
       </g>
      </g>
     </g>
    </g>
   </g>
  </g>
  <path d="m187.95-39.052c0 2.9667-2.405 5.3717-5.3717 5.3717-2.9667 0-5.3717-2.405-5.3717-5.3717 0-2.9667 2.405-5.3717 5.3717-5.3717 2.9667 0 5.3717 2.405 5.3717 5.3717z" fill="#4d4d4d" stroke-width=".57611"/>
  <g transform="matrix(.27201 0 0 .27201 182.01 -39.985)" fill="#fff" stroke-width="0" ns4:alignment="middle center" ns4:inkscapeversion="1.0.1" ns4:jacobian_sqrt="1.01275" ns4:pdfconverter="inkscape" ns4:preamble="C:\Users\jfato\AppData\Roaming\inkscape\extensions\textext\default_packages.tex" ns4:scale="2.870779923918158" ns4:texconverter="pdflatex" ns4:text="6" ns4:version="1.3.0">
   <defs id="id-bc7ce3d7-cd04-4f15-8fa8-858bbb22118d"></defs>
   <g transform="translate(-149.13 -128.12)" fill="#fff" stroke-width="0">
    <g fill="#fff" stroke-width="0">
     <g transform="translate(148.71 134.76)" fill="#fff" stroke-width="0">
      <path id="id-f82af428-9459-43ba-a184-57fd574d0b9e" d="m1.3125-3.2656v-0.25c0-2.5156 1.2344-2.875 1.75-2.875 0.23438 0 0.65625 0.0625 0.875 0.40625-0.15625 0-0.54688 0-0.54688 0.4375 0 0.3125 0.23438 0.46875 0.45312 0.46875 0.15625 0 0.46875-0.09375 0.46875-0.48438 0-0.59375-0.4375-1.0781-1.2656-1.0781-1.2812 0-2.625 1.2812-2.625 3.4844 0 2.6719 1.1562 3.375 2.0781 3.375 1.1094 0 2.0625-0.9375 2.0625-2.25 0-1.2656-0.89062-2.2188-2-2.2188-0.67188 0-1.0469 0.5-1.25 0.98438zm1.1875 3.2031c-0.625 0-0.92188-0.59375-0.98438-0.75-0.1875-0.46875-0.1875-1.2656-0.1875-1.4375 0-0.78125 0.32812-1.7812 1.2188-1.7812 0.17188 0 0.625 0 0.9375 0.625 0.17188 0.35938 0.17188 0.875 0.17188 1.3594s0 0.98438-0.17188 1.3438c-0.29688 0.59375-0.75 0.64062-0.98438 0.64062z" fill="#fff" stroke-width="0"/>
     </g>
    </g>
   </g>
  </g>
  <g transform="matrix(.78852 0 0 .78852 -35.383 -13.182)">
   <rect x="280.72" y="-34.085" width="4.7988" height="2.5514" fill="#999" stroke="#000" stroke-width=".26858"/>
   <g transform="matrix(.27201 0 0 .27201 282.68 -33.712)" fill="#fff" stroke-width="0" ns4:alignment="middle center" ns4:inkscapeversion="1.0.1" ns4:jacobian_sqrt="1.01275" ns4:pdfconverter="inkscape" ns4:preamble="C:\Users\jfato\AppData\Roaming\inkscape\extensions\textext\default_packages.tex" ns4:scale="2.870779923918158" ns4:texconverter="pdflatex" ns4:text="1" ns4:version="1.3.0">
    <defs></defs>
    <g transform="translate(-149.6 -128.12)" fill="#fff" stroke-width="0">
     <g fill="#fff" stroke-width="0">
      <g transform="translate(148.71 134.76)" fill="#fff" stroke-width="0">
       <path d="m2.9375-6.375c0-0.25 0-0.26562-0.23438-0.26562-0.625 0.64062-1.5 0.64062-1.8125 0.64062v0.3125c0.20312 0 0.78125 0 1.2969-0.26562v5.1719c0 0.35938-0.03125 0.46875-0.92188 0.46875h-0.3125v0.3125c0.34375-0.03125 1.2031-0.03125 1.6094-0.03125 0.39062 0 1.2656 0 1.6094 0.03125v-0.3125h-0.3125c-0.90625 0-0.92188-0.10938-0.92188-0.46875z" fill="#fff" stroke-width="0"/>
      </g>
     </g>
    </g>
   </g>
  </g>
  <g transform="matrix(.27201 0 0 .27201 250.34 -27.035)" ns4:alignment="middle center" ns4:inkscapeversion="1.0.1" ns4:jacobian_sqrt="0.272009" ns4:pdfconverter="inkscape" ns4:preamble="C:\Users\jfato\AppData\Roaming\inkscape\extensions\textext\default_packages.tex" ns4:scale="0.7710482593305592" ns4:texconverter="pdflatex" ns4:text="15" ns4:version="1.3.0">
   <defs></defs>
   <g transform="translate(-149.6 -128.12)">
    <g>
     <g transform="translate(148.71 134.76)">
      <path d="m2.9375-6.375c0-0.25 0-0.26562-0.23438-0.26562-0.625 0.64062-1.5 0.64062-1.8125 0.64062v0.3125c0.20312 0 0.78125 0 1.2969-0.26562v5.1719c0 0.35938-0.03125 0.46875-0.92188 0.46875h-0.3125v0.3125c0.34375-0.03125 1.2031-0.03125 1.6094-0.03125 0.39062 0 1.2656 0 1.6094 0.03125v-0.3125h-0.3125c-0.90625 0-0.92188-0.10938-0.92188-0.46875z"/>
     </g>
     <g transform="translate(153.69 134.76)">
      <path d="m4.4688-2c0-1.1875-0.8125-2.1875-1.8906-2.1875-0.46875 0-0.90625 0.15625-1.2656 0.51562v-1.9531c0.20312 0.0625 0.53125 0.125 0.84375 0.125 1.2344 0 1.9375-0.90625 1.9375-1.0312 0-0.0625-0.03125-0.10938-0.10938-0.10938 0 0-0.03125 0-0.078125 0.03125-0.20312 0.09375-0.6875 0.29688-1.3594 0.29688-0.39062 0-0.85938-0.078125-1.3281-0.28125-0.078125-0.03125-0.09375-0.03125-0.10938-0.03125-0.10938 0-0.10938 0.078125-0.10938 0.23438v2.9531c0 0.17188 0 0.25 0.14062 0.25 0.078125 0 0.09375-0.015625 0.14062-0.078125 0.10938-0.15625 0.46875-0.70312 1.2812-0.70312 0.51562 0 0.76562 0.45312 0.84375 0.64062 0.15625 0.375 0.1875 0.75 0.1875 1.25 0 0.35938 0 0.95312-0.25 1.375-0.23438 0.39062-0.60938 0.64062-1.0625 0.64062-0.71875 0-1.2969-0.53125-1.4688-1.1094 0.03125 0 0.0625 0.015625 0.17188 0.015625 0.32812 0 0.5-0.25 0.5-0.48438 0-0.25-0.17188-0.5-0.5-0.5-0.14062 0-0.48438 0.078125-0.48438 0.53125 0 0.85938 0.6875 1.8281 1.7969 1.8281 1.1562 0 2.1719-0.95312 2.1719-2.2188z"/>
     </g>
    </g>
   </g>
  </g>
  <g transform="matrix(.27201 0 0 .27201 250.31 -41.608)" ns4:alignment="middle center" ns4:inkscapeversion="1.0.1" ns4:jacobian_sqrt="0.272009" ns4:pdfconverter="inkscape" ns4:preamble="C:\Users\jfato\AppData\Roaming\inkscape\extensions\textext\default_packages.tex" ns4:scale="0.7710482593305592" ns4:texconverter="pdflatex" ns4:text="17" ns4:version="1.3.0">
   <defs></defs>
   <g transform="translate(-149.6 -128.03)">
    <g>
     <g transform="translate(148.71 134.76)">
      <path id="id-8065b4f8-768d-4ae6-8a31-1840540a725f" d="m2.9375-6.375c0-0.25 0-0.26562-0.23438-0.26562-0.625 0.64062-1.5 0.64062-1.8125 0.64062v0.3125c0.20312 0 0.78125 0 1.2969-0.26562v5.1719c0 0.35938-0.03125 0.46875-0.92188 0.46875h-0.3125v0.3125c0.34375-0.03125 1.2031-0.03125 1.6094-0.03125 0.39062 0 1.2656 0 1.6094 0.03125v-0.3125h-0.3125c-0.90625 0-0.92188-0.10938-0.92188-0.46875z"/>
     </g>
     <g transform="translate(153.69 134.76)">
      <path d="m4.75-6.0781c0.078125-0.10938 0.078125-0.125 0.078125-0.34375h-2.4219c-1.2031 0-1.2344-0.125-1.2656-0.3125h-0.25l-0.32812 2.0469h0.25c0.03125-0.15625 0.10938-0.78125 0.25-0.90625 0.0625-0.0625 0.84375-0.0625 0.96875-0.0625h2.0625c-0.10938 0.15625-0.89062 1.25-1.1094 1.5781-0.90625 1.3438-1.2344 2.7344-1.2344 3.75 0 0.09375 0 0.54688 0.46875 0.54688 0.45312 0 0.45312-0.45312 0.45312-0.54688v-0.51562c0-0.54688 0.03125-1.0938 0.10938-1.625 0.046875-0.23438 0.17188-1.0938 0.625-1.7031z"/>
     </g>
    </g>
   </g>
  </g>
  <g transform="matrix(.27201 0 0 .27201 249.45 -53.986)" ns4:alignment="middle center" ns4:inkscapeversion="1.0.1" ns4:jacobian_sqrt="0.272009" ns4:pdfconverter="inkscape" ns4:preamble="C:\Users\jfato\AppData\Roaming\inkscape\extensions\textext\default_packages.tex" ns4:scale="0.7710482593305592" ns4:texconverter="pdflatex" ns4:text="19" ns4:version="1.3.0">
   <defs id="id-ee037543-f9ec-488e-9ef5-ec107d2994ab"></defs>
   <g id="id-05eef6c1-9165-4ff7-9adc-faae6f9c84ea" transform="translate(-149.6 -128.12)">
    <g>
     <g transform="translate(148.71 134.76)">
      <path d="m2.9375-6.375c0-0.25 0-0.26562-0.23438-0.26562-0.625 0.64062-1.5 0.64062-1.8125 0.64062v0.3125c0.20312 0 0.78125 0 1.2969-0.26562v5.1719c0 0.35938-0.03125 0.46875-0.92188 0.46875h-0.3125v0.3125c0.34375-0.03125 1.2031-0.03125 1.6094-0.03125 0.39062 0 1.2656 0 1.6094 0.03125v-0.3125h-0.3125c-0.90625 0-0.92188-0.10938-0.92188-0.46875z"/>
     </g>
     <g transform="translate(153.69 134.76)">
      <path id="id-ae593ed7-69f9-4126-ae0c-105750bee13e" d="m3.6562-3.1719v0.32812c0 2.3281-1.0312 2.7812-1.6094 2.7812-0.17188 0-0.71875-0.015625-0.98438-0.35938 0.4375 0 0.51562-0.28125 0.51562-0.45312 0-0.3125-0.23438-0.45312-0.45312-0.45312-0.15625 0-0.45312 0.078125-0.45312 0.46875 0 0.67188 0.53125 1.0781 1.375 1.0781 1.2969 0 2.5156-1.3594 2.5156-3.5 0-2.6875-1.1562-3.3594-2.0469-3.3594-0.54688 0-1.0312 0.1875-1.4531 0.625-0.42188 0.45312-0.64062 0.875-0.64062 1.625 0 1.2344 0.875 2.2188 1.9844 2.2188 0.60938 0 1.0156-0.42188 1.25-1zm-1.2344 0.76562c-0.15625 0-0.625 0-0.92188-0.625-0.1875-0.375-0.1875-0.85938-0.1875-1.3594 0-0.53125 0-1 0.21875-1.375 0.26562-0.5 0.64062-0.625 0.98438-0.625 0.46875 0 0.79688 0.34375 0.96875 0.78125 0.10938 0.32812 0.15625 0.95312 0.15625 1.4062 0 0.82812-0.34375 1.7969-1.2188 1.7969z"/>
     </g>
    </g>
   </g>
  </g>
  <g transform="matrix(.27201 0 0 .27201 226.43 -29.506)" ns4:alignment="middle center" ns4:inkscapeversion="1.0.1" ns4:jacobian_sqrt="0.272009" ns4:pdfconverter="inkscape" ns4:preamble="C:\Users\jfato\AppData\Roaming\inkscape\extensions\textext\default_packages.tex" ns4:scale="0.7710482593305592" ns4:texconverter="pdflatex" ns4:text="3" ns4:version="1.3.0">
   <defs></defs>
   <g transform="translate(-149.13 -128.12)">
    <g>
     <g transform="translate(148.71 134.76)">
      <path d="m2.8906-3.5156c0.8125-0.26562 1.3906-0.95312 1.3906-1.75 0-0.8125-0.875-1.375-1.8281-1.375-1 0-1.7656 0.59375-1.7656 1.3594 0 0.32812 0.21875 0.51562 0.51562 0.51562s0.5-0.21875 0.5-0.51562c0-0.48438-0.46875-0.48438-0.60938-0.48438 0.29688-0.5 0.95312-0.625 1.3125-0.625 0.42188 0 0.96875 0.21875 0.96875 1.1094 0 0.125-0.03125 0.70312-0.28125 1.1406-0.29688 0.48438-0.64062 0.51562-0.89062 0.51562-0.078125 0.015625-0.3125 0.03125-0.39062 0.03125-0.078125 0.015625-0.14062 0.03125-0.14062 0.125 0 0.10938 0.0625 0.10938 0.23438 0.10938h0.4375c0.8125 0 1.1875 0.67188 1.1875 1.6562 0 1.3594-0.6875 1.6406-1.125 1.6406s-1.1875-0.17188-1.5312-0.75c0.34375 0.046875 0.65625-0.17188 0.65625-0.54688 0-0.35938-0.26562-0.5625-0.54688-0.5625-0.25 0-0.5625 0.14062-0.5625 0.57812 0 0.90625 0.92188 1.5625 2.0156 1.5625 1.2188 0 2.125-0.90625 2.125-1.9219 0-0.8125-0.64062-1.5938-1.6719-1.8125z"/>
     </g>
    </g>
   </g>
  </g>
  <g transform="matrix(.27201 0 0 .27201 213.43 -65.314)" ns4:alignment="middle center" ns4:inkscapeversion="1.0.1" ns4:jacobian_sqrt="0.272009" ns4:pdfconverter="inkscape" ns4:preamble="C:\Users\jfato\AppData\Roaming\inkscape\extensions\textext\default_packages.tex" ns4:scale="0.7710482593305592" ns4:texconverter="pdflatex" ns4:text="3" ns4:version="1.3.0">
   <defs></defs>
   <g transform="translate(-149.13 -128.12)">
    <g>
     <g transform="translate(148.71 134.76)">
      <path d="m2.8906-3.5156c0.8125-0.26562 1.3906-0.95312 1.3906-1.75 0-0.8125-0.875-1.375-1.8281-1.375-1 0-1.7656 0.59375-1.7656 1.3594 0 0.32812 0.21875 0.51562 0.51562 0.51562s0.5-0.21875 0.5-0.51562c0-0.48438-0.46875-0.48438-0.60938-0.48438 0.29688-0.5 0.95312-0.625 1.3125-0.625 0.42188 0 0.96875 0.21875 0.96875 1.1094 0 0.125-0.03125 0.70312-0.28125 1.1406-0.29688 0.48438-0.64062 0.51562-0.89062 0.51562-0.078125 0.015625-0.3125 0.03125-0.39062 0.03125-0.078125 0.015625-0.14062 0.03125-0.14062 0.125 0 0.10938 0.0625 0.10938 0.23438 0.10938h0.4375c0.8125 0 1.1875 0.67188 1.1875 1.6562 0 1.3594-0.6875 1.6406-1.125 1.6406s-1.1875-0.17188-1.5312-0.75c0.34375 0.046875 0.65625-0.17188 0.65625-0.54688 0-0.35938-0.26562-0.5625-0.54688-0.5625-0.25 0-0.5625 0.14062-0.5625 0.57812 0 0.90625 0.92188 1.5625 2.0156 1.5625 1.2188 0 2.125-0.90625 2.125-1.9219 0-0.8125-0.64062-1.5938-1.6719-1.8125z"/>
     </g>
    </g>
   </g>
  </g>
  <g transform="matrix(.27201 0 0 .27201 188.38 -28.488)" ns4:alignment="middle center" ns4:inkscapeversion="1.0.1" ns4:jacobian_sqrt="0.272009" ns4:pdfconverter="inkscape" ns4:preamble="C:\Users\jfato\AppData\Roaming\inkscape\extensions\textext\default_packages.tex" ns4:scale="0.7710482593305592" ns4:texconverter="pdflatex" ns4:text="1" ns4:version="1.3.0">
   <defs></defs>
   <g transform="translate(-149.6 -128.12)">
    <g>
     <g transform="translate(148.71 134.76)">
      <path d="m2.9375-6.375c0-0.25 0-0.26562-0.23438-0.26562-0.625 0.64062-1.5 0.64062-1.8125 0.64062v0.3125c0.20312 0 0.78125 0 1.2969-0.26562v5.1719c0 0.35938-0.03125 0.46875-0.92188 0.46875h-0.3125v0.3125c0.34375-0.03125 1.2031-0.03125 1.6094-0.03125 0.39062 0 1.2656 0 1.6094 0.03125v-0.3125h-0.3125c-0.90625 0-0.92188-0.10938-0.92188-0.46875z"/>
     </g>
    </g>
   </g>
  </g>
  <g transform="matrix(.27201 0 0 .27201 196.57 -40.786)" ns4:alignment="middle center" ns4:inkscapeversion="1.0.1" ns4:jacobian_sqrt="0.272009" ns4:pdfconverter="inkscape" ns4:preamble="C:\Users\jfato\AppData\Roaming\inkscape\extensions\textext\default_packages.tex" ns4:scale="0.7710482593305592" ns4:texconverter="pdflatex" ns4:text="5" ns4:version="1.3.0">
   <defs id="id-d1f6428c-80e1-4965-a0ed-30c083ed244e"></defs>
   <g transform="translate(-149.21 -128.12)">
    <g>
     <g transform="translate(148.71 134.76)">
      <path id="id-96f7a8e8-68c0-4c7b-801e-617fef06329a" d="m4.4688-2c0-1.1875-0.8125-2.1875-1.8906-2.1875-0.46875 0-0.90625 0.15625-1.2656 0.51562v-1.9531c0.20312 0.0625 0.53125 0.125 0.84375 0.125 1.2344 0 1.9375-0.90625 1.9375-1.0312 0-0.0625-0.03125-0.10938-0.10938-0.10938 0 0-0.03125 0-0.078125 0.03125-0.20312 0.09375-0.6875 0.29688-1.3594 0.29688-0.39062 0-0.85938-0.078125-1.3281-0.28125-0.078125-0.03125-0.09375-0.03125-0.10938-0.03125-0.10938 0-0.10938 0.078125-0.10938 0.23438v2.9531c0 0.17188 0 0.25 0.14062 0.25 0.078125 0 0.09375-0.015625 0.14062-0.078125 0.10938-0.15625 0.46875-0.70312 1.2812-0.70312 0.51562 0 0.76562 0.45312 0.84375 0.64062 0.15625 0.375 0.1875 0.75 0.1875 1.25 0 0.35938 0 0.95312-0.25 1.375-0.23438 0.39062-0.60938 0.64062-1.0625 0.64062-0.71875 0-1.2969-0.53125-1.4688-1.1094 0.03125 0 0.0625 0.015625 0.17188 0.015625 0.32812 0 0.5-0.25 0.5-0.48438 0-0.25-0.17188-0.5-0.5-0.5-0.14062 0-0.48438 0.078125-0.48438 0.53125 0 0.85938 0.6875 1.8281 1.7969 1.8281 1.1562 0 2.1719-0.95312 2.1719-2.2188z"/>
     </g>
    </g>
   </g>
  </g>
  <g transform="matrix(.27201 0 0 .27201 212.79 -40.635)" ns4:alignment="middle center" ns4:inkscapeversion="1.0.1" ns4:jacobian_sqrt="0.272009" ns4:pdfconverter="inkscape" ns4:preamble="C:\Users\jfato\AppData\Roaming\inkscape\extensions\textext\default_packages.tex" ns4:scale="0.7710482593305592" ns4:texconverter="pdflatex" ns4:text="7" ns4:version="1.3.0">
   <defs id="id-87894a25-4752-4491-b435-6fa1be9e45ab"></defs>
   <g id="id-2727f5e8-c26a-45b5-8520-26339374566e" transform="translate(-149.28 -128.03)">
    <g id="id-ab1ede2d-c424-4d34-8a96-93a0bb9ec26b">
     <g transform="translate(148.71 134.76)">
      <path d="m4.75-6.0781c0.078125-0.10938 0.078125-0.125 0.078125-0.34375h-2.4219c-1.2031 0-1.2344-0.125-1.2656-0.3125h-0.25l-0.32812 2.0469h0.25c0.03125-0.15625 0.10938-0.78125 0.25-0.90625 0.0625-0.0625 0.84375-0.0625 0.96875-0.0625h2.0625c-0.10938 0.15625-0.89062 1.25-1.1094 1.5781-0.90625 1.3438-1.2344 2.7344-1.2344 3.75 0 0.09375 0 0.54688 0.46875 0.54688 0.45312 0 0.45312-0.45312 0.45312-0.54688v-0.51562c0-0.54688 0.03125-1.0938 0.10938-1.625 0.046875-0.23438 0.17188-1.0938 0.625-1.7031z"/>
     </g>
    </g>
   </g>
  </g>
  <g transform="matrix(.27201 0 0 .27201 212.86 -27.236)" ns4:alignment="middle center" ns4:inkscapeversion="1.0.1" ns4:jacobian_sqrt="0.272009" ns4:pdfconverter="inkscape" ns4:preamble="C:\Users\jfato\AppData\Roaming\inkscape\extensions\textext\default_packages.tex" ns4:scale="0.7710482593305592" ns4:texconverter="pdflatex" ns4:text="15" ns4:version="1.3.0">
   <defs></defs>
   <g transform="translate(-149.6 -128.12)">
    <g>
     <g transform="translate(148.71 134.76)">
      <path d="m2.9375-6.375c0-0.25 0-0.26562-0.23438-0.26562-0.625 0.64062-1.5 0.64062-1.8125 0.64062v0.3125c0.20312 0 0.78125 0 1.2969-0.26562v5.1719c0 0.35938-0.03125 0.46875-0.92188 0.46875h-0.3125v0.3125c0.34375-0.03125 1.2031-0.03125 1.6094-0.03125 0.39062 0 1.2656 0 1.6094 0.03125v-0.3125h-0.3125c-0.90625 0-0.92188-0.10938-0.92188-0.46875z"/>
     </g>
     <g transform="translate(153.69 134.76)">
      <path d="m4.4688-2c0-1.1875-0.8125-2.1875-1.8906-2.1875-0.46875 0-0.90625 0.15625-1.2656 0.51562v-1.9531c0.20312 0.0625 0.53125 0.125 0.84375 0.125 1.2344 0 1.9375-0.90625 1.9375-1.0312 0-0.0625-0.03125-0.10938-0.10938-0.10938 0 0-0.03125 0-0.078125 0.03125-0.20312 0.09375-0.6875 0.29688-1.3594 0.29688-0.39062 0-0.85938-0.078125-1.3281-0.28125-0.078125-0.03125-0.09375-0.03125-0.10938-0.03125-0.10938 0-0.10938 0.078125-0.10938 0.23438v2.9531c0 0.17188 0 0.25 0.14062 0.25 0.078125 0 0.09375-0.015625 0.14062-0.078125 0.10938-0.15625 0.46875-0.70312 1.2812-0.70312 0.51562 0 0.76562 0.45312 0.84375 0.64062 0.15625 0.375 0.1875 0.75 0.1875 1.25 0 0.35938 0 0.95312-0.25 1.375-0.23438 0.39062-0.60938 0.64062-1.0625 0.64062-0.71875 0-1.2969-0.53125-1.4688-1.1094 0.03125 0 0.0625 0.015625 0.17188 0.015625 0.32812 0 0.5-0.25 0.5-0.48438 0-0.25-0.17188-0.5-0.5-0.5-0.14062 0-0.48438 0.078125-0.48438 0.53125 0 0.85938 0.6875 1.8281 1.7969 1.8281 1.1562 0 2.1719-0.95312 2.1719-2.2188z"/>
     </g>
    </g>
   </g>
  </g>
  <g transform="matrix(.27201 0 0 .27201 226.39 -51.769)" ns4:alignment="middle center" ns4:inkscapeversion="1.0.1" ns4:jacobian_sqrt="0.272009" ns4:pdfconverter="inkscape" ns4:preamble="C:\Users\jfato\AppData\Roaming\inkscape\extensions\textext\default_packages.tex" ns4:scale="0.7710482593305592" ns4:texconverter="pdflatex" ns4:text="4" ns4:version="1.3.0">
   <defs id="id-0dd91e6b-7c4d-4c45-bcef-41e1f85f7c6b"></defs>
   <g id="id-6e53a0d1-4f8e-4ac4-8aa0-ee942648f9de" transform="translate(-148.99 -128.02)">
    <g id="id-e1333222-eee8-49cf-8a10-a4ed7b72c3bf">
     <g transform="translate(148.71 134.76)">
      <path d="m2.9375-1.6406v0.85938c0 0.35938-0.03125 0.46875-0.76562 0.46875h-0.20312v0.3125c0.40625-0.03125 0.92188-0.03125 1.3438-0.03125s0.9375 0 1.3594 0.03125v-0.3125h-0.21875c-0.73438 0-0.75-0.10938-0.75-0.46875v-0.85938h0.98438v-0.3125h-0.98438v-4.5312c0-0.20312 0-0.26562-0.17188-0.26562-0.078125 0-0.10938 0-0.1875 0.125l-3.0625 4.6719v0.3125zm0.046875-0.3125h-2.4219l2.4219-3.7188z"/>
     </g>
    </g>
   </g>
  </g>
 </g>
</svg>
